<svg width="20" height="20" viewBox="0 0 20 20" fill="none" xmlns="http://www.w3.org/2000/svg">
<path d="M7.83337 14.4109C7.67711 14.5672 7.58937 14.7793 7.58945 15.0003C7.58953 15.2214 7.67742 15.4334 7.83378 15.5896C7.99015 15.7459 8.20219 15.8336 8.42324 15.8336C8.6443 15.8335 8.85627 15.7456 9.01253 15.5892L12.8334 11.7676C13.302 11.2987 13.5653 10.663 13.5653 10.0001C13.5653 9.33714 13.302 8.70137 12.8334 8.23255L9.0092 4.41088C8.85053 4.26742 8.64276 4.19046 8.42891 4.19595C8.21507 4.20144 8.01152 4.28896 7.86042 4.44038C7.70932 4.5918 7.62224 4.79553 7.6172 5.00939C7.61217 5.22325 7.68956 5.43085 7.83337 5.58922L11.655 9.41088C11.8113 9.56716 11.899 9.77908 11.899 10.0001C11.899 10.221 11.8113 10.4329 11.655 10.5892L7.83337 14.4109Z" fill="#FD9827"/>
</svg>
