<svg width="156" height="233" viewBox="0 0 156 233" fill="none" xmlns="http://www.w3.org/2000/svg">
<g clip-path="url(#clip0)">
<path d="M0 10C0 4.47715 4.47715 0 10 0H146C151.523 0 156 4.47715 156 10V223C156 228.523 151.523 233 146 233H10C4.47716 233 0 228.523 0 223V10Z" fill="#FAFAFA"/>
<mask id="path-3-inside-1" fill="white">
<path fill-rule="evenodd" clip-rule="evenodd" d="M139.2 80.0561L139.2 75.874L114.6 75.874L114.6 80.0561L115.2 80.0561L115.2 82.4458L118.8 82.4458L118.8 87.2253L124.8 87.2253L124.8 88.4202L126.6 88.4202L126.6 87.2253L135 87.2253L135 82.4458L138.6 82.4458L138.6 80.0561L139.2 80.0561Z"/>
</mask>
<path fill-rule="evenodd" clip-rule="evenodd" d="M139.2 80.0561L139.2 75.874L114.6 75.874L114.6 80.0561L115.2 80.0561L115.2 82.4458L118.8 82.4458L118.8 87.2253L124.8 87.2253L124.8 88.4202L126.6 88.4202L126.6 87.2253L135 87.2253L135 82.4458L138.6 82.4458L138.6 80.0561L139.2 80.0561Z" fill="#D7D7D7"/>
<path d="M139.2 75.874L139.5 75.874L139.5 75.574L139.2 75.574L139.2 75.874ZM139.2 80.0561L139.2 80.3561L139.5 80.3561L139.5 80.0561L139.2 80.0561ZM114.6 75.874L114.6 75.574L114.3 75.574L114.3 75.874L114.6 75.874ZM114.6 80.0561L114.3 80.0561L114.3 80.3561L114.6 80.3561L114.6 80.0561ZM115.2 80.0561L115.5 80.0561L115.5 79.7561L115.2 79.7561L115.2 80.0561ZM115.2 82.4458L114.9 82.4458L114.9 82.7458L115.2 82.7458L115.2 82.4458ZM118.8 82.4458L119.1 82.4458L119.1 82.1458L118.8 82.1458L118.8 82.4458ZM118.8 87.2253L118.5 87.2253L118.5 87.5253L118.8 87.5253L118.8 87.2253ZM124.8 87.2253L125.1 87.2253L125.1 86.9253L124.8 86.9253L124.8 87.2253ZM124.8 88.4202L124.5 88.4202L124.5 88.7202L124.8 88.7202L124.8 88.4202ZM126.6 88.4202L126.6 88.7202L126.9 88.7202L126.9 88.4202L126.6 88.4202ZM126.6 87.2253L126.6 86.9253L126.3 86.9253L126.3 87.2253L126.6 87.2253ZM135 87.2253L135 87.5253L135.3 87.5253L135.3 87.2253L135 87.2253ZM135 82.4458L135 82.1458L134.7 82.1458L134.7 82.4458L135 82.4458ZM138.6 82.4458L138.6 82.7458L138.9 82.7458L138.9 82.4458L138.6 82.4458ZM138.6 80.0561L138.6 79.7561L138.3 79.7561L138.3 80.0561L138.6 80.0561ZM138.9 75.874L138.9 80.0561L139.5 80.0561L139.5 75.874L138.9 75.874ZM114.6 76.174L139.2 76.174L139.2 75.574L114.6 75.574L114.6 76.174ZM114.9 80.0561L114.9 75.874L114.3 75.874L114.3 80.0561L114.9 80.0561ZM115.2 79.7561L114.6 79.7561L114.6 80.3561L115.2 80.3561L115.2 79.7561ZM115.5 82.4458L115.5 80.0561L114.9 80.0561L114.9 82.4458L115.5 82.4458ZM118.8 82.1458L115.2 82.1458L115.2 82.7458L118.8 82.7458L118.8 82.1458ZM119.1 87.2253L119.1 82.4458L118.5 82.4458L118.5 87.2253L119.1 87.2253ZM124.8 86.9253L118.8 86.9253L118.8 87.5253L124.8 87.5253L124.8 86.9253ZM125.1 88.4202L125.1 87.2253L124.5 87.2253L124.5 88.4202L125.1 88.4202ZM126.6 88.1202L124.8 88.1202L124.8 88.7202L126.6 88.7202L126.6 88.1202ZM126.3 87.2253L126.3 88.4202L126.9 88.4202L126.9 87.2253L126.3 87.2253ZM135 86.9253L126.6 86.9253L126.6 87.5253L135 87.5253L135 86.9253ZM134.7 82.4458L134.7 87.2253L135.3 87.2253L135.3 82.4458L134.7 82.4458ZM138.6 82.1458L135 82.1458L135 82.7458L138.6 82.7458L138.6 82.1458ZM138.3 80.0561L138.3 82.4458L138.9 82.4458L138.9 80.0561L138.3 80.0561ZM139.2 79.7561L138.6 79.7561L138.6 80.3561L139.2 80.3561L139.2 79.7561Z" fill="#B9B9B9" mask="url(#path-3-inside-1)"/>
<path d="M126.891 83.3134C127.707 83.3134 128.292 82.8642 128.29 82.2427C128.292 81.79 128.004 81.4668 127.47 81.3993V81.3709C127.876 81.2981 128.157 81.0105 128.155 80.6021C128.157 80.0286 127.654 79.5776 126.901 79.5776C126.156 79.5776 125.595 80.0144 125.584 80.6429H126.321C126.33 80.3659 126.584 80.1866 126.898 80.1866C127.209 80.1866 127.416 80.3748 127.414 80.6483C127.416 80.9341 127.173 81.1277 126.823 81.1277H126.484V81.6923H126.823C127.235 81.6923 127.493 81.8983 127.491 82.1912C127.493 82.4806 127.244 82.6795 126.892 82.6795C126.553 82.6795 126.299 82.502 126.285 82.2356H125.511C125.524 82.8713 126.092 83.3134 126.891 83.3134Z" fill="#303030"/>
<mask id="path-6-inside-2" fill="white">
<path fill-rule="evenodd" clip-rule="evenodd" d="M147 110.526L147 114.708L122.4 114.708L122.4 110.526L123 110.526L123 108.136L126.6 108.136L126.6 103.357L132.6 103.357L132.6 102.162L134.4 102.162L134.4 103.357L142.8 103.357L142.8 108.136L146.4 108.136L146.4 110.526L147 110.526Z"/>
</mask>
<path fill-rule="evenodd" clip-rule="evenodd" d="M147 110.526L147 114.708L122.4 114.708L122.4 110.526L123 110.526L123 108.136L126.6 108.136L126.6 103.357L132.6 103.357L132.6 102.162L134.4 102.162L134.4 103.357L142.8 103.357L142.8 108.136L146.4 108.136L146.4 110.526L147 110.526Z" fill="#D7D7D7"/>
<path d="M147 114.708L147.3 114.708L147.3 115.008L147 115.008L147 114.708ZM147 110.526L147 110.226L147.3 110.226L147.3 110.526L147 110.526ZM122.4 114.708L122.4 115.008L122.1 115.008L122.1 114.708L122.4 114.708ZM122.4 110.526L122.1 110.526L122.1 110.226L122.4 110.226L122.4 110.526ZM123 110.526L123.3 110.526L123.3 110.826L123 110.826L123 110.526ZM123 108.136L122.7 108.136L122.7 107.836L123 107.836L123 108.136ZM126.6 108.136L126.9 108.136L126.9 108.436L126.6 108.436L126.6 108.136ZM126.6 103.357L126.3 103.357L126.3 103.057L126.6 103.057L126.6 103.357ZM132.6 103.357L132.9 103.357L132.9 103.657L132.6 103.657L132.6 103.357ZM132.6 102.162L132.3 102.162L132.3 101.862L132.6 101.862L132.6 102.162ZM134.4 102.162L134.4 101.862L134.7 101.862L134.7 102.162L134.4 102.162ZM134.4 103.357L134.4 103.657L134.1 103.657L134.1 103.357L134.4 103.357ZM142.8 103.357L142.8 103.057L143.1 103.057L143.1 103.357L142.8 103.357ZM142.8 108.136L142.8 108.436L142.5 108.436L142.5 108.136L142.8 108.136ZM146.4 108.136L146.4 107.836L146.7 107.836L146.7 108.136L146.4 108.136ZM146.4 110.526L146.4 110.826L146.1 110.826L146.1 110.526L146.4 110.526ZM146.7 114.708L146.7 110.526L147.3 110.526L147.3 114.708L146.7 114.708ZM122.4 114.408L147 114.408L147 115.008L122.4 115.008L122.4 114.408ZM122.7 110.526L122.7 114.708L122.1 114.708L122.1 110.526L122.7 110.526ZM123 110.826L122.4 110.826L122.4 110.226L123 110.226L123 110.826ZM123.3 108.136L123.3 110.526L122.7 110.526L122.7 108.136L123.3 108.136ZM126.6 108.436L123 108.436L123 107.836L126.6 107.836L126.6 108.436ZM126.9 103.357L126.9 108.136L126.3 108.136L126.3 103.357L126.9 103.357ZM132.6 103.657L126.6 103.657L126.6 103.057L132.6 103.057L132.6 103.657ZM132.9 102.162L132.9 103.357L132.3 103.357L132.3 102.162L132.9 102.162ZM134.4 102.462L132.6 102.462L132.6 101.862L134.4 101.862L134.4 102.462ZM134.1 103.357L134.1 102.162L134.7 102.162L134.7 103.357L134.1 103.357ZM142.8 103.657L134.4 103.657L134.4 103.057L142.8 103.057L142.8 103.657ZM142.5 108.136L142.5 103.357L143.1 103.357L143.1 108.136L142.5 108.136ZM146.4 108.436L142.8 108.436L142.8 107.836L146.4 107.836L146.4 108.436ZM146.1 110.526L146.1 108.136L146.7 108.136L146.7 110.526L146.1 110.526ZM147 110.826L146.4 110.826L146.4 110.226L147 110.226L147 110.826Z" fill="#B9B9B9" mask="url(#path-6-inside-2)"/>
<path d="M133.651 110.746H134.445L135.954 107.747V107.11H133.403V107.738H135.159V107.763L133.651 110.746Z" fill="#303030"/>
<mask id="path-9-inside-3" fill="white">
<path fill-rule="evenodd" clip-rule="evenodd" d="M139.2 137.411L139.2 133.229L114.6 133.229L114.6 137.411L115.2 137.411L115.2 139.8L118.8 139.8L118.8 144.58L124.8 144.58L124.8 145.775L126.6 145.775L126.6 144.58L135 144.58L135 139.8L138.6 139.8L138.6 137.411L139.2 137.411Z"/>
</mask>
<path fill-rule="evenodd" clip-rule="evenodd" d="M139.2 137.411L139.2 133.229L114.6 133.229L114.6 137.411L115.2 137.411L115.2 139.8L118.8 139.8L118.8 144.58L124.8 144.58L124.8 145.775L126.6 145.775L126.6 144.58L135 144.58L135 139.8L138.6 139.8L138.6 137.411L139.2 137.411Z" fill="#D7D7D7"/>
<path d="M139.2 133.229L139.5 133.229L139.5 132.929L139.2 132.929L139.2 133.229ZM139.2 137.411L139.2 137.711L139.5 137.711L139.5 137.411L139.2 137.411ZM114.6 133.229L114.6 132.929L114.3 132.929L114.3 133.229L114.6 133.229ZM114.6 137.411L114.3 137.411L114.3 137.711L114.6 137.711L114.6 137.411ZM115.2 137.411L115.5 137.411L115.5 137.111L115.2 137.111L115.2 137.411ZM115.2 139.8L114.9 139.8L114.9 140.1L115.2 140.1L115.2 139.8ZM118.8 139.8L119.1 139.8L119.1 139.5L118.8 139.5L118.8 139.8ZM118.8 144.58L118.5 144.58L118.5 144.88L118.8 144.88L118.8 144.58ZM124.8 144.58L125.1 144.58L125.1 144.28L124.8 144.28L124.8 144.58ZM124.8 145.775L124.5 145.775L124.5 146.075L124.8 146.075L124.8 145.775ZM126.6 145.775L126.6 146.075L126.9 146.075L126.9 145.775L126.6 145.775ZM126.6 144.58L126.6 144.28L126.3 144.28L126.3 144.58L126.6 144.58ZM135 144.58L135 144.88L135.3 144.88L135.3 144.58L135 144.58ZM135 139.8L135 139.5L134.7 139.5L134.7 139.8L135 139.8ZM138.6 139.8L138.6 140.1L138.9 140.1L138.9 139.8L138.6 139.8ZM138.6 137.411L138.6 137.111L138.3 137.111L138.3 137.411L138.6 137.411ZM138.9 133.229L138.9 137.411L139.5 137.411L139.5 133.229L138.9 133.229ZM114.6 133.529L139.2 133.529L139.2 132.929L114.6 132.929L114.6 133.529ZM114.9 137.411L114.9 133.229L114.3 133.229L114.3 137.411L114.9 137.411ZM115.2 137.111L114.6 137.111L114.6 137.711L115.2 137.711L115.2 137.111ZM115.5 139.8L115.5 137.411L114.9 137.411L114.9 139.8L115.5 139.8ZM118.8 139.5L115.2 139.5L115.2 140.1L118.8 140.1L118.8 139.5ZM119.1 144.58L119.1 139.8L118.5 139.8L118.5 144.58L119.1 144.58ZM124.8 144.28L118.8 144.28L118.8 144.88L124.8 144.88L124.8 144.28ZM125.1 145.775L125.1 144.58L124.5 144.58L124.5 145.775L125.1 145.775ZM126.6 145.475L124.8 145.475L124.8 146.075L126.6 146.075L126.6 145.475ZM126.3 144.58L126.3 145.775L126.9 145.775L126.9 144.58L126.3 144.58ZM135 144.28L126.6 144.28L126.6 144.88L135 144.88L135 144.28ZM134.7 139.8L134.7 144.58L135.3 144.58L135.3 139.8L134.7 139.8ZM138.6 139.5L135 139.5L135 140.1L138.6 140.1L138.6 139.5ZM138.3 137.411L138.3 139.8L138.9 139.8L138.9 137.411L138.3 137.411ZM139.2 137.111L138.6 137.111L138.6 137.711L139.2 137.711L139.2 137.111Z" fill="#B9B9B9" mask="url(#path-9-inside-3)"/>
<path d="M125.832 136.384H125.11L124.209 136.954V137.636L125.042 137.114H125.063V140.021H125.832V136.384ZM128.122 140.1C129.037 140.1 129.589 139.404 129.591 138.206C129.592 137.016 129.033 136.334 128.122 136.334C127.21 136.334 126.656 137.014 126.654 138.206C126.65 139.401 127.206 140.099 128.122 140.1ZM128.122 139.463C127.705 139.463 127.435 139.044 127.437 138.206C127.439 137.38 127.707 136.965 128.122 136.965C128.536 136.965 128.806 137.38 128.806 138.206C128.808 139.044 128.538 139.463 128.122 139.463Z" fill="#303030"/>
<mask id="path-12-inside-4" fill="white">
<path fill-rule="evenodd" clip-rule="evenodd" d="M105 137.411L105 133.229L80.4 133.229L80.4 137.411L81 137.411L81 139.8L84.6 139.8L84.6 144.58L90.6 144.58L90.6 145.775L92.4 145.775L92.4 144.58L100.8 144.58L100.8 139.8L104.4 139.8L104.4 137.411L105 137.411Z"/>
</mask>
<path fill-rule="evenodd" clip-rule="evenodd" d="M105 137.411L105 133.229L80.4 133.229L80.4 137.411L81 137.411L81 139.8L84.6 139.8L84.6 144.58L90.6 144.58L90.6 145.775L92.4 145.775L92.4 144.58L100.8 144.58L100.8 139.8L104.4 139.8L104.4 137.411L105 137.411Z" fill="#D7D7D7"/>
<path d="M105 133.229L105.3 133.229L105.3 132.929L105 132.929L105 133.229ZM105 137.411L105 137.711L105.3 137.711L105.3 137.411L105 137.411ZM80.4 133.229L80.4 132.929L80.1 132.929L80.1 133.229L80.4 133.229ZM80.4 137.411L80.1 137.411L80.1 137.711L80.4 137.711L80.4 137.411ZM81 137.411L81.3 137.411L81.3 137.111L81 137.111L81 137.411ZM81 139.8L80.7 139.8L80.7 140.1L81 140.1L81 139.8ZM84.6 139.8L84.9 139.8L84.9 139.5L84.6 139.5L84.6 139.8ZM84.6 144.58L84.3 144.58L84.3 144.88L84.6 144.88L84.6 144.58ZM90.6 144.58L90.9 144.58L90.9 144.28L90.6 144.28L90.6 144.58ZM90.6 145.775L90.3 145.775L90.3 146.075L90.6 146.075L90.6 145.775ZM92.4 145.775L92.4 146.075L92.7 146.075L92.7 145.775L92.4 145.775ZM92.4 144.58L92.4 144.28L92.1 144.28L92.1 144.58L92.4 144.58ZM100.8 144.58L100.8 144.88L101.1 144.88L101.1 144.58L100.8 144.58ZM100.8 139.8L100.8 139.5L100.5 139.5L100.5 139.8L100.8 139.8ZM104.4 139.8L104.4 140.1L104.7 140.1L104.7 139.8L104.4 139.8ZM104.4 137.411L104.4 137.111L104.1 137.111L104.1 137.411L104.4 137.411ZM104.7 133.229L104.7 137.411L105.3 137.411L105.3 133.229L104.7 133.229ZM80.4 133.529L105 133.529L105 132.929L80.4 132.929L80.4 133.529ZM80.7 137.411L80.7 133.229L80.1 133.229L80.1 137.411L80.7 137.411ZM81 137.111L80.4 137.111L80.4 137.711L81 137.711L81 137.111ZM81.3 139.8L81.3 137.411L80.7 137.411L80.7 139.8L81.3 139.8ZM84.6 139.5L81 139.5L81 140.1L84.6 140.1L84.6 139.5ZM84.9 144.58L84.9 139.8L84.3 139.8L84.3 144.58L84.9 144.58ZM90.6 144.28L84.6 144.28L84.6 144.88L90.6 144.88L90.6 144.28ZM90.9 145.775L90.9 144.58L90.3 144.58L90.3 145.775L90.9 145.775ZM92.4 145.475L90.6 145.475L90.6 146.075L92.4 146.075L92.4 145.475ZM92.1 144.58L92.1 145.775L92.7 145.775L92.7 144.58L92.1 144.58ZM100.8 144.28L92.4 144.28L92.4 144.88L100.8 144.88L100.8 144.28ZM100.5 139.8L100.5 144.58L101.1 144.58L101.1 139.8L100.5 139.8ZM104.4 139.5L100.8 139.5L100.8 140.1L104.4 140.1L104.4 139.5ZM104.1 137.411L104.1 139.8L104.7 139.8L104.7 137.411L104.1 137.411ZM105 137.111L104.4 137.111L104.4 137.711L105 137.711L105 137.111Z" fill="#B9B9B9" mask="url(#path-12-inside-4)"/>
<path d="M92.1301 136.384H91.4074L90.5072 136.954V137.636L91.34 137.114H91.3613V140.021H92.1301V136.384ZM94.5764 136.384H93.8537L92.9535 136.954V137.636L93.7863 137.114H93.8076V140.021H94.5764V136.384Z" fill="#303030"/>
<mask id="path-15-inside-5" fill="white">
<path fill-rule="evenodd" clip-rule="evenodd" d="M67.7998 137.411L67.7998 133.229L43.1998 133.229L43.1998 137.411L43.7998 137.411L43.7998 139.8L47.3998 139.8L47.3998 144.58L53.3998 144.58L53.3998 145.775L55.1998 145.775L55.1998 144.58L63.5998 144.58L63.5998 139.8L67.1998 139.8L67.1998 137.411L67.7998 137.411Z"/>
</mask>
<path fill-rule="evenodd" clip-rule="evenodd" d="M67.7998 137.411L67.7998 133.229L43.1998 133.229L43.1998 137.411L43.7998 137.411L43.7998 139.8L47.3998 139.8L47.3998 144.58L53.3998 144.58L53.3998 145.775L55.1998 145.775L55.1998 144.58L63.5998 144.58L63.5998 139.8L67.1998 139.8L67.1998 137.411L67.7998 137.411Z" fill="#D7D7D7"/>
<path d="M67.7998 133.229L68.0998 133.229L68.0998 132.929L67.7998 132.929L67.7998 133.229ZM67.7998 137.411L67.7998 137.711L68.0998 137.711L68.0998 137.411L67.7998 137.411ZM43.1998 133.229L43.1998 132.929L42.8998 132.929L42.8998 133.229L43.1998 133.229ZM43.1998 137.411L42.8998 137.411L42.8998 137.711L43.1998 137.711L43.1998 137.411ZM43.7998 137.411L44.0998 137.411L44.0998 137.111L43.7998 137.111L43.7998 137.411ZM43.7998 139.8L43.4998 139.8L43.4998 140.1L43.7998 140.1L43.7998 139.8ZM47.3998 139.8L47.6998 139.8L47.6998 139.5L47.3998 139.5L47.3998 139.8ZM47.3998 144.58L47.0998 144.58L47.0998 144.88L47.3998 144.88L47.3998 144.58ZM53.3998 144.58L53.6998 144.58L53.6998 144.28L53.3998 144.28L53.3998 144.58ZM53.3998 145.775L53.0998 145.775L53.0998 146.075L53.3998 146.075L53.3998 145.775ZM55.1998 145.775L55.1998 146.075L55.4998 146.075L55.4998 145.775L55.1998 145.775ZM55.1998 144.58L55.1998 144.28L54.8998 144.28L54.8998 144.58L55.1998 144.58ZM63.5998 144.58L63.5998 144.88L63.8998 144.88L63.8998 144.58L63.5998 144.58ZM63.5998 139.8L63.5998 139.5L63.2998 139.5L63.2998 139.8L63.5998 139.8ZM67.1998 139.8L67.1998 140.1L67.4998 140.1L67.4998 139.8L67.1998 139.8ZM67.1998 137.411L67.1998 137.111L66.8998 137.111L66.8998 137.411L67.1998 137.411ZM67.4998 133.229L67.4998 137.411L68.0998 137.411L68.0998 133.229L67.4998 133.229ZM43.1998 133.529L67.7998 133.529L67.7998 132.929L43.1998 132.929L43.1998 133.529ZM43.4998 137.411L43.4998 133.229L42.8998 133.229L42.8998 137.411L43.4998 137.411ZM43.7998 137.111L43.1998 137.111L43.1998 137.711L43.7998 137.711L43.7998 137.111ZM44.0998 139.8L44.0998 137.411L43.4998 137.411L43.4998 139.8L44.0998 139.8ZM47.3998 139.5L43.7998 139.5L43.7998 140.1L47.3998 140.1L47.3998 139.5ZM47.6998 144.58L47.6998 139.8L47.0998 139.8L47.0998 144.58L47.6998 144.58ZM53.3998 144.28L47.3998 144.28L47.3998 144.88L53.3998 144.88L53.3998 144.28ZM53.6998 145.775L53.6998 144.58L53.0998 144.58L53.0998 145.775L53.6998 145.775ZM55.1998 145.475L53.3998 145.475L53.3998 146.075L55.1998 146.075L55.1998 145.475ZM54.8998 144.58L54.8998 145.775L55.4998 145.775L55.4998 144.58L54.8998 144.58ZM63.5998 144.28L55.1998 144.28L55.1998 144.88L63.5998 144.88L63.5998 144.28ZM63.2998 139.8L63.2998 144.58L63.8998 144.58L63.8998 139.8L63.2998 139.8ZM67.1998 139.5L63.5998 139.5L63.5998 140.1L67.1998 140.1L67.1998 139.5ZM66.8998 137.411L66.8998 139.8L67.4998 139.8L67.4998 137.411L66.8998 137.411ZM67.7998 137.111L67.1998 137.111L67.1998 137.711L67.7998 137.711L67.7998 137.111Z" fill="#B9B9B9" mask="url(#path-15-inside-5)"/>
<path d="M54.5793 136.384H53.8567L52.9564 136.954V137.636L53.7892 137.114H53.8105V140.021H54.5793V136.384ZM55.4436 140.021H58.0359V139.392H56.5089V139.367L57.0398 138.847C57.7873 138.165 57.988 137.824 57.988 137.41C57.988 136.78 57.473 136.334 56.6936 136.334C55.9301 136.334 55.4063 136.791 55.4081 137.505H56.1378C56.136 137.157 56.3562 136.943 56.6882 136.943C57.0078 136.943 57.2458 137.142 57.2458 137.462C57.2458 137.751 57.0682 137.95 56.738 138.268L55.4436 139.467V140.021Z" fill="#303030"/>
<mask id="path-18-inside-6" fill="white">
<path fill-rule="evenodd" clip-rule="evenodd" d="M33.5996 137.411L33.5996 133.229L8.99961 133.229L8.99961 137.411L9.59961 137.411L9.59961 139.8L13.1996 139.8L13.1996 144.58L19.1996 144.58L19.1996 145.775L20.9996 145.775L20.9996 144.58L29.3996 144.58L29.3996 139.8L32.9996 139.8L32.9996 137.411L33.5996 137.411Z"/>
</mask>
<path fill-rule="evenodd" clip-rule="evenodd" d="M33.5996 137.411L33.5996 133.229L8.99961 133.229L8.99961 137.411L9.59961 137.411L9.59961 139.8L13.1996 139.8L13.1996 144.58L19.1996 144.58L19.1996 145.775L20.9996 145.775L20.9996 144.58L29.3996 144.58L29.3996 139.8L32.9996 139.8L32.9996 137.411L33.5996 137.411Z" fill="#D7D7D7"/>
<path d="M33.5996 133.229L33.8996 133.229L33.8996 132.929L33.5996 132.929L33.5996 133.229ZM33.5996 137.411L33.5996 137.711L33.8996 137.711L33.8996 137.411L33.5996 137.411ZM8.99961 133.229L8.99961 132.929L8.69961 132.929L8.69961 133.229L8.99961 133.229ZM8.99961 137.411L8.69961 137.411L8.69961 137.711L8.99961 137.711L8.99961 137.411ZM9.59961 137.411L9.89961 137.411L9.89961 137.111L9.59961 137.111L9.59961 137.411ZM9.59961 139.8L9.29961 139.8L9.29961 140.1L9.59961 140.1L9.59961 139.8ZM13.1996 139.8L13.4996 139.8L13.4996 139.5L13.1996 139.5L13.1996 139.8ZM13.1996 144.58L12.8996 144.58L12.8996 144.88L13.1996 144.88L13.1996 144.58ZM19.1996 144.58L19.4996 144.58L19.4996 144.28L19.1996 144.28L19.1996 144.58ZM19.1996 145.775L18.8996 145.775L18.8996 146.075L19.1996 146.075L19.1996 145.775ZM20.9996 145.775L20.9996 146.075L21.2996 146.075L21.2996 145.775L20.9996 145.775ZM20.9996 144.58L20.9996 144.28L20.6996 144.28L20.6996 144.58L20.9996 144.58ZM29.3996 144.58L29.3996 144.88L29.6996 144.88L29.6996 144.58L29.3996 144.58ZM29.3996 139.8L29.3996 139.5L29.0996 139.5L29.0996 139.8L29.3996 139.8ZM32.9996 139.8L32.9996 140.1L33.2996 140.1L33.2996 139.8L32.9996 139.8ZM32.9996 137.411L32.9996 137.111L32.6996 137.111L32.6996 137.411L32.9996 137.411ZM33.2996 133.229L33.2996 137.411L33.8996 137.411L33.8996 133.229L33.2996 133.229ZM8.99961 133.529L33.5996 133.529L33.5996 132.929L8.99961 132.929L8.99961 133.529ZM9.29961 137.411L9.29961 133.229L8.69961 133.229L8.69961 137.411L9.29961 137.411ZM9.59961 137.111L8.99961 137.111L8.99961 137.711L9.59961 137.711L9.59961 137.111ZM9.89961 139.8L9.89961 137.411L9.29961 137.411L9.29961 139.8L9.89961 139.8ZM13.1996 139.5L9.59961 139.5L9.59961 140.1L13.1996 140.1L13.1996 139.5ZM13.4996 144.58L13.4996 139.8L12.8996 139.8L12.8996 144.58L13.4996 144.58ZM19.1996 144.28L13.1996 144.28L13.1996 144.88L19.1996 144.88L19.1996 144.28ZM19.4996 145.775L19.4996 144.58L18.8996 144.58L18.8996 145.775L19.4996 145.775ZM20.9996 145.475L19.1996 145.475L19.1996 146.075L20.9996 146.075L20.9996 145.475ZM20.6996 144.58L20.6996 145.775L21.2996 145.775L21.2996 144.58L20.6996 144.58ZM29.3996 144.28L20.9996 144.28L20.9996 144.88L29.3996 144.88L29.3996 144.28ZM29.0996 139.8L29.0996 144.58L29.6996 144.58L29.6996 139.8L29.0996 139.8ZM32.9996 139.5L29.3996 139.5L29.3996 140.1L32.9996 140.1L32.9996 139.5ZM32.6996 137.411L32.6996 139.8L33.2996 139.8L33.2996 137.411L32.6996 137.411ZM33.5996 137.111L32.9996 137.111L32.9996 137.711L33.5996 137.711L33.5996 137.111Z" fill="#B9B9B9" mask="url(#path-18-inside-6)"/>
<path d="M20.3059 136.384H19.5832L18.683 136.954V137.636L19.5157 137.114H19.5371V140.021H20.3059V136.384ZM22.5142 140.07C23.331 140.07 23.9152 139.621 23.9134 139C23.9152 138.547 23.6275 138.224 23.0931 138.156V138.128C23.4997 138.055 23.7802 137.767 23.7784 137.359C23.7802 136.785 23.2777 136.334 22.5249 136.334C21.7792 136.334 21.2181 136.771 21.2074 137.4H21.9443C21.9532 137.123 22.2071 136.943 22.5213 136.943C22.8321 136.943 23.0398 137.132 23.038 137.405C23.0398 137.691 22.7966 137.884 22.4468 137.884H22.1076V138.449H22.4468C22.8587 138.449 23.1162 138.655 23.1144 138.948C23.1162 139.237 22.8676 139.436 22.516 139.436C22.1769 139.436 21.923 139.259 21.9088 138.992H21.1346C21.1471 139.628 21.7152 140.07 22.5142 140.07Z" fill="#303030"/>
<mask id="path-21-inside-7" fill="white">
<path fill-rule="evenodd" clip-rule="evenodd" d="M112.2 110.526L112.2 114.708L87.6002 114.708L87.6002 110.526L88.2002 110.526L88.2002 108.136L91.8002 108.136L91.8002 103.357L97.8002 103.357L97.8002 102.162L99.6002 102.162L99.6002 103.357L108 103.357L108 108.136L111.6 108.136L111.6 110.526L112.2 110.526Z"/>
</mask>
<path fill-rule="evenodd" clip-rule="evenodd" d="M112.2 110.526L112.2 114.708L87.6002 114.708L87.6002 110.526L88.2002 110.526L88.2002 108.136L91.8002 108.136L91.8002 103.357L97.8002 103.357L97.8002 102.162L99.6002 102.162L99.6002 103.357L108 103.357L108 108.136L111.6 108.136L111.6 110.526L112.2 110.526Z" fill="#D7D7D7"/>
<path d="M112.2 114.708L112.5 114.708L112.5 115.008L112.2 115.008L112.2 114.708ZM112.2 110.526L112.2 110.226L112.5 110.226L112.5 110.526L112.2 110.526ZM87.6002 114.708L87.6002 115.008L87.3002 115.008L87.3002 114.708L87.6002 114.708ZM87.6002 110.526L87.3002 110.526L87.3002 110.226L87.6002 110.226L87.6002 110.526ZM88.2002 110.526L88.5002 110.526L88.5002 110.826L88.2002 110.826L88.2002 110.526ZM88.2002 108.136L87.9002 108.136L87.9002 107.836L88.2002 107.836L88.2002 108.136ZM91.8002 108.136L92.1002 108.136L92.1002 108.436L91.8002 108.436L91.8002 108.136ZM91.8002 103.357L91.5002 103.357L91.5002 103.057L91.8002 103.057L91.8002 103.357ZM97.8002 103.357L98.1002 103.357L98.1002 103.657L97.8002 103.657L97.8002 103.357ZM97.8002 102.162L97.5002 102.162L97.5002 101.862L97.8002 101.862L97.8002 102.162ZM99.6002 102.162L99.6002 101.862L99.9002 101.862L99.9002 102.162L99.6002 102.162ZM99.6002 103.357L99.6002 103.657L99.3002 103.657L99.3002 103.357L99.6002 103.357ZM108 103.357L108 103.057L108.3 103.057L108.3 103.357L108 103.357ZM108 108.136L108 108.436L107.7 108.436L107.7 108.136L108 108.136ZM111.6 108.136L111.6 107.836L111.9 107.836L111.9 108.136L111.6 108.136ZM111.6 110.526L111.6 110.826L111.3 110.826L111.3 110.526L111.6 110.526ZM111.9 114.708L111.9 110.526L112.5 110.526L112.5 114.708L111.9 114.708ZM87.6002 114.408L112.2 114.408L112.2 115.008L87.6002 115.008L87.6002 114.408ZM87.9002 110.526L87.9002 114.708L87.3002 114.708L87.3002 110.526L87.9002 110.526ZM88.2002 110.826L87.6002 110.826L87.6002 110.226L88.2002 110.226L88.2002 110.826ZM88.5002 108.136L88.5002 110.526L87.9002 110.526L87.9002 108.136L88.5002 108.136ZM91.8002 108.436L88.2002 108.436L88.2002 107.836L91.8002 107.836L91.8002 108.436ZM92.1002 103.357L92.1002 108.136L91.5002 108.136L91.5002 103.357L92.1002 103.357ZM97.8002 103.657L91.8002 103.657L91.8002 103.057L97.8002 103.057L97.8002 103.657ZM98.1002 102.162L98.1002 103.357L97.5002 103.357L97.5002 102.162L98.1002 102.162ZM99.6002 102.462L97.8002 102.462L97.8002 101.862L99.6002 101.862L99.6002 102.462ZM99.3002 103.357L99.3002 102.162L99.9002 102.162L99.9002 103.357L99.3002 103.357ZM108 103.657L99.6002 103.657L99.6002 103.057L108 103.057L108 103.657ZM107.7 108.136L107.7 103.357L108.3 103.357L108.3 108.136L107.7 108.136ZM111.6 108.436L108 108.436L108 107.836L111.6 107.836L111.6 108.436ZM111.3 110.526L111.3 108.136L111.9 108.136L111.9 110.526L111.3 110.526ZM112.2 110.826L111.6 110.826L111.6 110.226L112.2 110.226L112.2 110.826Z" fill="#B9B9B9" mask="url(#path-21-inside-7)"/>
<path d="M99.8983 110.796C100.719 110.796 101.308 110.357 101.31 109.768C101.308 109.313 100.958 108.942 100.521 108.869V108.844C100.901 108.766 101.173 108.438 101.175 108.038C101.173 107.475 100.633 107.06 99.8983 107.06C99.1614 107.06 98.6216 107.475 98.6234 108.038C98.6216 108.436 98.8897 108.766 99.2768 108.844V108.869C98.8329 108.942 98.4867 109.313 98.4885 109.768C98.4867 110.357 99.0779 110.796 99.8983 110.796ZM99.8983 110.231C99.5325 110.231 99.2875 110.015 99.2875 109.707C99.2875 109.393 99.5449 109.166 99.8983 109.166C100.25 109.166 100.509 109.393 100.509 109.707C100.509 110.016 100.262 110.231 99.8983 110.231ZM99.8983 108.607C99.5911 108.607 99.3727 108.406 99.3727 108.118C99.3727 107.834 99.5875 107.639 99.8983 107.639C100.207 107.639 100.424 107.836 100.424 108.118C100.424 108.406 100.204 108.607 99.8983 108.607Z" fill="#303030"/>
<mask id="path-24-inside-8" fill="white">
<path fill-rule="evenodd" clip-rule="evenodd" d="M42 110.526L42 114.708L17.4 114.708L17.4 110.526L18 110.526L18 108.136L21.6 108.136L21.6 103.357L27.6 103.357L27.6 102.162L29.4 102.162L29.4 103.357L37.8 103.357L37.8 108.136L41.4 108.136L41.4 110.526L42 110.526Z"/>
</mask>
<path fill-rule="evenodd" clip-rule="evenodd" d="M42 110.526L42 114.708L17.4 114.708L17.4 110.526L18 110.526L18 108.136L21.6 108.136L21.6 103.357L27.6 103.357L27.6 102.162L29.4 102.162L29.4 103.357L37.8 103.357L37.8 108.136L41.4 108.136L41.4 110.526L42 110.526Z" fill="#D7D7D7"/>
<path d="M42 114.708L42.3 114.708L42.3 115.008L42 115.008L42 114.708ZM42 110.526L42 110.226L42.3 110.226L42.3 110.526L42 110.526ZM17.4 114.708L17.4 115.008L17.1 115.008L17.1 114.708L17.4 114.708ZM17.4 110.526L17.1 110.526L17.1 110.226L17.4 110.226L17.4 110.526ZM18 110.526L18.3 110.526L18.3 110.826L18 110.826L18 110.526ZM18 108.136L17.7 108.136L17.7 107.836L18 107.836L18 108.136ZM21.6 108.136L21.9 108.136L21.9 108.436L21.6 108.436L21.6 108.136ZM21.6 103.357L21.3 103.357L21.3 103.057L21.6 103.057L21.6 103.357ZM27.6 103.357L27.9 103.357L27.9 103.657L27.6 103.657L27.6 103.357ZM27.6 102.162L27.3 102.162L27.3 101.862L27.6 101.862L27.6 102.162ZM29.4 102.162L29.4 101.862L29.7 101.862L29.7 102.162L29.4 102.162ZM29.4 103.357L29.4 103.657L29.1 103.657L29.1 103.357L29.4 103.357ZM37.8 103.357L37.8 103.057L38.1 103.057L38.1 103.357L37.8 103.357ZM37.8 108.136L37.8 108.436L37.5 108.436L37.5 108.136L37.8 108.136ZM41.4 108.136L41.4 107.836L41.7 107.836L41.7 108.136L41.4 108.136ZM41.4 110.526L41.4 110.826L41.1 110.826L41.1 110.526L41.4 110.526ZM41.7 114.708L41.7 110.526L42.3 110.526L42.3 114.708L41.7 114.708ZM17.4 114.408L42 114.408L42 115.008L17.4 115.008L17.4 114.408ZM17.7 110.526L17.7 114.708L17.1 114.708L17.1 110.526L17.7 110.526ZM18 110.826L17.4 110.826L17.4 110.226L18 110.226L18 110.826ZM18.3 108.136L18.3 110.526L17.7 110.526L17.7 108.136L18.3 108.136ZM21.6 108.436L18 108.436L18 107.836L21.6 107.836L21.6 108.436ZM21.9 103.357L21.9 108.136L21.3 108.136L21.3 103.357L21.9 103.357ZM27.6 103.657L21.6 103.657L21.6 103.057L27.6 103.057L27.6 103.657ZM27.9 102.162L27.9 103.357L27.3 103.357L27.3 102.162L27.9 102.162ZM29.4 102.462L27.6 102.462L27.6 101.862L29.4 101.862L29.4 102.462ZM29.1 103.357L29.1 102.162L29.7 102.162L29.7 103.357L29.1 103.357ZM37.8 103.657L29.4 103.657L29.4 103.057L37.8 103.057L37.8 103.657ZM37.5 108.136L37.5 103.357L38.1 103.357L38.1 108.136L37.5 108.136ZM41.4 108.436L37.8 108.436L37.8 107.836L41.4 107.836L41.4 108.436ZM41.1 110.526L41.1 108.136L41.7 108.136L41.7 110.526L41.1 110.526ZM42 110.826L41.4 110.826L41.4 110.226L42 110.226L42 110.826Z" fill="#828282" mask="url(#path-24-inside-8)"/>
<path d="M29.6597 107.06C28.8464 107.056 28.2978 107.589 28.3013 108.321C28.3031 108.999 28.7737 109.491 29.4182 109.491C29.8177 109.491 30.1728 109.297 30.3344 108.978H30.3592C30.3575 109.699 30.1071 110.137 29.633 110.137C29.3543 110.137 29.1536 109.984 29.095 109.72H28.3369C28.4079 110.332 28.905 110.796 29.633 110.796C30.5332 110.796 31.1138 110.068 31.1121 108.834C31.1103 107.516 30.4072 107.064 29.6597 107.06ZM29.665 107.664C30.0183 107.664 30.2793 107.951 30.2829 108.298C30.2847 108.646 30.0094 108.933 29.6579 108.933C29.3028 108.933 29.0489 108.656 29.0471 108.299C29.0435 107.944 29.3081 107.664 29.665 107.664Z" fill="#303030"/>
<mask id="path-27-inside-9" fill="white">
<path fill-rule="evenodd" clip-rule="evenodd" d="M105 80.0561L105 75.874L80.4 75.874L80.4 80.0561L81 80.0561L81 82.4458L84.6 82.4458L84.6 87.2253L90.6 87.2253L90.6 88.4202L92.4 88.4202L92.4 87.2253L100.8 87.2253L100.8 82.4458L104.4 82.4458L104.4 80.0561L105 80.0561Z"/>
</mask>
<path fill-rule="evenodd" clip-rule="evenodd" d="M105 80.0561L105 75.874L80.4 75.874L80.4 80.0561L81 80.0561L81 82.4458L84.6 82.4458L84.6 87.2253L90.6 87.2253L90.6 88.4202L92.4 88.4202L92.4 87.2253L100.8 87.2253L100.8 82.4458L104.4 82.4458L104.4 80.0561L105 80.0561Z" fill="#D7D7D7"/>
<path d="M105 75.874L105.3 75.874L105.3 75.574L105 75.574L105 75.874ZM105 80.0561L105 80.3561L105.3 80.3561L105.3 80.0561L105 80.0561ZM80.4 75.874L80.4 75.574L80.1 75.574L80.1 75.874L80.4 75.874ZM80.4 80.0561L80.1 80.0561L80.1 80.3561L80.4 80.3561L80.4 80.0561ZM81 80.0561L81.3 80.0561L81.3 79.7561L81 79.7561L81 80.0561ZM81 82.4458L80.7 82.4458L80.7 82.7458L81 82.7458L81 82.4458ZM84.6 82.4458L84.9 82.4458L84.9 82.1458L84.6 82.1458L84.6 82.4458ZM84.6 87.2253L84.3 87.2253L84.3 87.5253L84.6 87.5253L84.6 87.2253ZM90.6 87.2253L90.9 87.2253L90.9 86.9253L90.6 86.9253L90.6 87.2253ZM90.6 88.4202L90.3 88.4202L90.3 88.7202L90.6 88.7202L90.6 88.4202ZM92.4 88.4202L92.4 88.7202L92.7 88.7202L92.7 88.4202L92.4 88.4202ZM92.4 87.2253L92.4 86.9253L92.1 86.9253L92.1 87.2253L92.4 87.2253ZM100.8 87.2253L100.8 87.5253L101.1 87.5253L101.1 87.2253L100.8 87.2253ZM100.8 82.4458L100.8 82.1458L100.5 82.1458L100.5 82.4458L100.8 82.4458ZM104.4 82.4458L104.4 82.7458L104.7 82.7458L104.7 82.4458L104.4 82.4458ZM104.4 80.0561L104.4 79.7561L104.1 79.7561L104.1 80.0561L104.4 80.0561ZM104.7 75.874L104.7 80.0561L105.3 80.0561L105.3 75.874L104.7 75.874ZM80.4 76.174L105 76.174L105 75.574L80.4 75.574L80.4 76.174ZM80.7 80.0561L80.7 75.874L80.1 75.874L80.1 80.0561L80.7 80.0561ZM81 79.7561L80.4 79.7561L80.4 80.3561L81 80.3561L81 79.7561ZM81.3 82.4458L81.3 80.0561L80.7 80.0561L80.7 82.4458L81.3 82.4458ZM84.6 82.1458L81 82.1458L81 82.7458L84.6 82.7458L84.6 82.1458ZM84.9 87.2253L84.9 82.4458L84.3 82.4458L84.3 87.2253L84.9 87.2253ZM90.6 86.9253L84.6 86.9253L84.6 87.5253L90.6 87.5253L90.6 86.9253ZM90.9 88.4202L90.9 87.2253L90.3 87.2253L90.3 88.4202L90.9 88.4202ZM92.4 88.1202L90.6 88.1202L90.6 88.7202L92.4 88.7202L92.4 88.1202ZM92.1 87.2253L92.1 88.4202L92.7 88.4202L92.7 87.2253L92.1 87.2253ZM100.8 86.9253L92.4 86.9253L92.4 87.5253L100.8 87.5253L100.8 86.9253ZM100.5 82.4458L100.5 87.2253L101.1 87.2253L101.1 82.4458L100.5 82.4458ZM104.4 82.1458L100.8 82.1458L100.8 82.7458L104.4 82.7458L104.4 82.1458ZM104.1 80.0561L104.1 82.4458L104.7 82.4458L104.7 80.0561L104.1 80.0561ZM105 79.7561L104.4 79.7561L104.4 80.3561L105 80.3561L105 79.7561Z" fill="#B9B9B9" mask="url(#path-27-inside-9)"/>
<path d="M91.245 82.6245H92.9904V83.2637H93.7254V82.6245H94.1764V82.0083H93.7254V79.6273H92.7631L91.245 82.019V82.6245ZM93.0046 82.0083H92.0191V81.9799L92.9762 80.4654H93.0046V82.0083Z" fill="#303030"/>
<mask id="path-30-inside-10" fill="white">
<path fill-rule="evenodd" clip-rule="evenodd" d="M70.2002 80.0561L70.2002 75.874L45.6002 75.874L45.6002 80.0561L46.2002 80.0561L46.2002 82.4458L49.8002 82.4458L49.8002 87.2253L55.8002 87.2253L55.8002 88.4202L57.6002 88.4202L57.6002 87.2253L66.0002 87.2253L66.0002 82.4458L69.6002 82.4458L69.6002 80.0561L70.2002 80.0561Z"/>
</mask>
<path fill-rule="evenodd" clip-rule="evenodd" d="M70.2002 80.0561L70.2002 75.874L45.6002 75.874L45.6002 80.0561L46.2002 80.0561L46.2002 82.4458L49.8002 82.4458L49.8002 87.2253L55.8002 87.2253L55.8002 88.4202L57.6002 88.4202L57.6002 87.2253L66.0002 87.2253L66.0002 82.4458L69.6002 82.4458L69.6002 80.0561L70.2002 80.0561Z" fill="#D7D7D7"/>
<path d="M70.2002 75.874L70.5002 75.874L70.5002 75.574L70.2002 75.574L70.2002 75.874ZM70.2002 80.0561L70.2002 80.3561L70.5002 80.3561L70.5002 80.0561L70.2002 80.0561ZM45.6002 75.874L45.6002 75.574L45.3002 75.574L45.3002 75.874L45.6002 75.874ZM45.6002 80.0561L45.3002 80.0561L45.3002 80.3561L45.6002 80.3561L45.6002 80.0561ZM46.2002 80.0561L46.5002 80.0561L46.5002 79.7561L46.2002 79.7561L46.2002 80.0561ZM46.2002 82.4458L45.9002 82.4458L45.9002 82.7458L46.2002 82.7458L46.2002 82.4458ZM49.8002 82.4458L50.1002 82.4458L50.1002 82.1458L49.8002 82.1458L49.8002 82.4458ZM49.8002 87.2253L49.5002 87.2253L49.5002 87.5253L49.8002 87.5253L49.8002 87.2253ZM55.8002 87.2253L56.1002 87.2253L56.1002 86.9253L55.8002 86.9253L55.8002 87.2253ZM55.8002 88.4202L55.5002 88.4202L55.5002 88.7202L55.8002 88.7202L55.8002 88.4202ZM57.6002 88.4202L57.6002 88.7202L57.9002 88.7202L57.9002 88.4202L57.6002 88.4202ZM57.6002 87.2253L57.6002 86.9253L57.3002 86.9253L57.3002 87.2253L57.6002 87.2253ZM66.0002 87.2253L66.0002 87.5253L66.3002 87.5253L66.3002 87.2253L66.0002 87.2253ZM66.0002 82.4458L66.0002 82.1458L65.7002 82.1458L65.7002 82.4458L66.0002 82.4458ZM69.6002 82.4458L69.6002 82.7458L69.9002 82.7458L69.9002 82.4458L69.6002 82.4458ZM69.6002 80.0561L69.6002 79.7561L69.3002 79.7561L69.3002 80.0561L69.6002 80.0561ZM69.9002 75.874L69.9002 80.0561L70.5002 80.0561L70.5002 75.874L69.9002 75.874ZM45.6002 76.174L70.2002 76.174L70.2002 75.574L45.6002 75.574L45.6002 76.174ZM45.9002 80.0561L45.9002 75.874L45.3002 75.874L45.3002 80.0561L45.9002 80.0561ZM46.2002 79.7561L45.6002 79.7561L45.6002 80.3561L46.2002 80.3561L46.2002 79.7561ZM46.5002 82.4458L46.5002 80.0561L45.9002 80.0561L45.9002 82.4458L46.5002 82.4458ZM49.8002 82.1458L46.2002 82.1458L46.2002 82.7458L49.8002 82.7458L49.8002 82.1458ZM50.1002 87.2253L50.1002 82.4458L49.5002 82.4458L49.5002 87.2253L50.1002 87.2253ZM55.8002 86.9253L49.8002 86.9253L49.8002 87.5253L55.8002 87.5253L55.8002 86.9253ZM56.1002 88.4202L56.1002 87.2253L55.5002 87.2253L55.5002 88.4202L56.1002 88.4202ZM57.6002 88.1202L55.8002 88.1202L55.8002 88.7202L57.6002 88.7202L57.6002 88.1202ZM57.3002 87.2253L57.3002 88.4202L57.9002 88.4202L57.9002 87.2253L57.3002 87.2253ZM66.0002 86.9253L57.6002 86.9253L57.6002 87.5253L66.0002 87.5253L66.0002 86.9253ZM65.7002 82.4458L65.7002 87.2253L66.3002 87.2253L66.3002 82.4458L65.7002 82.4458ZM69.6002 82.1458L66.0002 82.1458L66.0002 82.7458L69.6002 82.7458L69.6002 82.1458ZM69.3002 80.0561L69.3002 82.4458L69.9002 82.4458L69.9002 80.0561L69.3002 80.0561ZM70.2002 79.7561L69.6002 79.7561L69.6002 80.3561L70.2002 80.3561L70.2002 79.7561Z" fill="#B9B9B9" mask="url(#path-30-inside-10)"/>
<path d="M57.9113 83.3134C58.721 83.3134 59.2714 82.786 59.2697 82.051C59.2714 81.3549 58.7849 80.8542 58.1297 80.8542C57.8101 80.8542 57.5349 80.9874 57.4071 81.1667H57.3858L57.4799 80.2559H59.069V79.6273H56.846L56.6738 81.5449L57.3574 81.6674C57.4692 81.5165 57.6858 81.4224 57.9007 81.4224C58.2665 81.4242 58.5292 81.6887 58.5292 82.0705C58.5292 82.4487 58.2718 82.7097 57.9113 82.7097C57.6059 82.7097 57.3591 82.5179 57.3414 82.2356H56.5956C56.6099 82.8642 57.1585 83.3134 57.9113 83.3134Z" fill="#303030"/>
<mask id="path-33-inside-11" fill="white">
<path fill-rule="evenodd" clip-rule="evenodd" d="M36 80.0561L36 75.874L11.4 75.874L11.4 80.0561L12 80.0561L12 82.4458L15.6 82.4458L15.6 87.2253L21.6 87.2253L21.6 88.4202L23.4 88.4202L23.4 87.2253L31.8 87.2253L31.8 82.4458L35.4 82.4458L35.4 80.0561L36 80.0561Z"/>
</mask>
<path fill-rule="evenodd" clip-rule="evenodd" d="M36 80.0561L36 75.874L11.4 75.874L11.4 80.0561L12 80.0561L12 82.4458L15.6 82.4458L15.6 87.2253L21.6 87.2253L21.6 88.4202L23.4 88.4202L23.4 87.2253L31.8 87.2253L31.8 82.4458L35.4 82.4458L35.4 80.0561L36 80.0561Z" fill="#D7D7D7"/>
<path d="M36 75.874L36.3 75.874L36.3 75.574L36 75.574L36 75.874ZM36 80.0561L36 80.3561L36.3 80.3561L36.3 80.0561L36 80.0561ZM11.4 75.874L11.4 75.574L11.1 75.574L11.1 75.874L11.4 75.874ZM11.4 80.0561L11.1 80.0561L11.1 80.3561L11.4 80.3561L11.4 80.0561ZM12 80.0561L12.3 80.0561L12.3 79.7561L12 79.7561L12 80.0561ZM12 82.4458L11.7 82.4458L11.7 82.7458L12 82.7458L12 82.4458ZM15.6 82.4458L15.9 82.4458L15.9 82.1458L15.6 82.1458L15.6 82.4458ZM15.6 87.2253L15.3 87.2253L15.3 87.5253L15.6 87.5253L15.6 87.2253ZM21.6 87.2253L21.9 87.2253L21.9 86.9253L21.6 86.9253L21.6 87.2253ZM21.6 88.4202L21.3 88.4202L21.3 88.7202L21.6 88.7202L21.6 88.4202ZM23.4 88.4202L23.4 88.7202L23.7 88.7202L23.7 88.4202L23.4 88.4202ZM23.4 87.2253L23.4 86.9253L23.1 86.9253L23.1 87.2253L23.4 87.2253ZM31.8 87.2253L31.8 87.5253L32.1 87.5253L32.1 87.2253L31.8 87.2253ZM31.8 82.4458L31.8 82.1458L31.5 82.1458L31.5 82.4458L31.8 82.4458ZM35.4 82.4458L35.4 82.7458L35.7 82.7458L35.7 82.4458L35.4 82.4458ZM35.4 80.0561L35.4 79.7561L35.1 79.7561L35.1 80.0561L35.4 80.0561ZM35.7 75.874L35.7 80.0561L36.3 80.0561L36.3 75.874L35.7 75.874ZM11.4 76.174L36 76.174L36 75.574L11.4 75.574L11.4 76.174ZM11.7 80.0561L11.7 75.874L11.1 75.874L11.1 80.0561L11.7 80.0561ZM12 79.7561L11.4 79.7561L11.4 80.3561L12 80.3561L12 79.7561ZM12.3 82.4458L12.3 80.0561L11.7 80.0561L11.7 82.4458L12.3 82.4458ZM15.6 82.1458L12 82.1458L12 82.7458L15.6 82.7458L15.6 82.1458ZM15.9 87.2253L15.9 82.4458L15.3 82.4458L15.3 87.2253L15.9 87.2253ZM21.6 86.9253L15.6 86.9253L15.6 87.5253L21.6 87.5253L21.6 86.9253ZM21.9 88.4202L21.9 87.2253L21.3 87.2253L21.3 88.4202L21.9 88.4202ZM23.4 88.1202L21.6 88.1202L21.6 88.7202L23.4 88.7202L23.4 88.1202ZM23.1 87.2253L23.1 88.4202L23.7 88.4202L23.7 87.2253L23.1 87.2253ZM31.8 86.9253L23.4 86.9253L23.4 87.5253L31.8 87.5253L31.8 86.9253ZM31.5 82.4458L31.5 87.2253L32.1 87.2253L32.1 82.4458L31.5 82.4458ZM35.4 82.1458L31.8 82.1458L31.8 82.7458L35.4 82.7458L35.4 82.1458ZM35.1 80.0561L35.1 82.4458L35.7 82.4458L35.7 80.0561L35.1 80.0561ZM36 79.7561L35.4 79.7561L35.4 80.3561L36 80.3561L36 79.7561Z" fill="#B9B9B9" mask="url(#path-33-inside-11)"/>
<path d="M23.74 83.3134C24.5497 83.3169 25.1019 82.786 25.1001 82.0456C25.1019 81.3638 24.6261 80.872 23.9815 80.872C23.582 80.872 23.2287 81.0637 23.0653 81.3851H23.0405C23.044 80.6767 23.2926 80.2363 23.7667 80.2363C24.0454 80.2363 24.2461 80.389 24.3047 80.6429H25.0628C24.99 80.0446 24.4929 79.5776 23.7667 79.5776C22.8682 79.5776 22.2912 80.3056 22.2876 81.5272C22.2859 82.8588 22.9925 83.3098 23.74 83.3134ZM23.7365 82.7097C23.3814 82.7097 23.1186 82.4238 23.1186 82.0687C23.1204 81.7154 23.3885 81.4277 23.7418 81.4277C24.0969 81.4277 24.3562 81.7065 24.3544 82.0669C24.3562 82.4309 24.0916 82.7097 23.7365 82.7097Z" fill="#303030"/>
<mask id="path-36-inside-12" fill="white">
<path fill-rule="evenodd" clip-rule="evenodd" d="M127.2 46.5999L127.2 58.5486L117.6 58.5486L117.6 60.9384L114.6 60.9384L114.6 58.5486L107.4 58.5486L107.4 46.5999L115.2 46.5999L115.2 44.8076L121.2 44.8076L121.2 46.5999L127.2 46.5999Z"/>
</mask>
<path fill-rule="evenodd" clip-rule="evenodd" d="M127.2 46.5999L127.2 58.5486L117.6 58.5486L117.6 60.9384L114.6 60.9384L114.6 58.5486L107.4 58.5486L107.4 46.5999L115.2 46.5999L115.2 44.8076L121.2 44.8076L121.2 46.5999L127.2 46.5999Z" fill="#D7D7D7"/>
<path d="M127.2 58.5486L127.2 58.8486L127.5 58.8486L127.5 58.5486L127.2 58.5486ZM127.2 46.5999L127.5 46.5999L127.5 46.2999L127.2 46.2999L127.2 46.5999ZM117.6 58.5486L117.6 58.2486L117.3 58.2486L117.3 58.5486L117.6 58.5486ZM117.6 60.9384L117.6 61.2384L117.9 61.2384L117.9 60.9384L117.6 60.9384ZM114.6 60.9384L114.3 60.9384L114.3 61.2384L114.6 61.2384L114.6 60.9384ZM114.6 58.5486L114.9 58.5486L114.9 58.2486L114.6 58.2486L114.6 58.5486ZM107.4 58.5486L107.1 58.5486L107.1 58.8486L107.4 58.8486L107.4 58.5486ZM107.4 46.5999L107.4 46.2999L107.1 46.2999L107.1 46.5999L107.4 46.5999ZM115.2 46.5999L115.2 46.8999L115.5 46.8999L115.5 46.5999L115.2 46.5999ZM115.2 44.8076L115.2 44.5076L114.9 44.5076L114.9 44.8076L115.2 44.8076ZM121.2 44.8076L121.5 44.8076L121.5 44.5076L121.2 44.5076L121.2 44.8076ZM121.2 46.5999L120.9 46.5999L120.9 46.8999L121.2 46.8999L121.2 46.5999ZM127.5 58.5486L127.5 46.5999L126.9 46.5999L126.9 58.5486L127.5 58.5486ZM117.6 58.8486L127.2 58.8486L127.2 58.2486L117.6 58.2486L117.6 58.8486ZM117.3 58.5486L117.3 60.9384L117.9 60.9384L117.9 58.5486L117.3 58.5486ZM117.6 60.6384L114.6 60.6384L114.6 61.2384L117.6 61.2384L117.6 60.6384ZM114.9 60.9384L114.9 58.5486L114.3 58.5486L114.3 60.9384L114.9 60.9384ZM107.4 58.8486L114.6 58.8486L114.6 58.2486L107.4 58.2486L107.4 58.8486ZM107.1 46.5999L107.1 58.5486L107.7 58.5486L107.7 46.5999L107.1 46.5999ZM115.2 46.2999L107.4 46.2999L107.4 46.8999L115.2 46.8999L115.2 46.2999ZM114.9 44.8076L114.9 46.5999L115.5 46.5999L115.5 44.8076L114.9 44.8076ZM121.2 44.5076L115.2 44.5076L115.2 45.1076L121.2 45.1076L121.2 44.5076ZM121.5 46.5999L121.5 44.8076L120.9 44.8076L120.9 46.5999L121.5 46.5999ZM127.2 46.2999L121.2 46.2999L121.2 46.8999L127.2 46.8999L127.2 46.2999Z" fill="#B9B9B9" mask="url(#path-36-inside-12)"/>
<mask id="path-38-inside-13" fill="white">
<path fill-rule="evenodd" clip-rule="evenodd" d="M108 46.5999L108 58.5486L98.4 58.5486L98.4 60.9384L95.4 60.9384L95.4 58.5486L88.2 58.5486L88.2 46.5999L96 46.5999L96 44.8076L102 44.8076L102 46.5999L108 46.5999Z"/>
</mask>
<path fill-rule="evenodd" clip-rule="evenodd" d="M108 46.5999L108 58.5486L98.4 58.5486L98.4 60.9384L95.4 60.9384L95.4 58.5486L88.2 58.5486L88.2 46.5999L96 46.5999L96 44.8076L102 44.8076L102 46.5999L108 46.5999Z" fill="#D7D7D7"/>
<path d="M108 58.5486L108 58.8486L108.3 58.8486L108.3 58.5486L108 58.5486ZM108 46.5999L108.3 46.5999L108.3 46.2999L108 46.2999L108 46.5999ZM98.4 58.5486L98.4 58.2486L98.1 58.2486L98.1 58.5486L98.4 58.5486ZM98.4 60.9384L98.4 61.2384L98.7 61.2384L98.7 60.9384L98.4 60.9384ZM95.4 60.9384L95.1 60.9384L95.1 61.2384L95.4 61.2384L95.4 60.9384ZM95.4 58.5486L95.7 58.5486L95.7 58.2486L95.4 58.2486L95.4 58.5486ZM88.2 58.5486L87.9 58.5486L87.9 58.8486L88.2 58.8486L88.2 58.5486ZM88.2 46.5999L88.2 46.2999L87.9 46.2999L87.9 46.5999L88.2 46.5999ZM96 46.5999L96 46.8999L96.3 46.8999L96.3 46.5999L96 46.5999ZM96 44.8076L96 44.5076L95.7 44.5076L95.7 44.8076L96 44.8076ZM102 44.8076L102.3 44.8076L102.3 44.5076L102 44.5076L102 44.8076ZM102 46.5999L101.7 46.5999L101.7 46.8999L102 46.8999L102 46.5999ZM108.3 58.5486L108.3 46.5999L107.7 46.5999L107.7 58.5486L108.3 58.5486ZM98.4 58.8486L108 58.8486L108 58.2486L98.4 58.2486L98.4 58.8486ZM98.1 58.5486L98.1 60.9384L98.7 60.9384L98.7 58.5486L98.1 58.5486ZM98.4 60.6384L95.4 60.6384L95.4 61.2384L98.4 61.2384L98.4 60.6384ZM95.7 60.9384L95.7 58.5486L95.1 58.5486L95.1 60.9384L95.7 60.9384ZM88.2 58.8486L95.4 58.8486L95.4 58.2486L88.2 58.2486L88.2 58.8486ZM87.9 46.5999L87.9 58.5486L88.5 58.5486L88.5 46.5999L87.9 46.5999ZM96 46.2999L88.2 46.2999L88.2 46.8999L96 46.8999L96 46.2999ZM95.7 44.8076L95.7 46.5999L96.3 46.5999L96.3 44.8076L95.7 44.8076ZM102 44.5076L96 44.5076L96 45.1076L102 45.1076L102 44.5076ZM102.3 46.5999L102.3 44.8076L101.7 44.8076L101.7 46.5999L102.3 46.5999ZM108 46.2999L102 46.2999L102 46.8999L108 46.8999L108 46.2999Z" fill="#B9B9B9" mask="url(#path-38-inside-13)"/>
<mask id="path-40-inside-14" fill="white">
<path fill-rule="evenodd" clip-rule="evenodd" d="M146.4 46.5999L146.4 58.5486L136.8 58.5486L136.8 60.9384L133.8 60.9384L133.8 58.5486L126.6 58.5486L126.6 46.5999L134.4 46.5999L134.4 44.8076L140.4 44.8076L140.4 46.5999L146.4 46.5999Z"/>
</mask>
<path fill-rule="evenodd" clip-rule="evenodd" d="M146.4 46.5999L146.4 58.5486L136.8 58.5486L136.8 60.9384L133.8 60.9384L133.8 58.5486L126.6 58.5486L126.6 46.5999L134.4 46.5999L134.4 44.8076L140.4 44.8076L140.4 46.5999L146.4 46.5999Z" fill="#D7D7D7"/>
<path d="M146.4 58.5486L146.4 58.8486L146.7 58.8486L146.7 58.5486L146.4 58.5486ZM146.4 46.5999L146.7 46.5999L146.7 46.2999L146.4 46.2999L146.4 46.5999ZM136.8 58.5486L136.8 58.2486L136.5 58.2486L136.5 58.5486L136.8 58.5486ZM136.8 60.9384L136.8 61.2384L137.1 61.2384L137.1 60.9384L136.8 60.9384ZM133.8 60.9384L133.5 60.9384L133.5 61.2384L133.8 61.2384L133.8 60.9384ZM133.8 58.5486L134.1 58.5486L134.1 58.2486L133.8 58.2486L133.8 58.5486ZM126.6 58.5486L126.3 58.5486L126.3 58.8486L126.6 58.8486L126.6 58.5486ZM126.6 46.5999L126.6 46.2999L126.3 46.2999L126.3 46.5999L126.6 46.5999ZM134.4 46.5999L134.4 46.8999L134.7 46.8999L134.7 46.5999L134.4 46.5999ZM134.4 44.8076L134.4 44.5076L134.1 44.5076L134.1 44.8076L134.4 44.8076ZM140.4 44.8076L140.7 44.8076L140.7 44.5076L140.4 44.5076L140.4 44.8076ZM140.4 46.5999L140.1 46.5999L140.1 46.8999L140.4 46.8999L140.4 46.5999ZM146.7 58.5486L146.7 46.5999L146.1 46.5999L146.1 58.5486L146.7 58.5486ZM136.8 58.8486L146.4 58.8486L146.4 58.2486L136.8 58.2486L136.8 58.8486ZM136.5 58.5486L136.5 60.9384L137.1 60.9384L137.1 58.5486L136.5 58.5486ZM136.8 60.6384L133.8 60.6384L133.8 61.2384L136.8 61.2384L136.8 60.6384ZM134.1 60.9384L134.1 58.5486L133.5 58.5486L133.5 60.9384L134.1 60.9384ZM126.6 58.8486L133.8 58.8486L133.8 58.2486L126.6 58.2486L126.6 58.8486ZM126.3 46.5999L126.3 58.5486L126.9 58.5486L126.9 46.5999L126.3 46.5999ZM134.4 46.2999L126.6 46.2999L126.6 46.8999L134.4 46.8999L134.4 46.2999ZM134.1 44.8076L134.1 46.5999L134.7 46.5999L134.7 44.8076L134.1 44.8076ZM140.4 44.5076L134.4 44.5076L134.4 45.1076L140.4 45.1076L140.4 44.5076ZM140.7 46.5999L140.7 44.8076L140.1 44.8076L140.1 46.5999L140.7 46.5999ZM146.4 46.2999L140.4 46.2999L140.4 46.8999L146.4 46.8999L146.4 46.2999Z" fill="#B9B9B9" mask="url(#path-40-inside-14)"/>
<path d="M135.508 50.6517H134.785L133.885 51.2217V51.9035L134.718 51.3815H134.739V54.2881H135.508V50.6517ZM136.631 54.3343C136.858 54.3343 137.056 54.1443 137.057 53.9081C137.056 53.6755 136.858 53.4855 136.631 53.4855C136.397 53.4855 136.203 53.6755 136.205 53.9081C136.203 54.1443 136.397 54.3343 136.631 54.3343ZM138.799 50.6517H138.076L137.176 51.2217V51.9035L138.009 51.3815H138.03V54.2881H138.799V50.6517Z" fill="#303030"/>
<path d="M115.729 50.6517H115.007L114.106 51.2217V51.9035L114.939 51.3815H114.96V54.2881H115.729V50.6517ZM116.852 54.3343C117.08 54.3343 117.277 54.1443 117.278 53.9081C117.277 53.6755 117.08 53.4855 116.852 53.4855C116.618 53.4855 116.424 53.6755 116.426 53.9081C116.424 54.1443 116.618 54.3343 116.852 54.3343ZM117.892 54.2881H120.485V53.6595H118.958V53.6347L119.489 53.1144C120.236 52.4326 120.437 52.0917 120.437 51.678C120.437 51.0477 119.922 50.602 119.142 50.602C118.379 50.602 117.855 51.0583 117.857 51.7721H118.587C118.585 51.4241 118.805 51.211 119.137 51.211C119.457 51.211 119.695 51.4099 119.695 51.7295C119.695 52.0189 119.517 52.2178 119.187 52.5356L117.892 53.7341V54.2881Z" fill="#303030"/>
<path d="M96.512 50.6517H95.7894L94.8892 51.2217V51.9035L95.7219 51.3815H95.7432V54.2881H96.512V50.6517ZM97.6351 54.3343C97.8623 54.3343 98.0594 54.1443 98.0612 53.9081C98.0594 53.6755 97.8623 53.4855 97.6351 53.4855C97.4007 53.4855 97.2072 53.6755 97.2089 53.9081C97.2072 54.1443 97.4007 54.3343 97.6351 54.3343ZM99.9069 54.3378C100.724 54.3378 101.308 53.8886 101.306 53.2671C101.308 52.8144 101.02 52.4912 100.486 52.4237V52.3953C100.892 52.3225 101.173 52.0349 101.171 51.6265C101.173 51.053 100.67 50.602 99.9176 50.602C99.1718 50.602 98.6108 51.0388 98.6001 51.6673H99.337C99.3458 51.3904 99.5997 51.211 99.914 51.211C100.225 51.211 100.432 51.3992 100.431 51.6727C100.432 51.9585 100.189 52.1521 99.8394 52.1521H99.5003V52.7167H99.8394C100.251 52.7167 100.509 52.9227 100.507 53.2156C100.509 53.5051 100.26 53.7039 99.9087 53.7039C99.5696 53.7039 99.3157 53.5264 99.3014 53.26H98.5273C98.5397 53.8957 99.1079 54.3378 99.9069 54.3378Z" fill="#303030"/>
<mask id="path-45-inside-15" fill="white">
<path fill-rule="evenodd" clip-rule="evenodd" d="M125.4 160.113L125.4 172.061L115.8 172.061L115.8 174.451L112.8 174.451L112.8 172.061L105.6 172.061L105.6 160.113L113.4 160.113L113.4 158.32L119.4 158.32L119.4 160.113L125.4 160.113Z"/>
</mask>
<path fill-rule="evenodd" clip-rule="evenodd" d="M125.4 160.113L125.4 172.061L115.8 172.061L115.8 174.451L112.8 174.451L112.8 172.061L105.6 172.061L105.6 160.113L113.4 160.113L113.4 158.32L119.4 158.32L119.4 160.113L125.4 160.113Z" fill="#D7D7D7"/>
<path d="M125.4 172.061L125.4 172.361L125.7 172.361L125.7 172.061L125.4 172.061ZM125.4 160.113L125.7 160.113L125.7 159.813L125.4 159.813L125.4 160.113ZM115.8 172.061L115.8 171.761L115.5 171.761L115.5 172.061L115.8 172.061ZM115.8 174.451L115.8 174.751L116.1 174.751L116.1 174.451L115.8 174.451ZM112.8 174.451L112.5 174.451L112.5 174.751L112.8 174.751L112.8 174.451ZM112.8 172.061L113.1 172.061L113.1 171.761L112.8 171.761L112.8 172.061ZM105.6 172.061L105.3 172.061L105.3 172.361L105.6 172.361L105.6 172.061ZM105.6 160.113L105.6 159.813L105.3 159.813L105.3 160.113L105.6 160.113ZM113.4 160.113L113.4 160.413L113.7 160.413L113.7 160.113L113.4 160.113ZM113.4 158.32L113.4 158.02L113.1 158.02L113.1 158.32L113.4 158.32ZM119.4 158.32L119.7 158.32L119.7 158.02L119.4 158.02L119.4 158.32ZM119.4 160.113L119.1 160.113L119.1 160.413L119.4 160.413L119.4 160.113ZM125.7 172.061L125.7 160.113L125.1 160.113L125.1 172.061L125.7 172.061ZM115.8 172.361L125.4 172.361L125.4 171.761L115.8 171.761L115.8 172.361ZM115.5 172.061L115.5 174.451L116.1 174.451L116.1 172.061L115.5 172.061ZM115.8 174.151L112.8 174.151L112.8 174.751L115.8 174.751L115.8 174.151ZM113.1 174.451L113.1 172.061L112.5 172.061L112.5 174.451L113.1 174.451ZM105.6 172.361L112.8 172.361L112.8 171.761L105.6 171.761L105.6 172.361ZM105.3 160.113L105.3 172.061L105.9 172.061L105.9 160.113L105.3 160.113ZM113.4 159.813L105.6 159.813L105.6 160.413L113.4 160.413L113.4 159.813ZM113.1 158.32L113.1 160.113L113.7 160.113L113.7 158.32L113.1 158.32ZM119.4 158.02L113.4 158.02L113.4 158.62L119.4 158.62L119.4 158.02ZM119.7 160.113L119.7 158.32L119.1 158.32L119.1 160.113L119.7 160.113ZM125.4 159.813L119.4 159.813L119.4 160.413L125.4 160.413L125.4 159.813Z" fill="#B9B9B9" mask="url(#path-45-inside-15)"/>
<mask id="path-47-inside-16" fill="white">
<path fill-rule="evenodd" clip-rule="evenodd" d="M106.2 160.113L106.2 172.061L96.6002 172.061L96.6002 174.451L93.6002 174.451L93.6002 172.061L86.4002 172.061L86.4002 160.113L94.2002 160.113L94.2002 158.32L100.2 158.32L100.2 160.113L106.2 160.113Z"/>
</mask>
<path fill-rule="evenodd" clip-rule="evenodd" d="M106.2 160.113L106.2 172.061L96.6002 172.061L96.6002 174.451L93.6002 174.451L93.6002 172.061L86.4002 172.061L86.4002 160.113L94.2002 160.113L94.2002 158.32L100.2 158.32L100.2 160.113L106.2 160.113Z" fill="#FF5C30"/>
<path d="M106.2 172.061L106.2 172.361L106.5 172.361L106.5 172.061L106.2 172.061ZM106.2 160.113L106.5 160.113L106.5 159.813L106.2 159.813L106.2 160.113ZM96.6002 172.061L96.6002 171.761L96.3002 171.761L96.3002 172.061L96.6002 172.061ZM96.6002 174.451L96.6002 174.751L96.9002 174.751L96.9002 174.451L96.6002 174.451ZM93.6002 174.451L93.3002 174.451L93.3002 174.751L93.6002 174.751L93.6002 174.451ZM93.6002 172.061L93.9002 172.061L93.9002 171.761L93.6002 171.761L93.6002 172.061ZM86.4002 172.061L86.1002 172.061L86.1002 172.361L86.4002 172.361L86.4002 172.061ZM86.4002 160.113L86.4002 159.813L86.1002 159.813L86.1002 160.113L86.4002 160.113ZM94.2002 160.113L94.2002 160.413L94.5002 160.413L94.5002 160.113L94.2002 160.113ZM94.2002 158.32L94.2002 158.02L93.9002 158.02L93.9002 158.32L94.2002 158.32ZM100.2 158.32L100.5 158.32L100.5 158.02L100.2 158.02L100.2 158.32ZM100.2 160.113L99.9002 160.113L99.9002 160.413L100.2 160.413L100.2 160.113ZM106.5 172.061L106.5 160.113L105.9 160.113L105.9 172.061L106.5 172.061ZM96.6002 172.361L106.2 172.361L106.2 171.761L96.6002 171.761L96.6002 172.361ZM96.3002 172.061L96.3002 174.451L96.9002 174.451L96.9002 172.061L96.3002 172.061ZM96.6002 174.151L93.6002 174.151L93.6002 174.751L96.6002 174.751L96.6002 174.151ZM93.9002 174.451L93.9002 172.061L93.3002 172.061L93.3002 174.451L93.9002 174.451ZM86.4002 172.361L93.6002 172.361L93.6002 171.761L86.4002 171.761L86.4002 172.361ZM86.1002 160.113L86.1002 172.061L86.7002 172.061L86.7002 160.113L86.1002 160.113ZM94.2002 159.813L86.4002 159.813L86.4002 160.413L94.2002 160.413L94.2002 159.813ZM93.9002 158.32L93.9002 160.113L94.5002 160.113L94.5002 158.32L93.9002 158.32ZM100.2 158.02L94.2002 158.02L94.2002 158.62L100.2 158.62L100.2 158.02ZM100.5 160.113L100.5 158.32L99.9002 158.32L99.9002 160.113L100.5 160.113ZM106.2 159.813L100.2 159.813L100.2 160.413L106.2 160.413L106.2 159.813Z" fill="#E31A3E" mask="url(#path-47-inside-16)"/>
<mask id="path-49-inside-17" fill="white">
<path fill-rule="evenodd" clip-rule="evenodd" d="M144.6 160.113L144.6 172.061L135 172.061L135 174.451L132 174.451L132 172.061L124.8 172.061L124.8 160.113L132.6 160.113L132.6 158.32L138.6 158.32L138.6 160.113L144.6 160.113Z"/>
</mask>
<path fill-rule="evenodd" clip-rule="evenodd" d="M144.6 160.113L144.6 172.061L135 172.061L135 174.451L132 174.451L132 172.061L124.8 172.061L124.8 160.113L132.6 160.113L132.6 158.32L138.6 158.32L138.6 160.113L144.6 160.113Z" fill="#D7D7D7"/>
<path d="M144.6 172.061L144.6 172.361L144.9 172.361L144.9 172.061L144.6 172.061ZM144.6 160.113L144.9 160.113L144.9 159.813L144.6 159.813L144.6 160.113ZM135 172.061L135 171.761L134.7 171.761L134.7 172.061L135 172.061ZM135 174.451L135 174.751L135.3 174.751L135.3 174.451L135 174.451ZM132 174.451L131.7 174.451L131.7 174.751L132 174.751L132 174.451ZM132 172.061L132.3 172.061L132.3 171.761L132 171.761L132 172.061ZM124.8 172.061L124.5 172.061L124.5 172.361L124.8 172.361L124.8 172.061ZM124.8 160.113L124.8 159.813L124.5 159.813L124.5 160.113L124.8 160.113ZM132.6 160.113L132.6 160.413L132.9 160.413L132.9 160.113L132.6 160.113ZM132.6 158.32L132.6 158.02L132.3 158.02L132.3 158.32L132.6 158.32ZM138.6 158.32L138.9 158.32L138.9 158.02L138.6 158.02L138.6 158.32ZM138.6 160.113L138.3 160.113L138.3 160.413L138.6 160.413L138.6 160.113ZM144.9 172.061L144.9 160.113L144.3 160.113L144.3 172.061L144.9 172.061ZM135 172.361L144.6 172.361L144.6 171.761L135 171.761L135 172.361ZM134.7 172.061L134.7 174.451L135.3 174.451L135.3 172.061L134.7 172.061ZM135 174.151L132 174.151L132 174.751L135 174.751L135 174.151ZM132.3 174.451L132.3 172.061L131.7 172.061L131.7 174.451L132.3 174.451ZM124.8 172.361L132 172.361L132 171.761L124.8 171.761L124.8 172.361ZM124.5 160.113L124.5 172.061L125.1 172.061L125.1 160.113L124.5 160.113ZM132.6 159.813L124.8 159.813L124.8 160.413L132.6 160.413L132.6 159.813ZM132.3 158.32L132.3 160.113L132.9 160.113L132.9 158.32L132.3 158.32ZM138.6 158.02L132.6 158.02L132.6 158.62L138.6 158.62L138.6 158.02ZM138.9 160.113L138.9 158.32L138.3 158.32L138.3 160.113L138.9 160.113ZM144.6 159.813L138.6 159.813L138.6 160.413L144.6 160.413L144.6 159.813Z" fill="#B9B9B9" mask="url(#path-49-inside-17)"/>
<path d="M131.953 164.165H131.23L130.33 164.735V165.417L131.163 164.895H131.184V167.802H131.953V164.165ZM132.762 167.163H134.508V167.802H135.243V167.163H135.694V166.546H135.243V164.165H134.28L132.762 166.557V167.163ZM134.522 166.546H133.536V166.518L134.493 165.003H134.522V166.546ZM136.587 167.848C136.814 167.848 137.011 167.658 137.013 167.422C137.011 167.189 136.814 166.999 136.587 166.999C136.352 166.999 136.159 167.189 136.161 167.422C136.159 167.658 136.352 167.848 136.587 167.848ZM138.755 164.165H138.032L137.132 164.735V165.417L137.965 164.895H137.986V167.802H138.755V164.165Z" fill="#303030"/>
<path d="M112.174 164.165H111.451L110.551 164.735V165.417L111.384 164.895H111.405V167.802H112.174V164.165ZM112.983 167.163H114.729V167.802H115.464V167.163H115.915V166.546H115.464V164.165H114.501L112.983 166.557V167.163ZM114.743 166.546H113.758V166.518L114.715 165.003H114.743V166.546ZM116.808 167.848C117.035 167.848 117.232 167.658 117.234 167.422C117.232 167.189 117.035 166.999 116.808 166.999C116.574 166.999 116.38 167.189 116.382 167.422C116.38 167.658 116.574 167.848 116.808 167.848ZM117.848 167.802H120.44V167.173H118.913V167.148L119.444 166.628C120.192 165.946 120.392 165.605 120.392 165.192C120.392 164.561 119.877 164.116 119.098 164.116C118.334 164.116 117.811 164.572 117.812 165.286H118.542C118.54 164.938 118.761 164.725 119.093 164.725C119.412 164.725 119.65 164.924 119.65 165.243C119.65 165.533 119.473 165.731 119.142 166.049L117.848 167.248V167.802Z" fill="#303030"/>
<path d="M92.9569 164.165H92.2342L91.334 164.735V165.417L92.1667 164.895H92.188V167.802H92.9569V164.165ZM93.7661 167.163H95.5115V167.802H96.2465V167.163H96.6975V166.546H96.2465V164.165H95.2842L93.7661 166.557V167.163ZM95.5257 166.546H94.5402V166.518L95.4972 165.003H95.5257V166.546ZM97.5906 167.848C97.8179 167.848 98.015 167.658 98.0168 167.422C98.015 167.189 97.8179 166.999 97.5906 166.999C97.3563 166.999 97.1627 167.189 97.1645 167.422C97.1627 167.658 97.3563 167.848 97.5906 167.848ZM99.8625 167.851C100.679 167.851 101.263 167.402 101.262 166.781C101.263 166.328 100.976 166.005 100.441 165.937V165.909C100.848 165.836 101.128 165.549 101.127 165.14C101.128 164.567 100.626 164.116 99.8731 164.116C99.1274 164.116 98.5663 164.552 98.5557 165.181H99.2925C99.3014 164.904 99.5553 164.725 99.8696 164.725C100.18 164.725 100.388 164.913 100.386 165.186C100.388 165.472 100.145 165.666 99.795 165.666H99.4559V166.23H99.795C100.207 166.23 100.464 166.436 100.463 166.729C100.464 167.019 100.216 167.218 99.8643 167.218C99.5251 167.218 99.2712 167.04 99.257 166.774H98.4829C98.4953 167.409 99.0635 167.851 99.8625 167.851Z" fill="white"/>
<mask id="path-54-inside-18" fill="white">
<path fill-rule="evenodd" clip-rule="evenodd" d="M53.4004 160.113L53.4004 172.061L43.8004 172.061L43.8004 174.451L40.8004 174.451L40.8004 172.061L33.6004 172.061L33.6004 160.113L41.4004 160.113L41.4004 158.32L47.4004 158.32L47.4004 160.113L53.4004 160.113Z"/>
</mask>
<path fill-rule="evenodd" clip-rule="evenodd" d="M53.4004 160.113L53.4004 172.061L43.8004 172.061L43.8004 174.451L40.8004 174.451L40.8004 172.061L33.6004 172.061L33.6004 160.113L41.4004 160.113L41.4004 158.32L47.4004 158.32L47.4004 160.113L53.4004 160.113Z" fill="#D7D7D7"/>
<path d="M53.4004 172.061L53.4004 172.361L53.7004 172.361L53.7004 172.061L53.4004 172.061ZM53.4004 160.113L53.7004 160.113L53.7004 159.813L53.4004 159.813L53.4004 160.113ZM43.8004 172.061L43.8004 171.761L43.5004 171.761L43.5004 172.061L43.8004 172.061ZM43.8004 174.451L43.8004 174.751L44.1004 174.751L44.1004 174.451L43.8004 174.451ZM40.8004 174.451L40.5004 174.451L40.5004 174.751L40.8004 174.751L40.8004 174.451ZM40.8004 172.061L41.1004 172.061L41.1004 171.761L40.8004 171.761L40.8004 172.061ZM33.6004 172.061L33.3004 172.061L33.3004 172.361L33.6004 172.361L33.6004 172.061ZM33.6004 160.113L33.6004 159.813L33.3004 159.813L33.3004 160.113L33.6004 160.113ZM41.4004 160.113L41.4004 160.413L41.7004 160.413L41.7004 160.113L41.4004 160.113ZM41.4004 158.32L41.4004 158.02L41.1004 158.02L41.1004 158.32L41.4004 158.32ZM47.4004 158.32L47.7004 158.32L47.7004 158.02L47.4004 158.02L47.4004 158.32ZM47.4004 160.113L47.1004 160.113L47.1004 160.413L47.4004 160.413L47.4004 160.113ZM53.7004 172.061L53.7004 160.113L53.1004 160.113L53.1004 172.061L53.7004 172.061ZM43.8004 172.361L53.4004 172.361L53.4004 171.761L43.8004 171.761L43.8004 172.361ZM43.5004 172.061L43.5004 174.451L44.1004 174.451L44.1004 172.061L43.5004 172.061ZM43.8004 174.151L40.8004 174.151L40.8004 174.751L43.8004 174.751L43.8004 174.151ZM41.1004 174.451L41.1004 172.061L40.5004 172.061L40.5004 174.451L41.1004 174.451ZM33.6004 172.361L40.8004 172.361L40.8004 171.761L33.6004 171.761L33.6004 172.361ZM33.3004 160.113L33.3004 172.061L33.9004 172.061L33.9004 160.113L33.3004 160.113ZM41.4004 159.813L33.6004 159.813L33.6004 160.413L41.4004 160.413L41.4004 159.813ZM41.1004 158.32L41.1004 160.113L41.7004 160.113L41.7004 158.32L41.1004 158.32ZM47.4004 158.02L41.4004 158.02L41.4004 158.62L47.4004 158.62L47.4004 158.02ZM47.7004 160.113L47.7004 158.32L47.1004 158.32L47.1004 160.113L47.7004 160.113ZM53.4004 159.813L47.4004 159.813L47.4004 160.413L53.4004 160.413L53.4004 159.813Z" fill="#B9B9B9" mask="url(#path-54-inside-18)"/>
<mask id="path-56-inside-19" fill="white">
<path fill-rule="evenodd" clip-rule="evenodd" d="M34.2002 160.113L34.2002 172.061L24.6002 172.061L24.6002 174.451L21.6002 174.451L21.6002 172.061L14.4002 172.061L14.4002 160.113L22.2002 160.113L22.2002 158.32L28.2002 158.32L28.2002 160.113L34.2002 160.113Z"/>
</mask>
<path fill-rule="evenodd" clip-rule="evenodd" d="M34.2002 160.113L34.2002 172.061L24.6002 172.061L24.6002 174.451L21.6002 174.451L21.6002 172.061L14.4002 172.061L14.4002 160.113L22.2002 160.113L22.2002 158.32L28.2002 158.32L28.2002 160.113L34.2002 160.113Z" fill="#D7D7D7"/>
<path d="M34.2002 172.061L34.2002 172.361L34.5002 172.361L34.5002 172.061L34.2002 172.061ZM34.2002 160.113L34.5002 160.113L34.5002 159.813L34.2002 159.813L34.2002 160.113ZM24.6002 172.061L24.6002 171.761L24.3002 171.761L24.3002 172.061L24.6002 172.061ZM24.6002 174.451L24.6002 174.751L24.9002 174.751L24.9002 174.451L24.6002 174.451ZM21.6002 174.451L21.3002 174.451L21.3002 174.751L21.6002 174.751L21.6002 174.451ZM21.6002 172.061L21.9002 172.061L21.9002 171.761L21.6002 171.761L21.6002 172.061ZM14.4002 172.061L14.1002 172.061L14.1002 172.361L14.4002 172.361L14.4002 172.061ZM14.4002 160.113L14.4002 159.813L14.1002 159.813L14.1002 160.113L14.4002 160.113ZM22.2002 160.113L22.2002 160.413L22.5002 160.413L22.5002 160.113L22.2002 160.113ZM22.2002 158.32L22.2002 158.02L21.9002 158.02L21.9002 158.32L22.2002 158.32ZM28.2002 158.32L28.5002 158.32L28.5002 158.02L28.2002 158.02L28.2002 158.32ZM28.2002 160.113L27.9002 160.113L27.9002 160.413L28.2002 160.413L28.2002 160.113ZM34.5002 172.061L34.5002 160.113L33.9002 160.113L33.9002 172.061L34.5002 172.061ZM24.6002 172.361L34.2002 172.361L34.2002 171.761L24.6002 171.761L24.6002 172.361ZM24.3002 172.061L24.3002 174.451L24.9002 174.451L24.9002 172.061L24.3002 172.061ZM24.6002 174.151L21.6002 174.151L21.6002 174.751L24.6002 174.751L24.6002 174.151ZM21.9002 174.451L21.9002 172.061L21.3002 172.061L21.3002 174.451L21.9002 174.451ZM14.4002 172.361L21.6002 172.361L21.6002 171.761L14.4002 171.761L14.4002 172.361ZM14.1002 160.113L14.1002 172.061L14.7002 172.061L14.7002 160.113L14.1002 160.113ZM22.2002 159.813L14.4002 159.813L14.4002 160.413L22.2002 160.413L22.2002 159.813ZM21.9002 158.32L21.9002 160.113L22.5002 160.113L22.5002 158.32L21.9002 158.32ZM28.2002 158.02L22.2002 158.02L22.2002 158.62L28.2002 158.62L28.2002 158.02ZM28.5002 160.113L28.5002 158.32L27.9002 158.32L27.9002 160.113L28.5002 160.113ZM34.2002 159.813L28.2002 159.813L28.2002 160.413L34.2002 160.413L34.2002 159.813Z" fill="#B9B9B9" mask="url(#path-56-inside-19)"/>
<mask id="path-58-inside-20" fill="white">
<path fill-rule="evenodd" clip-rule="evenodd" d="M72.5996 160.113L72.5996 172.061L62.9996 172.061L62.9996 174.451L59.9996 174.451L59.9996 172.061L52.7996 172.061L52.7996 160.113L60.5996 160.113L60.5996 158.32L66.5996 158.32L66.5996 160.113L72.5996 160.113Z"/>
</mask>
<path fill-rule="evenodd" clip-rule="evenodd" d="M72.5996 160.113L72.5996 172.061L62.9996 172.061L62.9996 174.451L59.9996 174.451L59.9996 172.061L52.7996 172.061L52.7996 160.113L60.5996 160.113L60.5996 158.32L66.5996 158.32L66.5996 160.113L72.5996 160.113Z" fill="#D7D7D7"/>
<path d="M72.5996 172.061L72.5996 172.361L72.8996 172.361L72.8996 172.061L72.5996 172.061ZM72.5996 160.113L72.8996 160.113L72.8996 159.813L72.5996 159.813L72.5996 160.113ZM62.9996 172.061L62.9996 171.761L62.6996 171.761L62.6996 172.061L62.9996 172.061ZM62.9996 174.451L62.9996 174.751L63.2996 174.751L63.2996 174.451L62.9996 174.451ZM59.9996 174.451L59.6996 174.451L59.6996 174.751L59.9996 174.751L59.9996 174.451ZM59.9996 172.061L60.2996 172.061L60.2996 171.761L59.9996 171.761L59.9996 172.061ZM52.7996 172.061L52.4996 172.061L52.4996 172.361L52.7996 172.361L52.7996 172.061ZM52.7996 160.113L52.7996 159.813L52.4996 159.813L52.4996 160.113L52.7996 160.113ZM60.5996 160.113L60.5996 160.413L60.8996 160.413L60.8996 160.113L60.5996 160.113ZM60.5996 158.32L60.5996 158.02L60.2996 158.02L60.2996 158.32L60.5996 158.32ZM66.5996 158.32L66.8996 158.32L66.8996 158.02L66.5996 158.02L66.5996 158.32ZM66.5996 160.113L66.2996 160.113L66.2996 160.413L66.5996 160.413L66.5996 160.113ZM72.8996 172.061L72.8996 160.113L72.2996 160.113L72.2996 172.061L72.8996 172.061ZM62.9996 172.361L72.5996 172.361L72.5996 171.761L62.9996 171.761L62.9996 172.361ZM62.6996 172.061L62.6996 174.451L63.2996 174.451L63.2996 172.061L62.6996 172.061ZM62.9996 174.151L59.9996 174.151L59.9996 174.751L62.9996 174.751L62.9996 174.151ZM60.2996 174.451L60.2996 172.061L59.6996 172.061L59.6996 174.451L60.2996 174.451ZM52.7996 172.361L59.9996 172.361L59.9996 171.761L52.7996 171.761L52.7996 172.361ZM52.4996 160.113L52.4996 172.061L53.0996 172.061L53.0996 160.113L52.4996 160.113ZM60.5996 159.813L52.7996 159.813L52.7996 160.413L60.5996 160.413L60.5996 159.813ZM60.2996 158.32L60.2996 160.113L60.8996 160.113L60.8996 158.32L60.2996 158.32ZM66.5996 158.02L60.5996 158.02L60.5996 158.62L66.5996 158.62L66.5996 158.02ZM66.8996 160.113L66.8996 158.32L66.2996 158.32L66.2996 160.113L66.8996 160.113ZM72.5996 159.813L66.5996 159.813L66.5996 160.413L72.5996 160.413L72.5996 159.813Z" fill="#B9B9B9" mask="url(#path-58-inside-20)"/>
<path d="M60.0579 164.165H59.3353L58.4351 164.735V165.417L59.2678 164.895H59.2891V167.802H60.0579V164.165ZM62.2503 167.851C63.06 167.851 63.6104 167.324 63.6086 166.589C63.6104 165.893 63.1239 165.392 62.4687 165.392C62.1491 165.392 61.8739 165.525 61.7461 165.705H61.7247L61.8189 164.794H63.408V164.165H61.185L61.0127 166.083L61.6963 166.206C61.8082 166.055 62.0248 165.96 62.2397 165.96C62.6054 165.962 62.8682 166.227 62.8682 166.609C62.8682 166.987 62.6108 167.248 62.2503 167.248C61.9449 167.248 61.6981 167.056 61.6804 166.774H60.9346C60.9488 167.402 61.4975 167.851 62.2503 167.851ZM64.4818 167.848C64.709 167.848 64.9061 167.658 64.9079 167.422C64.9061 167.189 64.709 166.999 64.4818 166.999C64.2474 166.999 64.0538 167.189 64.0556 167.422C64.0538 167.658 64.2474 167.848 64.4818 167.848ZM66.6497 164.165H65.9271L65.0269 164.735V165.417L65.8596 164.895H65.8809V167.802H66.6497V164.165Z" fill="#303030"/>
<path d="M40.2791 164.165H39.5565L38.6562 164.735V165.417L39.489 164.895H39.5103V167.802H40.2791V164.165ZM42.4715 167.851C43.2812 167.851 43.8316 167.324 43.8298 166.589C43.8316 165.893 43.3451 165.392 42.6899 165.392C42.3703 165.392 42.0951 165.525 41.9672 165.705H41.9459L42.04 164.794H43.6292V164.165H41.4062L41.2339 166.083L41.9175 166.206C42.0294 166.055 42.246 165.96 42.4608 165.96C42.8266 165.962 43.0894 166.227 43.0894 166.609C43.0894 166.987 42.8319 167.248 42.4715 167.248C42.1661 167.248 41.9193 167.056 41.9015 166.774H41.1558C41.17 167.402 41.7187 167.851 42.4715 167.851ZM44.7029 167.848C44.9302 167.848 45.1273 167.658 45.1291 167.422C45.1273 167.189 44.9302 166.999 44.7029 166.999C44.4686 166.999 44.275 167.189 44.2768 167.422C44.275 167.658 44.4686 167.848 44.7029 167.848ZM45.743 167.802H48.3353V167.173H46.8083V167.148L47.3392 166.628C48.0867 165.946 48.2874 165.605 48.2874 165.192C48.2874 164.561 47.7725 164.116 46.993 164.116C46.2295 164.116 45.7057 164.572 45.7075 165.286H46.4372C46.4355 164.938 46.6556 164.725 46.9877 164.725C47.3073 164.725 47.5452 164.924 47.5452 165.243C47.5452 165.533 47.3676 165.731 47.0374 166.049L45.743 167.248V167.802Z" fill="#303030"/>
<path d="M21.0618 164.165H20.3392L19.439 164.735V165.417L20.2717 164.895H20.293V167.802H21.0618V164.165ZM23.2542 167.851C24.0639 167.851 24.6143 167.324 24.6125 166.589C24.6143 165.893 24.1278 165.392 23.4726 165.392C23.153 165.392 22.8778 165.525 22.75 165.705H22.7286L22.8228 164.794H24.4119V164.165H22.1889L22.0166 166.083L22.7002 166.206C22.8121 166.055 23.0287 165.96 23.2436 165.96C23.6093 165.962 23.8721 166.227 23.8721 166.609C23.8721 166.987 23.6147 167.248 23.2542 167.248C22.9488 167.248 22.702 167.056 22.6843 166.774H21.9385C21.9527 167.402 22.5014 167.851 23.2542 167.851ZM25.4857 167.848C25.7129 167.848 25.91 167.658 25.9118 167.422C25.91 167.189 25.7129 166.999 25.4857 166.999C25.2513 166.999 25.0578 167.189 25.0595 167.422C25.0578 167.658 25.2513 167.848 25.4857 167.848ZM27.7575 167.851C28.5743 167.851 29.1584 167.402 29.1566 166.781C29.1584 166.328 28.8708 166.005 28.3363 165.937V165.909C28.7429 165.836 29.0235 165.549 29.0217 165.14C29.0235 164.567 28.521 164.116 27.7682 164.116C27.0224 164.116 26.4613 164.552 26.4507 165.181H27.1875C27.1964 164.904 27.4503 164.725 27.7646 164.725C28.0753 164.725 28.2831 164.913 28.2813 165.186C28.2831 165.472 28.0398 165.666 27.69 165.666H27.3509V166.23H27.69C28.102 166.23 28.3594 166.436 28.3576 166.729C28.3594 167.019 28.1108 167.218 27.7593 167.218C27.4201 167.218 27.1662 167.04 27.152 166.774H26.3779C26.3903 167.409 26.9585 167.851 27.7575 167.851Z" fill="#303030"/>
<mask id="path-63-inside-21" fill="white">
<path fill-rule="evenodd" clip-rule="evenodd" d="M60.5996 46.5999L60.5996 58.5486L50.9996 58.5486L50.9996 60.9384L47.9996 60.9384L47.9996 58.5486L40.7996 58.5486L40.7996 46.5999L48.5996 46.5999L48.5996 44.8076L54.5996 44.8076L54.5996 46.5999L60.5996 46.5999Z"/>
</mask>
<path fill-rule="evenodd" clip-rule="evenodd" d="M60.5996 46.5999L60.5996 58.5486L50.9996 58.5486L50.9996 60.9384L47.9996 60.9384L47.9996 58.5486L40.7996 58.5486L40.7996 46.5999L48.5996 46.5999L48.5996 44.8076L54.5996 44.8076L54.5996 46.5999L60.5996 46.5999Z" fill="#D7D7D7"/>
<path d="M60.5996 58.5486L60.5996 58.8486L60.8996 58.8486L60.8996 58.5486L60.5996 58.5486ZM60.5996 46.5999L60.8996 46.5999L60.8996 46.2999L60.5996 46.2999L60.5996 46.5999ZM50.9996 58.5486L50.9996 58.2486L50.6996 58.2486L50.6996 58.5486L50.9996 58.5486ZM50.9996 60.9384L50.9996 61.2384L51.2996 61.2384L51.2996 60.9384L50.9996 60.9384ZM47.9996 60.9384L47.6996 60.9384L47.6996 61.2384L47.9996 61.2384L47.9996 60.9384ZM47.9996 58.5486L48.2996 58.5486L48.2996 58.2486L47.9996 58.2486L47.9996 58.5486ZM40.7996 58.5486L40.4996 58.5486L40.4996 58.8486L40.7996 58.8486L40.7996 58.5486ZM40.7996 46.5999L40.7996 46.2999L40.4996 46.2999L40.4996 46.5999L40.7996 46.5999ZM48.5996 46.5999L48.5996 46.8999L48.8996 46.8999L48.8996 46.5999L48.5996 46.5999ZM48.5996 44.8076L48.5996 44.5076L48.2996 44.5076L48.2996 44.8076L48.5996 44.8076ZM54.5996 44.8076L54.8996 44.8076L54.8996 44.5076L54.5996 44.5076L54.5996 44.8076ZM54.5996 46.5999L54.2996 46.5999L54.2996 46.8999L54.5996 46.8999L54.5996 46.5999ZM60.8996 58.5486L60.8996 46.5999L60.2996 46.5999L60.2996 58.5486L60.8996 58.5486ZM50.9996 58.8486L60.5996 58.8486L60.5996 58.2486L50.9996 58.2486L50.9996 58.8486ZM50.6996 58.5486L50.6996 60.9384L51.2996 60.9384L51.2996 58.5486L50.6996 58.5486ZM50.9996 60.6384L47.9996 60.6384L47.9996 61.2384L50.9996 61.2384L50.9996 60.6384ZM48.2996 60.9384L48.2996 58.5486L47.6996 58.5486L47.6996 60.9384L48.2996 60.9384ZM40.7996 58.8486L47.9996 58.8486L47.9996 58.2486L40.7996 58.2486L40.7996 58.8486ZM40.4996 46.5999L40.4996 58.5486L41.0996 58.5486L41.0996 46.5999L40.4996 46.5999ZM48.5996 46.2999L40.7996 46.2999L40.7996 46.8999L48.5996 46.8999L48.5996 46.2999ZM48.2996 44.8076L48.2996 46.5999L48.8996 46.5999L48.8996 44.8076L48.2996 44.8076ZM54.5996 44.5076L48.5996 44.5076L48.5996 45.1076L54.5996 45.1076L54.5996 44.5076ZM54.8996 46.5999L54.8996 44.8076L54.2996 44.8076L54.2996 46.5999L54.8996 46.5999ZM60.5996 46.2999L54.5996 46.2999L54.5996 46.8999L60.5996 46.8999L60.5996 46.2999Z" fill="#B9B9B9" mask="url(#path-63-inside-21)"/>
<mask id="path-65-inside-22" fill="white">
<path fill-rule="evenodd" clip-rule="evenodd" d="M41.4004 46.5999L41.4004 58.5486L31.8004 58.5486L31.8004 60.9384L28.8004 60.9384L28.8004 58.5486L21.6004 58.5486L21.6004 46.5999L29.4004 46.5999L29.4004 44.8076L35.4004 44.8076L35.4004 46.5999L41.4004 46.5999Z"/>
</mask>
<path fill-rule="evenodd" clip-rule="evenodd" d="M41.4004 46.5999L41.4004 58.5486L31.8004 58.5486L31.8004 60.9384L28.8004 60.9384L28.8004 58.5486L21.6004 58.5486L21.6004 46.5999L29.4004 46.5999L29.4004 44.8076L35.4004 44.8076L35.4004 46.5999L41.4004 46.5999Z" fill="#D7D7D7"/>
<path d="M41.4004 58.5486L41.4004 58.8486L41.7004 58.8486L41.7004 58.5486L41.4004 58.5486ZM41.4004 46.5999L41.7004 46.5999L41.7004 46.2999L41.4004 46.2999L41.4004 46.5999ZM31.8004 58.5486L31.8004 58.2486L31.5004 58.2486L31.5004 58.5486L31.8004 58.5486ZM31.8004 60.9384L31.8004 61.2384L32.1004 61.2384L32.1004 60.9384L31.8004 60.9384ZM28.8004 60.9384L28.5004 60.9384L28.5004 61.2384L28.8004 61.2384L28.8004 60.9384ZM28.8004 58.5486L29.1004 58.5486L29.1004 58.2486L28.8004 58.2486L28.8004 58.5486ZM21.6004 58.5486L21.3004 58.5486L21.3004 58.8486L21.6004 58.8486L21.6004 58.5486ZM21.6004 46.5999L21.6004 46.2999L21.3004 46.2999L21.3004 46.5999L21.6004 46.5999ZM29.4004 46.5999L29.4004 46.8999L29.7004 46.8999L29.7004 46.5999L29.4004 46.5999ZM29.4004 44.8076L29.4004 44.5076L29.1004 44.5076L29.1004 44.8076L29.4004 44.8076ZM35.4004 44.8076L35.7004 44.8076L35.7004 44.5076L35.4004 44.5076L35.4004 44.8076ZM35.4004 46.5999L35.1004 46.5999L35.1004 46.8999L35.4004 46.8999L35.4004 46.5999ZM41.7004 58.5486L41.7004 46.5999L41.1004 46.5999L41.1004 58.5486L41.7004 58.5486ZM31.8004 58.8486L41.4004 58.8486L41.4004 58.2486L31.8004 58.2486L31.8004 58.8486ZM31.5004 58.5486L31.5004 60.9384L32.1004 60.9384L32.1004 58.5486L31.5004 58.5486ZM31.8004 60.6384L28.8004 60.6384L28.8004 61.2384L31.8004 61.2384L31.8004 60.6384ZM29.1004 60.9384L29.1004 58.5486L28.5004 58.5486L28.5004 60.9384L29.1004 60.9384ZM21.6004 58.8486L28.8004 58.8486L28.8004 58.2486L21.6004 58.2486L21.6004 58.8486ZM21.3004 46.5999L21.3004 58.5486L21.9004 58.5486L21.9004 46.5999L21.3004 46.5999ZM29.4004 46.2999L21.6004 46.2999L21.6004 46.8999L29.4004 46.8999L29.4004 46.2999ZM29.1004 44.8076L29.1004 46.5999L29.7004 46.5999L29.7004 44.8076L29.1004 44.8076ZM35.4004 44.5076L29.4004 44.5076L29.4004 45.1076L35.4004 45.1076L35.4004 44.5076ZM35.7004 46.5999L35.7004 44.8076L35.1004 44.8076L35.1004 46.5999L35.7004 46.5999ZM41.4004 46.2999L35.4004 46.2999L35.4004 46.8999L41.4004 46.8999L41.4004 46.2999Z" fill="#B9B9B9" mask="url(#path-65-inside-22)"/>
<mask id="path-67-inside-23" fill="white">
<path fill-rule="evenodd" clip-rule="evenodd" d="M79.7998 46.5999L79.7998 58.5486L70.1998 58.5486L70.1998 60.9384L67.1998 60.9384L67.1998 58.5486L59.9998 58.5486L59.9998 46.5999L67.7998 46.5999L67.7998 44.8076L73.7998 44.8076L73.7998 46.5999L79.7998 46.5999Z"/>
</mask>
<path fill-rule="evenodd" clip-rule="evenodd" d="M79.7998 46.5999L79.7998 58.5486L70.1998 58.5486L70.1998 60.9384L67.1998 60.9384L67.1998 58.5486L59.9998 58.5486L59.9998 46.5999L67.7998 46.5999L67.7998 44.8076L73.7998 44.8076L73.7998 46.5999L79.7998 46.5999Z" fill="#D7D7D7"/>
<path d="M79.7998 58.5486L79.7998 58.8486L80.0998 58.8486L80.0998 58.5486L79.7998 58.5486ZM79.7998 46.5999L80.0998 46.5999L80.0998 46.2999L79.7998 46.2999L79.7998 46.5999ZM70.1998 58.5486L70.1998 58.2486L69.8998 58.2486L69.8998 58.5486L70.1998 58.5486ZM70.1998 60.9384L70.1998 61.2384L70.4998 61.2384L70.4998 60.9384L70.1998 60.9384ZM67.1998 60.9384L66.8998 60.9384L66.8998 61.2384L67.1998 61.2384L67.1998 60.9384ZM67.1998 58.5486L67.4998 58.5486L67.4998 58.2486L67.1998 58.2486L67.1998 58.5486ZM59.9998 58.5486L59.6998 58.5486L59.6998 58.8486L59.9998 58.8486L59.9998 58.5486ZM59.9998 46.5999L59.9998 46.2999L59.6998 46.2999L59.6998 46.5999L59.9998 46.5999ZM67.7998 46.5999L67.7998 46.8999L68.0998 46.8999L68.0998 46.5999L67.7998 46.5999ZM67.7998 44.8076L67.7998 44.5076L67.4998 44.5076L67.4998 44.8076L67.7998 44.8076ZM73.7998 44.8076L74.0998 44.8076L74.0998 44.5076L73.7998 44.5076L73.7998 44.8076ZM73.7998 46.5999L73.4998 46.5999L73.4998 46.8999L73.7998 46.8999L73.7998 46.5999ZM80.0998 58.5486L80.0998 46.5999L79.4998 46.5999L79.4998 58.5486L80.0998 58.5486ZM70.1998 58.8486L79.7998 58.8486L79.7998 58.2486L70.1998 58.2486L70.1998 58.8486ZM69.8998 58.5486L69.8998 60.9384L70.4998 60.9384L70.4998 58.5486L69.8998 58.5486ZM70.1998 60.6384L67.1998 60.6384L67.1998 61.2384L70.1998 61.2384L70.1998 60.6384ZM67.4998 60.9384L67.4998 58.5486L66.8998 58.5486L66.8998 60.9384L67.4998 60.9384ZM59.9998 58.8486L67.1998 58.8486L67.1998 58.2486L59.9998 58.2486L59.9998 58.8486ZM59.6998 46.5999L59.6998 58.5486L60.2998 58.5486L60.2998 46.5999L59.6998 46.5999ZM67.7998 46.2999L59.9998 46.2999L59.9998 46.8999L67.7998 46.8999L67.7998 46.2999ZM67.4998 44.8076L67.4998 46.5999L68.0998 46.5999L68.0998 44.8076L67.4998 44.8076ZM73.7998 44.5076L67.7998 44.5076L67.7998 45.1076L73.7998 45.1076L73.7998 44.5076ZM74.0998 46.5999L74.0998 44.8076L73.4998 44.8076L73.4998 46.5999L74.0998 46.5999ZM79.7998 46.2999L73.7998 46.2999L73.7998 46.8999L79.7998 46.8999L79.7998 46.2999Z" fill="#B9B9B9" mask="url(#path-67-inside-23)"/>
<path d="M66.8797 54.2881H69.472V53.6595H67.945V53.6347L68.4759 53.1144C69.2235 52.4326 69.4241 52.0917 69.4241 51.678C69.4241 51.0477 68.9092 50.602 68.1297 50.602C67.3662 50.602 66.8424 51.0583 66.8442 51.7721H67.574C67.5722 51.4241 67.7923 51.211 68.1244 51.211C68.444 51.211 68.6819 51.4099 68.6819 51.7295C68.6819 52.0189 68.5044 52.2178 68.1741 52.5356L66.8797 53.7341V54.2881ZM70.4783 54.3343C70.7056 54.3343 70.9027 54.1443 70.9045 53.9081C70.9027 53.6755 70.7056 53.4855 70.4783 53.4855C70.244 53.4855 70.0504 53.6755 70.0522 53.9081C70.0504 54.1443 70.244 54.3343 70.4783 54.3343ZM72.6463 50.6517H71.9237L71.0234 51.2217V51.9035L71.8562 51.3815H71.8775V54.2881H72.6463V50.6517Z" fill="#303030"/>
<path d="M47.1009 54.2881H49.6932V53.6595H48.1662V53.6347L48.6971 53.1144C49.4446 52.4326 49.6453 52.0917 49.6453 51.678C49.6453 51.0477 49.1304 50.602 48.3509 50.602C47.5874 50.602 47.0636 51.0583 47.0654 51.7721H47.7951C47.7934 51.4241 48.0135 51.211 48.3456 51.211C48.6652 51.211 48.9031 51.4099 48.9031 51.7295C48.9031 52.0189 48.7255 52.2178 48.3953 52.5356L47.1009 53.7341V54.2881ZM50.6995 54.3343C50.9268 54.3343 51.1239 54.1443 51.1257 53.9081C51.1239 53.6755 50.9268 53.4855 50.6995 53.4855C50.4652 53.4855 50.2716 53.6755 50.2734 53.9081C50.2716 54.1443 50.4652 54.3343 50.6995 54.3343ZM51.7396 54.2881H54.3319V53.6595H52.8049V53.6347L53.3358 53.1144C54.0833 52.4326 54.284 52.0917 54.284 51.678C54.284 51.0477 53.769 50.602 52.9896 50.602C52.2261 50.602 51.7023 51.0583 51.7041 51.7721H52.4338C52.432 51.4241 52.6522 51.211 52.9842 51.211C53.3038 51.211 53.5418 51.4099 53.5418 51.7295C53.5418 52.0189 53.3642 52.2178 53.034 52.5356L51.7396 53.7341V54.2881Z" fill="#303030"/>
<path d="M27.8836 54.2881H30.4759V53.6595H28.949V53.6347L29.4798 53.1144C30.2274 52.4326 30.428 52.0917 30.428 51.678C30.428 51.0477 29.9131 50.602 29.1336 50.602C28.3701 50.602 27.8463 51.0583 27.8481 51.7721H28.5779C28.5761 51.4241 28.7963 51.211 29.1283 51.211C29.4479 51.211 29.6858 51.4099 29.6858 51.7295C29.6858 52.0189 29.5083 52.2178 29.178 52.5356L27.8836 53.7341V54.2881ZM31.4822 54.3343C31.7095 54.3343 31.9066 54.1443 31.9084 53.9081C31.9066 53.6755 31.7095 53.4855 31.4822 53.4855C31.2479 53.4855 31.0543 53.6755 31.0561 53.9081C31.0543 54.1443 31.2479 54.3343 31.4822 54.3343ZM33.7541 54.3378C34.5708 54.3378 35.155 53.8886 35.1532 53.2671C35.155 52.8144 34.8674 52.4912 34.3329 52.4237V52.3953C34.7395 52.3225 35.0201 52.0349 35.0183 51.6265C35.0201 51.053 34.5176 50.602 33.7647 50.602C33.019 50.602 32.4579 51.0388 32.4473 51.6673H33.1841C33.193 51.3904 33.4469 51.211 33.7612 51.211C34.0719 51.211 34.2797 51.3992 34.2779 51.6727C34.2797 51.9585 34.0364 52.1521 33.6866 52.1521H33.3475V52.7167H33.6866C34.0985 52.7167 34.356 52.9227 34.3542 53.2156C34.356 53.5051 34.1074 53.7039 33.7559 53.7039C33.4167 53.7039 33.1628 53.5264 33.1486 53.26H32.3745C32.3869 53.8957 32.9551 54.3378 33.7541 54.3378Z" fill="#303030"/>
<path d="M28.8587 243.197L202.151 175.159L203.112 185.179L29.819 253.216L28.8587 243.197Z" fill="#EBEBEB" stroke="#E7E7E7"/>
<path d="M82.3168 231.223C82.8309 231.017 83.0825 230.605 83.0636 229.954L82.9252 225.17L82.2985 225.41L82.4719 228.713L82.4333 228.729L80.2129 226.243L79.595 226.489L82.4759 229.594L82.487 229.92C82.5082 230.556 82.2738 230.711 81.8156 230.772L81.8742 231.322C81.9439 231.327 82.1237 231.3 82.3168 231.223Z" fill="#303030"/>
<path d="M84.5367 228.748L84.7298 228.671C85.5506 228.343 85.529 227.625 85.0892 226.411L84.6113 225.092L85.9727 224.548L87.2596 227.661L87.8293 227.433L86.3273 223.8L83.8555 224.788L84.4528 226.423C84.9091 227.663 84.9009 227.997 84.4568 228.174L84.3216 228.228L84.5367 228.748Z" fill="#303030"/>
<path d="M89.3053 226.888C89.5443 226.792 89.6606 226.523 89.5638 226.288C89.467 226.054 89.1923 225.941 88.9533 226.036C88.7143 226.132 88.598 226.401 88.6948 226.636C88.7916 226.87 89.0663 226.983 89.3053 226.888Z" fill="#303030"/>
<path d="M92.7957 226.816L93.3653 226.589L92.8803 225.416L96.366 224.023L96.8471 225.187L97.4167 224.959L96.7205 223.275L96.1508 223.503L94.3633 219.179L91.428 220.352L92.1667 222.438C92.6741 223.856 92.6212 224.571 92.4141 224.996L92.0955 225.123L92.7957 226.816ZM93.1287 224.71C93.2363 224.127 93.1165 223.293 92.7364 222.21L92.1839 220.656L94.0088 219.927L95.5812 223.73L93.1287 224.71Z" fill="#303030"/>
<path d="M99.3488 222.92C100.102 222.619 100.5 222.03 100.447 221.412L99.8338 221.481C99.8454 221.917 99.5881 222.24 99.1415 222.419C98.4729 222.686 97.8368 222.446 97.4885 221.679L100.18 220.604L100.082 220.367C99.5229 219.014 98.5105 218.879 97.7381 219.187C96.7339 219.588 96.3884 220.63 96.8499 221.747C97.3115 222.863 98.2771 223.348 99.3488 222.92ZM97.2891 221.196C97.094 220.616 97.2936 219.949 97.9454 219.689C98.5633 219.442 99.147 219.738 99.4012 220.353L97.2891 221.196Z" fill="#303030"/>
<path d="M103.434 220.318L100.971 217.951L100.217 218.252L101.719 221.885L102.289 221.657L101.119 218.826L103.515 221.167L103.979 220.982L104.056 217.713L105.205 220.493L105.775 220.265L104.273 216.632L103.539 216.925L103.434 220.318Z" fill="#303030"/>
<path d="M108.355 219.322C109.359 218.921 109.726 217.904 109.261 216.778C108.791 215.643 107.806 215.165 106.802 215.566C105.798 215.968 105.431 216.985 105.901 218.12C106.366 219.246 107.351 219.724 108.355 219.322ZM108.148 218.821C107.385 219.126 106.771 218.621 106.47 217.893C106.169 217.164 106.247 216.373 107.01 216.068C107.772 215.763 108.39 216.277 108.691 217.006C108.992 217.734 108.911 218.516 108.148 218.821Z" fill="#303030"/>
<path d="M110.873 218.228L111.443 218.001L110.809 216.468L111.321 216.264L113.171 217.31L113.905 217.017L111.611 215.74L112.384 213.392L111.65 213.685L110.971 215.797L110.594 215.948L109.941 214.368L109.371 214.595L110.873 218.228Z" fill="#303030"/>
<path d="M115.088 218.132L115.657 217.905L114.863 215.984L114.912 215.965C115.119 216.113 115.541 216.452 116.255 216.167C117.182 215.797 117.528 214.81 117.051 213.655C116.577 212.511 115.629 212.041 114.693 212.415C113.968 212.704 113.926 213.228 113.879 213.467L113.811 213.494L113.573 212.917L113.022 213.137L115.088 218.132ZM114.333 214.73C113.997 213.916 114.137 213.221 114.832 212.943C115.556 212.654 116.16 213.107 116.477 213.873C116.798 214.649 116.685 215.411 115.971 215.696C115.285 215.97 114.674 215.553 114.333 214.73Z" fill="#303030"/>
<path d="M119.793 214.765C120.44 214.506 120.637 214.031 120.655 213.748L120.684 213.736L120.887 214.228L121.457 214.001L120.468 211.607C119.99 210.453 119.038 210.679 118.564 210.868C118.004 211.092 117.445 211.535 117.43 212.313L118.048 212.287C118.064 211.972 118.244 211.569 118.787 211.352C119.311 211.143 119.682 211.312 119.874 211.778L119.882 211.797C119.994 212.066 119.704 212.155 119.063 212.51C118.411 212.872 117.722 213.321 118.066 214.153C118.36 214.863 119.088 215.046 119.793 214.765ZM119.673 214.228C119.219 214.41 118.808 214.342 118.648 213.954C118.472 213.529 118.813 213.238 119.234 213.004C119.463 212.879 120.083 212.554 120.133 212.402L120.344 212.913C120.531 213.367 120.348 213.958 119.673 214.228Z" fill="#303030"/>
<path d="M120.706 210.674L121.932 210.184L123.219 213.297L123.788 213.069L122.501 209.957L123.718 209.471L123.503 208.95L120.49 210.154L120.706 210.674Z" fill="#303030"/>
<path d="M126.065 211.201L124.904 208.391L124.334 208.619L125.836 212.252L126.502 211.985L127.117 208.466L128.279 211.276L128.848 211.048L127.346 207.415L126.69 207.677L126.065 211.201Z" fill="#303030"/>
<path d="M131.248 205.857L130.678 206.084L131.44 207.927C131.197 208.115 130.934 208.275 130.594 208.411C130.13 208.596 129.667 208.483 129.437 207.925L128.956 206.761L128.386 206.989L128.867 208.153C129.235 209.042 129.969 209.267 130.809 208.931C131.159 208.791 131.42 208.635 131.656 208.45L132.18 209.717L132.75 209.49L131.248 205.857Z" fill="#303030"/>
<path d="M135.381 208.527C136.134 208.226 136.532 207.637 136.479 207.019L135.866 207.088C135.877 207.524 135.62 207.847 135.174 208.026C134.505 208.293 133.869 208.053 133.521 207.286L136.212 206.211L136.114 205.974C135.555 204.621 134.543 204.486 133.77 204.794C132.766 205.195 132.42 206.237 132.882 207.354C133.344 208.47 134.309 208.955 135.381 208.527ZM133.321 206.803C133.126 206.223 133.326 205.556 133.977 205.296C134.595 205.049 135.179 205.345 135.433 205.96L133.321 206.803Z" fill="#303030"/>
<path d="M139.289 206.966C140.11 206.638 140.447 205.93 140.278 205.248L139.708 205.476C139.766 205.916 139.526 206.287 139.082 206.464C138.406 206.734 137.744 206.359 137.396 205.517C137.056 204.694 137.277 203.977 137.943 203.711C138.446 203.511 138.87 203.694 139.094 203.99L139.663 203.763C139.285 203.12 138.509 202.901 137.726 203.214C136.722 203.615 136.377 204.657 136.834 205.764C137.284 206.852 138.246 207.382 139.289 206.966Z" fill="#303030"/>
<path d="M141.548 205.975L142.118 205.748L141.484 204.215L141.996 204.011L143.846 205.057L144.58 204.764L142.286 203.487L143.059 201.139L142.325 201.432L141.646 203.544L141.269 203.695L140.616 202.115L140.046 202.342L141.548 205.975Z" fill="#303030"/>
<path d="M146.326 204.166C146.973 203.908 147.17 203.432 147.188 203.149L147.217 203.138L147.42 203.63L147.99 203.402L147 201.009C146.523 199.854 145.57 200.081 145.097 200.269C144.537 200.493 143.978 200.937 143.962 201.715L144.581 201.688C144.597 201.373 144.777 200.971 145.32 200.754C145.844 200.545 146.215 200.713 146.407 201.179L146.415 201.198C146.526 201.468 146.237 201.556 145.596 201.911C144.944 202.274 144.255 202.722 144.599 203.555C144.893 204.265 145.621 204.448 146.326 204.166ZM146.205 203.63C145.752 203.811 145.341 203.744 145.181 203.356C145.005 202.93 145.346 202.639 145.767 202.405C145.996 202.28 146.616 201.956 146.665 201.804L146.877 202.315C147.064 202.769 146.881 203.36 146.205 203.63Z" fill="#303030"/>
<path d="M151.26 202.096L151.801 201.88L150.299 198.247L148.773 198.856C147.974 199.175 147.658 199.778 147.935 200.448C148.141 200.947 148.544 201.199 149.052 201.17L148.788 203.083L149.406 202.836L149.655 201.017L150.65 200.62L151.26 202.096ZM150.435 200.1L149.382 200.52C148.979 200.681 148.648 200.568 148.505 200.22C148.359 199.868 148.54 199.545 148.984 199.367L149.969 198.974L150.435 200.1Z" fill="#303030"/>
<path d="M163.564 26.6078L90.1948 -6.83979L69.1872 -8.95967L162.921 32.9286L163.564 26.6078Z" fill="#EBEBEB" stroke="#E7E7E7"/>
<path d="M105.577 7.22163C105.948 7.39047 106.3 7.31307 106.645 6.96844L109.184 4.43645L108.737 4.225L107.023 6.01515L106.995 6.00247L107.23 3.54015L106.783 3.33723L106.545 6.46957L106.373 6.64315C106.036 6.98147 105.834 6.93567 105.569 6.7229L105.299 7.03666C105.331 7.07653 105.437 7.15822 105.577 7.22163Z" fill="#303030"/>
<path d="M108.047 7.13497L108.186 7.19839C108.779 7.46789 109.16 7.08697 109.6 6.22889L110.078 5.29598L111.062 5.74303L110.014 8.02908L110.426 8.21615L111.649 5.54793L109.862 4.73626L109.272 5.8953C108.827 6.77581 108.64 6.94304 108.319 6.7972L108.222 6.75281L108.047 7.13497Z" fill="#303030"/>
<path d="M111.469 8.72349C111.642 8.80196 111.847 8.72546 111.926 8.55349C112.005 8.38151 111.928 8.1766 111.755 8.09813C111.583 8.01966 111.377 8.09616 111.298 8.26813C111.219 8.44011 111.296 8.64502 111.469 8.72349Z" fill="#303030"/>
<path d="M113.665 9.6877L113.798 9.74794C114.586 10.1062 115.038 9.53909 115.594 8.4402L116.299 7.04807L117.632 7.65365L116.177 10.8291L116.61 11.0257L118.24 7.46806L116.063 6.47884L115.214 8.16658C114.694 9.19836 114.398 9.54211 113.951 9.33919L113.846 9.29163L113.665 9.6877Z" fill="#303030"/>
<path d="M118.516 11.9591C119.061 12.2064 119.583 12.1162 119.893 11.7702L119.546 11.4783C119.314 11.7087 119.008 11.7375 118.685 11.5909C118.202 11.3713 118.011 10.909 118.254 10.3287L120.199 11.2125L120.279 11.0388C120.734 10.0452 120.297 9.43521 119.739 9.18156C119.013 8.85182 118.27 9.20282 117.895 10.0227C117.519 10.8427 117.742 11.6072 118.516 11.9591ZM118.416 9.97435C118.635 9.57186 119.099 9.33581 119.57 9.54983C120.017 9.75275 120.15 10.2163 119.943 10.6679L118.416 9.97435Z" fill="#303030"/>
<path d="M121.341 13.2424C121.934 13.5119 122.49 13.3282 122.777 12.8874L122.365 12.7003C122.155 12.9573 121.831 13.02 121.51 12.8742C121.021 12.6522 120.892 12.1065 121.175 11.4881C121.452 10.8836 121.955 10.6334 122.436 10.8521C122.799 11.017 122.914 11.3377 122.865 11.6094L123.277 11.7965C123.436 11.2645 123.163 10.7375 122.598 10.4807C121.872 10.151 121.13 10.502 120.757 11.3149C120.391 12.114 120.587 12.9 121.341 13.2424Z" fill="#303030"/>
<path d="M124.656 11.4579L124.245 11.2708L123.022 13.9391L123.434 14.1261L123.956 12.9866L125.24 13.57L124.718 14.7095L125.129 14.8966L126.352 12.2284L125.94 12.0413L125.415 13.1878L124.131 12.6044L124.656 11.4579Z" fill="#303030"/>
<path d="M126.641 15.659C127.109 15.8715 127.468 15.7323 127.631 15.5966L127.652 15.6061L127.486 15.9674L127.898 16.1545L128.704 14.3965C129.092 13.5488 128.488 13.1567 128.146 13.0013C127.741 12.8174 127.217 12.7471 126.785 13.1384L127.112 13.4549C127.292 13.3016 127.602 13.1906 127.994 13.369C128.373 13.541 128.468 13.8256 128.311 14.1678L128.305 14.1817C128.214 14.3797 128.02 14.2704 127.502 14.111C126.976 13.9494 126.383 13.8123 126.103 14.4238C125.864 14.9449 126.132 15.4276 126.641 15.659ZM126.873 15.3193C126.545 15.1703 126.374 14.9166 126.505 14.6317C126.648 14.319 126.979 14.3517 127.319 14.4559C127.503 14.5143 127.993 14.6781 128.101 14.6264L127.929 15.0016C127.776 15.3351 127.361 15.5412 126.873 15.3193Z" fill="#303030"/>
<path d="M130.262 17.2284L130.652 17.4059L131.875 14.7377L130.772 14.2367C130.195 13.9744 129.707 14.1156 129.481 14.6072C129.313 14.9737 129.379 15.3183 129.652 15.5744L128.475 16.4167L128.922 16.6196L130.04 15.8178L130.758 16.1444L130.262 17.2284ZM130.933 15.7622L130.173 15.4166C129.881 15.2843 129.776 15.0496 129.893 14.7942C130.012 14.5354 130.28 14.4661 130.601 14.612L131.312 14.9354L130.933 15.7622Z" fill="#303030"/>
<path d="M132.553 18.2693L132.692 18.3327C133.285 18.6022 133.666 18.2213 134.106 17.3632L134.584 16.4303L135.568 16.8774L134.52 19.1634L134.932 19.3505L136.155 16.6822L134.368 15.8706L133.778 17.0296C133.333 17.9101 133.146 18.0774 132.825 17.9315L132.728 17.8871L132.553 18.2693Z" fill="#303030"/>
<path d="M136.376 19.2762L137.322 17.2125L136.91 17.0255L135.688 19.6937L136.169 19.9125L138.399 18.4321L137.453 20.4958L137.865 20.6829L139.088 18.0147L138.613 17.7991L136.376 19.2762Z" fill="#303030"/>
<path d="M140.253 18.5444L139.842 18.3573L138.619 21.0255L139.031 21.2126L139.553 20.073L140.837 20.6564L140.315 21.796L140.726 21.9831L141.949 19.3148L141.537 19.1278L141.012 20.2743L139.728 19.6909L140.253 18.5444Z" fill="#303030"/>
<path d="M142.167 21.9072L143.113 19.8435L142.701 19.6565L141.478 22.3247L141.96 22.5435L144.19 21.0631L143.244 23.1268L143.656 23.3139L144.878 20.6457L144.404 20.4301L142.167 21.9072Z" fill="#303030"/>
<path d="M146.022 24.3889L146.412 24.5665L147.635 21.8983L146.533 21.3973C145.955 21.1349 145.467 21.2761 145.241 21.7678C145.073 22.1343 145.139 22.4789 145.412 22.735L144.235 23.5773L144.682 23.7802L145.8 22.9784L146.518 23.305L146.022 24.3889ZM146.693 22.9228L145.933 22.5772C145.641 22.4448 145.536 22.2102 145.653 21.9548C145.772 21.696 146.04 21.6267 146.361 21.7725L147.072 22.0959L146.693 22.9228Z" fill="#303030"/>
</g>
<path d="M10 1H146V-1H10V1ZM155 10V223H157V10H155ZM146 232H10V234H146V232ZM1 223V10H-1V223H1ZM10 232C5.02944 232 1 227.971 1 223H-1C-1 229.075 3.92487 234 10 234V232ZM155 223C155 227.971 150.971 232 146 232V234C152.075 234 157 229.075 157 223H155ZM146 1C150.971 1 155 5.02944 155 10H157C157 3.92487 152.075 -1 146 -1V1ZM10 -1C3.92487 -1 -1 3.92486 -1 10H1C1 5.02944 5.02944 1 10 1V-1Z" fill="#E8E8E8"/>
<defs>
<clipPath id="clip0">
<path d="M0 10C0 4.47715 4.47715 0 10 0H146C151.523 0 156 4.47715 156 10V223C156 228.523 151.523 233 146 233H10C4.47716 233 0 228.523 0 223V10Z" fill="white"/>
</clipPath>
</defs>
</svg>
