<svg width="32" height="32" viewBox="0 0 32 32" fill="none" xmlns="http://www.w3.org/2000/svg">
<path d="M16 4.92275e-06C18.1011 4.81779e-06 20.1817 0.413857 22.1229 1.21793C24.0641 2.02201 25.828 3.20056 27.3137 4.6863C28.7994 6.17203 29.978 7.93586 30.7821 9.87707C31.5861 11.8183 32 13.8989 32 16C32 18.1012 31.5861 20.1817 30.7821 22.1229C29.978 24.0641 28.7994 25.828 27.3137 27.3137C25.828 28.7994 24.0641 29.978 22.1229 30.7821C20.1817 31.5861 18.1011 32 16 32L16 16L16 4.92275e-06Z" fill="#B244C9"/>
<path d="M16 32C13.8989 32 11.8183 31.5861 9.87707 30.7821C7.93586 29.978 6.17204 28.7994 4.6863 27.3137C3.20056 25.828 2.02201 24.0641 1.21794 22.1229C0.413861 20.1817 8.43482e-06 18.1012 8.11993e-06 16C7.80503e-06 13.8989 0.41386 11.8183 1.21794 9.87707C2.02201 7.93586 3.20056 6.17203 4.6863 4.68629C6.17204 3.20056 7.93586 2.022 9.87707 1.21793C11.8183 0.413854 13.8989 1.89328e-06 16 1.83588e-06L16 16L16 32Z" fill="#3DB300"/>
<path d="M16 6.85718C11.7393 6.85718 8.28839 7.3384 8.28839 10.7068V20.3308C8.28839 21.1826 8.66433 21.9381 9.25233 22.4674V24.1805C9.25233 24.7098 9.6861 25.1429 10.2163 25.1429H11.1802C11.7152 25.1429 12.1442 24.7098 12.1442 24.1805V23.2181H19.8558V24.1805C19.8558 24.7098 20.2847 25.1429 20.8197 25.1429H21.7837C22.3138 25.1429 22.7476 24.7098 22.7476 24.1805V22.4674C23.3356 21.9381 23.7115 21.1826 23.7115 20.3309V10.7068C23.7116 7.3384 20.2607 6.85718 16 6.85718ZM11.6622 21.2933C10.8621 21.2933 10.2163 20.6485 10.2163 19.8497C10.2163 19.0509 10.8621 18.4061 11.6622 18.4061C12.4623 18.4061 13.1082 19.0509 13.1082 19.8497C13.1082 20.6485 12.4623 21.2933 11.6622 21.2933ZM20.3378 21.2933C19.5377 21.2933 18.8919 20.6485 18.8919 19.8497C18.8919 19.0509 19.5377 18.4061 20.3378 18.4061C21.1379 18.4061 21.7837 19.0509 21.7837 19.8497C21.7837 20.6485 21.1378 21.2933 20.3378 21.2933ZM21.7837 15.5188H10.2163V10.7068H21.7837V15.5188Z" fill="white"/>
<path d="M23.7115 11.6853H24.8428C25.0085 11.6853 25.1428 11.8196 25.1428 11.9853V15.6999C25.1428 15.8656 25.0085 15.9999 24.8428 15.9999H23.7115V11.6853Z" fill="white"/>
<path d="M6.85712 11.9853C6.85712 11.8196 6.99143 11.6853 7.15712 11.6853H8.2884V15.9999H7.15712C6.99143 15.9999 6.85712 15.8656 6.85712 15.6999V11.9853Z" fill="white"/>
</svg>
