<svg width="124" height="124" viewBox="0 0 124 124" fill="none" xmlns="http://www.w3.org/2000/svg">
<path d="M120.105 61.3818C119.822 59.0303 118.042 57.678 115.685 57.678C112.996 57.678 110.942 59.5771 110.942 62.9081C110.942 66.2291 112.961 68.1382 115.685 68.1382C118.295 68.1382 119.871 66.4031 120.105 64.5289L117.927 64.5189C117.724 65.6077 116.868 66.2341 115.72 66.2341C114.174 66.2341 113.125 65.0857 113.125 62.9081C113.125 60.7902 114.159 59.5821 115.735 59.5821C116.913 59.5821 117.763 60.2632 117.927 61.3818H120.105Z" fill="#303030"/>
<path d="M4.53081 57.8182H2.37811V68H4.53081V63.9283H6.10183C6.47967 66.6129 8.37882 68.1392 10.8 68.1392C13.4996 68.1392 15.5677 66.2401 15.5677 62.9091C15.5677 59.5781 13.4996 57.679 10.8 57.679C8.26944 57.679 6.31561 59.3295 6.06206 62.2479H4.53081V57.8182ZM13.3852 62.9091C13.3852 65.0668 12.3611 66.2351 10.8 66.2351C9.23393 66.2351 8.21476 65.0668 8.21476 62.9091C8.21476 60.7514 9.23393 59.5831 10.8 59.5831C12.3611 59.5831 13.3852 60.7514 13.3852 62.9091Z" fill="#303030"/>
<path d="M61.4745 14.1392C63.7615 14.1392 65.3971 12.8814 65.3921 11.1413C65.3971 9.87358 64.5917 8.96875 63.0953 8.77983V8.70028C64.2338 8.49645 65.0193 7.69105 65.0143 6.54758C65.0193 4.94176 63.6123 3.67898 61.5044 3.67898C59.4163 3.67898 57.8453 4.90199 57.8154 6.66193H59.8786C59.9035 5.88636 60.6144 5.38423 61.4944 5.38423C62.3644 5.38423 62.9461 5.91122 62.9411 6.67685C62.9461 7.47727 62.265 8.01918 61.2856 8.01918H60.336V9.60014H61.2856C62.439 9.60014 63.1599 10.1768 63.1549 10.9972C63.1599 11.8075 62.4639 12.3643 61.4795 12.3643C60.5299 12.3643 59.819 11.8672 59.7792 11.1214H57.6116C57.6464 12.9013 59.2373 14.1392 61.4745 14.1392Z" fill="#303030"/>
<path d="M57.757 121H62.1072C64.3941 121 65.6121 119.807 65.6121 118.186C65.6121 116.68 64.5333 115.77 63.3749 115.715V115.616C64.4339 115.377 65.2144 114.626 65.2144 113.428C65.2144 111.902 64.0809 110.818 61.8337 110.818H57.757V121ZM59.9097 119.24V116.536H61.7144C62.7485 116.536 63.3898 117.132 63.3898 117.972C63.3898 118.738 62.8678 119.24 61.6647 119.24H59.9097ZM59.9097 115.079V112.558H61.5454C62.4999 112.558 63.0418 113.05 63.0418 113.786C63.0418 114.592 62.3856 115.079 61.5056 115.079H59.9097Z" fill="#303030"/>
<path fill-rule="evenodd" clip-rule="evenodd" d="M73.0707 55.9696L78.6016 45.6981L68.1178 51.3432L62.3454 24L56.5898 51.2631L45.6977 45.3981L51.343 55.8822L24 61.6546L51.6768 67.4975L45.6976 78.6015L56.5898 72.7366L62.3454 100L68.1176 72.658L78.601 78.3029L72.7358 67.4105L100 61.6547L73.0707 55.9696Z" fill="url(#paint0_linear)"/>
<defs>
<linearGradient id="paint0_linear" x1="100" y1="62" x2="24" y2="62" gradientUnits="userSpaceOnUse">
<stop offset="0.274508" stop-color="#FF3030"/>
<stop offset="0.274608" stop-color="#D8D8D8"/>
<stop offset="1" stop-color="#BBBBBB"/>
</linearGradient>
</defs>
</svg>
