<svg width="22" height="22" viewBox="0 0 22 22" fill="none" xmlns="http://www.w3.org/2000/svg">
<g clip-path="url(#clip0)">
<path d="M16.3996 0.204445L13.5986 0.199951C10.4517 0.199951 8.4181 2.28638 8.4181 5.51568V7.96659H5.60181C5.35845 7.96659 5.16138 8.16389 5.16138 8.40725V11.9583C5.16138 12.2017 5.35867 12.3988 5.60181 12.3988H8.4181V21.3593C8.4181 21.6026 8.61517 21.7997 8.85853 21.7997H12.533C12.7763 21.7997 12.9734 21.6024 12.9734 21.3593V12.3988H16.2663C16.5097 12.3988 16.7067 12.2017 16.7067 11.9583L16.7081 8.40725C16.7081 8.2904 16.6616 8.17849 16.5791 8.0958C16.4966 8.01311 16.3843 7.96659 16.2674 7.96659H12.9734V5.88893C12.9734 4.89032 13.2114 4.38337 14.5122 4.38337L16.3991 4.3827C16.6423 4.3827 16.8393 4.1854 16.8393 3.94227V0.644876C16.8393 0.401965 16.6425 0.204895 16.3996 0.204445Z" fill="#303030"/>
</g>
<defs>
<clipPath id="clip0">
<rect width="21.6" height="21.5998" fill="white" transform="translate(0.199951 0.199951)"/>
</clipPath>
</defs>
</svg>
