<svg width="22" height="22" viewBox="0 0 22 22" fill="none" xmlns="http://www.w3.org/2000/svg">
<g clip-path="url(#clip0)">
<path d="M21.7782 6.55041C21.7276 5.40272 21.542 4.61369 21.2761 3.92999C21.0019 3.20426 20.5799 2.55451 20.0271 2.01437C19.4869 1.46582 18.8329 1.03958 18.1156 0.769594C17.4279 0.503728 16.643 0.318132 15.4953 0.26753C14.3391 0.212643 13.972 0.199951 11.0394 0.199951C8.1068 0.199951 7.73973 0.212643 6.58776 0.263245C5.44007 0.313847 4.65104 0.499607 3.9675 0.765308C3.2416 1.03958 2.59186 1.46154 2.05172 2.01437C1.50318 2.55451 1.0771 3.20854 0.806946 3.92587C0.541081 4.61369 0.355486 5.39843 0.304884 6.54613C0.249996 7.70239 0.237305 8.06946 0.237305 11.0021C0.237305 13.9347 0.249996 14.3017 0.300598 15.4537C0.3512 16.6014 0.53696 17.3904 0.802826 18.0741C1.0771 18.7999 1.50318 19.4496 2.05172 19.9898C2.59186 20.5383 3.24589 20.9645 3.96322 21.2345C4.65104 21.5004 5.43578 21.686 6.58363 21.7366C7.73545 21.7874 8.10268 21.7999 11.0353 21.7999C13.9679 21.7999 14.3349 21.7874 15.4869 21.7366C16.6346 21.686 17.4236 21.5004 18.1072 21.2345C19.5588 20.6733 20.7065 19.5256 21.2677 18.0741C21.5334 17.3863 21.7192 16.6014 21.7698 15.4537C21.8204 14.3017 21.8331 13.9347 21.8331 11.0021C21.8331 8.06946 21.8288 7.70239 21.7782 6.55041ZM19.8331 15.3693C19.7866 16.4242 19.6094 16.9939 19.4617 17.3736C19.0988 18.3146 18.3519 19.0614 17.4109 19.4244C17.0312 19.5721 16.4574 19.7493 15.4067 19.7956C14.2674 19.8464 13.9257 19.8589 11.0437 19.8589C8.16169 19.8589 7.81572 19.8464 6.68055 19.7956C5.62566 19.7493 5.05602 19.5721 4.67626 19.4244C4.20798 19.2513 3.78174 18.9771 3.43577 18.6184C3.07711 18.2681 2.80284 17.8462 2.62977 17.3779C2.48208 16.9981 2.30489 16.4242 2.25858 15.3736C2.20781 14.2343 2.19528 13.8925 2.19528 11.0105C2.19528 8.12847 2.20781 7.78249 2.25858 6.64749C2.30489 5.5926 2.48208 5.02296 2.62977 4.6432C2.80284 4.17476 3.07711 3.74868 3.44006 3.40254C3.79015 3.04388 4.21211 2.76961 4.68054 2.5967C5.0603 2.44902 5.63423 2.27183 6.68484 2.22535C7.82412 2.17474 8.16597 2.16205 11.0478 2.16205C13.9341 2.16205 14.2758 2.17474 15.4109 2.22535C16.4658 2.27183 17.0355 2.44902 17.4152 2.5967C17.8835 2.76961 18.3097 3.04388 18.6557 3.40254C19.0144 3.7528 19.2887 4.17476 19.4617 4.6432C19.6094 5.02296 19.7866 5.59672 19.8331 6.64749C19.8837 7.78678 19.8964 8.12847 19.8964 11.0105C19.8964 13.8925 19.8837 14.23 19.8331 15.3693Z" fill="#303030"/>
<path d="M11.0392 5.45337C7.97591 5.45337 5.49048 7.93863 5.49048 11.0021C5.49048 14.0656 7.97591 16.5508 11.0392 16.5508C14.1027 16.5508 16.588 14.0656 16.588 11.0021C16.588 7.93863 14.1027 5.45337 11.0392 5.45337ZM11.0392 14.6014C9.0519 14.6014 7.43989 12.9896 7.43989 11.0021C7.43989 9.01462 9.0519 7.40278 11.0392 7.40278C13.0267 7.40278 14.6385 9.01462 14.6385 11.0021C14.6385 12.9896 13.0267 14.6014 11.0392 14.6014Z" fill="#303030"/>
<path d="M18.1031 5.23386C18.1031 5.94921 17.5231 6.52924 16.8076 6.52924C16.0922 6.52924 15.5122 5.94921 15.5122 5.23386C15.5122 4.51834 16.0922 3.93848 16.8076 3.93848C17.5231 3.93848 18.1031 4.51834 18.1031 5.23386Z" fill="#303030"/>
</g>
<defs>
<clipPath id="clip0">
<rect width="21.6" height="21.6" fill="white" transform="translate(0.199951 0.199951)"/>
</clipPath>
</defs>
</svg>
