<svg width="141" height="40" viewBox="0 0 141 40" fill="none" xmlns="http://www.w3.org/2000/svg">
<path d="M54.5551 7.39595C53.946 7.29771 53.4449 7.15034 53.052 6.95385V6.52648H60.8035V6.95385C60.4597 7.13069 60.0569 7.25349 59.5951 7.32227V16.0612C60.0569 16.1398 60.4597 16.2577 60.8035 16.4149V16.8423H57.0604V16.4149C57.2372 16.3363 57.419 16.2724 57.6056 16.2233C57.7923 16.1644 57.9839 16.1103 58.1804 16.0612V7.29279H55.4246C55.3853 8.83525 55.3116 10.1174 55.2035 11.1391C55.1053 12.151 54.9776 12.991 54.8204 13.6591C54.6632 14.3174 54.4814 14.843 54.2751 15.236C54.0786 15.6289 53.8625 15.9777 53.6267 16.2823C53.4302 16.5377 53.1895 16.7244 52.9046 16.8423C52.6197 16.9602 52.3446 17.0191 52.0793 17.0191C52.0106 16.9405 51.9369 16.8324 51.8583 16.6949C51.7895 16.5475 51.7207 16.3952 51.652 16.2381C51.593 16.071 51.5439 15.9089 51.5046 15.7517C51.4653 15.5847 51.4407 15.4374 51.4309 15.3096L51.652 14.9412L53.3467 15.2507C53.4941 15.0051 53.6365 14.6809 53.7741 14.2781C53.9214 13.8752 54.0492 13.3644 54.1572 12.7454C54.2751 12.1167 54.3685 11.3651 54.4372 10.4907C54.5158 9.6163 54.5551 8.58472 54.5551 7.39595Z" fill="black"/>
<path d="M67.277 14.9117C67.277 15.1279 67.282 15.3145 67.2918 15.4717C67.3016 15.6289 67.3114 15.796 67.3213 15.9728L68.3381 16.1202V16.4296C68.0925 16.5574 67.8174 16.6703 67.5128 16.7686C67.2181 16.8668 66.9332 16.9405 66.6581 16.9896H66.2897C66.1914 16.7637 66.1325 16.5181 66.1128 16.2528C66.0932 15.9777 66.0784 15.6781 66.0686 15.3538H65.9949C65.9556 15.5503 65.877 15.7517 65.7591 15.9581C65.6511 16.1545 65.5037 16.3314 65.317 16.4886C65.1402 16.6458 64.929 16.7735 64.6834 16.8717C64.4377 16.97 64.1577 17.0191 63.8434 17.0191C63.2441 17.0191 62.7528 16.8374 62.3697 16.4738C61.9963 16.1103 61.8097 15.6338 61.8097 15.0444C61.8097 14.5924 61.8981 14.224 62.0749 13.9391C62.2616 13.6444 62.5318 13.4135 62.8855 13.2465C63.2391 13.0795 63.6763 12.9616 64.197 12.8928C64.7177 12.8142 65.322 12.7552 66.0097 12.716C66.049 12.2935 66.0588 11.9152 66.0391 11.5812C66.0293 11.2374 65.9753 10.9475 65.877 10.7117C65.7886 10.4661 65.6511 10.2795 65.4644 10.1517C65.2876 10.0142 65.0518 9.94543 64.757 9.94543C64.6195 9.94543 64.4623 9.95525 64.2855 9.9749C64.1184 9.98472 63.9514 10.024 63.7844 10.0928L63.0918 11.8612H62.7086C62.6104 11.5665 62.522 11.2619 62.4434 10.9475C62.3746 10.6331 62.3304 10.3237 62.3107 10.0191C62.6841 9.79314 63.0967 9.6163 63.5486 9.48858C64.0104 9.36086 64.5213 9.297 65.0813 9.297C65.5823 9.297 65.9802 9.37069 66.2749 9.51806C66.5795 9.6556 66.8104 9.83735 66.9676 10.0633C67.1248 10.2893 67.2279 10.5398 67.277 10.8149C67.3262 11.09 67.3507 11.3651 67.3507 11.6402C67.3507 12.2296 67.336 12.7995 67.3065 13.3496C67.2869 13.89 67.277 14.4107 67.277 14.9117ZM64.4328 16.1054C64.6784 16.1054 64.8946 16.0563 65.0813 15.9581C65.2679 15.8598 65.4251 15.7419 65.5528 15.6044C65.6806 15.4668 65.7837 15.3293 65.8623 15.1917C65.9409 15.0444 65.9949 14.9216 66.0244 14.8233V13.276C65.4546 13.276 64.9879 13.3054 64.6244 13.3644C64.2609 13.4233 63.976 13.5167 63.7697 13.6444C63.5634 13.7721 63.4209 13.9342 63.3423 14.1307C63.2637 14.3174 63.2244 14.5335 63.2244 14.7791C63.2244 15.2016 63.3325 15.5307 63.5486 15.7665C63.7648 15.9924 64.0595 16.1054 64.4328 16.1054Z" fill="black"/>
<path d="M69.2795 12.9812C69.2795 11.7237 69.3827 10.6724 69.589 9.82753C69.7953 8.97279 70.1048 8.28999 70.5174 7.77911C70.9399 7.25841 71.4704 6.88999 72.109 6.67385C72.7476 6.45771 73.4943 6.34964 74.349 6.34964L75.3069 5.61279H75.6901C75.6802 5.78964 75.6606 5.98121 75.6311 6.18753C75.6016 6.38402 75.5623 6.5756 75.5132 6.76227C75.4739 6.93911 75.4297 7.0963 75.3806 7.23385C75.3413 7.37139 75.3069 7.46964 75.2774 7.52858C74.3736 7.52858 73.6072 7.57279 72.9785 7.66121C72.3497 7.74964 71.829 7.93139 71.4164 8.20648C71.0037 8.48156 70.6894 8.87946 70.4732 9.40016C70.2669 9.92086 70.1294 10.6086 70.0606 11.4633H70.1343C70.2522 11.2079 70.4094 10.9623 70.6058 10.7265C70.8122 10.4907 71.043 10.2844 71.2985 10.1075C71.5637 9.93069 71.8437 9.78823 72.1385 9.68016C72.4332 9.57209 72.7329 9.51806 73.0374 9.51806C75.0416 9.51806 76.0437 10.7216 76.0437 13.1286C76.0437 13.6984 75.9651 14.224 75.8079 14.7054C75.6508 15.177 75.4199 15.5847 75.1153 15.9286C74.8108 16.2724 74.4423 16.5426 74.0101 16.7391C73.5778 16.9258 73.0915 17.0191 72.5511 17.0191C72.0599 17.0191 71.6129 16.9307 71.2101 16.7538C70.8072 16.5672 70.4634 16.3019 70.1785 15.9581C69.8936 15.6044 69.6725 15.1819 69.5153 14.6907C69.3581 14.1896 69.2795 13.6198 69.2795 12.9812ZM70.6648 12.9812C70.6648 13.6002 70.7188 14.1258 70.8269 14.5581C70.9448 14.9805 71.102 15.3293 71.2985 15.6044C71.495 15.8696 71.7209 16.0661 71.9764 16.1938C72.2416 16.3117 72.5167 16.3707 72.8016 16.3707C73.3911 16.3707 73.8332 16.1054 74.1279 15.5749C74.4325 15.0444 74.5848 14.2879 74.5848 13.3054C74.5848 12.3033 74.3932 11.5714 74.0101 11.1096C73.6269 10.6479 73.0964 10.417 72.4185 10.417C72.163 10.417 71.883 10.4956 71.5785 10.6528C71.2837 10.81 71.0332 11.0212 70.8269 11.2865C70.7778 11.5321 70.7385 11.7924 70.709 12.0675C70.6795 12.3328 70.6648 12.6374 70.6648 12.9812Z" fill="black"/>
<path d="M77.2524 13.1581C77.2524 12.5391 77.331 11.9938 77.4882 11.5223C77.6552 11.0409 77.891 10.6381 78.1955 10.3138C78.5001 9.97981 78.8636 9.72928 79.2861 9.56227C79.7184 9.38542 80.1948 9.297 80.7155 9.297C81.3247 9.297 81.8503 9.39034 82.2924 9.577C82.7345 9.76367 83.0931 10.0289 83.3682 10.3728C83.6531 10.7068 83.8594 11.1096 83.9871 11.5812C84.1247 12.0528 84.1934 12.5784 84.1934 13.1581C84.1934 14.396 83.8791 15.3489 83.2503 16.017C82.6215 16.6851 81.7766 17.0191 80.7155 17.0191C80.1261 17.0191 79.6152 16.9307 79.1829 16.7538C78.7506 16.5672 78.392 16.3068 78.1071 15.9728C77.8222 15.6289 77.6061 15.2212 77.4587 14.7496C77.3212 14.2682 77.2524 13.7377 77.2524 13.1581ZM78.6671 13.1581C78.6671 13.6002 78.7064 14.0177 78.785 14.4107C78.8734 14.8037 79.0061 15.1475 79.1829 15.4423C79.3696 15.7272 79.6103 15.9531 79.905 16.1202C80.1998 16.2872 80.5534 16.3707 80.9661 16.3707C81.4966 16.3707 81.9289 16.1103 82.2629 15.5896C82.6068 15.0689 82.7787 14.2584 82.7787 13.1581C82.7787 12.7061 82.7345 12.2886 82.6461 11.9054C82.5675 11.5124 82.4398 11.1735 82.2629 10.8886C82.0861 10.5938 81.8601 10.363 81.585 10.196C81.3099 10.0289 80.9808 9.94543 80.5977 9.94543C80.018 9.94543 79.5513 10.2058 79.1977 10.7265C78.844 11.2472 78.6671 12.0577 78.6671 13.1581Z" fill="black"/>
<path d="M88.5222 19.7896H85.2506V19.4212C85.5846 19.264 85.9088 19.1461 86.2232 19.0675V10.3286L85.2506 10.2107V9.82753C85.565 9.68999 85.8843 9.58192 86.2085 9.50332C86.5425 9.4149 86.8667 9.34613 87.1811 9.297H87.5495V10.9475H87.5643C87.7608 10.4465 88.0358 10.0486 88.3895 9.75385C88.7432 9.44928 89.205 9.297 89.7748 9.297C90.6492 9.297 91.3271 9.58683 91.8085 10.1665C92.2899 10.7461 92.5306 11.6893 92.5306 12.996C92.5306 13.6149 92.4471 14.1749 92.2801 14.676C92.1229 15.177 91.892 15.5995 91.5874 15.9433C91.2927 16.2872 90.9292 16.5524 90.4969 16.7391C90.0744 16.9258 89.6029 17.0191 89.0822 17.0191C88.7187 17.0191 88.4337 16.9945 88.2274 16.9454C88.0211 16.9061 87.7951 16.8324 87.5495 16.7244V19.0675C87.7067 19.0872 87.8639 19.1216 88.0211 19.1707C88.1783 19.2296 88.3453 19.3131 88.5222 19.4212V19.7896ZM89.3032 10.2107C88.8218 10.2107 88.4387 10.363 88.1537 10.6675C87.8688 10.9721 87.6674 11.3896 87.5495 11.9202V16.0465C87.7264 16.1545 87.9229 16.2381 88.139 16.297C88.365 16.3461 88.6548 16.3707 89.0085 16.3707C89.3327 16.3707 89.6225 16.2872 89.8779 16.1202C90.1432 15.9531 90.3643 15.7174 90.5411 15.4128C90.7278 15.1082 90.8702 14.7545 90.9685 14.3517C91.0667 13.9391 91.1158 13.4872 91.1158 12.996C91.1158 12.5931 91.0815 12.2247 91.0127 11.8907C90.9537 11.5468 90.8506 11.2521 90.7032 11.0065C90.5657 10.751 90.379 10.5545 90.1432 10.417C89.9172 10.2795 89.6372 10.2107 89.3032 10.2107Z" fill="black"/>
<path d="M99.1829 14.9117C99.1829 15.1279 99.1878 15.3145 99.1976 15.4717C99.2074 15.6289 99.2173 15.796 99.2271 15.9728L100.244 16.1202V16.4296C99.9983 16.5574 99.7232 16.6703 99.4187 16.7686C99.1239 16.8668 98.839 16.9405 98.5639 16.9896H98.1955C98.0973 16.7637 98.0383 16.5181 98.0187 16.2528C97.999 15.9777 97.9843 15.6781 97.9745 15.3538H97.9008C97.8615 15.5503 97.7829 15.7517 97.665 15.9581C97.5569 16.1545 97.4096 16.3314 97.2229 16.4886C97.046 16.6458 96.8348 16.7735 96.5892 16.8717C96.3436 16.97 96.0636 17.0191 95.7492 17.0191C95.1499 17.0191 94.6587 16.8374 94.2755 16.4738C93.9022 16.1103 93.7155 15.6338 93.7155 15.0444C93.7155 14.5924 93.8039 14.224 93.9808 13.9391C94.1674 13.6444 94.4376 13.4135 94.7913 13.2465C95.145 13.0795 95.5822 12.9616 96.1029 12.8928C96.6236 12.8142 97.2278 12.7552 97.9155 12.716C97.9548 12.2935 97.9646 11.9152 97.945 11.5812C97.9352 11.2374 97.8811 10.9475 97.7829 10.7117C97.6945 10.4661 97.5569 10.2795 97.3703 10.1517C97.1934 10.0142 96.9576 9.94543 96.6629 9.94543C96.5253 9.94543 96.3681 9.95525 96.1913 9.9749C96.0243 9.98472 95.8573 10.024 95.6903 10.0928L94.9976 11.8612H94.6145C94.5162 11.5665 94.4278 11.2619 94.3492 10.9475C94.2804 10.6331 94.2362 10.3237 94.2166 10.0191C94.5899 9.79314 95.0025 9.6163 95.4545 9.48858C95.9162 9.36086 96.4271 9.297 96.9871 9.297C97.4881 9.297 97.886 9.37069 98.1808 9.51806C98.4853 9.6556 98.7162 9.83735 98.8734 10.0633C99.0306 10.2893 99.1338 10.5398 99.1829 10.8149C99.232 11.09 99.2566 11.3651 99.2566 11.6402C99.2566 12.2296 99.2418 12.7995 99.2124 13.3496C99.1927 13.89 99.1829 14.4107 99.1829 14.9117ZM96.3387 16.1054C96.5843 16.1054 96.8004 16.0563 96.9871 15.9581C97.1738 15.8598 97.331 15.7419 97.4587 15.6044C97.5864 15.4668 97.6895 15.3293 97.7681 15.1917C97.8467 15.0444 97.9008 14.9216 97.9303 14.8233V13.276C97.3604 13.276 96.8938 13.3054 96.5303 13.3644C96.1667 13.4233 95.8818 13.5167 95.6755 13.6444C95.4692 13.7721 95.3267 13.9342 95.2481 14.1307C95.1695 14.3174 95.1302 14.5335 95.1302 14.7791C95.1302 15.2016 95.2383 15.5307 95.4545 15.7665C95.6706 15.9924 95.9653 16.1054 96.3387 16.1054Z" fill="black"/>
<path d="M105.872 16.8423H102.6V16.4738C102.905 16.3167 103.229 16.1988 103.573 16.1202V10.1223H102.202L101.554 11.8907H101.171C101.122 11.4682 101.082 11.0556 101.053 10.6528C101.023 10.2402 101.004 9.84718 100.994 9.47385H107.478C107.468 9.82753 107.449 10.2156 107.419 10.6381C107.399 11.0507 107.36 11.4682 107.301 11.8907H106.918L106.27 10.1223H104.899V16.1202C105.361 16.2381 105.685 16.356 105.872 16.4738V16.8423Z" fill="black"/>
<path d="M108.496 13.1581C108.496 12.5391 108.575 11.9938 108.732 11.5223C108.899 11.0409 109.135 10.6381 109.439 10.3138C109.744 9.97981 110.107 9.72928 110.53 9.56227C110.962 9.38542 111.439 9.297 111.959 9.297C112.569 9.297 113.094 9.39034 113.536 9.577C113.978 9.76367 114.337 10.0289 114.612 10.3728C114.897 10.7068 115.103 11.1096 115.231 11.5812C115.369 12.0528 115.437 12.5784 115.437 13.1581C115.437 14.396 115.123 15.3489 114.494 16.017C113.865 16.6851 113.02 17.0191 111.959 17.0191C111.37 17.0191 110.859 16.9307 110.427 16.7538C109.994 16.5672 109.636 16.3068 109.351 15.9728C109.066 15.6289 108.85 15.2212 108.703 14.7496C108.565 14.2682 108.496 13.7377 108.496 13.1581ZM109.911 13.1581C109.911 13.6002 109.95 14.0177 110.029 14.4107C110.117 14.8037 110.25 15.1475 110.427 15.4423C110.613 15.7272 110.854 15.9531 111.149 16.1202C111.444 16.2872 111.797 16.3707 112.21 16.3707C112.74 16.3707 113.173 16.1103 113.507 15.5896C113.851 15.0689 114.023 14.2584 114.023 13.1581C114.023 12.7061 113.978 12.2886 113.89 11.9054C113.811 11.5124 113.684 11.1735 113.507 10.8886C113.33 10.5938 113.104 10.363 112.829 10.196C112.554 10.0289 112.225 9.94543 111.841 9.94543C111.262 9.94543 110.795 10.2058 110.441 10.7265C110.088 11.2472 109.911 12.0577 109.911 13.1581Z" fill="black"/>
<path d="M119.766 19.7896H116.494V19.4212C116.828 19.264 117.153 19.1461 117.467 19.0675V10.3286L116.494 10.2107V9.82753C116.809 9.68999 117.128 9.58192 117.452 9.50332C117.786 9.4149 118.111 9.34613 118.425 9.297H118.793V10.9475H118.808C119.005 10.4465 119.28 10.0486 119.633 9.75385C119.987 9.44928 120.449 9.297 121.019 9.297C121.893 9.297 122.571 9.58683 123.052 10.1665C123.534 10.7461 123.774 11.6893 123.774 12.996C123.774 13.6149 123.691 14.1749 123.524 14.676C123.367 15.177 123.136 15.5995 122.831 15.9433C122.537 16.2872 122.173 16.5524 121.741 16.7391C121.318 16.9258 120.847 17.0191 120.326 17.0191C119.962 17.0191 119.678 16.9945 119.471 16.9454C119.265 16.9061 119.039 16.8324 118.793 16.7244V19.0675C118.951 19.0872 119.108 19.1216 119.265 19.1707C119.422 19.2296 119.589 19.3131 119.766 19.4212V19.7896ZM120.547 10.2107C120.066 10.2107 119.682 10.363 119.398 10.6675C119.113 10.9721 118.911 11.3896 118.793 11.9202V16.0465C118.97 16.1545 119.167 16.2381 119.383 16.297C119.609 16.3461 119.899 16.3707 120.252 16.3707C120.577 16.3707 120.866 16.2872 121.122 16.1202C121.387 15.9531 121.608 15.7174 121.785 15.4128C121.972 15.1082 122.114 14.7545 122.212 14.3517C122.311 13.9391 122.36 13.4872 122.36 12.996C122.36 12.5931 122.325 12.2247 122.257 11.8907C122.198 11.5468 122.094 11.2521 121.947 11.0065C121.81 10.751 121.623 10.5545 121.387 10.417C121.161 10.2795 120.881 10.2107 120.547 10.2107Z" fill="black"/>
<path d="M124.959 9.47385H128.084V9.857C127.975 9.91595 127.848 9.9749 127.7 10.0338C127.563 10.0928 127.396 10.1517 127.199 10.2107V14.2486L127.037 15.6191H127.111L127.686 14.5138L130.839 9.47385H132.829V9.857C132.514 10.0338 132.19 10.1517 131.856 10.2107V16.1202C132.043 16.1693 132.22 16.2233 132.387 16.2823C132.554 16.3314 132.701 16.3953 132.829 16.4738V16.8423H129.705V16.4738C129.98 16.3167 130.274 16.1988 130.589 16.1202V11.9054L130.736 10.7412H130.663L130.103 11.8465L126.978 16.8423H124.959V16.4738C125.126 16.3953 125.288 16.3314 125.446 16.2823C125.603 16.2233 125.765 16.1693 125.932 16.1202V10.2107C125.549 10.1517 125.225 10.0338 124.959 9.857V9.47385Z" fill="black"/>
<path d="M134.351 11.6402C134.351 11.3061 134.405 11.0016 134.513 10.7265C134.621 10.4514 134.788 10.2156 135.014 10.0191C135.25 9.82262 135.545 9.67034 135.899 9.56227C136.262 9.44437 136.699 9.38542 137.21 9.38542C137.328 9.38542 137.49 9.39034 137.696 9.40016C137.913 9.40999 138.139 9.41981 138.374 9.42964C138.61 9.43946 138.836 9.44928 139.052 9.45911C139.278 9.46893 139.455 9.47385 139.583 9.47385H140.644V9.857C140.565 9.92578 140.452 9.98963 140.305 10.0486C140.167 10.1075 139.956 10.1616 139.671 10.2107V16.1202C140.035 16.2282 140.359 16.3461 140.644 16.4738V16.8423H137.475V16.4738C137.603 16.3953 137.736 16.3314 137.873 16.2823C138.021 16.2233 138.178 16.1693 138.345 16.1202V13.6296L137.269 13.777C137.063 14.1209 136.832 14.5384 136.576 15.0296C136.321 15.511 135.972 16.0023 135.53 16.5033L135.073 16.8423H133.408V16.4738L134.233 16.1202C134.675 15.6584 135.049 15.2016 135.353 14.7496C135.658 14.2977 135.933 13.9145 136.179 13.6002C135.953 13.5609 135.732 13.497 135.515 13.4086C135.299 13.3103 135.103 13.1826 134.926 13.0254C134.759 12.8584 134.621 12.6619 134.513 12.436C134.405 12.21 134.351 11.9447 134.351 11.6402ZM138.345 10.1223C138.217 10.1026 138.05 10.083 137.844 10.0633C137.647 10.0437 137.48 10.0338 137.343 10.0338C136.734 10.024 136.311 10.1665 136.075 10.4612C135.849 10.7461 135.736 11.1244 135.736 11.596C135.736 12.0774 135.913 12.4752 136.267 12.7896C136.631 13.0942 137.191 13.2465 137.947 13.2465H138.345V10.1223Z" fill="black"/>
<path d="M52.153 26.316H55.2772V26.6991C55.1692 26.7581 55.0414 26.817 54.8941 26.876C54.7565 26.9349 54.5895 26.9938 54.393 27.0528V31.0907L54.2309 32.4612H54.3046L54.8793 31.356L58.033 26.316H60.0225V26.6991C59.7081 26.876 59.3839 26.9938 59.0499 27.0528V32.9623C59.2365 33.0114 59.4134 33.0654 59.5804 33.1244C59.7474 33.1735 59.8948 33.2374 60.0225 33.316V33.6844H56.8983V33.316C57.1734 33.1588 57.4681 33.0409 57.7825 32.9623V28.7475L57.9299 27.5833H57.8562L57.2962 28.6886L54.172 33.6844H52.153V33.316C52.32 33.2374 52.4821 33.1735 52.6393 33.1244C52.7965 33.0654 52.9586 33.0114 53.1256 32.9623V27.0528C52.7425 26.9938 52.4183 26.876 52.153 26.6991V26.316Z" fill="black"/>
<path d="M64.3449 33.6844H61.1765V33.316C61.314 33.2374 61.4663 33.1735 61.6333 33.1244C61.8003 33.0654 61.9722 33.0114 62.1491 32.9623V27.0528C61.9722 27.0037 61.8003 26.9545 61.6333 26.9054C61.4663 26.8465 61.314 26.7777 61.1765 26.6991V26.316H64.3449V26.6991C64.1189 26.8367 63.8291 26.9545 63.4754 27.0528V29.6317H66.747V27.0528C66.4031 26.9938 66.1084 26.876 65.8628 26.6991V26.316H69.0459V26.6991C68.7807 26.8661 68.4565 26.984 68.0733 27.0528V32.9623C68.2501 33.0016 68.4221 33.0458 68.5891 33.0949C68.7561 33.144 68.9084 33.2177 69.0459 33.316V33.6844H65.8628V33.316C66.1084 33.1391 66.4031 33.0212 66.747 32.9623V30.2802H63.4754V32.9623C63.6719 33.0016 63.8389 33.0507 63.9765 33.1096C64.114 33.1686 64.2368 33.2374 64.3449 33.316V33.6844Z" fill="black"/>
<path d="M74.9157 33.6844H71.6441V33.316C71.9487 33.1588 72.2729 33.0409 72.6167 32.9623V26.9644H71.2462L70.5978 28.7328H70.2146C70.1655 28.3103 70.1262 27.8977 70.0967 27.4949C70.0673 27.0823 70.0476 26.6893 70.0378 26.316H76.522C76.5122 26.6696 76.4925 27.0577 76.463 27.4802C76.4434 27.8928 76.4041 28.3103 76.3452 28.7328H75.962L75.3136 26.9644H73.943V32.9623C74.4048 33.0802 74.729 33.1981 74.9157 33.316V33.6844Z" fill="black"/>
<path d="M83.5086 32.6528C83.43 32.8198 83.3072 32.977 83.1402 33.1244C82.9732 33.2717 82.7816 33.3995 82.5655 33.5075C82.3493 33.6156 82.1136 33.6991 81.8581 33.7581C81.6027 33.8268 81.3423 33.8612 81.0771 33.8612C80.4974 33.8612 79.9865 33.7728 79.5444 33.596C79.1023 33.4093 78.7339 33.1489 78.4392 32.8149C78.1444 32.471 77.9185 32.0633 77.7613 31.5917C77.6139 31.1202 77.5402 30.5896 77.5402 30.0002C77.5402 28.7426 77.83 27.7847 78.4097 27.1265C78.9893 26.4682 79.8097 26.1391 80.8707 26.1391C81.2146 26.1391 81.5536 26.1882 81.8876 26.2865C82.2216 26.3749 82.5164 26.5272 82.7718 26.7433C83.0371 26.9595 83.2483 27.2493 83.4055 27.6128C83.5725 27.9665 83.656 28.4086 83.656 28.9391C83.656 29.1061 83.6462 29.2781 83.6265 29.4549C83.6167 29.6219 83.5921 29.8037 83.5529 30.0002H78.955C78.955 30.4128 79.0041 30.8009 79.1023 31.1644C79.2104 31.5181 79.3676 31.8275 79.5739 32.0928C79.7802 32.3581 80.0406 32.5693 80.355 32.7265C80.6693 32.8738 81.0378 32.9475 81.4602 32.9475C81.8041 32.9475 82.1529 32.8984 82.5065 32.8002C82.8602 32.7019 83.1255 32.5742 83.3023 32.417L83.5086 32.6528ZM80.8118 26.7875C80.2518 26.7875 79.8244 26.9791 79.5297 27.3623C79.235 27.7356 79.0581 28.3988 78.9992 29.3517H82.2413C82.2511 29.2633 82.256 29.1798 82.256 29.1012C82.2658 29.0128 82.2707 28.9293 82.2707 28.8507C82.2707 28.2219 82.1528 27.7209 81.9171 27.3475C81.6813 26.9742 81.3129 26.7875 80.8118 26.7875Z" fill="black"/>
<path d="M88.076 36.6317H84.8044V36.2633C85.1385 36.1061 85.4627 35.9882 85.7771 35.9096V27.1707L84.8044 27.0528V26.6696C85.1188 26.5321 85.4381 26.424 85.7623 26.3454C86.0964 26.257 86.4206 26.1882 86.735 26.1391H87.1034V27.7896H87.1181C87.3146 27.2886 87.5897 26.8907 87.9434 26.596C88.2971 26.2914 88.7588 26.1391 89.3287 26.1391C90.203 26.1391 90.8809 26.4289 91.3623 27.0086C91.8437 27.5882 92.0844 28.5314 92.0844 29.8381C92.0844 30.457 92.0009 31.017 91.8339 31.5181C91.6767 32.0191 91.4459 32.4416 91.1413 32.7854C90.8466 33.1293 90.483 33.3945 90.0508 33.5812C89.6283 33.7679 89.1567 33.8612 88.636 33.8612C88.2725 33.8612 87.9876 33.8367 87.7813 33.7875C87.575 33.7482 87.349 33.6745 87.1034 33.5665V35.9096C87.2606 35.9293 87.4178 35.9637 87.575 36.0128C87.7322 36.0717 87.8992 36.1553 88.076 36.2633V36.6317ZM88.8571 27.0528C88.3757 27.0528 87.9925 27.2051 87.7076 27.5096C87.4227 27.8142 87.2213 28.2317 87.1034 28.7623V32.8886C87.2802 32.9967 87.4767 33.0802 87.6929 33.1391C87.9188 33.1882 88.2087 33.2128 88.5623 33.2128C88.8866 33.2128 89.1764 33.1293 89.4318 32.9623C89.6971 32.7952 89.9181 32.5595 90.095 32.2549C90.2816 31.9503 90.4241 31.5967 90.5223 31.1938C90.6206 30.7812 90.6697 30.3293 90.6697 29.8381C90.6697 29.4352 90.6353 29.0668 90.5666 28.7328C90.5076 28.3889 90.4044 28.0942 90.2571 27.8486C90.1195 27.5931 89.9329 27.3967 89.6971 27.2591C89.4711 27.1216 89.1911 27.0528 88.8571 27.0528Z" fill="black"/>
<path d="M96.4378 33.6844H93.2694V33.316C93.4069 33.2374 93.5592 33.1735 93.7262 33.1244C93.8932 33.0654 94.0652 33.0114 94.242 32.9623V27.0528C94.0652 27.0037 93.8932 26.9545 93.7262 26.9054C93.5592 26.8465 93.4069 26.7777 93.2694 26.6991V26.316H96.4378V26.6991C96.2118 26.8367 95.922 26.9545 95.5683 27.0528V29.6317H98.8399V27.0528C98.496 26.9938 98.2013 26.876 97.9557 26.6991V26.316H101.139V26.6991C100.874 26.8661 100.549 26.984 100.166 27.0528V32.9623C100.343 33.0016 100.515 33.0458 100.682 33.0949C100.849 33.144 101.001 33.2177 101.139 33.316V33.6844H97.9557V33.316C98.2013 33.1391 98.496 33.0212 98.8399 32.9623V30.2802H95.5683V32.9623C95.7648 33.0016 95.9318 33.0507 96.0694 33.1096C96.2069 33.1686 96.3297 33.2374 96.4378 33.316V33.6844Z" fill="black"/>
<path d="M108.291 32.6528C108.212 32.8198 108.089 32.977 107.922 33.1244C107.755 33.2717 107.564 33.3995 107.348 33.5075C107.131 33.6156 106.896 33.6991 106.64 33.7581C106.385 33.8268 106.124 33.8612 105.859 33.8612C105.279 33.8612 104.769 33.7728 104.327 33.596C103.884 33.4093 103.516 33.1489 103.221 32.8149C102.927 32.471 102.701 32.0633 102.543 31.5917C102.396 31.1202 102.322 30.5896 102.322 30.0002C102.322 28.7426 102.612 27.7847 103.192 27.1265C103.771 26.4682 104.592 26.1391 105.653 26.1391C105.997 26.1391 106.336 26.1882 106.67 26.2865C107.004 26.3749 107.298 26.5272 107.554 26.7433C107.819 26.9595 108.03 27.2493 108.188 27.6128C108.355 27.9665 108.438 28.4086 108.438 28.9391C108.438 29.1061 108.428 29.2781 108.409 29.4549C108.399 29.6219 108.374 29.8037 108.335 30.0002H103.737C103.737 30.4128 103.786 30.8009 103.884 31.1644C103.992 31.5181 104.15 31.8275 104.356 32.0928C104.562 32.3581 104.823 32.5693 105.137 32.7265C105.451 32.8738 105.82 32.9475 106.242 32.9475C106.586 32.9475 106.935 32.8984 107.289 32.8002C107.642 32.7019 107.908 32.5742 108.084 32.417L108.291 32.6528ZM105.594 26.7875C105.034 26.7875 104.607 26.9791 104.312 27.3623C104.017 27.7356 103.84 28.3988 103.781 29.3517H107.023C107.033 29.2633 107.038 29.1798 107.038 29.1012C107.048 29.0128 107.053 28.9293 107.053 28.8507C107.053 28.2219 106.935 27.7209 106.699 27.3475C106.463 26.9742 106.095 26.7875 105.594 26.7875Z" fill="black"/>
<path d="M114.42 33.6844H111.149V33.316C111.453 33.1588 111.777 33.0409 112.121 32.9623V26.9644H110.751L110.102 28.7328H109.719C109.67 28.3103 109.631 27.8977 109.601 27.4949C109.572 27.0823 109.552 26.6893 109.542 26.316H116.027C116.017 26.6696 115.997 27.0577 115.968 27.4802C115.948 27.8928 115.909 28.3103 115.85 28.7328H115.467L114.818 26.9644H113.448V32.9623C113.909 33.0802 114.234 33.1981 114.42 33.316V33.6844Z" fill="black"/>
<path d="M38.4286 28.8547C37.4562 27.8822 36.1106 27.2793 34.6251 27.2793C34.301 27.2793 33.9847 27.3095 33.6782 27.3681C33.0538 27.4841 32.4675 27.7091 31.9305 28.0107C26.1061 31.2853 21.7639 31.6551 20.0274 31.6551C20.0083 31.6551 19.991 31.6551 19.9734 31.6551C18.5369 31.6551 15.3027 31.3753 10.9417 29.4388C10.8966 29.8666 10.8595 30.3103 10.8269 30.7619C10.7879 31.3671 10.7514 31.9774 10.7443 32.6355C10.7347 33.5508 10.5234 34.479 10.031 35.3311C9.64808 35.9926 9.14603 36.543 8.56772 36.9698C8.35264 37.1276 8.11373 37.2413 7.87988 37.3646C7.94016 37.3334 8.00976 37.3187 8.06885 37.2857C13.8932 34.0111 18.2354 33.6397 19.9734 33.6397C19.991 33.6397 20.0083 33.6397 20.0274 33.6397C21.7639 33.6397 26.1061 34.0111 31.9305 37.2857C32.4675 37.587 33.0538 37.8123 33.6782 37.9281C33.9847 37.9852 34.301 38.0154 34.6251 38.0154C36.1106 38.0154 37.4562 37.4142 38.4286 36.4414C39.3994 35.469 39.9999 34.1284 39.9999 32.6465C39.9999 31.1664 39.3994 29.8258 38.4286 28.8547Z" fill="#1BB7E0"/>
<path opacity="0.35" d="M38.4286 28.8547C37.4562 27.8822 36.1106 27.2793 34.6251 27.2793C34.301 27.2793 33.9847 27.3095 33.6782 27.3681C33.0538 27.4841 32.4675 27.7091 31.9305 28.0107C26.1061 31.2853 21.7639 31.6551 20.0274 31.6551C20.0083 31.6551 19.991 31.6551 19.9734 31.6551C18.5369 31.6551 15.3027 31.3753 10.9417 29.4388C10.8966 29.8666 10.8595 30.3103 10.8269 30.7619C10.7879 31.3671 10.7514 31.9774 10.7443 32.6355C10.7347 33.5508 10.5234 34.479 10.031 35.3311C9.64808 35.9926 9.14603 36.543 8.56772 36.9698C8.35264 37.1276 8.11373 37.2413 7.87988 37.3646C7.94016 37.3334 8.00976 37.3187 8.06885 37.2857C13.8932 34.0111 18.2354 33.6397 19.9734 33.6397C19.991 33.6397 20.0083 33.6397 20.0274 33.6397C21.7639 33.6397 26.1061 34.0111 31.9305 37.2857C32.4675 37.587 33.0538 37.8123 33.6782 37.9281C33.9847 37.9852 34.301 38.0154 34.6251 38.0154C36.1106 38.0154 37.4562 37.4142 38.4286 36.4414C39.3994 35.469 39.9999 34.1284 39.9999 32.6465C39.9999 31.1664 39.3994 29.8258 38.4286 28.8547Z" fill="url(#paint0_linear)"/>
<path d="M17.3251 12.0011C16.9327 11.7695 16.5625 11.4934 16.2304 11.1699C15.8919 10.8414 15.5918 10.4653 15.3438 10.037C14.8289 9.14406 14.6162 8.16715 14.6425 7.20898C14.6406 7.26055 14.6325 7.31221 14.632 7.36367C14.5606 14.0382 12.7097 17.9776 11.8423 19.48C11.8326 19.496 11.8247 19.5103 11.8152 19.5276C11.2195 20.559 9.85629 22.5658 7.19828 24.8219C5.98605 25.8515 4.50363 26.9336 2.70197 27.9982C2.29058 28.2426 1.90282 28.5345 1.55488 28.8801C1.23881 29.196 0.956012 29.5562 0.722363 29.9624C0.126575 30.9904 -0.0893984 32.1326 0.0329367 33.2273C0.210879 34.8695 1.14507 36.4069 2.68767 37.2968C3.10562 37.5381 3.54104 37.7156 3.98579 37.8347C5.57297 38.2598 7.26332 37.9267 8.5678 36.97C9.14611 36.5431 9.64817 35.9928 10.0311 35.3312C10.5235 34.4791 10.7348 33.5509 10.7444 32.6357C10.8158 25.9611 12.6667 22.0201 13.5359 20.5193C13.5454 20.5033 13.5533 20.4875 13.5629 20.4732C14.2047 19.3611 15.7362 17.1177 18.8185 14.6507C19.1796 14.361 19.5954 14.0657 20.0003 13.7714C19.19 13.1831 18.323 12.5908 17.3251 12.0011Z" fill="#E22B46"/>
<path opacity="0.35" d="M17.3251 12.0011C16.9327 11.7695 16.5625 11.4934 16.2304 11.1699C15.8919 10.8414 15.5918 10.4653 15.3438 10.037C14.8289 9.14406 14.6162 8.16715 14.6425 7.20898C14.6406 7.26055 14.6325 7.31221 14.632 7.36367C14.5606 14.0382 12.7097 17.9776 11.8423 19.48C11.8326 19.496 11.8247 19.5103 11.8152 19.5276C11.2195 20.559 9.85629 22.5658 7.19828 24.8219C5.98605 25.8515 4.50363 26.9336 2.70197 27.9982C2.29058 28.2426 1.90282 28.5345 1.55488 28.8801C1.23881 29.196 0.956012 29.5562 0.722363 29.9624C0.126575 30.9904 -0.0893984 32.1326 0.0329367 33.2273C0.210879 34.8695 1.14507 36.4069 2.68767 37.2968C3.10562 37.5381 3.54104 37.7156 3.98579 37.8347C5.57297 38.2598 7.26332 37.9267 8.5678 36.97C9.14611 36.5431 9.64817 35.9928 10.0311 35.3312C10.5235 34.4791 10.7348 33.5509 10.7444 32.6357C10.8158 25.9611 12.6667 22.0201 13.5359 20.5193C13.5454 20.5033 13.5533 20.4875 13.5629 20.4732C14.2047 19.3611 15.7362 17.1177 18.8185 14.6507C19.1796 14.361 19.5954 14.0657 20.0003 13.7714C19.19 13.1831 18.323 12.5908 17.3251 12.0011Z" fill="url(#paint1_linear)"/>
<path d="M16.2305 11.1698C16.5626 11.4933 16.9328 11.7694 17.3252 12.001C23.0765 15.3994 25.5693 18.9692 26.4384 20.4731C26.4478 20.4874 26.4558 20.5033 26.4638 20.5192C27.1822 21.7598 28.5562 24.6977 29.0572 29.4391C29.9728 29.0326 30.92 28.5789 31.9306 28.0107C32.4676 27.7092 33.054 27.4841 33.6784 27.3682C33.9849 27.3096 34.3012 27.2793 34.6253 27.2793C35.6492 27.2793 36.5967 27.5814 37.4114 28.078C37.3721 28.0537 37.3374 28.0215 37.2976 27.9981C31.5461 24.5998 29.0535 21.0284 28.1844 19.5275C28.1764 19.5102 28.1669 19.4959 28.159 19.4799C27.2899 17.9775 25.439 14.0381 25.369 7.36517C25.3643 6.90983 25.3086 6.45301 25.1959 6.00392C25.08 5.547 24.9036 5.09643 24.6542 4.66806C23.9121 3.38456 22.7189 2.52307 21.3907 2.16779C20.1198 1.82658 18.7217 1.95043 17.4777 2.61033C16.1686 3.30682 15.1915 4.53013 14.807 5.96109C14.4511 7.28743 14.602 8.75021 15.3439 10.0369C15.5918 10.4653 15.892 10.8413 16.2305 11.1698Z" fill="#68CE46"/>
<path opacity="0.35" d="M16.2305 11.1698C16.5626 11.4933 16.9328 11.7694 17.3252 12.001C23.0765 15.3994 25.5693 18.9692 26.4384 20.4731C26.4478 20.4874 26.4558 20.5033 26.4638 20.5192C27.1822 21.7598 28.5562 24.6977 29.0572 29.4391C29.9728 29.0326 30.92 28.5789 31.9306 28.0107C32.4676 27.7092 33.054 27.4841 33.6784 27.3682C33.9849 27.3096 34.3012 27.2793 34.6253 27.2793C35.6492 27.2793 36.5967 27.5814 37.4114 28.078C37.3721 28.0537 37.3374 28.0215 37.2976 27.9981C31.5461 24.5998 29.0535 21.0284 28.1844 19.5275C28.1764 19.5102 28.1669 19.4959 28.159 19.4799C27.2899 17.9775 25.439 14.0381 25.369 7.36517C25.3643 6.90983 25.3086 6.45301 25.1959 6.00392C25.08 5.547 24.9036 5.09643 24.6542 4.66806C23.9121 3.38456 22.7189 2.52307 21.3907 2.16779C20.1198 1.82658 18.7217 1.95043 17.4777 2.61033C16.1686 3.30682 15.1915 4.53013 14.807 5.96109C14.4511 7.28743 14.602 8.75021 15.3439 10.0369C15.5918 10.4653 15.892 10.8413 16.2305 11.1698Z" fill="url(#paint2_linear)"/>
<defs>
<linearGradient id="paint0_linear" x1="26.4229" y1="41.3429" x2="20.7947" y2="25.8576" gradientUnits="userSpaceOnUse">
<stop stop-color="#004854" stop-opacity="0"/>
<stop offset="1" stop-color="#004854"/>
</linearGradient>
<linearGradient id="paint1_linear" x1="1.59967e-07" y1="22.6128" x2="20.0003" y2="22.6128" gradientUnits="userSpaceOnUse">
<stop stop-color="#6D000D" stop-opacity="0"/>
<stop offset="1" stop-color="#6D000D"/>
</linearGradient>
<linearGradient id="paint2_linear" x1="31.443" y1="11.187" x2="21.1257" y2="21.5188" gradientUnits="userSpaceOnUse">
<stop stop-opacity="0"/>
<stop offset="1"/>
</linearGradient>
</defs>
</svg>
