<svg width="32" height="32" viewBox="0 0 32 32" fill="none" xmlns="http://www.w3.org/2000/svg">
<circle cx="16" cy="16" r="16" fill="#A8C15D"/>
<path d="M11.4129 13.2663C11.6254 13.3397 11.7557 13.5535 11.7238 13.776L10.7963 20.2378C11.4979 20.5128 12.1913 20.7335 12.8798 20.9C12.8798 18.568 14.6766 17.0588 16.6195 17.0588C17.6204 17.0588 18.5613 17.4466 19.2695 18.1506C19.9229 18.801 20.3057 19.6485 20.361 20.5578C21.0266 20.3369 21.6973 20.0653 22.3754 19.7431L21.5923 14.3513C21.556 14.1031 21.3379 13.916 21.0845 13.916H16.522C16.2588 13.916 16.0493 13.6993 16.0532 13.44C16.1076 9.84261 15.0266 8.76364 13.6461 8.15221C13.4863 8.08139 13.3081 8.20564 13.3183 8.38017L13.3701 9.26936C13.3895 9.49311 13.2891 9.71217 13.1054 9.84436C13.0284 9.89977 13.2237 9.82189 10.0007 10.9681C9.45243 11.1635 9.22584 11.8089 9.52759 12.2772C9.87668 12.8162 10.3269 12.8918 11.4129 13.2663Z" fill="white"/>
<path d="M8 20.4204V21.9573C8 22.0657 8.06316 22.1639 8.16134 22.2099C12.8796 24.421 19.1101 24.421 23.8385 22.2095C23.9367 22.1635 24 22.0653 24 21.9568V20.428C24 20.2186 23.7773 20.0844 23.592 20.182C18.5628 22.8311 13.7633 22.9658 8.40659 20.1735C8.2215 20.0771 8 20.2116 8 20.4204V20.4204Z" fill="white"/>
</svg>
