<svg width="284" height="31" viewBox="0 0 284 31" fill="none" xmlns="http://www.w3.org/2000/svg">
<path d="M38.6214 0.21831L30.3176 18.862L35.94 28.5986H27.4632L23.0085 20.2155L21.711 28.5986H14.6182L15.5697 20.1718L9.77429 28.5986H0L9.2553 17.3338L5.83862 0.21831H14.2289L16.1751 16.1986L17.9051 1.70282H26.0792L23.7437 16.0676L29.7554 0.21831H38.6214Z" fill="#303030"/>
<path d="M63.2551 0.21831L54.5188 19.4296L59.6222 28.5986H51.2319L47.1232 20.1718L45.2635 28.5986H38.6032L42.4523 1.96479L50.4967 2.27042V2.35775L47.8585 16.1113L54.4756 0.21831H63.2551Z" fill="#303030"/>
<path d="M101.384 10.8282H96.1079C94.8969 8.73239 93.7003 5.19577 92.5182 0.21831H98.2271L101.384 10.8282ZM93.6859 10.8282H88.3663C87.1553 8.73239 85.9732 5.19577 84.8199 0.21831H90.4855L93.6859 10.8282Z" fill="#303030"/>
<path d="M128.382 0.21831L119.646 19.4296L124.749 28.5986H116.359L112.25 20.1718L110.391 28.5986H103.73L107.579 1.96479L115.624 2.27042V2.35775L112.985 16.1113L119.603 0.21831H128.382Z" fill="#303030"/>
<path d="M144.497 5.89437L140.216 20.8268C138.803 25.7751 136.785 28.977 134.161 30.4324L128.712 31C129.865 29.923 130.643 29.1371 131.047 28.6423C131.97 27.507 132.705 26.2845 133.253 24.9746L129.49 25.4113C128.567 23.5775 128.106 20.3756 128.106 15.8056C128.106 12.9531 128.337 10.2023 128.798 7.55352H134.68C133.959 10.4061 133.599 14.0009 133.599 18.338C133.599 20.1136 133.728 21.5254 133.988 22.5732L137.967 5.89437H144.497Z" fill="#303030"/>
<path d="M161.917 0C162.061 0.523944 161.499 1.42629 160.23 2.70704C158.961 3.95869 158.039 4.58451 157.462 4.58451H150.585C150.211 4.35164 149.922 3.75493 149.72 2.79437C149.547 1.95024 149.49 1.23709 149.547 0.654929L154.262 0.436619C154.089 1.16432 154.002 1.77559 154.002 2.27042C154.002 2.73615 154.089 3.02723 154.262 3.14366C155.501 2.00845 156.222 1.04789 156.424 0.261971L161.917 0ZM162.609 5.89437L158.803 28.5986H153.483L154.694 18.3817L150.326 24.5817L149.72 28.5986H144.487L146.347 6.89859L152.618 7.02958L151.494 16.6789L156.77 5.89437H162.609Z" fill="#303030"/>
<path d="M179.429 5.89437L178.305 10.7845L172.077 10.9155L170.823 16.4606H177.483C178.319 17.6249 178.737 19.0221 178.737 20.6521C178.737 22.2531 178.334 23.7958 177.526 25.2803C176.69 26.8521 175.58 27.9582 174.196 28.5986H162.649L165.114 16.9408L165.849 12.0507L170.131 10.9155L164.033 11.0901L166.195 5.89437H179.429ZM170.65 17.1592L168.141 28.031C170.707 25.4986 171.99 23.3592 171.99 21.6127C171.99 20.5648 171.543 19.0803 170.65 17.1592Z" fill="#303030"/>
<path d="M207.051 5.41408L201.732 28.5986H195.893L200.261 5.41408H207.051ZM194.725 15.107C195.792 15.9221 196.325 17.2028 196.325 18.9493C196.325 20.754 195.835 22.6169 194.855 24.538C193.759 26.692 192.447 28.0455 190.919 28.5986H179.458L183.524 5.89437H189.795L187.762 15.8493L194.725 15.107ZM187.719 16.1549L185.167 28.031C188.137 25.5277 189.622 22.8934 189.622 20.1282C189.622 18.2362 188.987 16.9117 187.719 16.1549Z" fill="#303030"/>
<path d="M235.28 5.89437L230.998 28.5986H207.038L210.065 5.89437H216.726L213.525 23.6648L217.072 23.8831L219.364 7.1169L225.765 7.37887L222.694 24.1014L226.154 24.2761L228.836 5.89437H235.28Z" fill="#303030"/>
<path d="M249.652 5.89437L248.744 10.7845L243.9 10.9592L243.035 15.5L247.922 15.631L247.144 19.7352L242.213 19.9535L241.435 24.0141L246.365 24.4944L245.63 28.5986H235.293L237.11 12.5746L241.824 11.0465L236.504 11.2648L237.802 5.89437H249.652Z" fill="#303030"/>
<path d="M262.584 19.8662C263.91 21.1761 264.573 22.515 264.573 23.8831C264.573 25.4258 263.68 26.9977 261.892 28.5986H249.696L252.118 8.51408L258.043 8.47042L254.107 5.89437L262.022 4.84648C265.597 6.76761 267.385 8.87793 267.385 11.1775C267.385 13.3606 265.784 16.2568 262.584 19.8662ZM259.124 9.12535H259.038L257.005 19.2986C258.418 17.7559 259.384 16.6207 259.903 15.893C260.854 14.554 261.33 13.3606 261.33 12.3127C261.33 11.0319 260.594 9.96948 259.124 9.12535ZM256.789 20.5211L255.361 27.9437C257.697 25.5568 258.865 23.9559 258.865 23.1408C258.865 22.6751 258.677 22.2676 258.302 21.9183L256.789 20.5211Z" fill="#303030"/>
<path d="M284 0.21831C282.818 5.19577 281.621 8.73239 280.41 10.8282H275.134L278.334 0.21831H284ZM276.258 0.21831C275.076 5.19577 273.894 8.73239 272.712 10.8282H267.392L270.593 0.21831H276.258Z" fill="#303030"/>
</svg>
