<svg width="211" height="23" viewBox="0 0 211 23" fill="none" xmlns="http://www.w3.org/2000/svg">
<path d="M29.344 0.199999L23.2 13.864L27.36 21H21.088L17.792 14.856L16.832 21H11.584L12.288 14.824L8 21H0.768L7.616 12.744L5.088 0.199999H11.296L12.736 11.912L14.016 1.288H20.064L18.336 11.816L22.784 0.199999H29.344ZM47.5705 0.199999L41.1065 14.28L44.8825 21H38.6745L35.6345 14.824L34.2585 21H29.3305L32.1785 1.48L38.1305 1.704V1.768L36.1785 11.848L41.0745 0.199999H47.5705ZM75.7823 7.976H71.8783C70.9823 6.44 70.0969 3.848 69.2223 0.199999H73.4463L75.7823 7.976ZM70.0863 7.976H66.1503C65.2543 6.44 64.3796 3.848 63.5263 0.199999H67.7183L70.0863 7.976ZM95.758 0.199999L89.294 14.28L93.07 21H86.862L83.822 14.824L82.446 21H77.518L80.366 1.48L86.318 1.704V1.768L84.366 11.848L89.262 0.199999H95.758ZM107.682 4.36L104.514 15.304C103.468 18.9307 101.975 21.2773 100.034 22.344L96.0018 22.76C96.8551 21.9707 97.4311 21.3947 97.7298 21.032C98.4124 20.2 98.9564 19.304 99.3618 18.344L96.5778 18.664C95.8951 17.32 95.5538 14.9733 95.5538 11.624C95.5538 9.53333 95.7244 7.51733 96.0658 5.576H100.418C99.8844 7.66667 99.6178 10.3013 99.6178 13.48C99.6178 14.7813 99.7138 15.816 99.9058 16.584L102.85 4.36H107.682ZM120.57 0.039999C120.677 0.423999 120.261 1.08533 119.322 2.024C118.384 2.94133 117.701 3.4 117.274 3.4H112.186C111.909 3.22933 111.696 2.792 111.546 2.088C111.418 1.46933 111.376 0.946666 111.418 0.519999L114.906 0.359999C114.778 0.893333 114.714 1.34133 114.714 1.704C114.714 2.04533 114.778 2.25867 114.906 2.344C115.824 1.512 116.357 0.807999 116.506 0.231998L120.57 0.039999ZM121.082 4.36L118.266 21H114.33L115.226 13.512L111.994 18.056L111.546 21H107.674L109.05 5.096L113.69 5.192L112.858 12.264L116.762 4.36H121.082ZM133.528 4.36L132.696 7.944L128.088 8.04L127.16 12.104H132.088C132.706 12.9573 133.016 13.9813 133.016 15.176C133.016 16.3493 132.717 17.48 132.12 18.568C131.501 19.72 130.68 20.5307 129.656 21H121.112L122.936 12.456L123.48 8.872L126.648 8.04L122.136 8.168L123.736 4.36H133.528ZM127.032 12.616L125.176 20.584C127.074 18.728 128.024 17.16 128.024 15.88C128.024 15.112 127.693 14.024 127.032 12.616ZM153.965 4.008L150.029 21H145.709L148.941 4.008H153.965ZM144.845 11.112C145.635 11.7093 146.029 12.648 146.029 13.928C146.029 15.2507 145.667 16.616 144.941 18.024C144.131 19.6027 143.16 20.5947 142.029 21H133.549L136.557 4.36H141.197L139.693 11.656L144.845 11.112ZM139.661 11.88L137.773 20.584C139.971 18.7493 141.069 16.8187 141.069 14.792C141.069 13.4053 140.6 12.4347 139.661 11.88ZM174.852 4.36L171.684 21H153.956L156.196 4.36H161.124L158.756 17.384L161.38 17.544L163.076 5.256L167.812 5.448L165.54 17.704L168.1 17.832L170.083 4.36H174.852ZM185.486 4.36L184.814 7.944L181.23 8.072L180.59 11.4L184.206 11.496L183.63 14.504L179.982 14.664L179.406 17.64L183.054 17.992L182.51 21H174.862L176.206 9.256L179.694 8.136L175.758 8.296L176.718 4.36H185.486ZM195.054 14.6C196.035 15.56 196.526 16.5413 196.526 17.544C196.526 18.6747 195.865 19.8267 194.542 21H185.518L187.31 6.28L191.694 6.248L188.782 4.36L194.638 3.592C197.283 5 198.606 6.54667 198.606 8.232C198.606 9.832 197.422 11.9547 195.054 14.6ZM192.494 6.728H192.43L190.926 14.184C191.971 13.0533 192.686 12.2213 193.07 11.688C193.774 10.7067 194.126 9.832 194.126 9.064C194.126 8.12533 193.582 7.34667 192.494 6.728ZM190.766 15.08L189.71 20.52C191.438 18.7707 192.302 17.5973 192.302 17C192.302 16.6587 192.163 16.36 191.886 16.104L190.766 15.08ZM210.9 0.199999C210.025 3.848 209.14 6.44 208.244 7.976H204.34L206.708 0.199999H210.9ZM205.172 0.199999C204.297 3.848 203.422 6.44 202.548 7.976H198.612L200.98 0.199999H205.172Z" fill="white"/>
</svg>
