<svg width="32" height="32" viewBox="0 0 32 32" fill="none" xmlns="http://www.w3.org/2000/svg">
<circle cx="16" cy="16" r="16" fill="#3ABDEB"/>
<path d="M23.473 13.7971C23.1146 13.4809 22.6719 13.2912 22.166 13.2912H19.1304C18.8986 13.2912 18.6877 13.1014 18.6877 12.8485V9.81291C18.6877 9.30698 18.4769 8.8643 18.1607 8.52701C17.8235 8.18972 17.3808 8 16.8748 8H15.083C14.5771 8 14.1344 8.2108 13.7971 8.52701C13.4598 8.8643 13.2701 9.30698 13.2701 9.81291V12.8485C13.2701 13.0804 13.0804 13.2912 12.8274 13.2912H9.81291C9.30698 13.2912 8.8643 13.502 8.52701 13.8182C8.18972 14.1555 8 14.5982 8 15.1041V16.8959C8 17.4018 8.2108 17.8445 8.52701 18.1818C8.8643 18.5191 9.30698 18.7088 9.81291 18.7088H12.8485C13.0804 18.7088 13.2912 18.8986 13.2912 19.1515V22.1871C13.2912 22.693 13.502 23.1357 13.8182 23.473C14.1555 23.8103 14.5982 24 15.1041 24H16.8959C17.4018 24 17.8445 23.7892 18.1818 23.473C18.5191 23.1357 18.7088 22.693 18.7088 22.1871V19.1304C18.7088 18.8986 18.8986 18.6877 19.1515 18.6877H22.1871C22.693 18.6877 23.1357 18.4769 23.473 18.1607C23.8103 17.8235 24 17.3808 24 16.8748V15.083C24 14.5771 23.7892 14.1344 23.473 13.7971Z" fill="white"/>
</svg>
