<svg width="37" height="37" viewBox="0 0 37 37" fill="none" xmlns="http://www.w3.org/2000/svg">
<circle cx="18.5" cy="18.5" r="18.5" fill="#F6B835"/>
<g clip-path="url(#clip0)">
<path d="M25.7701 21.2354C24.705 21.2354 23.6618 21.0691 22.673 20.7429C22.1905 20.5766 21.6425 20.7047 21.3254 21.0282L19.3651 22.5086C17.1159 21.3082 15.6764 19.8696 14.4923 17.6367L15.9327 15.7228C16.2953 15.3602 16.4253 14.8295 16.2699 14.3324C15.9409 13.3373 15.7737 12.2931 15.7737 11.2299C15.7737 10.4783 15.1621 9.8667 14.4105 9.8667H11.2298C10.4782 9.8667 9.86664 10.4783 9.86664 11.2299C9.86664 19.9986 17.0014 27.1334 25.7701 27.1334C26.5217 27.1334 27.1333 26.5218 27.1333 25.7702V22.5986C27.1333 21.847 26.5217 21.2354 25.7701 21.2354Z" fill="white"/>
</g>
<defs>
<clipPath id="clip0">
<rect width="17.2667" height="17.2667" fill="white" transform="translate(9.86664 9.8667)"/>
</clipPath>
</defs>
</svg>
