<svg width="17" height="17" viewBox="0 0 17 17" fill="none" xmlns="http://www.w3.org/2000/svg">
<path d="M15.2657 4.04583H13.6529V1.9125C13.6529 1.00584 12.954 0.3125 12.04 0.3125H5.58857C4.67462 0.3125 3.97571 1.00584 3.97571 1.9125V4.04583H2.36286C1.4489 4.04583 0.75 4.73916 0.75 5.64583V10.9791C0.75 11.8858 1.4489 12.5791 2.36286 12.5791H3.97571V15.7791C3.97571 16.0991 4.19076 16.3125 4.51333 16.3125H13.1152C13.4378 16.3125 13.6529 16.0991 13.6529 15.7791V12.5791H15.2657C16.1797 12.5791 16.8786 11.8858 16.8786 10.9791V5.64583C16.8786 4.73916 16.1797 4.04583 15.2657 4.04583ZM5.05095 1.9125C5.05095 1.5925 5.266 1.37917 5.58857 1.37917H12.04C12.3626 1.37917 12.5776 1.5925 12.5776 1.9125V4.04583H5.05095V1.9125ZM12.5776 15.2458H5.05095V12.0458V9.91249H12.5776V12.0458V15.2458ZM15.8033 10.9791C15.8033 11.2991 15.5883 11.5125 15.2657 11.5125H13.6529V9.37916C13.6529 9.05916 13.4378 8.84583 13.1152 8.84583H4.51333C4.19076 8.84583 3.97571 9.05916 3.97571 9.37916V11.5125H2.36286C2.04029 11.5125 1.82524 11.2991 1.82524 10.9791V5.64583C1.82524 5.32583 2.04029 5.1125 2.36286 5.1125H4.51333H13.1152H15.2657C15.5883 5.1125 15.8033 5.32583 15.8033 5.64583V10.9791Z" fill="#303030"/>
</svg>
