<?xml version="1.0" standalone="no"?>
<!DOCTYPE svg PUBLIC "-//W3C//DTD SVG 20010904//EN"
 "http://www.w3.org/TR/2001/REC-SVG-20010904/DTD/svg10.dtd">
<svg version="1.0" xmlns="http://www.w3.org/2000/svg"
 width="700.000000pt" height="700.000000pt" viewBox="0 0 700.000000 700.000000"
 preserveAspectRatio="xMidYMid meet">
<metadata>
Created by potrace 1.11, written by Peter Selinger 2001-2013
</metadata>
<g transform="translate(0.000000,700.000000) scale(0.100000,-0.100000)"
fill="#000000" stroke="none">
<path d="M3280 6994 c-19 -2 -84 -9 -145 -15 -955 -93 -1835 -591 -2433 -1377
-328 -430 -561 -971 -651 -1514 -38 -226 -45 -320 -45 -588 0 -268 7 -362 45
-588 163 -977 753 -1855 1601 -2383 438 -272 907 -437 1443 -506 196 -25 614
-25 810 0 430 56 786 162 1155 346 729 364 1312 973 1639 1714 144 325 238
675 283 1052 16 139 16 595 0 730 -95 786 -401 1459 -915 2010 -582 625 -1309
996 -2160 1101 -115 14 -550 27 -627 18z m-1288 -3059 l1508 -428 1508 428
c829 235 1516 430 1527 433 11 2 -664 -436 -1500 -974 -836 -538 -1527 -978
-1535 -978 -11 0 -2244 1430 -3007 1924 -26 18 -39 30 -28 27 11 -2 698 -197
1527 -432z"/>
</g>
</svg>
