<svg width="32" height="32" viewBox="0 0 32 32" fill="none" xmlns="http://www.w3.org/2000/svg">
<circle cx="16" cy="16" r="16" fill="#FF2D79"/>
<g clip-path="url(#clip0)">
<path d="M22.5714 20.8547V9.42859L22.1354 9.46514C20.3869 9.60967 18.6719 10.0276 17.0531 10.704L16.2856 11.0226V22.4035L16.8445 22.1712C18.5197 21.4742 20.2935 21.043 22.1016 20.8929L22.5714 20.8547Z" fill="white"/>
<path d="M24 11.1178H23.1428V21.1178C23.1434 21.2668 23.0291 21.3912 22.8805 21.4035L22.1488 21.4635C21.9376 21.4809 21.7269 21.5026 21.5171 21.5284C21.449 21.5366 21.3814 21.5475 21.3137 21.557C21.1723 21.5758 21.0311 21.5949 20.8903 21.6172C20.8083 21.6304 20.7268 21.6457 20.6451 21.6601C20.5191 21.6821 20.3928 21.704 20.2671 21.7288C20.1813 21.746 20.0957 21.7653 20.0082 21.7838C19.8885 21.8092 19.7688 21.8352 19.6499 21.8635C19.5608 21.8847 19.4719 21.9071 19.3833 21.9297C19.2677 21.9583 19.1526 21.9892 19.0376 22.0213C18.9482 22.0458 18.8588 22.0718 18.7696 22.098C18.6554 22.1317 18.5428 22.1661 18.4299 22.2021C18.3416 22.2307 18.2532 22.2593 18.1651 22.2877C18.0521 22.3258 17.9397 22.3651 17.8277 22.4057C17.742 22.4369 17.6562 22.4681 17.5686 22.5009C17.5294 22.5158 17.4905 22.5317 17.4514 22.5469H24V11.1178Z" fill="white"/>
<path d="M9.86443 9.46514L9.42847 9.42859V20.8555L9.93558 20.8986C11.7426 21.0497 13.5148 21.4836 15.1873 22.1843L15.7142 22.4035V11.0226L14.9476 10.7043C13.3286 10.0278 11.6133 9.60967 9.86443 9.46514Z" fill="white"/>
<path d="M8 11.1178V22.5464H14.5532C14.518 22.5326 14.4828 22.5178 14.4474 22.5047C14.3657 22.4735 14.2832 22.4438 14.2009 22.4138C14.0848 22.3717 13.9689 22.3307 13.852 22.2915C13.7674 22.2629 13.6826 22.2351 13.5977 22.2081C13.4817 22.17 13.3654 22.1341 13.2489 22.1006C13.1631 22.0755 13.0774 22.0503 12.9918 22.0263C12.8743 21.9938 12.7566 21.9629 12.6385 21.9327C12.5529 21.9106 12.4671 21.8886 12.3795 21.8681C12.2598 21.8395 12.1394 21.8133 12.0191 21.7874C11.9335 21.7689 11.8477 21.7501 11.762 21.7329C11.6374 21.7083 11.5123 21.6863 11.3871 21.6644C11.3051 21.65 11.2231 21.6358 11.1409 21.6211C11.0028 21.5992 10.8643 21.5807 10.7257 21.562C10.6557 21.5526 10.5862 21.5415 10.5163 21.5335C10.3068 21.5081 10.0972 21.4865 9.8877 21.4687L9.11858 21.4035C8.97028 21.3908 8.85658 21.2665 8.85714 21.1178V11.1178H8Z" fill="white"/>
</g>
<defs>
<clipPath id="clip0">
<rect width="16" height="16" fill="white" transform="translate(8 8)"/>
</clipPath>
</defs>
</svg>
