<svg width="32" height="32" viewBox="0 0 32 32" fill="none" xmlns="http://www.w3.org/2000/svg">
<circle cx="16" cy="16" r="16" fill="#227FB3"/>
<path d="M20.1256 19.8892C19.1016 19.8892 18.2573 20.7155 18.2573 21.7574C18.2573 22.7813 19.0837 23.6256 20.1256 23.6256C21.1495 23.6256 21.9938 22.7993 21.9938 21.7574C21.9758 20.7335 21.1495 19.8892 20.1256 19.8892Z" fill="white"/>
<path d="M23.4129 10.9791C23.377 10.9791 23.3231 10.9612 23.2692 10.9612H11.952L11.7724 9.7576C11.6646 8.96719 10.982 8.37439 10.1736 8.37439H8.71855C8.32335 8.37439 8 8.69774 8 9.09294C8 9.48814 8.32335 9.81149 8.71855 9.81149H10.1736C10.2634 9.81149 10.3353 9.88335 10.3533 9.97317L11.467 17.5539C11.6107 18.506 12.4371 19.2245 13.4071 19.2245H20.88C21.8141 19.2245 22.6225 18.5598 22.8201 17.6437L23.9878 11.8055C24.0596 11.4282 23.8081 11.051 23.4129 10.9791Z" fill="white"/>
<path d="M15.5448 21.6676C15.5089 20.6796 14.6825 19.8892 13.6945 19.8892C12.6526 19.9431 11.8622 20.8053 11.8982 21.8292C11.9341 22.8173 12.7424 23.6077 13.7305 23.6077H13.7664C14.7903 23.5538 15.5987 22.6915 15.5448 21.6676Z" fill="white"/>
</svg>
