<svg width="55" height="55" viewBox="0 0 55 55" fill="none" xmlns="http://www.w3.org/2000/svg">
<circle cx="27.5" cy="27.5" r="27.5" transform="rotate(-180 27.5 27.5)" fill="#E31A3E"/>
<path d="M30.0332 20.8248C30.2519 20.6059 30.3748 20.309 30.3747 19.9996C30.3746 19.6901 30.2515 19.3933 30.0326 19.1746C29.8137 18.9558 29.5168 18.833 29.2074 18.8331C28.8979 18.8332 28.6011 18.9562 28.3823 19.1751L23.0332 24.5255C22.377 25.1818 22.0084 26.0719 22.0084 27C22.0084 27.9281 22.377 28.8181 23.0332 29.4745L28.387 34.8248C28.6092 35.0257 28.9 35.1334 29.1994 35.1257C29.4988 35.118 29.7838 34.9955 29.9953 34.7835C30.2068 34.5715 30.3288 34.2863 30.3358 33.9869C30.3429 33.6875 30.2345 33.3969 30.0332 33.1751L24.6828 27.8248C24.4641 27.606 24.3413 27.3093 24.3413 27C24.3413 26.6906 24.4641 26.3939 24.6828 26.1751L30.0332 20.8248Z" fill="white"/>
</svg>
