<svg width="32" height="32" viewBox="0 0 32 32" fill="none" xmlns="http://www.w3.org/2000/svg">
<circle cx="16" cy="16" r="16" fill="#5BAB5F"/>
<g clip-path="url(#clip0)">
<path d="M23.7206 12.915L22.3975 11.5919L23.3921 10.5977C23.48 10.5099 23.5295 10.3908 23.5295 10.2663C23.5295 10.1418 23.48 10.0228 23.3921 9.93492L22.0605 8.60329C21.8847 8.42751 21.5734 8.42751 21.3976 8.60329L20.4034 9.59789L19.0802 8.27457C18.7141 7.90848 18.1205 7.90848 17.7544 8.27457C17.3882 8.64067 17.3882 9.23426 17.7544 9.60039L22.3947 14.2408C22.7609 14.6069 23.3545 14.6069 23.7206 14.2408C24.0866 13.8747 24.0866 13.2811 23.7206 12.915Z" fill="white"/>
<path d="M14.2457 22.3995L9.6053 17.7591C9.23914 17.393 8.64561 17.393 8.27945 17.7591C7.91336 18.1252 7.91336 18.7188 8.27945 19.0849L9.60274 20.4082L8.61008 21.4004C8.52217 21.4883 8.47274 21.6074 8.47274 21.7319C8.47274 21.8564 8.52217 21.9754 8.61008 22.0633L9.94171 23.3944C10.0332 23.486 10.1532 23.5318 10.2731 23.5318C10.3931 23.5318 10.513 23.486 10.6045 23.3945L11.5968 22.4022L12.9198 23.7253C13.2859 24.0914 13.8795 24.0914 14.2457 23.7253C14.6118 23.3592 14.6118 22.7656 14.2457 22.3995Z" fill="white"/>
<path d="M16.4286 13.5779L13.5828 16.4334L15.5715 18.4221L18.4173 15.5666L16.4286 13.5779Z" fill="white"/>
<path d="M22.3948 15.5666L16.4286 9.60038C16.0625 9.23428 15.4688 9.23428 15.1027 9.60038C14.7366 9.96653 14.7366 10.5601 15.1027 10.9262L21.069 16.8925C21.4351 17.2585 22.0287 17.2585 22.3948 16.8925C22.7609 16.5264 22.7609 15.9328 22.3948 15.5666Z" fill="white"/>
<path d="M16.8972 21.0737L10.931 15.1075C10.5649 14.7414 9.97128 14.7414 9.60518 15.1075C9.23903 15.4736 9.23903 16.0672 9.60518 16.4333L15.5714 22.3995C15.9375 22.7656 16.5311 22.7656 16.8972 22.3995C17.2634 22.0334 17.2634 21.4398 16.8972 21.0737Z" fill="white"/>
</g>
<defs>
<clipPath id="clip0">
<rect width="16" height="16" fill="white" transform="translate(8 8)"/>
</clipPath>
</defs>
</svg>
