<svg width="22" height="22" viewBox="0 0 22 22" fill="none" xmlns="http://www.w3.org/2000/svg">
<g clip-path="url(#clip0)">
<path d="M18.1235 11.9252C17.7743 11.4842 17.8742 11.288 18.1235 10.8938C18.128 10.8893 21.0107 6.90585 21.3077 5.55495L21.3095 5.55405C21.4571 5.06175 21.3095 4.69995 20.5958 4.69995H18.2342C17.633 4.69995 17.3558 5.01045 17.2073 5.35785C17.2073 5.35785 16.0049 8.23605 14.3039 10.1018C13.7549 10.6409 13.5011 10.8137 13.2014 10.8137C13.0538 10.8137 12.8243 10.6409 12.8243 10.1486V5.55405C12.8243 4.96365 12.656 4.69995 12.1583 4.69995H8.44485C8.06775 4.69995 7.84365 4.97535 7.84365 5.23185C7.84365 5.79165 8.69415 5.92035 8.78235 7.49535V10.9127C8.78235 11.6615 8.64645 11.7992 8.34495 11.7992C7.54215 11.7992 5.59365 8.90925 4.43895 5.60175C4.20585 4.96005 3.97815 4.70085 3.37245 4.70085H1.00995C0.335851 4.70085 0.199951 5.01135 0.199951 5.35875C0.199951 5.97255 1.00275 9.02445 3.93315 13.0565C5.88615 15.8087 8.63655 17.3 11.1386 17.3C12.6425 17.3 12.8261 16.9688 12.8261 16.3991C12.8261 13.7693 12.6902 13.5209 13.4435 13.5209C13.7927 13.5209 14.3939 13.6937 15.7979 15.0212C17.4026 16.5953 17.6663 17.3 18.5645 17.3H20.9261C21.5993 17.3 21.9404 16.9688 21.7442 16.3154C21.2951 14.9411 18.2603 12.1142 18.1235 11.9252Z" fill="#303030"/>
</g>
<defs>
<clipPath id="clip0">
<rect width="21.6" height="21.6" fill="white" transform="translate(0.199951 0.199951)"/>
</clipPath>
</defs>
</svg>
