<svg width="206" height="34" viewBox="0 0 206 34" fill="none" xmlns="http://www.w3.org/2000/svg">
<path fill-rule="evenodd" clip-rule="evenodd" d="M74.3175 22.7169C74.3175 22.2221 74.0744 21.8236 73.5877 21.5211C73.1014 21.2188 72.5076 20.9664 71.8065 20.7636C71.1052 20.5608 70.4075 20.322 69.7126 20.047C69.0182 19.7724 68.426 19.3186 67.9363 18.6865C67.4465 18.0544 67.2016 17.2538 67.2016 16.2848C67.2016 15.089 67.6696 14.0687 68.6057 13.2235C69.5417 12.3782 70.7581 11.9554 72.2544 11.9554C72.8448 11.9554 73.4149 12.026 73.9651 12.1667C74.5155 12.3076 74.9669 12.4725 75.319 12.6614C75.6714 12.8506 75.9801 13.0428 76.245 13.2388C76.5101 13.4347 76.6996 13.6046 76.8138 13.749L76.995 13.9551L75.1428 15.9651C75.0624 15.8689 74.9501 15.7506 74.8058 15.6094C74.6614 15.4687 74.3579 15.2815 73.895 15.0476C73.4319 14.8142 72.9555 14.6973 72.4655 14.6973C71.8752 14.6973 71.4003 14.8521 71.0415 15.161C70.6823 15.4704 70.5029 15.8449 70.5029 16.2848C70.5029 16.7796 70.7461 17.1762 71.2324 17.4752C71.7192 17.774 72.3095 18.0269 73.004 18.2327C73.6989 18.439 74.3963 18.6797 75.0978 18.9542C75.7989 19.2292 76.3945 19.683 76.8843 20.3152C77.3738 20.9473 77.6189 21.7479 77.6189 22.7169C77.6189 24.0844 77.1342 25.2012 76.1646 26.0669C75.1948 26.9329 73.858 27.3657 72.1536 27.3657C71.4826 27.3657 70.8334 27.2815 70.2061 27.1131C69.5787 26.9449 69.0619 26.7439 68.656 26.5101C68.2498 26.2767 67.8926 26.0396 67.5841 25.7989C67.2754 25.5583 67.0539 25.3557 66.9196 25.1908L66.6882 24.933L68.5503 23.0366C68.644 23.1462 68.7768 23.289 68.9477 23.4643C69.1188 23.6393 69.4997 23.875 70.0901 24.1703C70.6807 24.4657 71.2981 24.6135 71.9422 24.6135C72.687 24.6135 73.2691 24.4349 73.6887 24.0773C74.108 23.7202 74.3175 23.2667 74.3175 22.7169Z" fill="black"/>
<path fill-rule="evenodd" clip-rule="evenodd" d="M83.4868 24.2012H91.2167V27.0463H80.3866V12.2649H91.0056V15.1199H83.4868V18.0785H89.3548V20.9234H83.4868V24.2012Z" fill="black"/>
<path fill-rule="evenodd" clip-rule="evenodd" d="M100.064 15.1199H97.1856V19.3359H100.064C100.681 19.3359 101.196 19.1331 101.609 18.7278C102.022 18.3222 102.228 17.8242 102.228 17.233C102.228 16.642 102.022 16.1421 101.609 15.7332C101.196 15.3244 100.681 15.1199 100.064 15.1199ZM94.0851 12.2649H100.165C101.648 12.2649 102.877 12.7408 103.854 13.6922C104.83 14.6442 105.318 15.8226 105.318 17.228C105.318 18.6332 104.832 19.8118 103.859 20.7637C102.885 21.7155 101.654 22.1912 100.165 22.1912H97.1856V27.0461H94.0851V12.2649Z" fill="black"/>
<path fill-rule="evenodd" clip-rule="evenodd" d="M115.758 17.1197C115.758 16.5424 115.572 16.0648 115.199 15.687C114.827 15.3089 114.359 15.1198 113.795 15.1198H110.605V19.0267H113.795C114.359 19.0267 114.827 18.8427 115.199 18.4752C115.572 18.1075 115.758 17.6556 115.758 17.1197ZM107.504 27.0462V12.2648H113.896C115.325 12.2648 116.508 12.7336 117.444 13.6718C118.38 14.6098 118.848 15.7588 118.848 17.1197C118.848 17.7107 118.757 18.264 118.576 18.7792C118.395 19.2946 118.182 19.7105 117.937 20.0267C117.692 20.3427 117.442 20.6141 117.187 20.8407C116.932 21.0675 116.714 21.2223 116.533 21.3046L116.271 21.4491L119.361 27.0462H116.06L113.282 21.8716H110.605V27.0462H107.504Z" fill="black"/>
<mask id="mask0" mask-type="alpha" maskUnits="userSpaceOnUse" x="120" y="11" width="17" height="17">
<path fill-rule="evenodd" clip-rule="evenodd" d="M120.722 11.9556H136.393V27.3658H120.722V11.9556Z" fill="white"/>
</mask>
<g mask="url(#mask0)">
<path fill-rule="evenodd" clip-rule="evenodd" d="M125.271 16.2075C124.372 17.1455 123.923 18.2964 123.923 19.6606C123.923 21.0248 124.372 22.174 125.271 23.1085C126.17 24.0431 127.266 24.5103 128.558 24.5103C129.849 24.5103 130.945 24.0431 131.844 23.1085C132.743 22.174 133.192 21.0248 133.192 19.6606C133.192 18.2964 132.743 17.1455 131.844 16.2075C130.945 15.2693 129.849 14.8003 128.558 14.8003C127.266 14.8003 126.17 15.2693 125.271 16.2075ZM122.991 25.1032C121.478 23.5947 120.722 21.7786 120.722 19.6554C120.722 17.532 121.478 15.7177 122.991 14.2128C124.505 12.7079 126.36 11.9556 128.558 11.9556C130.755 11.9556 132.61 12.7079 134.124 14.2128C135.637 15.7177 136.393 17.532 136.393 19.6554C136.393 21.7786 135.637 23.5947 134.124 25.1032C132.61 26.6116 130.755 27.3658 128.558 27.3658C126.36 27.3658 124.505 26.6116 122.991 25.1032Z" fill="black"/>
</g>
<path fill-rule="evenodd" clip-rule="evenodd" d="M144.971 22.7169C144.971 22.2221 144.728 21.8236 144.241 21.5211C143.755 21.2188 143.161 20.9664 142.46 20.7636C141.759 20.5608 141.061 20.322 140.366 20.047C139.672 19.7724 139.08 19.3186 138.59 18.6865C138.1 18.0544 137.855 17.2538 137.855 16.2848C137.855 15.089 138.323 14.0687 139.259 13.2235C140.195 12.3782 141.411 11.9554 142.908 11.9554C143.498 11.9554 144.068 12.026 144.618 12.1667C145.169 12.3076 145.62 12.4725 145.972 12.6614C146.325 12.8506 146.634 13.0428 146.898 13.2388C147.163 13.4347 147.353 13.6046 147.467 13.749L147.648 13.9551L145.796 15.9651C145.716 15.8689 145.603 15.7506 145.459 15.6094C145.315 15.4687 145.011 15.2815 144.548 15.0476C144.085 14.8142 143.609 14.6973 143.119 14.6973C142.529 14.6973 142.054 14.8521 141.695 15.161C141.336 15.4704 141.156 15.8449 141.156 16.2848C141.156 16.7796 141.4 17.1762 141.886 17.4752C142.373 17.774 142.963 18.0269 143.657 18.2327C144.352 18.439 145.05 18.6797 145.751 18.9542C146.452 19.2292 147.048 19.683 147.538 20.3152C148.027 20.9473 148.272 21.7479 148.272 22.7169C148.272 24.0844 147.788 25.2012 146.818 26.0669C145.848 26.9329 144.511 27.3657 142.807 27.3657C142.136 27.3657 141.487 27.2815 140.859 27.1131C140.232 26.9449 139.715 26.7439 139.309 26.5101C138.903 26.2767 138.546 26.0396 138.237 25.7989C137.929 25.5583 137.707 25.3557 137.573 25.1908L137.342 24.933L139.204 23.0366C139.297 23.1462 139.43 23.289 139.601 23.4643C139.772 23.6393 140.153 23.875 140.743 24.1703C141.334 24.4657 141.952 24.6135 142.596 24.6135C143.34 24.6135 143.922 24.4349 144.342 24.0773C144.761 23.7202 144.971 23.2667 144.971 22.7169Z" fill="black"/>
<path fill-rule="evenodd" clip-rule="evenodd" d="M156.723 15.1199H153.844V19.3359H156.723C157.34 19.3359 157.855 19.1331 158.268 18.7278C158.681 18.3222 158.887 17.8242 158.887 17.233C158.887 16.642 158.681 16.1421 158.268 15.7332C157.855 15.3244 157.34 15.1199 156.723 15.1199ZM150.744 12.2649H156.824C158.306 12.2649 159.536 12.7408 160.512 13.6922C161.489 14.6442 161.977 15.8226 161.977 17.228C161.977 18.6332 161.49 19.8118 160.517 20.7637C159.544 21.7155 158.313 22.1912 156.824 22.1912H153.844V27.0461H150.744V12.2649Z" fill="black"/>
<mask id="mask1" mask-type="alpha" maskUnits="userSpaceOnUse" x="163" y="11" width="17" height="17">
<path fill-rule="evenodd" clip-rule="evenodd" d="M163.634 11.9556H179.305V27.3658H163.634V11.9556Z" fill="white"/>
</mask>
<g mask="url(#mask1)">
<path fill-rule="evenodd" clip-rule="evenodd" d="M168.183 16.2075C167.284 17.1455 166.834 18.2964 166.834 19.6606C166.834 21.0248 167.284 22.174 168.183 23.1085C169.082 24.0431 170.178 24.5103 171.469 24.5103C172.761 24.5103 173.857 24.0431 174.756 23.1085C175.655 22.174 176.104 21.0248 176.104 19.6606C176.104 18.2964 175.655 17.1455 174.756 16.2075C173.857 15.2693 172.761 14.8003 171.469 14.8003C170.178 14.8003 169.082 15.2693 168.183 16.2075ZM165.903 25.1032C164.39 23.5947 163.634 21.7786 163.634 19.6554C163.634 17.532 164.39 15.7177 165.903 14.2128C167.416 12.7079 169.272 11.9556 171.469 11.9556C173.667 11.9556 175.522 12.7079 177.035 14.2128C178.549 15.7177 179.305 17.532 179.305 19.6554C179.305 21.7786 178.549 23.5947 177.035 25.1032C175.522 26.6116 173.667 27.3658 171.469 27.3658C169.272 27.3658 167.416 26.6116 165.903 25.1032Z" fill="black"/>
</g>
<path fill-rule="evenodd" clip-rule="evenodd" d="M189.845 17.1197C189.845 16.5424 189.659 16.0648 189.287 15.687C188.914 15.3089 188.447 15.1198 187.883 15.1198H184.692V19.0267H187.883C188.447 19.0267 188.914 18.8427 189.287 18.4752C189.659 18.1075 189.845 17.6556 189.845 17.1197ZM181.592 27.0462V12.2648H187.983C189.412 12.2648 190.595 12.7336 191.531 13.6718C192.467 14.6098 192.936 15.7588 192.936 17.1197C192.936 17.7107 192.845 18.264 192.664 18.7792C192.483 19.2946 192.269 19.7105 192.025 20.0267C191.78 20.3427 191.53 20.6141 191.275 20.8407C191.02 21.0675 190.802 21.2223 190.621 21.3046L190.359 21.4491L193.449 27.0462H190.148L187.369 21.8716H184.692V27.0462H181.592Z" fill="black"/>
<mask id="mask2" mask-type="alpha" maskUnits="userSpaceOnUse" x="194" y="12" width="12" height="16">
<path fill-rule="evenodd" clip-rule="evenodd" d="M194.375 12.2648H205.708V27.0462H194.375V12.2648Z" fill="white"/>
</mask>
<g mask="url(#mask2)">
<path fill-rule="evenodd" clip-rule="evenodd" d="M194.375 12.2648H205.708V15.1198H201.591V27.0462H198.502V15.1198H194.375V12.2648Z" fill="black"/>
</g>
<path fill-rule="evenodd" clip-rule="evenodd" d="M6.29749 18.0697L0.00012207 33.1706H8.63L16.9217 13.39L6.29749 18.0697Z" fill="#6ADBC7"/>
<mask id="mask3" mask-type="alpha" maskUnits="userSpaceOnUse" x="12" y="6" width="20" height="28">
<path fill-rule="evenodd" clip-rule="evenodd" d="M12.1667 6.79175H31.9011V33.1707H12.1667V6.79175Z" fill="white"/>
</mask>
<g mask="url(#mask3)">
<path fill-rule="evenodd" clip-rule="evenodd" d="M21.2767 11.4716L12.1667 33.1707H20.7968L31.9011 6.79175L21.2767 11.4716Z" fill="#4FB6E1"/>
</g>
<path fill-rule="evenodd" clip-rule="evenodd" d="M36.3329 4.83974L24.4142 33.1706H33.0441L46.9541 0.161255L36.3329 4.83974Z" fill="#248CF7"/>
</svg>
