<svg width="18" height="20" viewBox="0 0 18 20" fill="none" xmlns="http://www.w3.org/2000/svg">
<path fill-rule="evenodd" clip-rule="evenodd" d="M13.2516 4.3382C12.9853 4.60919 12.3417 5.04419 11.5604 5.35718C10.8391 5.64718 10.3684 5.67618 10.1935 5.64118C10.1601 5.46418 10.1886 4.98519 10.4726 4.2512C10.7801 3.45621 11.2076 2.80121 11.4749 2.53022C11.9643 2.03122 12.7622 2.03122 13.2516 2.53022C13.4894 2.77122 13.6192 3.09221 13.6192 3.43421C13.6192 3.7752 13.4894 4.0962 13.2516 4.3382ZM8.05317 5.64118C7.87825 5.67618 7.40754 5.64718 6.68625 5.35718C5.90501 5.04419 5.26232 4.60919 4.99503 4.3382C4.7582 4.0962 4.6275 3.7752 4.6275 3.43421C4.6275 3.09221 4.7582 2.77122 4.99503 2.53022C5.24071 2.28122 5.56205 2.15622 5.88339 2.15622C6.20571 2.15622 6.52705 2.28122 6.77272 2.53022C7.03903 2.80122 7.46651 3.45621 7.77409 4.2512C8.05809 4.98519 8.08659 5.46418 8.05317 5.64118ZM16.4837 6.13917H15.4332H14.4495C14.5596 6.04717 14.6608 5.95518 14.7502 5.86318C16.067 4.52419 16.067 2.34422 14.7502 1.00424C13.4344 -0.334746 11.2921 -0.334746 9.97532 1.00424C9.71393 1.27023 9.41027 1.68223 9.12333 2.17422C8.83638 1.68223 8.53273 1.27023 8.27133 1.00424C6.95452 -0.334746 4.81323 -0.334746 3.49642 1.00424C2.17961 2.34422 2.17961 4.52419 3.49642 5.86318C3.58585 5.95518 3.68805 6.04717 3.79713 6.13917H2.5668H1.5163C0.679041 6.13917 0 6.82916 0 7.68115V9.58113C0 10.2671 0.441229 10.8481 1.0505 11.0481V18.457C1.0505 19.309 1.72954 20 2.5668 20H7.30436V7.55116C7.30436 7.17716 7.60212 6.87516 7.96866 6.87516H10.0313C10.3979 6.87516 10.6956 7.17716 10.6956 7.55116V20H15.4332C16.2714 20 16.9495 19.309 16.9495 18.457V11.0481C17.5588 10.8481 18 10.2671 18 9.58113V7.68115C18 6.82916 17.321 6.13917 16.4837 6.13917Z" fill="#248CF7"/>
</svg>
