<svg width="33" height="33" viewBox="0 0 33 33" fill="none" xmlns="http://www.w3.org/2000/svg">
<path fill-rule="evenodd" clip-rule="evenodd" d="M22.3769 29.7095L23.5265 26.1711H27.2391C25.8914 27.6661 24.2372 28.8784 22.3769 29.7095ZM13.0388 30.5396L11.3447 25.3231L13.7494 21.935H19.2506L21.6553 25.3231L19.9612 30.5396C18.8515 30.8123 17.6929 30.9586 16.4995 30.9586C15.3071 30.9586 14.1485 30.8123 13.0388 30.5396ZM5.76094 26.1711H9.4735L10.6231 29.7095C8.76284 28.8784 7.10861 27.6661 5.76094 26.1711ZM11.0491 3.1094L15.4793 6.32828V10.3066L11.0083 13.5553L7.13748 12.3749L5.4514 7.18525C6.94936 5.41059 8.86735 4.00021 11.0491 3.1094ZM19.5114 2.35792L16.5005 4.54664L13.4886 2.35792C14.4601 2.1509 15.4674 2.04141 16.4995 2.04141C17.5326 2.04141 18.5399 2.1509 19.5114 2.35792ZM27.5486 7.18525L25.8625 12.3749L21.9917 13.5553L17.5207 10.3066V6.32728L21.9509 3.1094C24.1327 4.00121 26.0506 5.41059 27.5486 7.18525ZM27.8691 12.8059L29.0177 9.27046C30.013 10.9874 30.666 12.9273 30.881 14.9946L27.8691 12.8059ZM13.9644 19.8936L12.3968 15.0702L16.5005 12.0882L20.6032 15.0702L19.0366 19.8936H13.9644ZM5.1309 12.8059L2.11905 14.9946C2.33404 12.9273 2.98697 10.9874 3.9823 9.27046L5.1309 12.8059ZM9.68849 24.1297H4.22316C3.01484 22.1928 2.25143 19.9503 2.07923 17.5466L6.51938 14.3207L10.3902 15.5012L12.0932 20.7426L9.68849 24.1297ZM23.3125 24.1297L20.9068 20.7426L22.6098 15.5012L26.4806 14.3207L30.9208 17.5466C30.7486 19.9503 29.9852 22.1928 28.7768 24.1297H23.3125ZM28.1677 4.8333C25.0503 1.71694 20.9068 0 16.4995 0C12.0922 0 7.94867 1.71694 4.8323 4.8333C1.71594 7.94966 0 12.0932 0 16.5005C0 20.9078 1.71594 25.0513 4.8323 28.1677C7.94867 31.2841 12.0922 33 16.4995 33C20.9068 33 25.0503 31.2841 28.1677 28.1677C31.2841 25.0513 33 20.9078 33 16.5005C33 12.0932 31.2841 7.94966 28.1677 4.8333Z" fill="#248CF7"/>
</svg>
