<svg width="33" height="33" viewBox="0 0 33 33" fill="none" xmlns="http://www.w3.org/2000/svg">
<path fill-rule="evenodd" clip-rule="evenodd" d="M17.5207 15.4793V11.497C21.2641 11.281 24.8523 9.88358 27.8084 7.48982C29.6388 9.77708 30.7197 12.5421 30.9228 15.4793H17.5207ZM17.5207 21.503V17.5207H30.9228C30.7197 20.4579 29.6398 23.2229 27.8094 25.5112C24.8523 23.1174 21.2641 21.719 17.5207 21.503ZM17.5207 23.5484C20.7515 23.7584 23.851 24.9657 26.4239 27.0161C23.9774 29.3282 20.86 30.6918 17.5207 30.9228V23.5484ZM15.4793 23.5484V30.9228C12.14 30.6918 9.02362 29.3272 6.57711 27.0161C9.15002 24.9657 12.2485 23.7584 15.4793 23.5484ZM15.4793 17.5207V21.503C11.7369 21.719 8.14873 23.1174 5.19261 25.5102C3.3204 23.1642 2.28328 20.3673 2.08421 17.5207H15.4793ZM15.4793 11.497V15.4793H2.08421C2.28427 12.6337 3.3204 9.8358 5.19261 7.48982C8.14873 9.88358 11.7369 11.282 15.4793 11.497ZM15.4793 9.4526C12.2485 9.24159 9.15002 8.03426 6.57711 5.98489C9.02362 3.67275 12.14 2.30915 15.4793 2.07724V9.4526ZM17.5207 2.07724C20.86 2.30915 23.9774 3.67275 26.4229 5.98489C23.85 8.03526 20.7515 9.24159 17.5207 9.4526V2.07724ZM28.1677 4.8333C25.0513 1.71694 20.9078 0 16.5005 0C12.0932 0 7.94966 1.71694 4.8333 4.8333C1.71594 7.94966 0 12.0932 0 16.5005C0 20.9078 1.71694 25.0513 4.8333 28.1677C7.94966 31.2841 12.0932 33 16.5005 33C20.9078 33 25.0513 31.2841 28.1677 28.1677C31.2841 25.0513 33 20.9078 33 16.5005C33 12.0932 31.2841 7.94966 28.1677 4.8333Z" fill="black"/>
</svg>
