<svg width="33" height="33" viewBox="0 0 33 33" fill="none" xmlns="http://www.w3.org/2000/svg">
<path fill-rule="evenodd" clip-rule="evenodd" d="M27.6403 15.6678C27.0396 16.2685 26.3918 16.7948 25.7119 17.2418L23.3747 14.9035L26.8769 11.4021L29.2141 13.7394C28.7672 14.4204 28.2399 15.0682 27.6403 15.6678ZM12.6079 16.0937C13.0026 17.062 13.5761 17.9348 14.3203 18.6791C15.0565 19.4153 15.9383 19.9908 16.9176 20.3876L10.7277 22.2719L12.6079 16.0937ZM17.3314 5.35855C17.931 4.75791 18.5798 4.23159 19.2588 3.78463L21.597 6.1219L18.0947 9.62429L15.7576 7.28702C16.2045 6.60603 16.7308 5.95818 17.3314 5.35855ZM25.6034 2.11529L23.0533 4.6655L21.1651 2.77821C22.3141 2.30915 23.5053 2.06005 24.6754 2.06005C24.9927 2.06005 25.3021 2.07914 25.6034 2.11529ZM19.5511 11.0807L23.0533 7.5783L25.4196 9.9457L21.9184 13.4471L19.5511 11.0807ZM14.0903 11.7315C14.1476 11.2364 14.247 10.7432 14.3856 10.2541L14.4378 10.0833C14.5262 9.78399 14.6317 9.48668 14.7512 9.1934L16.6384 11.0807L14.0873 13.6309C14.014 13.0262 14.013 12.3904 14.0903 11.7315ZM17.1396 18.2271C16.6374 17.9609 16.1804 17.6254 15.7766 17.2227C15.3739 16.8189 15.0384 16.3619 14.7723 15.8597L18.0947 12.5371L20.462 14.9035L17.1396 18.2271ZM22.9147 18.5616L22.6696 18.6359C21.8822 18.8528 21.0847 18.9663 20.2973 18.9663C19.9789 18.9663 19.6696 18.9473 19.3683 18.9101L21.9184 16.3609L23.8056 18.2482C23.5113 18.3687 23.215 18.4742 22.9157 18.5646L22.9147 18.5616ZM30.1994 5.1667L26.8769 8.4893L24.5096 6.1219L27.8321 2.7993C28.3343 3.06547 28.7913 3.39994 29.195 3.80371C29.5978 4.20648 29.9332 4.6645 30.1994 5.1667ZM30.8814 9.29484C30.7819 10.1516 30.5569 11.0044 30.2205 11.833L28.3333 9.9457L30.8834 7.39449C30.9577 7.99915 30.9587 8.63595 30.8814 9.29484ZM30.6514 2.34731C29.1378 0.833663 27.0155 0 24.6754 0C21.5618 0 18.3539 1.42225 15.8751 3.90215C14.2179 5.55842 13.0307 7.54013 12.4261 9.61826L8.26898 23.2733L0 31.5436L1.45634 33L9.72531 24.7297L23.3446 20.5844C25.4246 19.9848 27.4263 18.7956 29.0966 17.1242C31.2469 14.9748 32.6069 12.279 32.9273 9.53289C33.2587 6.69843 32.4502 4.14622 30.6514 2.34731Z" fill="black"/>
</svg>
