<svg width="33" height="33" viewBox="0 0 33 33" fill="none" xmlns="http://www.w3.org/2000/svg">
<path fill-rule="evenodd" clip-rule="evenodd" d="M30.9586 30.5768C30.9586 30.7642 30.8023 30.9231 30.6182 30.9231H22.6088C22.2475 30.9231 21.714 30.588 21.5528 30.2589L20.859 28.8463H30.6182C30.8023 28.8463 30.9586 29.0052 30.9586 29.1926V30.5768ZM11.4462 30.2589C11.285 30.588 10.7525 30.9231 10.3902 30.9231H2.38082C2.19668 30.9231 2.04042 30.7642 2.04042 30.5768V29.1926C2.04042 29.0042 2.19668 28.8463 2.38082 28.8463H12.14L11.4462 30.2589ZM19.8398 26.7694L17.6401 22.2906L28.1289 0.928565L26.3035 0L16.4995 19.9667L6.69655 0L4.87013 0.928565L15.3589 22.2906L13.1602 26.7694H2.38082C1.06798 26.7694 0 27.8559 0 29.1926V30.5768C0 31.9125 1.06798 33 2.38082 33H10.3902C11.5259 33 12.765 32.2203 13.2727 31.1864L16.4995 24.6146L19.7263 31.1864C20.234 32.2203 21.4731 33 22.6088 33H30.6182C31.932 33 33 31.9125 33 30.5768V29.1926C33 27.8559 31.932 26.7694 30.6182 26.7694H19.8398Z" fill="black"/>
</svg>
