<svg width="13" height="12" viewBox="0 0 13 12" fill="none" xmlns="http://www.w3.org/2000/svg">
<path fill-rule="evenodd" clip-rule="evenodd" d="M8.57845 3.37303C8.66174 3.5361 8.82266 3.64913 9.00892 3.67525L12.5098 4.16676C12.9788 4.23264 13.1661 4.78955 12.8267 5.10915L10.2935 7.49504C10.1587 7.6219 10.0972 7.80485 10.129 7.98405L10.7271 11.3529C10.8072 11.8042 10.3169 12.1484 9.89731 11.9353L6.76609 10.3448C6.59951 10.2602 6.40052 10.2602 6.23394 10.3448L3.10272 11.9353C2.68318 12.1484 2.19286 11.8042 2.27298 11.3529L2.87103 7.98405C2.90284 7.80485 2.84131 7.6219 2.70653 7.49504L0.173273 5.10915C-0.166058 4.78955 0.0212003 4.23264 0.490242 4.16676L3.9911 3.67525C4.17727 3.64913 4.33829 3.5361 4.42158 3.37303L5.98724 0.307984C6.19696 -0.102661 6.80307 -0.102661 7.01279 0.307984L8.57845 3.37303Z" fill="#248CF7"/>
</svg>
