<svg width="25" height="24" viewBox="0 0 25 24" fill="none" xmlns="http://www.w3.org/2000/svg">
<path d="M21.5 10H7.5V7C7.5 5.897 8.397 5 9.5 5C10.603 5 11.5 5.897 11.5 7H13.5C13.5 4.794 11.706 3 9.5 3C7.294 3 5.5 4.794 5.5 7V10H3.5C3.23478 10 2.98043 10.1054 2.79289 10.2929C2.60536 10.4804 2.5 10.7348 2.5 11V13C2.5 15.606 4.174 17.823 6.5 18.65V22H8.5V19H16.5V22H18.5V18.65C20.826 17.823 22.5 15.606 22.5 13V11C22.5 10.7348 22.3946 10.4804 22.2071 10.2929C22.0196 10.1054 21.7652 10 21.5 10ZM20.5 13C20.5 15.206 18.706 17 16.5 17H8.5C6.294 17 4.5 15.206 4.5 13V12H20.5V13Z" fill="#D7B56D"/>
</svg>
