<svg width="24" height="24" viewBox="0 0 24 24" fill="none" xmlns="http://www.w3.org/2000/svg">
<path fill-rule="evenodd" clip-rule="evenodd" d="M11.664 1.27516C11.7697 1.22594 11.8849 1.20044 12.0016 1.20044C12.1182 1.20044 12.2334 1.22594 12.3392 1.27516L21.9392 5.75516C22.0772 5.81943 22.1941 5.92178 22.276 6.05017C22.3579 6.17856 22.4015 6.32767 22.4016 6.47996V17.52C22.4015 17.6723 22.3579 17.8214 22.276 17.9498C22.1941 18.0781 22.0772 18.1805 21.9392 18.2448L12.3392 22.7248C12.2334 22.774 12.1182 22.7995 12.0016 22.7995C11.8849 22.7995 11.7697 22.774 11.664 22.7248L2.06396 18.2448C1.92589 18.1805 1.80903 18.0781 1.72712 17.9498C1.64521 17.8214 1.60165 17.6723 1.60156 17.52V6.47996C1.60165 6.32767 1.64521 6.17856 1.72712 6.05017C1.80903 5.92178 1.92589 5.81943 2.06396 5.75516L11.664 1.27516ZM3.20156 7.68956L11.2016 11.088V20.7424L3.20156 17.0096V7.68956ZM12.8016 20.744L20.8016 17.0112V7.68956L12.8016 11.088V20.7424V20.744ZM12.0016 9.69116L19.6368 6.44636L12.0016 2.88316L4.36636 6.44636L12.0016 9.69116Z" fill="#D7B56D"/>
</svg>
