<svg width="233" height="304" viewBox="0 0 233 304" fill="none" xmlns="http://www.w3.org/2000/svg">
<path fill-rule="evenodd" clip-rule="evenodd" d="M200.708 231.717C176.623 244.281 158.43 250.767 133.297 253.875C119.098 255.607 84.5907 256.742 73.2241 253.243C90.6811 226.002 152.383 222.538 186.353 226.582C194.15 227.5 195.934 227.448 200.708 231.717Z" fill="#EFEFEF"/>
<path fill-rule="evenodd" clip-rule="evenodd" d="M160.128 201.402C129.277 211.723 92.7519 207.177 62.9666 199.107C53.4368 196.509 39.809 193.158 32.8955 186.984C63.2179 178.152 77.0016 175.061 103.616 180.057C119.721 183.088 152.201 190.916 160.128 201.367" fill="#EFEFEF"/>
<path fill-rule="evenodd" clip-rule="evenodd" d="M244.459 261.08C222.22 282.425 188.683 295.153 157.07 300.635L133.904 303.717C130.3 303.596 130.638 303.414 128.888 302.851C152.972 268.025 226.56 252.109 244.459 261.08Z" fill="#EFEFEF"/>
<path fill-rule="evenodd" clip-rule="evenodd" d="M124.755 157.638C88.6888 165.691 29.7507 148.287 11.462 131.661C35.5813 124.933 53.047 126.63 72.7998 132.163C85.7258 135.783 113.397 145.507 124.781 157.656" fill="#EFEFEF"/>
<path fill-rule="evenodd" clip-rule="evenodd" d="M202.389 205.757C177.767 191.366 159.938 125.409 170.672 107.546C188.458 134.207 207.119 175.511 202.372 205.757" fill="#EFEFEF"/>
<path fill-rule="evenodd" clip-rule="evenodd" d="M96.8843 120.361C78.9941 122.093 57.5779 114.482 45.2237 108.931C34.3683 104.013 7.4853 90.8251 0 80.0792C33.7098 76.8926 74.1945 93.1457 96.8843 120.361Z" fill="#EFEFEF"/>
<path fill-rule="evenodd" clip-rule="evenodd" d="M148.25 154.028C122.26 132.64 122.728 95.8127 121.393 70.6234L124.98 72.6583C141.077 85.7422 148.528 124.379 149.238 144.026C149.472 150.018 149.879 149.36 148.172 154.028" fill="#EFEFEF"/>
<path fill-rule="evenodd" clip-rule="evenodd" d="M77.2873 86.1838C55.3513 85.4305 21.9187 52.2142 10.5261 35.8659C33.6404 36.8617 62.3774 61.5314 77.2873 86.1838Z" fill="#EFEFEF"/>
<path fill-rule="evenodd" clip-rule="evenodd" d="M251 253.798C211.468 236.194 167.042 195.271 132.439 153.499C113.124 130.226 95.8347 105.345 80.7615 79.1266C69.9667 60.3451 32.6615 24.7043 38.5008 0C87.0166 43.7457 62.6634 39.8317 84.0017 75.8448C111.725 122.673 150.546 170.878 190.433 206.744C200.985 216.269 211.46 223.984 221.241 231.275C243.134 247.589 249.172 242.671 251 253.789" fill="#EFEFEF"/>
<path fill-rule="evenodd" clip-rule="evenodd" d="M248.54 239.779C222.211 226.071 203.411 146.711 216.329 127.496C240.457 165.155 248.869 199.652 248.54 239.779Z" fill="#EFEFEF"/>
<path fill-rule="evenodd" clip-rule="evenodd" d="M111.093 106.706C95.6629 95.3626 85.3533 51.7555 94.7878 39.1652C107.501 59.2762 113.231 83.0132 111.093 106.706Z" fill="#EFEFEF"/>
</svg>
