<svg width="30" height="30" viewBox="0 0 30 30" fill="none" xmlns="http://www.w3.org/2000/svg">
<g clip-path="url(#clip0)">
<path d="M14.3346 18.768C14.5248 18.9352 14.7623 19.0191 15 19.0191C15.2377 19.0191 15.4752 18.9352 15.6653 18.768C15.9062 18.5557 21.5634 13.5133 21.5634 8.28378C21.5634 4.66336 18.6192 1.7179 15.0001 1.7179C11.3809 1.7179 8.43652 4.66336 8.43652 8.28378C8.43632 13.5133 14.0937 18.5557 14.3346 18.768ZM15 6.56821C15.9396 6.56821 16.7015 7.3361 16.7015 8.28378C16.7015 9.23136 15.9396 9.99934 15 9.99934C14.0601 9.99934 13.2983 9.23125 13.2983 8.28378C13.2983 7.3361 14.0601 6.56821 15 6.56821Z" fill="#D7B56D"/>
<path d="M27.6118 18.765L26.8515 16.1006C26.728 15.6682 26.333 15.3701 25.8835 15.3701H20.4573C20.2611 15.6617 20.0542 15.9545 19.8353 16.2488C18.3144 18.2922 16.7682 19.6745 16.5968 19.8256C16.1554 20.2143 15.5884 20.4283 15 20.4283C14.412 20.4283 13.8451 20.2145 13.403 19.8254C13.2318 19.6745 11.6855 18.292 10.1646 16.2488C9.94575 15.9545 9.73878 15.6616 9.54262 15.3701H4.11634C3.66684 15.3701 3.27179 15.6682 3.14835 16.1006L2.24219 19.276L22.4977 22.9861L27.6118 18.765Z" fill="#D7B56D"/>
<path d="M29.9609 26.9991L28.0185 20.1914L18.3809 28.2821H28.993C29.3089 28.2821 29.6064 28.1339 29.7966 27.8818C29.9868 27.6296 30.0475 27.3027 29.9609 26.9991Z" fill="#D7B56D"/>
<path d="M4.92854 21.2008L1.85378 20.6376L0.0386231 26.9991C-0.0479429 27.3027 0.0127644 27.6296 0.203068 27.8817C0.393271 28.1338 0.690747 28.282 1.00661 28.282H4.92854V21.2008Z" fill="#D7B56D"/>
<path d="M6.33789 21.4591V28.2821H16.1891L21.0966 24.1623L6.33789 21.4591Z" fill="#D7B56D"/>
</g>
<defs>
<clipPath id="clip0">
<rect width="30" height="30" fill="white"/>
</clipPath>
</defs>
</svg>
