<svg width="25" height="24" viewBox="0 0 25 24" fill="none" xmlns="http://www.w3.org/2000/svg">
<path d="M11.8626 14.8077C12.8689 14.1393 13.6333 13.1646 14.0426 12.028C14.4519 10.8914 14.4844 9.65318 14.1353 8.49666C13.7862 7.34013 13.074 6.32673 12.1042 5.60643C11.1343 4.88612 9.95834 4.49719 8.75028 4.49719C7.54221 4.49719 6.36624 4.88612 5.3964 5.60643C4.42656 6.32673 3.71439 7.34013 3.36527 8.49666C3.01616 9.65318 3.04866 10.8914 3.45797 12.028C3.86727 13.1646 4.63163 14.1393 5.63792 14.8077C3.92252 15.4405 2.43992 16.5796 1.38664 18.0741C1.32917 18.1546 1.2882 18.2457 1.26608 18.3421C1.24395 18.4385 1.24111 18.5383 1.25772 18.6358C1.27433 18.7333 1.31006 18.8266 1.36286 18.9102C1.41565 18.9938 1.48447 19.0662 1.56534 19.1231C1.64622 19.1801 1.73756 19.2205 1.8341 19.2419C1.93064 19.2634 2.03048 19.2656 2.12787 19.2484C2.22526 19.2311 2.31827 19.1948 2.40156 19.1414C2.48485 19.0881 2.55677 19.0188 2.61317 18.9376C3.30533 17.9529 4.22426 17.1492 5.29236 16.5944C6.36047 16.0396 7.54639 15.75 8.74999 15.75C9.95359 15.7499 11.1395 16.0395 12.2077 16.5942C13.2758 17.149 14.1948 17.9526 14.887 18.9372C14.9437 19.0178 15.0157 19.0865 15.0989 19.1393C15.1821 19.1921 15.2749 19.228 15.372 19.2449C15.4691 19.2619 15.5686 19.2595 15.6648 19.2379C15.761 19.2163 15.8519 19.176 15.9325 19.1193C16.0131 19.0625 16.0817 18.9905 16.1344 18.9072C16.1872 18.8239 16.2229 18.731 16.2397 18.6339C16.2565 18.5368 16.254 18.4373 16.2324 18.3412C16.2107 18.245 16.1703 18.1541 16.1134 18.0736C15.0602 16.5793 13.5778 15.4403 11.8626 14.8076V14.8077ZM4.62523 10.1251C4.62523 9.30921 4.86716 8.51169 5.32042 7.83333C5.77368 7.15498 6.41792 6.62627 7.17166 6.31406C7.92541 6.00185 8.75481 5.92016 9.55498 6.07932C10.3551 6.23849 11.0902 6.63135 11.667 7.20824C12.2439 7.78514 12.6368 8.52014 12.796 9.32031C12.9551 10.1205 12.8734 10.9499 12.5612 11.7036C12.249 12.4574 11.7203 13.1016 11.042 13.5549C10.3636 14.0081 9.56608 14.2501 8.75023 14.2501C7.65659 14.2488 6.6081 13.8138 5.83478 13.0405C5.06147 12.2672 4.62647 11.2187 4.62523 10.1251ZM23.5747 19.1187C23.4942 19.1754 23.4033 19.2157 23.3072 19.2373C23.2111 19.2589 23.1117 19.2613 23.0146 19.2445C22.9176 19.2276 22.8248 19.1918 22.7416 19.1391C22.6584 19.0864 22.5864 19.0178 22.5297 18.9373C21.8367 17.9535 20.9175 17.1506 19.8496 16.596C18.7817 16.0413 17.5963 15.7512 16.3929 15.7501C16.194 15.7501 16.0032 15.671 15.8626 15.5304C15.7219 15.3897 15.6429 15.199 15.6429 15.0001C15.6429 14.8011 15.7219 14.6104 15.8626 14.4697C16.0032 14.3291 16.194 14.2501 16.3929 14.2501C16.982 14.2494 17.564 14.1226 18.1 13.8782C18.6359 13.6337 19.1133 13.2773 19.5 12.833C19.8867 12.3886 20.1737 11.8666 20.3418 11.3021C20.5099 10.7375 20.5551 10.1435 20.4744 9.55999C20.3937 8.9765 20.189 8.41705 19.874 7.91929C19.559 7.42153 19.1411 6.997 18.6483 6.67427C18.1555 6.35154 17.5994 6.13809 17.0172 6.04829C16.435 5.95848 15.8404 5.9944 15.2733 6.15362C15.082 6.20665 14.8776 6.18175 14.7047 6.08436C14.5318 5.98696 14.4046 5.82503 14.3509 5.63401C14.2971 5.443 14.3213 5.23847 14.418 5.06522C14.5148 4.89198 14.6762 4.76413 14.867 4.70969C16.1572 4.34567 17.535 4.45448 18.7521 5.0165C19.9691 5.57853 20.9454 6.55679 21.5049 7.77499C22.0645 8.99319 22.1705 10.3712 21.8038 11.6606C21.4372 12.9501 20.622 14.0661 19.5052 14.8077C21.2204 15.4404 22.7029 16.5794 23.7561 18.0737C23.8707 18.2363 23.9159 18.4378 23.8819 18.6337C23.8478 18.8297 23.7374 19.0042 23.5747 19.1187Z" fill="#D7B56D"/>
</svg>
