<svg width="40" height="40" viewBox="0 0 40 40" fill="none" xmlns="http://www.w3.org/2000/svg">
<path d="M38.4286 28.8547C37.4562 27.8822 36.1106 27.2793 34.6251 27.2793C34.301 27.2793 33.9847 27.3095 33.6782 27.3681C33.0538 27.4841 32.4675 27.7091 31.9305 28.0107C26.1061 31.2853 21.7639 31.6551 20.0274 31.6551C20.0083 31.6551 19.991 31.6551 19.9734 31.6551C18.5369 31.6551 15.3027 31.3753 10.9417 29.4388C10.8966 29.8666 10.8595 30.3103 10.8269 30.7619C10.7879 31.3671 10.7514 31.9774 10.7443 32.6355C10.7347 33.5508 10.5234 34.479 10.031 35.3311C9.64808 35.9926 9.14603 36.543 8.56772 36.9698C8.35264 37.1276 8.11373 37.2413 7.87988 37.3646C7.94016 37.3334 8.00976 37.3187 8.06885 37.2857C13.8932 34.0111 18.2354 33.6397 19.9734 33.6397C19.991 33.6397 20.0083 33.6397 20.0274 33.6397C21.7639 33.6397 26.1061 34.0111 31.9305 37.2857C32.4675 37.587 33.0538 37.8123 33.6782 37.9281C33.9847 37.9852 34.301 38.0154 34.6251 38.0154C36.1106 38.0154 37.4562 37.4142 38.4286 36.4414C39.3994 35.469 39.9999 34.1284 39.9999 32.6465C39.9999 31.1664 39.3994 29.8258 38.4286 28.8547Z" fill="#1BB7E0"/>
<path opacity="0.35" d="M38.4286 28.8547C37.4562 27.8822 36.1106 27.2793 34.6251 27.2793C34.301 27.2793 33.9847 27.3095 33.6782 27.3681C33.0538 27.4841 32.4675 27.7091 31.9305 28.0107C26.1061 31.2853 21.7639 31.6551 20.0274 31.6551C20.0083 31.6551 19.991 31.6551 19.9734 31.6551C18.5369 31.6551 15.3027 31.3753 10.9417 29.4388C10.8966 29.8666 10.8595 30.3103 10.8269 30.7619C10.7879 31.3671 10.7514 31.9774 10.7443 32.6355C10.7347 33.5508 10.5234 34.479 10.031 35.3311C9.64808 35.9926 9.14603 36.543 8.56772 36.9698C8.35264 37.1276 8.11373 37.2413 7.87988 37.3646C7.94016 37.3334 8.00976 37.3187 8.06885 37.2857C13.8932 34.0111 18.2354 33.6397 19.9734 33.6397C19.991 33.6397 20.0083 33.6397 20.0274 33.6397C21.7639 33.6397 26.1061 34.0111 31.9305 37.2857C32.4675 37.587 33.0538 37.8123 33.6782 37.9281C33.9847 37.9852 34.301 38.0154 34.6251 38.0154C36.1106 38.0154 37.4562 37.4142 38.4286 36.4414C39.3994 35.469 39.9999 34.1284 39.9999 32.6465C39.9999 31.1664 39.3994 29.8258 38.4286 28.8547Z" fill="url(#paint0_linear)"/>
<path d="M17.3252 12.0011C16.9327 11.7695 16.5625 11.4934 16.2305 11.1699C15.892 10.8414 15.5918 10.4653 15.3439 10.037C14.829 9.14406 14.6163 8.16715 14.6425 7.20898C14.6406 7.26055 14.6326 7.31221 14.6321 7.36367C14.5607 14.0382 12.7098 17.9776 11.8423 19.48C11.8327 19.496 11.8247 19.5103 11.8153 19.5276C11.2195 20.559 9.85635 22.5658 7.19835 24.8219C5.98611 25.8515 4.50369 26.9336 2.70203 27.9982C2.29064 28.2426 1.90288 28.5345 1.55494 28.8801C1.23887 29.196 0.956073 29.5562 0.722424 29.9624C0.126636 30.9904 -0.0893374 32.1326 0.0329978 33.2273C0.21094 34.8695 1.14514 36.4069 2.68773 37.2968C3.10568 37.5381 3.5411 37.7156 3.98585 37.8347C5.57303 38.2598 7.26339 37.9267 8.56786 36.97C9.14618 36.5431 9.64823 35.9928 10.0311 35.3312C10.5235 34.4791 10.7348 33.5509 10.7445 32.6357C10.8159 25.9611 12.6668 22.0201 13.5359 20.5193C13.5455 20.5033 13.5533 20.4875 13.563 20.4732C14.2047 19.3611 15.7363 17.1177 18.8186 14.6507C19.1796 14.361 19.5955 14.0657 20.0003 13.7714C19.1901 13.1831 18.3231 12.5908 17.3252 12.0011Z" fill="#E22B46"/>
<path opacity="0.35" d="M17.3252 12.0011C16.9327 11.7695 16.5625 11.4934 16.2305 11.1699C15.892 10.8414 15.5918 10.4653 15.3439 10.037C14.829 9.14406 14.6163 8.16715 14.6425 7.20898C14.6406 7.26055 14.6326 7.31221 14.6321 7.36367C14.5607 14.0382 12.7098 17.9776 11.8423 19.48C11.8327 19.496 11.8247 19.5103 11.8153 19.5276C11.2195 20.559 9.85635 22.5658 7.19835 24.8219C5.98611 25.8515 4.50369 26.9336 2.70203 27.9982C2.29064 28.2426 1.90288 28.5345 1.55494 28.8801C1.23887 29.196 0.956073 29.5562 0.722424 29.9624C0.126636 30.9904 -0.0893374 32.1326 0.0329978 33.2273C0.21094 34.8695 1.14514 36.4069 2.68773 37.2968C3.10568 37.5381 3.5411 37.7156 3.98585 37.8347C5.57303 38.2598 7.26339 37.9267 8.56786 36.97C9.14618 36.5431 9.64823 35.9928 10.0311 35.3312C10.5235 34.4791 10.7348 33.5509 10.7445 32.6357C10.8159 25.9611 12.6668 22.0201 13.5359 20.5193C13.5455 20.5033 13.5533 20.4875 13.563 20.4732C14.2047 19.3611 15.7363 17.1177 18.8186 14.6507C19.1796 14.361 19.5955 14.0657 20.0003 13.7714C19.1901 13.1831 18.3231 12.5908 17.3252 12.0011Z" fill="url(#paint1_linear)"/>
<path d="M16.2306 11.1698C16.5627 11.4933 16.9329 11.7694 17.3253 12.001C23.0766 15.3994 25.5694 18.9692 26.4385 20.4731C26.4479 20.4874 26.456 20.5033 26.4639 20.5192C27.1823 21.7598 28.5563 24.6977 29.0574 29.4391C29.9729 29.0326 30.9201 28.5789 31.9307 28.0107C32.4678 27.7092 33.0541 27.4841 33.6785 27.3682C33.985 27.3096 34.3013 27.2793 34.6254 27.2793C35.6494 27.2793 36.5969 27.5814 37.4115 28.078C37.3722 28.0537 37.3375 28.0215 37.2977 27.9981C31.5463 24.5998 29.0536 21.0284 28.1845 19.5275C28.1765 19.5102 28.1671 19.4959 28.1591 19.4799C27.2901 17.9775 25.4391 14.0381 25.3691 7.36517C25.3645 6.90983 25.3088 6.45301 25.1961 6.00392C25.0801 5.547 24.9037 5.09643 24.6543 4.66806C23.9122 3.38456 22.7191 2.52307 21.3909 2.16779C20.1199 1.82658 18.7218 1.95043 17.4778 2.61033C16.1687 3.30682 15.1916 4.53013 14.8071 5.96109C14.4512 7.28743 14.6022 8.75021 15.344 10.0369C15.592 10.4653 15.8921 10.8413 16.2306 11.1698Z" fill="#68CE46"/>
<path opacity="0.35" d="M16.2306 11.1698C16.5627 11.4933 16.9329 11.7694 17.3253 12.001C23.0766 15.3994 25.5694 18.9692 26.4385 20.4731C26.4479 20.4874 26.456 20.5033 26.4639 20.5192C27.1823 21.7598 28.5563 24.6977 29.0574 29.4391C29.9729 29.0326 30.9201 28.5789 31.9307 28.0107C32.4678 27.7092 33.0541 27.4841 33.6785 27.3682C33.985 27.3096 34.3013 27.2793 34.6254 27.2793C35.6494 27.2793 36.5969 27.5814 37.4115 28.078C37.3722 28.0537 37.3375 28.0215 37.2977 27.9981C31.5463 24.5998 29.0536 21.0284 28.1845 19.5275C28.1765 19.5102 28.1671 19.4959 28.1591 19.4799C27.2901 17.9775 25.4391 14.0381 25.3691 7.36517C25.3645 6.90983 25.3088 6.45301 25.1961 6.00392C25.0801 5.547 24.9037 5.09643 24.6543 4.66806C23.9122 3.38456 22.7191 2.52307 21.3909 2.16779C20.1199 1.82658 18.7218 1.95043 17.4778 2.61033C16.1687 3.30682 15.1916 4.53013 14.8071 5.96109C14.4512 7.28743 14.6022 8.75021 15.344 10.0369C15.592 10.4653 15.8921 10.8413 16.2306 11.1698Z" fill="url(#paint2_linear)"/>
<defs>
<linearGradient id="paint0_linear" x1="26.4229" y1="41.3429" x2="20.7947" y2="25.8576" gradientUnits="userSpaceOnUse">
<stop stop-color="#004854" stop-opacity="0"/>
<stop offset="1" stop-color="#004854"/>
</linearGradient>
<linearGradient id="paint1_linear" x1="6.11951e-05" y1="22.6128" x2="20.0003" y2="22.6128" gradientUnits="userSpaceOnUse">
<stop stop-color="#6D000D" stop-opacity="0"/>
<stop offset="1" stop-color="#6D000D"/>
</linearGradient>
<linearGradient id="paint2_linear" x1="31.4431" y1="11.187" x2="21.1259" y2="21.5188" gradientUnits="userSpaceOnUse">
<stop stop-opacity="0"/>
<stop offset="1"/>
</linearGradient>
</defs>
</svg>
