<svg width="27" height="27" viewBox="0 0 27 27" fill="none" xmlns="http://www.w3.org/2000/svg">
<path d="M13.5 3.68164C11.8008 3.68152 10.1397 4.1853 8.7268 5.12927C7.31392 6.07325 6.21271 7.41501 5.56243 8.98487C4.91215 10.5547 4.74202 12.2822 5.07356 13.9487C5.40509 15.6153 6.2234 17.1461 7.42498 18.3475C8.97748 19.9 12.6409 22.1521 12.8557 24.5146C12.8557 24.6855 12.9235 24.8494 13.0444 24.9702C13.1652 25.091 13.3291 25.1589 13.5 25.1589C13.6709 25.1589 13.8348 25.091 13.9556 24.9702C14.0764 24.8494 14.1443 24.6855 14.1443 24.5146C14.3591 22.1521 18.0225 19.9 19.575 18.3475C20.7766 17.1461 21.5949 15.6153 21.9264 13.9487C22.2579 12.2822 22.0878 10.5547 21.4375 8.98487C20.7873 7.41501 19.686 6.07325 18.2732 5.12927C16.8603 4.1853 15.1992 3.68152 13.5 3.68164Z" fill="#FF4433"/>
<path d="M13.5 15.2797C14.2974 15.2797 15.0622 14.963 15.6261 14.3991C16.19 13.8352 16.5068 13.0704 16.5068 12.2729C16.5068 11.4755 16.19 10.7107 15.6261 10.1468C15.0622 9.5829 14.2974 9.26611 13.5 9.26611C12.7025 9.26611 11.9377 9.5829 11.3738 10.1468C10.81 10.7107 10.4932 11.4755 10.4932 12.2729C10.4932 13.0704 10.81 13.8352 11.3738 14.3991C11.9377 14.963 12.7025 15.2797 13.5 15.2797Z" fill="white"/>
</svg>
