<svg width="144" height="226" viewBox="0 0 144 226" fill="none" xmlns="http://www.w3.org/2000/svg">
<path d="M10.8124 158.748C14.1616 158.748 16.7338 159.533 18.5289 161.103C20.324 162.674 21.2216 165.048 21.2216 168.226V180.427H15.351V177.752C14.1711 179.729 11.9732 180.721 8.75719 180.727C7.28226 180.768 5.81563 180.496 4.4565 179.929C3.2921 179.445 2.29894 178.632 1.60206 177.592C0.965438 176.61 0.634656 175.464 0.650579 174.298C0.613546 173.393 0.801348 172.492 1.19766 171.674C1.59398 170.856 2.18681 170.146 2.92462 169.606C4.44064 168.474 6.78128 167.904 9.94654 167.898H14.9228C14.9584 167.32 14.8653 166.742 14.65 166.204C14.4346 165.665 14.1023 165.18 13.6764 164.782C12.6057 163.983 11.2762 163.596 9.93703 163.694C8.78325 163.694 7.6368 163.875 6.54025 164.229C5.51044 164.542 4.54433 165.031 3.6858 165.674L1.44031 161.357C2.73318 160.492 4.16932 159.857 5.68391 159.48C7.34173 159.028 9.05429 158.8 10.7743 158.804L10.8124 158.748ZM112.469 194.466H142.65V197.103H112.507V195.761L112.469 194.466ZM42.8963 196.709C42.8125 196.789 42.7497 196.889 42.7132 196.998C42.6768 197.108 42.6678 197.224 42.687 197.338L43.1532 200.069L40.7745 198.802C40.6616 198.738 40.5334 198.706 40.4034 198.708C40.2766 198.707 40.1518 198.739 40.0419 198.802L37.6632 200.069L38.1294 197.338C38.1482 197.225 38.14 197.109 38.1053 197C38.0706 196.891 38.0104 196.791 37.9296 196.709L35.9315 194.738L38.6527 194.335C38.7745 194.32 38.8906 194.275 38.9904 194.205C39.0901 194.134 39.1703 194.04 39.2236 193.931L40.413 191.501L41.5928 193.931C41.6474 194.039 41.728 194.132 41.8275 194.203C41.927 194.273 42.0424 194.318 42.1637 194.335L44.8944 194.738L42.8963 196.709ZM58.6053 196.709C58.5245 196.791 58.4643 196.891 58.4296 197C58.3949 197.109 58.3866 197.225 58.4055 197.338L58.8717 200.069L56.493 198.802C56.3801 198.738 56.2519 198.706 56.1219 198.708C55.9951 198.707 55.8703 198.739 55.7603 198.802L53.3816 200.069L53.8383 197.338C53.8613 197.225 53.855 197.108 53.8201 196.998C53.7852 196.888 53.7228 196.789 53.6385 196.709L51.6404 194.738L54.3712 194.335C54.4925 194.318 54.6079 194.273 54.7073 194.203C54.8068 194.132 54.8874 194.039 54.9421 193.931L56.1314 191.501L57.3113 193.931C57.3645 194.04 57.4447 194.134 57.5445 194.205C57.6442 194.275 57.7603 194.32 57.8821 194.335L60.6034 194.738L58.6053 196.709ZM74.3237 196.709C74.2399 196.789 74.1771 196.889 74.1406 196.998C74.1042 197.108 74.0952 197.224 74.1144 197.338L74.5806 200.069L72.2114 198.802C72.0977 198.74 71.9701 198.708 71.8404 198.708C71.7106 198.708 71.583 198.74 71.4693 198.802L69.1572 200.05L69.6139 197.319C69.6369 197.206 69.6306 197.089 69.5957 196.979C69.5608 196.87 69.4983 196.77 69.4141 196.69L67.416 194.72L70.1372 194.316C70.2593 194.302 70.3758 194.258 70.4757 194.187C70.5756 194.117 70.6556 194.022 70.7081 193.912L71.8975 191.482L73.0868 193.912C73.1394 194.022 73.2194 194.117 73.3192 194.187C73.4191 194.258 73.5356 194.302 73.6577 194.316L76.3789 194.72L74.3237 196.709ZM90.0422 196.709C89.9603 196.791 89.8988 196.89 89.8625 196.999C89.8261 197.108 89.816 197.224 89.8329 197.338L90.2991 200.069L87.9204 198.802C87.8075 198.738 87.6793 198.706 87.5493 198.708C87.4225 198.707 87.2977 198.739 87.1878 198.802L84.8091 200.069L85.2753 197.338C85.2941 197.225 85.2859 197.109 85.2512 197C85.2165 196.891 85.1563 196.791 85.0755 196.709L83.0774 194.738L85.7986 194.335C85.9204 194.32 86.0365 194.275 86.1363 194.205C86.236 194.134 86.3162 194.04 86.3695 193.931L87.5588 191.501L88.7387 193.931C88.7933 194.039 88.8739 194.132 88.9734 194.203C89.0729 194.273 89.1883 194.318 89.3095 194.335L92.0403 194.738L90.0422 196.709ZM105.761 196.709C105.677 196.789 105.614 196.889 105.578 196.998C105.541 197.108 105.532 197.224 105.551 197.338L106.018 200.069L103.639 198.802C103.526 198.738 103.398 198.706 103.268 198.708C103.141 198.707 103.016 198.739 102.906 198.802L100.556 200.05L101.022 197.319C101.042 197.205 101.032 197.089 100.996 196.979C100.96 196.87 100.897 196.771 100.813 196.69L98.8148 194.72L101.546 194.316C101.667 194.3 101.782 194.254 101.882 194.184C101.981 194.114 102.062 194.02 102.116 193.912L103.306 191.482L104.486 193.912C104.54 194.02 104.621 194.114 104.72 194.184C104.82 194.254 104.935 194.3 105.057 194.316L107.787 194.72L105.761 196.709ZM7.63444 225.999C6.27822 226.011 4.94048 225.688 3.74289 225.06C2.61245 224.467 1.66695 223.581 1.00763 222.499C0.34831 221.416 0 220.176 0 218.913C0 217.65 0.34831 216.411 1.00763 215.328C1.66695 214.245 2.61245 213.36 3.74289 212.766C4.94048 212.138 6.27822 211.816 7.63444 211.828C8.98485 211.814 10.317 212.137 11.507 212.766C12.627 213.349 13.5646 214.222 14.2187 215.291C14.8673 216.389 15.2089 217.638 15.2089 218.909C15.2089 220.18 14.8673 221.428 14.2187 222.526C13.5648 223.598 12.6274 224.474 11.507 225.06C10.3171 225.69 8.9849 226.013 7.63444 225.999ZM1.09778 195.761V194.447H31.2787V197.084H1.13584V195.761H1.09778ZM7.63444 223.305C8.41017 223.318 9.17539 223.127 9.8514 222.752C10.5017 222.393 11.0385 221.863 11.4023 221.222C11.7709 220.524 11.9633 219.748 11.9633 218.96C11.9633 218.173 11.7709 217.397 11.4023 216.699C11.0391 216.049 10.5028 215.511 9.8514 215.141C9.17043 214.778 8.40853 214.588 7.63444 214.588C6.86036 214.588 6.09847 214.778 5.4175 215.141C4.76399 215.508 4.22699 216.047 3.86658 216.699C3.498 217.397 3.30556 218.173 3.30556 218.96C3.30556 219.748 3.498 220.524 3.86658 221.222C4.22497 221.864 4.75906 222.394 5.40798 222.752C6.08626 223.13 6.85534 223.321 7.63444 223.305ZM28.0723 214.653H23.6384V225.764H20.4699V214.653H16.0646V212.109H28.0723V214.653ZM40.8126 223.202V225.736H30.0894V212.109H40.5557V214.653H33.2673V217.618H39.6613V220.077H33.2293V223.24L40.8126 223.202ZM55.7413 212.109V225.764H52.5824V214.653H47.825L47.7203 217.468C47.694 219.043 47.5348 220.612 47.2446 222.16C47.0928 223.194 46.6586 224.167 45.9886 224.976C45.6739 225.3 45.291 225.552 44.8668 225.714C44.4427 225.876 43.9877 225.944 43.5338 225.914C42.9974 225.905 42.4639 225.832 41.9448 225.699L42.1447 223.033C42.3306 223.084 42.5227 223.109 42.7155 223.108C43.0988 223.1 43.4676 222.962 43.7603 222.718C44.0529 222.474 44.2518 222.138 44.3235 221.766C44.6986 220.402 44.8906 218.995 44.8944 217.581L45.0942 212.044L55.7413 212.109ZM65.9126 216.595C67.3026 216.505 68.6803 216.9 69.8042 217.712C70.2693 218.123 70.6329 218.634 70.8671 219.205C71.1013 219.776 71.1999 220.392 71.1553 221.006C71.2001 221.67 71.0885 222.334 70.8293 222.948C70.5701 223.562 70.1704 224.108 69.6615 224.544C68.4488 225.426 66.9596 225.858 65.4559 225.764H59.2047V212.109H62.3922V216.595H65.9126ZM65.2847 223.427C65.9728 223.457 66.6487 223.241 67.1876 222.817C67.431 222.596 67.6206 222.323 67.7425 222.019C67.8644 221.715 67.9154 221.388 67.8917 221.062C67.8917 219.645 67.0068 218.941 65.2466 218.941H62.3922V223.427H65.2847ZM89.6331 225.999L87.968 224.478C86.9309 225.243 85.7161 225.739 84.4345 225.921C83.153 226.103 81.8456 225.965 80.632 225.52C79.8885 225.252 79.2314 224.791 78.7291 224.188C78.2885 223.637 78.0503 222.956 78.0535 222.254C78.039 221.452 78.2932 220.667 78.7767 220.021C79.4043 219.237 80.1963 218.597 81.0983 218.144C80.6574 217.722 80.2908 217.23 80.0136 216.689C79.7896 216.243 79.6724 215.751 79.6711 215.253C79.6603 214.628 79.8465 214.015 80.2039 213.498C80.5877 212.974 81.1114 212.565 81.7167 212.316C82.437 212.021 83.2113 211.878 83.9908 211.894C85.0133 211.848 86.0209 212.149 86.8452 212.748C87.1979 213.016 87.4804 213.364 87.669 213.763C87.8577 214.161 87.9471 214.598 87.9299 215.037C87.9386 215.716 87.7139 216.378 87.2924 216.914C86.7178 217.571 86.0158 218.107 85.2277 218.491L87.7586 220.809C88.079 220.133 88.3124 219.421 88.4532 218.688L90.9175 219.448C90.702 220.551 90.2723 221.603 89.6521 222.545L91.3172 224.037L89.6331 225.999ZM84.0003 214.005C83.6015 213.982 83.2084 214.106 82.8966 214.352C82.7617 214.468 82.6555 214.613 82.5862 214.776C82.517 214.938 82.4864 215.115 82.497 215.291C82.4952 215.561 82.5675 215.827 82.7063 216.06C82.9555 216.404 83.2427 216.718 83.5626 216.999C84.0747 216.758 84.5464 216.442 84.9613 216.06C85.0883 215.938 85.1891 215.792 85.2577 215.631C85.3264 215.47 85.3615 215.297 85.3609 215.122C85.3655 214.969 85.3364 214.817 85.2756 214.676C85.2148 214.535 85.1238 214.408 85.0089 214.305C84.7212 214.087 84.3624 213.98 84.0003 214.005ZM83.5626 223.624C84.4904 223.634 85.3971 223.351 86.1506 222.817L82.8109 219.739C82.3049 219.997 81.853 220.348 81.4789 220.772C81.2225 221.103 81.0852 221.509 81.0888 221.926C81.084 222.171 81.1437 222.413 81.2621 222.628C81.3805 222.844 81.5535 223.025 81.7643 223.155C82.3002 223.491 82.9284 223.655 83.5626 223.624ZM105.618 225.999C104.29 226.002 102.982 225.68 101.812 225.06C100.683 224.469 99.7419 223.581 99.0935 222.494C98.4452 221.407 98.1149 220.165 98.1393 218.904C98.1089 217.627 98.4383 216.366 99.0908 215.263C99.7447 214.206 100.679 213.346 101.793 212.776C102.887 212.231 104.086 211.923 105.311 211.875C106.536 211.826 107.756 212.037 108.891 212.494C109.839 212.891 110.678 213.506 111.336 214.287L109.281 216.164C108.858 215.658 108.326 215.253 107.723 214.977C107.121 214.701 106.463 214.561 105.799 214.568C104.999 214.555 104.209 214.746 103.506 215.122C102.842 215.485 102.295 216.025 101.926 216.68C101.558 217.378 101.365 218.154 101.365 218.941C101.365 219.729 101.558 220.505 101.926 221.203C102.292 221.857 102.84 222.394 103.506 222.752C104.207 223.132 104.998 223.323 105.799 223.305C106.465 223.313 107.124 223.172 107.728 222.892C108.331 222.613 108.862 222.202 109.281 221.691L111.336 223.568C110.68 224.362 109.837 224.987 108.882 225.389C107.847 225.81 106.737 226.018 105.618 225.999ZM126.056 212.109V225.764H122.868V214.653H116.617V225.764H113.43V212.109H126.056ZM138.872 222.846H132.44L131.222 225.764H127.93L134.105 212.109H137.274L143.468 225.764H140.1L138.872 222.846ZM137.864 220.443L135.666 215.216L133.477 220.443H137.864ZM10.3652 176.56C11.3668 176.579 12.3544 176.326 13.2196 175.828C14.0265 175.324 14.6291 174.557 14.9228 173.66V171.483H10.6221C8.04042 171.483 6.75274 172.315 6.75908 173.979C6.74883 174.345 6.83031 174.708 6.99629 175.035C7.16227 175.363 7.40762 175.645 7.71056 175.856C8.48209 176.365 9.40059 176.612 10.3271 176.56H10.3652ZM44.7422 169.259C45.8744 169.54 46.8726 170.199 47.5667 171.125C48.2608 172.051 48.6076 173.186 48.5481 174.336C48.586 175.207 48.4021 176.075 48.0132 176.858C47.6243 177.642 47.0428 178.317 46.3217 178.822C44.8437 179.885 42.6458 180.414 39.7279 180.408H28.1769V159.067H39.2331C41.4478 158.945 43.6521 159.446 45.589 160.512C46.3056 160.924 46.8967 161.519 47.3001 162.234C47.7035 162.949 47.9046 163.758 47.8821 164.576C47.9044 165.574 47.619 166.556 47.0638 167.391C46.4716 168.221 45.6536 168.868 44.7041 169.259H44.7422ZM33.9524 167.832H38.7098C40.9077 167.832 42.0114 167.063 42.0114 165.533C42.0114 164.003 40.9077 163.271 38.7098 163.271H33.9524V167.832ZM39.1951 176.175C41.4976 176.175 42.6584 175.396 42.6584 173.829C42.684 173.486 42.6236 173.143 42.4825 172.828C42.3415 172.514 42.1241 172.239 41.8497 172.027C41.0851 171.586 40.2019 171.386 39.3188 171.455H33.9524V176.147L39.1951 176.175ZM75.7129 169.784C75.7129 169.869 75.7129 170.422 75.5892 171.455H59.2142C59.4786 172.726 60.228 173.848 61.3075 174.589C62.5179 175.388 63.9532 175.788 65.4084 175.734C66.4293 175.754 67.4453 175.589 68.4055 175.246C69.315 174.889 70.1431 174.356 70.8413 173.679L74.181 177.245C72.1448 179.541 69.1667 180.692 65.2466 180.699C63.0072 180.743 60.7894 180.26 58.7765 179.291C56.9774 178.424 55.4683 177.065 54.4283 175.378C53.4051 173.675 52.8783 171.726 52.9059 169.747C52.8794 167.77 53.3991 165.823 54.4092 164.116C55.3978 162.455 56.8338 161.097 58.5577 160.193C60.3689 159.241 62.3951 158.756 64.4474 158.785C66.4344 158.763 68.396 159.227 70.1562 160.137C71.8652 160.999 73.2833 162.333 74.2381 163.975C75.245 165.758 75.7539 167.772 75.7129 169.812V169.784ZM64.4854 163.403C63.186 163.36 61.915 163.784 60.9079 164.595C59.9211 165.416 59.2883 166.577 59.1381 167.842H69.7947C69.6362 166.585 69.0045 165.432 68.0249 164.613C67.0311 163.806 65.7721 163.385 64.4854 163.431V163.403ZM82.0117 159.039H88.2534V167.363H97.7016V159.067H103.972V180.408H97.7016V172.421H88.2915V180.398H82.0498L82.0117 159.039ZM131.879 158.72C133.941 158.687 135.977 159.172 137.797 160.127C139.502 161.031 140.921 162.382 141.898 164.031C142.905 165.766 143.415 167.739 143.373 169.737C143.4 171.712 142.887 173.657 141.888 175.368C140.915 177.022 139.496 178.377 137.787 179.282C135.967 180.237 133.931 180.722 131.869 180.689C130.072 180.708 128.292 180.349 126.646 179.638C125.108 178.97 123.755 177.951 122.697 176.663C121.648 175.375 120.933 173.855 120.613 172.234H117.683V180.37H111.403V159.067H117.683V166.922H120.699C121.247 164.537 122.645 162.426 124.638 160.972C126.738 159.466 129.283 158.684 131.879 158.748V158.72ZM131.879 175.612C132.594 175.63 133.304 175.496 133.961 175.217C134.618 174.938 135.206 174.522 135.685 173.998C136.729 172.81 137.267 171.27 137.188 169.7C137.275 168.12 136.736 166.569 135.685 165.373C135.188 164.875 134.596 164.479 133.942 164.209C133.289 163.939 132.587 163.8 131.879 163.8C131.17 163.8 130.469 163.939 129.815 164.209C129.162 164.479 128.57 164.875 128.073 165.373C127.015 166.565 126.472 168.118 126.56 169.7C126.479 171.272 127.022 172.813 128.073 173.998C128.549 174.528 129.135 174.95 129.792 175.236C130.449 175.521 131.161 175.662 131.879 175.65V175.612Z" fill="white"/>
<path fill-rule="evenodd" clip-rule="evenodd" d="M92.3216 135.385C104.321 99.3966 119.547 74.2218 137.913 42.6035V118.248C137.913 122.793 136.075 127.152 132.805 130.366C129.534 133.579 125.097 135.385 120.472 135.385H92.3216ZM113.495 29.9733C88.1183 65.3276 74.4967 95.7806 59.9159 135.385H86.0777C95.5482 102.43 119.512 61.3174 137.913 32.0126V5.96385H42.8235L36.8935 30.1446C62.4623 30.1446 88.066 29.9733 113.495 29.9733ZM53.4626 135.385C68.6888 91.7876 78.2117 71.5141 102.141 35.5943L101.792 35.9713H29.1845L36.6144 5.96385H23.6033C18.9776 5.96385 14.5414 7.76938 11.2705 10.9833C7.99965 14.1971 6.1621 18.5561 6.1621 23.1012V135.385H53.4626ZM24.0742 9.3399C18.8419 13.4529 5.79583 23.3411 26.7253 36.4854C20.0279 21.3703 33.8413 20.205 24.0742 9.3399ZM15.0397 35.3201C15.7906 35.4257 16.4929 35.7476 17.0577 36.2452C17.6225 36.7429 18.0245 37.3938 18.213 38.1159C18.4014 38.8379 18.3677 39.5986 18.1163 40.3019C17.8649 41.0051 17.4069 41.6194 16.8003 42.067C16.1937 42.5146 15.4657 42.7755 14.7083 42.8167C13.9508 42.858 13.1979 42.6776 12.5447 42.2985C11.8916 41.9195 11.3674 41.3586 11.0385 40.687C10.7096 40.0153 10.5907 39.2628 10.6968 38.5248C10.7652 38.033 10.9322 37.5595 11.188 37.1316C11.4439 36.7037 11.7836 36.3299 12.1875 36.0318C12.5914 35.7338 13.0515 35.5174 13.541 35.3953C14.0306 35.2731 14.54 35.2475 15.0397 35.3201ZM53.6894 55.1309C42.1782 62.517 23.5684 46.2537 41.6375 38.6276C39.6492 43.1004 45.1083 55.0794 53.6894 55.1309ZM66.6133 54.8395C48.6837 61.1632 70.3632 76.4326 80.9848 63.8195C72.1247 62.8941 66.9796 63.4082 66.6133 54.8395ZM10.5922 80.2028C8.65619 101.11 30.1089 103.047 37.6086 82.5334C30.5623 88.9599 19.1035 91.6676 10.5922 80.2028ZM10.5922 95.9691C8.84804 114.82 27.1613 115.677 33.4227 98.1627C27.2485 103.921 19.1035 104.041 10.5922 95.9691ZM31.5216 124.451C32.2731 124.558 32.9757 124.88 33.5404 125.379C34.1051 125.878 34.5066 126.53 34.694 127.253C34.8814 127.976 34.8463 128.737 34.5931 129.44C34.34 130.144 33.8802 130.757 33.2719 131.204C32.6636 131.65 31.9342 131.909 31.176 131.948C30.4178 131.987 29.6649 131.804 29.0126 131.423C28.3602 131.041 27.8377 130.478 27.5113 129.804C27.1849 129.131 27.0691 128.377 27.1787 127.639C27.3255 126.651 27.8651 125.76 28.6793 125.163C29.4935 124.565 30.5157 124.309 31.5216 124.451ZM84.3161 40.8726C85.0658 40.9814 85.7658 41.3058 86.3281 41.805C86.8903 42.3042 87.2895 42.9558 87.4754 43.6776C87.6612 44.3995 87.6254 45.1592 87.3724 45.8611C87.1194 46.5629 86.6606 47.1754 86.0538 47.6214C85.447 48.0674 84.7194 48.3268 83.9627 48.3671C83.2061 48.4073 82.4542 48.2264 81.802 47.8474C81.1498 47.4683 80.6264 46.908 80.2979 46.237C79.9693 45.5661 79.8503 44.8146 79.9558 44.0773C80.0263 43.5848 80.1953 43.1109 80.4529 42.6829C80.7106 42.2549 81.0519 41.8812 81.4572 41.5833C81.8625 41.2854 82.3237 41.0693 82.8144 40.9473C83.3051 40.8253 83.8154 40.7999 84.3161 40.8726ZM58.1543 38.8504C42.3177 43.5632 55.0149 58.7982 66.2994 52.2689C56.2881 49.1842 56.4625 46.6307 58.1892 38.8504H58.1543ZM53.7417 60.4434C41.1666 74.736 66.0726 89.3712 76.2583 72.6281C62.9158 75.4043 53.5498 66.51 53.7766 60.4434H53.7417ZM55.8346 120.424C47.9687 133.346 29.76 128.599 35.1668 108.428C37.4516 114.82 41.7247 122.258 55.9393 120.51L55.8346 120.424ZM60.7182 104.538C54.5614 119.636 35.0098 116.534 37.8179 98.1798C41.498 105.737 49.7302 109.045 60.7182 104.538ZM66.404 93.7413C58.7822 109.371 34.225 103.681 40.6608 83.2018C44.6025 93.827 58.1194 96.5689 66.404 93.7413ZM70.8166 82.2593C65.1134 98.0599 40.8526 92.0618 45.1432 69.7319C48.6837 78.6775 53.515 86.9892 70.8166 82.2593ZM85.9033 56.7075C76.7292 65.2762 64.189 56.7075 78.3512 48.6872C76.8687 54.0341 78.3338 58.0271 85.9033 56.7589V56.7075ZM10.0864 125.103C17.0628 126.816 25.173 133.363 32.4285 108.274C21.5627 119.961 15.0397 110.09 10.0864 125.103ZM70.3283 38.6105C59.8636 42.1922 63.3518 56.7589 76.3978 45.4654C72.7526 47.1449 67.5726 45.3797 70.3283 38.6105ZM26.9694 39.1246C-0.727177 56.1248 31.1379 75.113 45.3176 60.2206C33.7018 63.2882 21.6673 46.9563 26.9694 39.1246ZM12.6502 59.9807C2.72618 83.3732 32.7599 90.2795 41.498 69.2177C28.3647 77.5122 18.7372 72.1311 12.6502 59.9807ZM106.257 124.451C106.759 124.522 107.241 124.69 107.677 124.944C108.113 125.198 108.493 125.534 108.797 125.932C109.101 126.331 109.322 126.784 109.447 127.267C109.572 127.749 109.6 128.251 109.527 128.744C109.455 129.237 109.285 129.711 109.026 130.139C108.768 130.568 108.426 130.942 108.02 131.24C107.614 131.538 107.153 131.755 106.662 131.878C106.171 132.002 105.66 132.028 105.158 131.958C104.659 131.887 104.179 131.72 103.745 131.467C103.311 131.213 102.933 130.879 102.631 130.482C102.329 130.085 102.109 129.633 101.985 129.153C101.86 128.672 101.833 128.172 101.906 127.682C101.978 127.191 102.148 126.719 102.405 126.293C102.663 125.867 103.004 125.495 103.408 125.198C103.812 124.901 104.271 124.686 104.76 124.563C105.249 124.441 105.758 124.415 106.257 124.486V124.451ZM127.03 127.142C124.291 121.538 111.891 110.005 102.49 121.041C118.85 119.79 110.007 135.385 127.03 127.142ZM132.14 109.371C140.756 88.0174 112.379 86.972 108.263 105.549C112.431 99.9107 131.355 96.3461 132.14 109.371ZM134.948 61.4888C134.617 67.4355 137.198 72.5938 119.094 81.5566C128.198 74.3247 120.036 70.0061 134.948 61.4888ZM133.483 82.602C129.384 81.351 122.687 74.1362 111.646 95.2151C122.948 83.973 126.489 96.6889 133.483 82.602ZM129.035 123.475C140.163 102.824 109.292 97.6829 104.094 115.951C108.35 110.742 123.681 110.69 129.035 123.475ZM144 5.72994e-05H23.6556C20.5683 -0.00670387 17.51 0.584948 14.6557 1.74114C11.8015 2.89733 9.20733 4.59535 7.02185 6.73798C4.83637 8.88061 3.10247 11.4258 1.91943 14.2277C0.736384 17.0297 0.127434 20.0334 0.127441 23.0669L0.127441 141.314H120.472C123.559 141.321 126.617 140.73 129.472 139.573C132.326 138.417 134.92 136.719 137.105 134.577C139.291 132.434 141.025 129.889 142.208 127.087C143.391 124.285 144 121.281 144 118.248V5.72994e-05Z" fill="white"/>
</svg>
