<svg width="144" height="47" viewBox="0 0 144 47" fill="none" xmlns="http://www.w3.org/2000/svg">
<path d="M63.6723 3.09519C65.7004 3.09519 67.2579 3.57207 68.3449 4.52583C69.4319 5.47958 69.9754 6.92161 69.9754 8.85192V16.2616H66.4206V14.6371C65.7061 15.8379 64.3752 16.4402 62.4278 16.444C61.5347 16.4688 60.6466 16.3036 59.8236 15.9595C59.1185 15.6655 58.5171 15.1717 58.0951 14.5403C57.7096 13.9434 57.5093 13.2479 57.5189 12.5396C57.4965 11.9896 57.6102 11.4425 57.8502 10.9458C58.0902 10.4491 58.4492 10.018 58.896 9.68978C59.814 9.00201 61.2313 8.65623 63.148 8.65243H66.1613C66.1829 8.30162 66.1265 7.95039 65.9961 7.62345C65.8657 7.29652 65.6644 7.00183 65.4065 6.76012C64.7582 6.27453 63.9532 6.03946 63.1422 6.09895C62.4436 6.09919 61.7494 6.20885 61.0854 6.42384C60.4618 6.61423 59.8768 6.91132 59.3569 7.30159L57.9972 4.67972C58.78 4.15454 59.6497 3.76875 60.5668 3.53977C61.5707 3.26511 62.6077 3.12705 63.6492 3.12939L63.6723 3.09519ZM125.229 24.7884H143.504V26.39H125.252V25.5749L125.229 24.7884ZM83.1003 26.1506C83.0495 26.1994 83.0115 26.2596 82.9894 26.3261C82.9673 26.3926 82.9619 26.4634 82.9735 26.5325L83.2558 28.1911L81.8154 27.4216C81.7471 27.383 81.6694 27.3633 81.5907 27.3646C81.5139 27.3641 81.4384 27.3837 81.3718 27.4216L79.9314 28.1911L80.2137 26.5325C80.2251 26.4639 80.2201 26.3936 80.1991 26.3273C80.1781 26.261 80.1417 26.2005 80.0927 26.1506L78.8828 24.9537L80.5306 24.7086C80.6044 24.6996 80.6747 24.6725 80.7351 24.6297C80.7955 24.5869 80.844 24.5297 80.8763 24.4635L81.5965 22.9873L82.3109 24.4635C82.344 24.5291 82.3928 24.5857 82.4531 24.6284C82.5133 24.6711 82.5832 24.6986 82.6566 24.7086L84.3102 24.9537L83.1003 26.1506ZM92.6126 26.1506C92.5637 26.2005 92.5272 26.261 92.5062 26.3273C92.4852 26.3936 92.4802 26.4639 92.4916 26.5325L92.7739 28.1911L91.3335 27.4216C91.2652 27.383 91.1875 27.3633 91.1088 27.3646C91.032 27.3641 90.9564 27.3837 90.8899 27.4216L89.4495 28.1911L89.726 26.5325C89.74 26.4639 89.7362 26.393 89.715 26.3262C89.6939 26.2595 89.656 26.1991 89.6051 26.1506L88.3951 24.9537L90.0487 24.7086C90.1221 24.6986 90.192 24.6711 90.2523 24.6284C90.3125 24.5857 90.3613 24.5291 90.3944 24.4635L91.1146 22.9873L91.829 24.4635C91.8613 24.5297 91.9098 24.5869 91.9702 24.6297C92.0306 24.6725 92.1009 24.6996 92.1747 24.7086L93.8225 24.9537L92.6126 26.1506ZM102.131 26.1506C102.08 26.1994 102.042 26.2596 102.02 26.3261C101.998 26.3926 101.992 26.4634 102.004 26.5325L102.286 28.1911L100.852 27.4216C100.783 27.3842 100.705 27.3646 100.627 27.3646C100.548 27.3646 100.471 27.3842 100.402 27.4216L99.0022 28.1797L99.2787 26.5211C99.2926 26.4525 99.2888 26.3816 99.2677 26.3148C99.2465 26.2481 99.2087 26.1877 99.1577 26.1392L97.9478 24.9423L99.5956 24.6972C99.6695 24.6887 99.7401 24.6618 99.8005 24.6189C99.861 24.576 99.9095 24.5186 99.9413 24.4521L100.661 22.9759L101.382 24.4521C101.414 24.5186 101.462 24.576 101.522 24.6189C101.583 24.6618 101.653 24.6887 101.727 24.6972L103.375 24.9423L102.131 26.1506ZM111.649 26.1506C111.599 26.2002 111.562 26.2605 111.54 26.3268C111.518 26.393 111.512 26.4635 111.522 26.5325L111.804 28.1911L110.364 27.4216C110.296 27.383 110.218 27.3633 110.139 27.3646C110.062 27.3641 109.987 27.3837 109.92 27.4216L108.48 28.1911L108.762 26.5325C108.774 26.4639 108.769 26.3936 108.748 26.3273C108.727 26.261 108.69 26.2005 108.641 26.1506L107.431 24.9537L109.079 24.7086C109.153 24.6996 109.223 24.6725 109.284 24.6297C109.344 24.5869 109.393 24.5297 109.425 24.4635L110.145 22.9873L110.859 24.4635C110.893 24.5291 110.941 24.5857 111.002 24.6284C111.062 24.6711 111.132 24.6986 111.205 24.7086L112.859 24.9537L111.649 26.1506ZM121.167 26.1506C121.116 26.1994 121.078 26.2596 121.056 26.3261C121.034 26.3926 121.028 26.4634 121.04 26.5325L121.322 28.1911L119.882 27.4216C119.814 27.383 119.736 27.3633 119.657 27.3646C119.581 27.3641 119.505 27.3837 119.438 27.4216L118.015 28.1797L118.298 26.5211C118.309 26.452 118.304 26.3812 118.282 26.3147C118.26 26.2482 118.222 26.188 118.171 26.1392L116.961 24.9423L118.614 24.6972C118.688 24.6873 118.758 24.6597 118.818 24.617C118.878 24.5743 118.927 24.5177 118.96 24.4521L119.68 22.9759L120.395 24.4521C120.428 24.5177 120.477 24.5743 120.537 24.617C120.597 24.6597 120.667 24.6873 120.741 24.6972L122.394 24.9423L121.167 26.1506ZM61.7479 43.9394C60.9267 43.9468 60.1166 43.7508 59.3915 43.3695C58.7069 43.009 58.1344 42.4712 57.7352 41.8136C57.3359 41.156 57.125 40.4033 57.125 39.6362C57.125 38.869 57.3359 38.1164 57.7352 37.4587C58.1344 36.8011 58.7069 36.2633 59.3915 35.9028C60.1166 35.5215 60.9267 35.3256 61.7479 35.3329C62.5656 35.3243 63.3723 35.5204 64.0929 35.9028C64.7711 36.2565 65.3388 36.7867 65.7349 37.4361C66.1277 38.1032 66.3346 38.8613 66.3346 39.6333C66.3346 40.4053 66.1277 41.1635 65.7349 41.8306C65.339 42.4815 64.7713 43.0135 64.0929 43.3695C63.3724 43.7522 62.5657 43.9483 61.7479 43.9394ZM57.7897 25.5749V24.777H76.0654V26.3786H57.8128V25.5749H57.7897ZM61.7479 42.3036C62.2177 42.3115 62.681 42.1954 63.0904 41.9673C63.4841 41.7494 63.8092 41.4278 64.0295 41.0383C64.2527 40.6141 64.3692 40.1429 64.3692 39.6647C64.3692 39.1864 64.2527 38.7152 64.0295 38.291C63.8096 37.8968 63.4848 37.5696 63.0904 37.3449C62.678 37.1244 62.2167 37.0089 61.7479 37.0089C61.2792 37.0089 60.8178 37.1244 60.4055 37.3449C60.0098 37.5679 59.6846 37.8955 59.4664 38.291C59.2432 38.7152 59.1266 39.1864 59.1266 39.6647C59.1266 40.1429 59.2432 40.6141 59.4664 41.0383C59.6834 41.4283 60.0068 41.7503 60.3997 41.9673C60.8104 42.1972 61.2762 42.3133 61.7479 42.3036ZM74.1238 37.0485H71.4389V43.797H69.5203V37.0485H66.8527V35.5039H74.1238V37.0485ZM81.8385 42.2409V43.7799H75.3452V35.5039H81.6829V37.0485H77.2696V38.8496H81.1413V40.3429H77.2465V42.2637L81.8385 42.2409ZM90.8784 35.5039V43.797H88.9655V37.0485H86.0847L86.0214 38.7584C86.0054 39.7146 85.909 40.6679 85.7333 41.6083C85.6414 42.236 85.3785 42.8271 84.9728 43.3182C84.7822 43.5149 84.5503 43.6679 84.2935 43.7664C84.0366 43.8649 83.7611 43.9064 83.4863 43.8882C83.1614 43.8824 82.8384 43.8383 82.5241 43.7571L82.6451 42.1383C82.7577 42.169 82.874 42.1844 82.9908 42.1839C83.2229 42.1789 83.4462 42.0952 83.6234 41.9468C83.8006 41.7985 83.921 41.5945 83.9645 41.3689C84.1916 40.5401 84.3079 39.6855 84.3102 38.8268L84.4312 35.464L90.8784 35.5039ZM97.0375 38.2283C97.8791 38.1735 98.7134 38.4136 99.3939 38.9066C99.6756 39.1562 99.8958 39.4662 100.038 39.813C100.179 40.1598 100.239 40.5341 100.212 40.9072C100.239 41.3101 100.172 41.7138 100.015 42.0866C99.8577 42.4594 99.6157 42.7912 99.3075 43.056C98.5732 43.5917 97.6715 43.8541 96.7609 43.797H92.9756V35.5039H94.9057V38.2283H97.0375ZM96.6572 42.3777C97.0739 42.3958 97.4832 42.2642 97.8095 42.0072C97.9569 41.8726 98.0717 41.7069 98.1455 41.5224C98.2193 41.3379 98.2502 41.1393 98.2359 40.9414C98.2359 40.0807 97.7 39.6533 96.6342 39.6533H94.9057V42.3777H96.6572ZM111.401 43.9394L110.393 43.0161C109.765 43.4805 109.029 43.7817 108.253 43.8922C107.477 44.0027 106.685 43.919 105.951 43.6488C105.5 43.4856 105.102 43.2062 104.798 42.8394C104.531 42.5051 104.387 42.0912 104.389 41.6653C104.38 41.1778 104.534 40.701 104.827 40.3087C105.207 39.8329 105.687 39.4441 106.233 39.1688C105.966 38.9124 105.744 38.6138 105.576 38.2853C105.44 38.0142 105.369 37.7158 105.369 37.4133C105.362 37.0335 105.475 36.6611 105.691 36.3474C105.924 36.0289 106.241 35.7803 106.607 35.6292C107.044 35.4504 107.512 35.3631 107.984 35.3728C108.604 35.3449 109.214 35.528 109.713 35.8914C109.926 36.0547 110.097 36.2661 110.212 36.508C110.326 36.7499 110.38 37.0154 110.37 37.2822C110.375 37.6944 110.239 38.0962 109.984 38.4221C109.636 38.8207 109.211 39.1463 108.733 39.3797L110.266 40.7875C110.46 40.3772 110.601 39.9444 110.687 39.4994L112.179 39.961C112.048 40.631 111.788 41.2697 111.413 41.842L112.421 42.7482L111.401 43.9394ZM107.99 36.6552C107.749 36.6415 107.511 36.7166 107.322 36.8661C107.24 36.9365 107.176 37.0245 107.134 37.1233C107.092 37.2221 107.073 37.3291 107.08 37.4361C107.079 37.6003 107.123 37.7618 107.207 37.9034C107.358 38.1119 107.531 38.3031 107.725 38.4734C108.035 38.3273 108.321 38.1351 108.572 37.9034C108.649 37.8293 108.71 37.7407 108.752 37.6428C108.793 37.5449 108.814 37.4397 108.814 37.3335C108.817 37.2405 108.799 37.148 108.762 37.0624C108.726 36.9768 108.671 36.9001 108.601 36.8376C108.427 36.705 108.209 36.6401 107.99 36.6552ZM107.725 42.4974C108.287 42.5032 108.836 42.3315 109.292 42.0072L107.27 40.1377C106.964 40.2946 106.69 40.5073 106.463 40.7647C106.308 40.966 106.225 41.2126 106.227 41.4658C106.224 41.6146 106.26 41.7616 106.332 41.8925C106.404 42.0234 106.509 42.1336 106.636 42.2124C106.961 42.4164 107.341 42.516 107.725 42.4974ZM121.08 43.9394C120.276 43.9416 119.484 43.7457 118.776 43.3695C118.092 43.0104 117.522 42.4709 117.13 41.8109C116.737 41.1509 116.537 40.3961 116.552 39.6305C116.533 38.8548 116.733 38.0892 117.128 37.419C117.524 36.7773 118.09 36.2549 118.764 35.9085C119.427 35.5774 120.153 35.3908 120.895 35.3613C121.636 35.3318 122.375 35.4601 123.062 35.7375C123.637 35.9787 124.144 36.3519 124.543 36.8262L123.299 37.9661C123.042 37.6592 122.72 37.4129 122.355 37.2453C121.99 37.0776 121.592 36.9928 121.19 36.9972C120.706 36.9893 120.227 37.1051 119.801 37.3335C119.399 37.5543 119.068 37.882 118.845 38.2796C118.622 38.7038 118.505 39.175 118.505 39.6533C118.505 40.1315 118.622 40.6027 118.845 41.0269C119.067 41.4241 119.399 41.7504 119.801 41.9673C120.226 42.1984 120.705 42.3144 121.19 42.3036C121.593 42.3083 121.993 42.2225 122.358 42.0527C122.723 41.8829 123.045 41.6335 123.299 41.3233L124.543 42.4632C124.146 42.9456 123.635 43.3251 123.057 43.569C122.43 43.8248 121.758 43.9509 121.08 43.9394ZM133.456 35.5039V43.797H131.526V37.0485H127.741V43.797H125.811V35.5039H133.456ZM141.217 42.0243H137.322L136.585 43.797H134.591L138.331 35.5039H140.249L144 43.797H141.96L141.217 42.0243ZM140.606 40.5652L139.275 37.3905L137.95 40.5652H140.606ZM63.4015 13.9133C64.008 13.925 64.606 13.7712 65.13 13.4687C65.6186 13.1624 65.9834 12.6966 66.1613 12.1521V10.8297H63.5571C61.9938 10.8297 61.214 11.3351 61.2179 12.3459C61.2117 12.5681 61.261 12.7884 61.3615 12.9873C61.462 13.1861 61.6106 13.3574 61.794 13.4858C62.2612 13.7948 62.8174 13.9448 63.3785 13.9133H63.4015ZM84.218 9.47889C84.9036 9.64952 85.5081 10.0502 85.9283 10.6125C86.3486 11.1748 86.5587 11.864 86.5226 12.5624C86.5456 13.0918 86.4342 13.6184 86.1987 14.0943C85.9632 14.5702 85.6111 14.9802 85.1744 15.2869C84.2795 15.9329 82.9485 16.254 81.1817 16.2502H74.1871V3.28898H80.8821C82.2231 3.21484 83.5579 3.51925 84.7308 4.16674C85.1647 4.41708 85.5226 4.77829 85.7669 5.21251C86.0112 5.64672 86.1329 6.13796 86.1193 6.63473C86.1328 7.24116 85.96 7.83738 85.6238 8.34464C85.2652 8.84851 84.7699 9.24173 84.195 9.47889H84.218ZM77.6844 8.61253H80.5652C81.8961 8.61253 82.5644 8.14515 82.5644 7.2161C82.5644 6.28704 81.8961 5.84246 80.5652 5.84246H77.6844V8.61253ZM80.859 13.6796C82.2533 13.6796 82.9562 13.2065 82.9562 12.2547C82.9717 12.0465 82.9351 11.8378 82.8497 11.6469C82.7643 11.456 82.6327 11.2889 82.4665 11.1603C82.0035 10.8924 81.4687 10.771 80.9339 10.8126H77.6844V13.6625L80.859 13.6796ZM102.972 9.79808C102.972 9.84937 102.972 10.1857 102.897 10.8126H92.9813C93.1414 11.5845 93.5952 12.2661 94.2489 12.7163C94.9818 13.2013 95.851 13.4446 96.7321 13.4117C97.3503 13.424 97.9656 13.3235 98.547 13.1153C99.0977 12.8982 99.5991 12.5746 100.022 12.1635L102.044 14.3294C100.811 15.7239 99.0079 16.4231 96.6342 16.4269C95.2781 16.4535 93.9351 16.1605 92.7163 15.5719C91.6268 15.0451 90.713 14.2203 90.0833 13.1951C89.4637 12.1608 89.1447 10.9774 89.1614 9.77528C89.1453 8.57471 89.46 7.39247 90.0717 6.35544C90.6704 5.34684 91.5399 4.52214 92.5838 3.97295C93.6805 3.39455 94.9075 3.10042 96.1502 3.11799C97.3534 3.10439 98.5412 3.38641 99.6071 3.93875C100.642 4.46246 101.501 5.27236 102.079 6.26994C102.689 7.35263 102.997 8.57606 102.972 9.81517V9.79808ZM96.1732 5.92226C95.3864 5.89646 94.6168 6.15363 94.0069 6.64613C93.4094 7.14492 93.0262 7.85004 92.9352 8.61823H99.3882C99.2922 7.85482 98.9097 7.15497 98.3165 6.65752C97.7147 6.16723 96.9523 5.91178 96.1732 5.93936V5.92226ZM106.786 3.27189H110.566V8.32755H116.287V3.28898H120.084V16.2502H116.287V11.3997H110.589V16.2445H106.809L106.786 3.27189ZM136.982 3.07809C138.231 3.05837 139.464 3.35254 140.566 3.93305C141.599 4.48216 142.458 5.30267 143.049 6.30414C143.659 7.35785 143.968 8.55571 143.942 9.76958C143.959 10.9687 143.648 12.1501 143.043 13.1894C142.454 14.1939 141.595 15.0168 140.56 15.5662C139.458 16.1467 138.225 16.4409 136.977 16.4212C135.888 16.4323 134.81 16.2147 133.813 15.7828C132.883 15.3772 132.063 14.7578 131.422 13.976C130.787 13.1937 130.354 12.2704 130.161 11.2857H128.386V16.2274H124.583V3.28898H128.386V8.05966H130.213C130.545 6.61143 131.391 5.32918 132.598 4.44603C133.87 3.53145 135.41 3.05672 136.982 3.09519V3.07809ZM136.982 13.3376C137.415 13.3487 137.846 13.2668 138.243 13.0975C138.641 12.9283 138.997 12.6757 139.287 12.3573C139.919 11.6357 140.245 10.7005 140.197 9.74678C140.25 8.78727 139.923 7.84513 139.287 7.1192C138.986 6.81658 138.627 6.57624 138.232 6.41218C137.836 6.24811 137.411 6.16362 136.982 6.16362C136.553 6.16362 136.129 6.24811 135.733 6.41218C135.337 6.57624 134.979 6.81658 134.678 7.1192C134.037 7.84303 133.708 8.78616 133.762 9.74678C133.713 10.7016 134.041 11.6377 134.678 12.3573C134.966 12.6793 135.321 12.9357 135.719 13.1089C136.117 13.2821 136.548 13.3679 136.982 13.3604V13.3376Z" fill="#D7B56D"/>
<path fill-rule="evenodd" clip-rule="evenodd" d="M30.4556 45.0279C34.4195 33.0584 39.4494 24.6855 45.5163 14.1695V39.3281C45.5163 40.8398 44.9093 42.2896 43.8288 43.3585C42.7483 44.4274 41.2828 45.0279 39.7547 45.0279H30.4556ZM37.4501 9.96885C29.0671 21.7274 24.5673 31.8558 19.7506 45.0279H28.3929C31.5215 34.0673 39.4379 20.3937 45.5163 10.6471V1.98352H14.1043L12.1454 10.0258C20.5918 10.0258 29.0498 9.96885 37.4501 9.96885ZM17.6188 45.0279C22.6487 30.5278 25.7945 23.785 33.6993 11.8384L33.5841 11.9637H9.59875L12.0532 1.98352H7.75505C6.22699 1.98352 4.76152 2.58403 3.68102 3.65294C2.60052 4.72184 1.9935 6.17159 1.9935 7.68325V45.0279H17.6188ZM7.91062 3.10637C6.18215 4.47431 1.87251 7.76305 8.78637 12.1347C6.57394 7.10758 11.1371 6.72 7.91062 3.10637ZM4.92613 11.7472C5.1742 11.7823 5.40619 11.8894 5.59277 12.0549C5.77935 12.2204 5.91215 12.4369 5.9744 12.677C6.03664 12.9171 6.02553 13.1702 5.94248 13.4041C5.85942 13.638 5.70814 13.8422 5.50775 13.9911C5.30737 14.14 5.06687 14.2268 4.81665 14.2405C4.56644 14.2542 4.31773 14.1942 4.10195 14.0681C3.88618 13.9421 3.71302 13.7555 3.60437 13.5321C3.49572 13.3087 3.45644 13.0585 3.4915 12.813C3.51409 12.6495 3.56925 12.492 3.65378 12.3496C3.7383 12.2073 3.85053 12.083 3.98395 11.9839C4.11737 11.8848 4.26935 11.8128 4.43107 11.7722C4.5928 11.7315 4.76106 11.723 4.92613 11.7472ZM17.6937 18.336C13.8911 20.7926 7.74353 15.3836 13.7125 12.8472C13.0557 14.3348 14.8591 18.3189 17.6937 18.336ZM21.9631 18.2392C16.0402 20.3424 23.2018 25.4208 26.7106 21.2258C23.7837 20.918 22.084 21.089 21.9631 18.2392ZM3.45693 26.6747C2.8174 33.6284 9.90411 34.2725 12.3816 27.4499C10.0539 29.5873 6.26857 30.4879 3.45693 26.6747ZM3.45693 31.9185C2.88078 38.1882 8.93041 38.4732 10.9988 32.6481C8.95922 34.5632 6.26857 34.6031 3.45693 31.9185ZM10.3708 41.3914C10.6191 41.4268 10.8511 41.5341 11.0377 41.7C11.2242 41.8658 11.3569 42.0827 11.4188 42.3231C11.4807 42.5636 11.4691 42.8168 11.3855 43.0507C11.3018 43.2846 11.1499 43.4887 10.949 43.6372C10.7481 43.7857 10.5071 43.8719 10.2566 43.8849C10.0062 43.8978 9.75746 43.837 9.54196 43.71C9.32646 43.5831 9.15387 43.3958 9.04603 43.1718C8.9382 42.9477 8.89996 42.6971 8.93617 42.4516C8.98464 42.123 9.16291 41.8268 9.43187 41.628C9.70083 41.4293 10.0385 41.3442 10.3708 41.3914ZM27.811 13.5939C28.0587 13.6301 28.2899 13.738 28.4757 13.904C28.6614 14.07 28.7933 14.2867 28.8547 14.5268C28.9161 14.7669 28.9042 15.0196 28.8206 15.253C28.7371 15.4864 28.5855 15.6901 28.3851 15.8385C28.1846 15.9868 27.9442 16.0731 27.6943 16.0865C27.4443 16.0998 27.196 16.0397 26.9805 15.9136C26.7651 15.7876 26.5922 15.6012 26.4836 15.378C26.3751 15.1549 26.3358 14.9049 26.3706 14.6597C26.3939 14.4959 26.4497 14.3383 26.5349 14.196C26.62 14.0536 26.7327 13.9293 26.8666 13.8302C27.0005 13.7312 27.1529 13.6593 27.3149 13.6187C27.477 13.5781 27.6456 13.5697 27.811 13.5939ZM19.1687 12.9213C13.9372 14.4887 18.1316 19.5558 21.8593 17.3842C18.5522 16.3582 18.6098 15.509 19.1802 12.9213H19.1687ZM17.711 20.103C13.5569 24.8565 21.7844 29.7241 25.1492 24.1555C20.7416 25.0788 17.6476 22.1207 17.7225 20.103H17.711ZM18.4024 40.052C15.8039 44.3496 9.78888 42.7708 11.575 36.0622C12.3297 38.1882 13.7413 40.6619 18.437 40.0805L18.4024 40.052ZM20.0156 34.7684C17.9818 39.7898 11.5231 38.7582 12.4507 32.6538C13.6664 35.1673 16.3859 36.2674 20.0156 34.7684ZM21.8939 31.1775C19.3761 36.3757 11.2638 34.4834 13.3899 27.6722C14.692 31.206 19.1572 32.118 21.8939 31.1775ZM23.3516 27.3587C21.4676 32.6139 13.4532 30.619 14.8706 23.1922C16.0402 26.1675 17.6361 28.9318 23.3516 27.3587ZM28.3353 18.8604C25.3048 21.7103 21.1622 18.8604 25.8406 16.1929C25.3508 17.9713 25.8348 19.2993 28.3353 18.8775V18.8604ZM3.28985 41.608C5.59447 42.178 8.27359 44.3553 10.6704 36.0109C7.08095 39.8981 4.92613 36.6151 3.28985 41.608ZM23.1903 12.8415C19.7333 14.0328 20.8856 18.8775 25.1953 15.1214C23.9911 15.68 22.2799 15.0929 23.1903 12.8415ZM8.86703 13.0125C-0.282316 18.6666 10.244 24.9819 14.9282 20.0289C11.091 21.0491 7.11552 15.6173 8.86703 13.0125ZM4.1368 19.9491C0.858472 27.7292 10.7799 30.0262 13.6664 23.0212C9.32796 25.7799 6.14758 23.9902 4.1368 19.9491ZM35.0591 41.3914C35.2248 41.415 35.3842 41.4707 35.5281 41.5552C35.6721 41.6397 35.7978 41.7514 35.8981 41.884C35.9984 42.0166 36.0714 42.1674 36.1128 42.3279C36.1542 42.4883 36.1632 42.6553 36.1394 42.8192C36.1155 42.9832 36.0593 43.1408 35.9739 43.2832C35.8884 43.4257 35.7755 43.55 35.6415 43.6493C35.5074 43.7485 35.355 43.8207 35.1928 43.8616C35.0306 43.9026 34.8618 43.9115 34.6961 43.8879C34.5311 43.8643 34.3725 43.8089 34.2292 43.7246C34.086 43.6404 33.9609 43.5291 33.8611 43.397C33.7613 43.265 33.6888 43.1148 33.6477 42.955C33.6066 42.7952 33.5977 42.629 33.6216 42.4658C33.6454 42.3027 33.7015 42.1457 33.7866 42.004C33.8718 41.8623 33.9843 41.7385 34.1178 41.6398C34.2513 41.5411 34.4031 41.4694 34.5646 41.4287C34.7261 41.3881 34.8941 41.3793 35.0591 41.4028V41.3914ZM41.9211 42.2863C41.0165 40.4225 36.9201 36.5866 33.8146 40.2572C39.2189 39.8411 36.2978 45.0279 41.9211 42.2863ZM43.6092 36.3757C46.4554 29.2738 37.0814 28.9261 35.7216 35.1046C37.0987 33.2294 43.3499 32.0439 43.6092 36.3757ZM44.5368 20.4506C44.4274 22.4285 45.2801 24.1441 39.2996 27.125C42.3071 24.7197 39.6107 23.2834 44.5368 20.4506ZM44.0529 27.4727C42.6989 27.0566 40.4865 24.657 36.8394 31.6677C40.5729 27.9287 41.7425 32.1579 44.0529 27.4727ZM42.5837 41.0666C46.2595 34.1984 36.0616 32.4885 34.3446 38.5644C35.7505 36.8317 40.8149 36.8146 42.5837 41.0666ZM47.5271 1.90573e-05H7.77234C6.75248 -0.00222965 5.74218 0.194549 4.7993 0.579088C3.85642 0.963627 2.99947 1.52837 2.27751 2.24099C1.55556 2.95361 0.982776 3.80011 0.591968 4.73201C0.201159 5.66392 -2.53315e-06 6.66293 0 7.67185L0 47H39.7547C40.7746 47.0022 41.7849 46.8055 42.7278 46.4209C43.6707 46.0364 44.5276 45.4716 45.2496 44.759C45.9715 44.0464 46.5443 43.1999 46.9351 42.268C47.3259 41.3361 47.5271 40.3371 47.5271 39.3281V1.90573e-05Z" fill="#D7B56D"/>
</svg>
