<svg width="109" height="167" viewBox="0 0 109 167" fill="none" xmlns="http://www.w3.org/2000/svg">
<path d="M8.21451 115.246C10.7591 115.246 12.7133 115.841 14.0772 117.031C15.441 118.221 16.1229 120.02 16.1229 122.428V131.671H11.6627V129.645C10.7663 131.143 9.09644 131.894 6.65307 131.899C5.53248 131.93 4.4182 131.723 3.3856 131.294C2.50094 130.928 1.74639 130.312 1.21693 129.524C0.733251 128.779 0.481938 127.912 0.494036 127.028C0.465899 126.342 0.608583 125.659 0.909685 125.04C1.21079 124.42 1.66119 123.882 2.22175 123.473C3.37355 122.615 5.15186 122.184 7.55668 122.179H11.3374C11.3645 121.741 11.2937 121.303 11.1301 120.895C10.9665 120.488 10.714 120.12 10.3904 119.818C9.577 119.213 8.56693 118.919 7.54946 118.994C6.67286 118.994 5.80184 119.131 4.96873 119.399C4.18633 119.636 3.45233 120.007 2.80006 120.494L1.09404 117.223C2.0763 116.568 3.16741 116.087 4.31813 115.801C5.57766 115.458 6.87879 115.286 8.1856 115.289L8.21451 115.246ZM85.4482 142.308H108.378V144.306H85.4771V143.289L85.4482 142.308ZM32.5904 144.007C32.5267 144.068 32.479 144.143 32.4513 144.226C32.4236 144.309 32.4168 144.398 32.4314 144.484L32.7856 146.553L30.9784 145.593C30.8926 145.545 30.7952 145.52 30.6964 145.522C30.6001 145.521 30.5052 145.546 30.4217 145.593L28.6145 146.553L28.9687 144.484C28.983 144.398 28.9768 144.311 28.9504 144.228C28.924 144.145 28.8783 144.07 28.8169 144.007L27.2988 142.514L29.3663 142.208C29.4589 142.197 29.5471 142.163 29.6229 142.11C29.6986 142.057 29.7596 141.985 29.8 141.903L30.7037 140.061L31.6 141.903C31.6416 141.985 31.7028 142.055 31.7784 142.108C31.854 142.162 31.9416 142.196 32.0338 142.208L34.1085 142.514L32.5904 144.007ZM44.5253 144.007C44.4639 144.07 44.4182 144.145 44.3919 144.228C44.3655 144.311 44.3592 144.398 44.3735 144.484L44.7277 146.553L42.9205 145.593C42.8348 145.545 42.7374 145.52 42.6386 145.522C42.5422 145.521 42.4474 145.546 42.3639 145.593L40.5567 146.553L40.9036 144.484C40.9211 144.398 40.9163 144.31 40.8898 144.226C40.8633 144.143 40.8158 144.068 40.7519 144.007L39.2338 142.514L41.3085 142.208C41.4006 142.196 41.4883 142.162 41.5639 142.108C41.6395 142.055 41.7007 141.985 41.7422 141.903L42.6458 140.061L43.5422 141.903C43.5827 141.985 43.6436 142.057 43.7194 142.11C43.7952 142.163 43.8834 142.197 43.9759 142.208L46.0434 142.514L44.5253 144.007ZM56.4675 144.007C56.4038 144.068 56.3561 144.143 56.3284 144.226C56.3007 144.309 56.2939 144.398 56.3085 144.484L56.6627 146.553L54.8627 145.593C54.7763 145.546 54.6793 145.522 54.5808 145.522C54.4822 145.522 54.3852 145.546 54.2988 145.593L52.5422 146.539L52.8892 144.47C52.9066 144.384 52.9019 144.295 52.8753 144.212C52.8488 144.129 52.8014 144.054 52.7374 143.993L51.2193 142.5L53.2868 142.194C53.3795 142.184 53.468 142.15 53.5439 142.097C53.6198 142.043 53.6806 141.972 53.7205 141.889L54.6241 140.047L55.5277 141.889C55.5677 141.972 55.6284 142.043 55.7043 142.097C55.7802 142.15 55.8687 142.184 55.9615 142.194L58.0289 142.5L56.4675 144.007ZM68.4097 144.007C68.3475 144.069 68.3007 144.144 68.2731 144.227C68.2455 144.31 68.2378 144.398 68.2506 144.484L68.6048 146.553L66.7976 145.593C66.7119 145.545 66.6145 145.52 66.5157 145.522C66.4193 145.521 66.3245 145.546 66.241 145.593L64.4338 146.553L64.788 144.484C64.8023 144.398 64.796 144.311 64.7697 144.228C64.7433 144.145 64.6976 144.07 64.6362 144.007L63.1181 142.514L65.1856 142.208C65.2781 142.197 65.3663 142.163 65.4421 142.11C65.5179 142.057 65.5788 141.985 65.6193 141.903L66.5229 140.061L67.4193 141.903C67.4608 141.985 67.522 142.055 67.5976 142.108C67.6732 142.162 67.7609 142.196 67.853 142.208L69.9277 142.514L68.4097 144.007ZM80.3518 144.007C80.2882 144.068 80.2404 144.143 80.2127 144.226C80.185 144.309 80.1782 144.398 80.1928 144.484L80.547 146.553L78.7398 145.593C78.654 145.545 78.5566 145.52 78.4579 145.522C78.3615 145.521 78.2667 145.546 78.1832 145.593L76.3976 146.539L76.7518 144.47C76.7664 144.383 76.7596 144.295 76.7319 144.212C76.7042 144.129 76.6565 144.054 76.5928 143.993L75.0747 142.5L77.1494 142.194C77.2416 142.182 77.3292 142.148 77.4048 142.094C77.4804 142.041 77.5416 141.97 77.5832 141.889L78.4868 140.047L79.3832 141.889C79.4247 141.97 79.4859 142.041 79.5615 142.094C79.6371 142.148 79.7247 142.182 79.8169 142.194L81.8916 142.5L80.3518 144.007ZM5.80005 166.198C4.76966 166.207 3.75331 165.963 2.84343 165.487C1.98458 165.038 1.26623 164.367 0.765307 163.546C0.264386 162.726 -0.000244141 161.787 -0.000244141 160.83C-0.000244141 159.873 0.264386 158.934 0.765307 158.114C1.26623 157.293 1.98458 156.623 2.84343 156.173C3.75331 155.697 4.76966 155.453 5.80005 155.462C6.82603 155.451 7.83811 155.696 8.74223 156.173C9.59316 156.614 10.3055 157.275 10.8025 158.086C11.2952 158.918 11.5548 159.864 11.5548 160.827C11.5548 161.79 11.2952 162.735 10.8025 163.568C10.3057 164.38 9.59345 165.043 8.74223 165.487C7.83822 165.965 6.82607 166.209 5.80005 166.198ZM0.833795 143.289V142.294H23.7639V144.292H0.862712V143.289H0.833795ZM5.80005 164.158C6.38942 164.168 6.9708 164.023 7.48439 163.738C7.97844 163.466 8.38629 163.065 8.66271 162.579C8.94274 162.05 9.08895 161.462 9.08895 160.866C9.08895 160.269 8.94274 159.681 8.66271 159.152C8.38676 158.66 7.97928 158.252 7.48439 157.972C6.96702 157.697 6.38817 157.553 5.80005 157.553C5.21194 157.553 4.63309 157.697 4.11572 157.972C3.61922 158.25 3.21123 158.659 2.93741 159.152C2.65738 159.681 2.51117 160.269 2.51117 160.866C2.51117 161.462 2.65738 162.05 2.93741 162.579C3.2097 163.066 3.61547 163.467 4.10849 163.738C4.62381 164.025 5.20813 164.17 5.80005 164.158ZM21.3278 157.602H17.9591V166.021H15.5519V157.602H12.2049V155.675H21.3278V157.602ZM31.0073 164.08V165.999H22.8603V155.675H30.8121V157.602H25.2747V159.849H30.1326V161.712H25.2458V164.108L31.0073 164.08ZM42.3494 155.675V166.021H39.9494V157.602H36.335L36.2555 159.735C36.2354 160.928 36.1145 162.117 35.894 163.29C35.7787 164.073 35.4488 164.811 34.9398 165.423C34.7007 165.669 34.4097 165.86 34.0875 165.982C33.7653 166.105 33.4196 166.157 33.0747 166.134C32.6672 166.127 32.2619 166.072 31.8675 165.971L32.0193 163.952C32.1606 163.99 32.3065 164.009 32.4531 164.008C32.7443 164.002 33.0244 163.898 33.2468 163.713C33.4691 163.528 33.6202 163.273 33.6747 162.992C33.9597 161.958 34.1056 160.892 34.1085 159.82L34.2603 155.625L42.3494 155.675ZM50.0771 159.074C51.1331 159.006 52.1799 159.305 53.0338 159.92C53.3872 160.231 53.6634 160.618 53.8413 161.051C54.0193 161.483 54.0942 161.95 54.0603 162.416C54.0943 162.918 54.0095 163.422 53.8126 163.887C53.6157 164.352 53.312 164.766 52.9253 165.096C52.004 165.765 50.8726 166.092 49.7302 166.021H44.9808V155.675H47.4024V159.074H50.0771ZM49.6 164.25C50.1229 164.273 50.6364 164.109 51.0458 163.788C51.2307 163.62 51.3748 163.413 51.4674 163.183C51.56 162.953 51.5987 162.705 51.5808 162.458C51.5808 161.385 50.9085 160.851 49.5711 160.851H47.4024V164.25H49.6ZM68.0988 166.198L66.8338 165.046C66.0459 165.626 65.1229 166.002 64.1492 166.139C63.1756 166.277 62.1823 166.173 61.2603 165.836C60.6953 165.632 60.1961 165.284 59.8145 164.826C59.4797 164.409 59.2988 163.893 59.3012 163.361C59.2902 162.753 59.4833 162.158 59.8506 161.669C60.3275 161.076 60.9292 160.591 61.6145 160.247C61.2795 159.927 61.001 159.555 60.7904 159.145C60.6202 158.807 60.5312 158.435 60.5302 158.057C60.522 157.583 60.6634 157.119 60.935 156.728C61.2266 156.33 61.6244 156.02 62.0844 155.832C62.6315 155.609 63.2199 155.5 63.8121 155.512C64.589 155.477 65.3544 155.705 65.9808 156.159C66.2487 156.362 66.4633 156.626 66.6067 156.928C66.75 157.23 66.8179 157.561 66.8048 157.894C66.8114 158.408 66.6407 158.909 66.3205 159.316C65.8839 159.813 65.3506 160.219 64.7518 160.51L66.6747 162.266C66.9181 161.755 67.0954 161.215 67.2024 160.659L69.0747 161.235C68.9109 162.071 68.5845 162.868 68.1133 163.582L69.3783 164.712L68.0988 166.198ZM63.8193 157.111C63.5164 157.094 63.2177 157.188 62.9808 157.375C62.8783 157.462 62.7976 157.572 62.745 157.695C62.6923 157.819 62.6691 157.952 62.6771 158.086C62.6758 158.29 62.7308 158.492 62.8362 158.669C63.0255 158.929 63.2437 159.167 63.4868 159.38C63.8758 159.197 64.2342 158.958 64.5494 158.669C64.6459 158.576 64.7225 158.466 64.7746 158.343C64.8268 158.221 64.8535 158.09 64.853 157.958C64.8565 157.842 64.8344 157.726 64.7882 157.619C64.7421 157.513 64.6729 157.417 64.5856 157.339C64.367 157.174 64.0944 157.093 63.8193 157.111ZM63.4868 164.399C64.1917 164.407 64.8805 164.192 65.453 163.788L62.9157 161.456C62.5312 161.651 62.1879 161.917 61.9036 162.238C61.7089 162.489 61.6046 162.797 61.6073 163.113C61.6036 163.298 61.649 163.482 61.7389 163.645C61.8289 163.808 61.9604 163.946 62.1205 164.044C62.5277 164.298 63.005 164.423 63.4868 164.399ZM80.2434 166.198C79.2345 166.201 78.2408 165.957 77.3518 165.487C76.4939 165.039 75.779 164.366 75.2865 163.543C74.7939 162.72 74.543 161.778 74.5615 160.823C74.5384 159.855 74.7887 158.9 75.2844 158.064C75.7811 157.264 76.4911 156.612 77.3374 156.18C78.1684 155.767 79.0799 155.534 80.0102 155.497C80.9405 155.461 81.8681 155.621 82.7301 155.967C83.4505 156.268 84.0874 156.733 84.588 157.325L83.0265 158.747C82.7051 158.364 82.3007 158.057 81.8429 157.848C81.3851 157.638 80.8855 157.533 80.3807 157.538C79.773 157.528 79.173 157.673 78.6386 157.958C78.1343 158.233 77.7186 158.642 77.4386 159.138C77.1585 159.667 77.0123 160.255 77.0123 160.851C77.0123 161.448 77.1585 162.036 77.4386 162.565C77.7168 163.061 78.1332 163.468 78.6386 163.738C79.1716 164.026 79.7726 164.171 80.3807 164.158C80.887 164.163 81.388 164.056 81.8462 163.845C82.3044 163.633 82.7079 163.322 83.0265 162.935L84.588 164.357C84.0893 164.959 83.4492 165.432 82.7229 165.736C81.9372 166.055 81.0933 166.213 80.2434 166.198ZM95.7711 155.675V166.021H93.3494V157.602H88.6V166.021H86.1783V155.675H95.7711ZM105.508 163.809H100.622L99.6964 166.021H97.1952L101.887 155.675H104.294L109 166.021H106.441L105.508 163.809ZM104.742 161.989L103.072 158.029L101.41 161.989H104.742ZM7.87475 128.742C8.63572 128.756 9.38607 128.564 10.0434 128.187C10.6565 127.805 11.1143 127.224 11.3374 126.545V124.895H8.06994C6.10849 124.895 5.13018 125.526 5.135 126.786C5.12721 127.064 5.18911 127.338 5.31522 127.587C5.44132 127.835 5.62772 128.048 5.85789 128.208C6.44406 128.594 7.14189 128.781 7.84584 128.742H7.87475ZM33.9928 123.21C34.853 123.423 35.6114 123.923 36.1387 124.624C36.6661 125.326 36.9296 126.185 36.8844 127.057C36.9132 127.717 36.7735 128.374 36.478 128.967C36.1825 129.561 35.7407 130.073 35.1928 130.455C34.0699 131.261 32.4001 131.662 30.1832 131.657H21.4073V115.488H29.8073C31.4899 115.396 33.1646 115.775 34.6362 116.583C35.1806 116.895 35.6297 117.346 35.9362 117.888C36.2427 118.429 36.3954 119.042 36.3784 119.662C36.3953 120.418 36.1785 121.162 35.7567 121.795C35.3068 122.424 34.6852 122.914 33.9639 123.21H33.9928ZM25.7952 122.129H29.4097C31.0796 122.129 31.9181 121.546 31.9181 120.387C31.9181 119.228 31.0796 118.674 29.4097 118.674H25.7952V122.129ZM29.7784 128.45C31.5278 128.45 32.4097 127.86 32.4097 126.673C32.4291 126.413 32.3832 126.153 32.276 125.914C32.1689 125.676 32.0037 125.468 31.7952 125.307C31.2143 124.973 30.5433 124.822 29.8723 124.874H25.7952V128.429L29.7784 128.45ZM57.5229 123.608C57.5229 123.672 57.5229 124.092 57.4289 124.874H44.988C45.1889 125.837 45.7582 126.687 46.5784 127.249C47.498 127.853 48.5885 128.157 49.694 128.116C50.4697 128.131 51.2416 128.006 51.9711 127.746C52.6621 127.475 53.2912 127.072 53.8217 126.559L56.3591 129.261C54.8121 131 52.5494 131.873 49.5711 131.877C47.8697 131.911 46.1847 131.545 44.6555 130.811C43.2885 130.154 42.142 129.125 41.3518 127.846C40.5745 126.556 40.1742 125.079 40.1952 123.58C40.1751 122.082 40.5699 120.607 41.3374 119.314C42.0885 118.055 43.1795 117.027 44.4892 116.341C45.8652 115.62 47.4047 115.253 48.9639 115.275C50.4735 115.258 51.9639 115.61 53.3012 116.299C54.5996 116.952 55.677 117.962 56.4024 119.207C57.1674 120.557 57.5541 122.084 57.5229 123.629V123.608ZM48.9928 118.773C48.0056 118.741 47.0399 119.062 46.2747 119.676C45.525 120.298 45.0443 121.178 44.9302 122.136H53.0265C52.9061 121.184 52.4262 120.311 51.682 119.69C50.9269 119.079 49.9703 118.76 48.9928 118.794V118.773ZM62.3085 115.467H67.0506V121.774H74.2289V115.488H78.9928V131.657H74.2289V125.606H67.0795V131.65H62.3374L62.3085 115.467ZM100.195 115.225C101.762 115.201 103.309 115.568 104.692 116.292C105.987 116.977 107.065 118 107.807 119.25C108.572 120.564 108.96 122.058 108.928 123.573C108.948 125.068 108.559 126.542 107.8 127.839C107.061 129.092 105.982 130.118 104.684 130.804C103.302 131.528 101.754 131.895 100.188 131.87C98.8227 131.884 97.4699 131.613 96.2193 131.074C95.0513 130.568 94.0228 129.795 93.2193 128.82C92.4226 127.844 91.8793 126.692 91.6362 125.464H89.4097V131.628H84.6386V115.488H89.4097V121.439H91.7012C92.1179 119.633 93.1798 118.033 94.694 116.932C96.2897 115.791 98.223 115.198 100.195 115.246V115.225ZM100.195 128.024C100.738 128.037 101.278 127.935 101.777 127.724C102.277 127.513 102.723 127.198 103.087 126.801C103.88 125.9 104.289 124.734 104.229 123.544C104.295 122.347 103.885 121.172 103.087 120.266C102.709 119.889 102.259 119.589 101.763 119.384C101.266 119.18 100.733 119.074 100.195 119.074C99.6569 119.074 99.124 119.18 98.6275 119.384C98.1311 119.589 97.6811 119.889 97.3036 120.266C96.4998 121.169 96.0873 122.346 96.1542 123.544C96.093 124.735 96.5052 125.903 97.3036 126.801C97.665 127.202 98.1107 127.522 98.6099 127.738C99.109 127.954 99.6499 128.061 100.195 128.052V128.024Z" fill="#D7B56D"/>
<path fill-rule="evenodd" clip-rule="evenodd" d="M69.8477 103.149C78.9387 75.9427 90.4743 56.9111 104.388 33.0082V90.1937C104.388 93.6297 102.996 96.925 100.518 99.3546C98.0401 101.784 94.6792 103.149 91.1747 103.149H69.8477ZM85.8892 23.46C66.6631 50.1872 56.3432 73.2091 45.2965 103.149H65.1171C72.2922 78.2358 90.4479 47.1556 104.388 25.0017V5.30934H32.347L27.8543 23.5895C47.2257 23.5895 66.6235 23.46 85.8892 23.46ZM40.4074 103.149C51.943 70.1904 59.1577 54.8641 77.287 27.7094L77.0227 27.9944H22.0139L27.6429 5.30934H17.7855C14.281 5.30934 10.92 6.67429 8.44193 9.10391C5.96387 11.5335 4.57171 14.8288 4.57171 18.2648V103.149H40.4074ZM18.1422 7.86157C14.1781 10.9709 4.29423 18.4462 20.1507 28.3831C15.0766 16.9563 25.5419 16.0754 18.1422 7.86157ZM11.2975 27.5021C11.8665 27.5819 12.3985 27.8253 12.8264 28.2015C13.2543 28.5777 13.5589 29.0698 13.7016 29.6156C13.8444 30.1615 13.8189 30.7366 13.6284 31.2682C13.4379 31.7999 13.091 32.2642 12.6314 32.6026C12.1719 32.941 11.6203 33.1383 11.0464 33.1694C10.4726 33.2006 9.90218 33.0642 9.40732 32.7777C8.91245 32.4911 8.51533 32.0671 8.26614 31.5593C8.01695 31.0515 7.92688 30.4827 8.00729 29.9248C8.0591 29.553 8.18559 29.195 8.37945 28.8716C8.57331 28.5481 8.83069 28.2655 9.13669 28.0402C9.44269 27.8148 9.79123 27.6513 10.1621 27.5589C10.533 27.4666 10.9189 27.4472 11.2975 27.5021ZM40.5792 42.4786C31.8581 48.0625 17.759 35.7677 31.4485 30.0025C29.9421 33.3839 34.078 42.4398 40.5792 42.4786ZM50.3706 42.2584C36.7868 47.039 53.2115 58.5823 61.2587 49.0471C54.5461 48.3475 50.6481 48.7362 50.3706 42.2584ZM7.92801 61.4325C6.46128 77.2382 22.7142 78.7022 28.3961 63.1945C23.0578 68.0528 14.3763 70.0998 7.92801 61.4325ZM7.92801 73.3516C6.60663 87.6026 20.4811 88.2504 25.2248 75.0099C20.5471 79.3629 14.3763 79.4536 7.92801 73.3516ZM23.7845 94.8836C24.3539 94.9639 24.8862 95.2079 25.314 95.5849C25.7418 95.9619 26.046 96.4548 26.1879 97.0013C26.3299 97.5479 26.3033 98.1234 26.1116 98.6551C25.9198 99.1868 25.5714 99.6508 25.1106 99.9883C24.6497 100.326 24.0971 100.522 23.5227 100.551C22.9483 100.581 22.3778 100.442 21.8836 100.154C21.3894 99.8652 20.9936 99.4395 20.7462 98.9303C20.4989 98.4211 20.4112 97.8514 20.4943 97.2933C20.6054 96.5464 21.0143 95.8731 21.6311 95.4214C22.248 94.9696 23.0224 94.7762 23.7845 94.8836ZM63.7825 31.6997C64.3505 31.7819 64.8809 32.0272 65.3068 32.4046C65.7328 32.782 66.0352 33.2746 66.176 33.8202C66.3168 34.3659 66.2897 34.9403 66.098 35.4709C65.9064 36.0014 65.5588 36.4645 65.099 36.8017C64.6393 37.1388 64.0881 37.3349 63.5148 37.3653C62.9415 37.3957 62.3719 37.259 61.8778 36.9725C61.3837 36.6859 60.9872 36.2623 60.7382 35.7551C60.4893 35.2479 60.3992 34.6797 60.4791 34.1224C60.5325 33.7501 60.6605 33.3918 60.8557 33.0682C61.0509 32.7447 61.3095 32.4621 61.6166 32.2369C61.9236 32.0118 62.2731 31.8484 62.6448 31.7561C63.0165 31.6639 63.4032 31.6447 63.7825 31.6997ZM43.9619 30.1709C31.9638 33.7337 41.5834 45.2511 50.1327 40.3151C42.548 37.9831 42.6802 36.0527 43.9883 30.1709H43.9619ZM40.6188 46.4949C31.0917 57.2997 49.961 68.3637 57.6778 55.7062C47.5693 57.805 40.4735 51.0811 40.6453 46.4949H40.6188ZM42.2045 91.8391C36.2451 101.608 22.4499 98.0189 26.5462 82.7702C28.2772 87.6026 31.5146 93.2253 42.2838 91.9039L42.2045 91.8391ZM45.9043 79.8293C41.2399 91.2431 26.4273 88.8982 28.5547 75.0229C31.3428 80.7362 37.5797 83.2366 45.9043 79.8293ZM50.212 71.6674C44.4376 83.4828 25.8326 79.1816 30.7085 63.6997C33.6948 71.7322 43.9355 73.805 50.212 71.6674ZM53.5551 62.9872C49.2342 74.9322 30.8539 70.3977 34.1045 53.5167C36.7868 60.2795 40.4471 66.5629 53.5551 62.9872ZM64.985 43.6706C58.0346 50.1483 48.5339 43.6706 59.2634 37.6074C58.1403 41.6495 59.2502 44.6681 64.985 43.7094V43.6706ZM7.54481 95.3759C12.8303 96.6715 18.9747 101.62 24.4716 82.6536C16.2395 91.4893 11.2975 84.0269 7.54481 95.3759ZM53.1851 29.9896C45.2569 32.6973 47.8996 43.7094 57.7835 35.1718C55.0218 36.4414 51.0973 35.107 53.1851 29.9896ZM20.3357 30.3782C-0.647718 43.2301 23.4938 57.5848 34.2366 46.3264C25.4362 48.6455 16.3187 36.2989 20.3357 30.3782ZM9.48723 46.1451C1.9686 63.8293 24.7227 69.0504 31.3428 53.1281C21.3928 59.3985 14.0988 55.3305 9.48723 46.1451ZM80.4054 94.8836C80.7855 94.9372 81.151 95.0637 81.4812 95.2558C81.8114 95.4479 82.0997 95.7018 82.3298 96.0032C82.5598 96.3046 82.7271 96.6474 82.822 97.0121C82.917 97.3769 82.9377 97.7564 82.883 98.129C82.8284 98.5016 82.6994 98.86 82.5035 99.1837C82.3075 99.5074 82.0485 99.7901 81.7411 100.016C81.4338 100.241 81.0841 100.405 80.7121 100.498C80.3401 100.591 79.953 100.612 79.573 100.558C79.1947 100.505 78.8309 100.378 78.5023 100.187C78.1737 99.9955 77.8868 99.7425 77.658 99.4423C77.4292 99.1422 77.2629 98.8008 77.1686 98.4376C77.0743 98.0744 77.054 97.6966 77.1086 97.3257C77.1633 96.9548 77.2919 96.5981 77.4872 96.276C77.6824 95.9538 77.9405 95.6725 78.2467 95.4482C78.5528 95.2238 78.901 95.0608 79.2714 94.9683C79.6418 94.8759 80.0272 94.8559 80.4054 94.9095V94.8836ZM96.143 96.9176C94.0685 92.6812 84.6735 83.9621 77.5513 92.3055C89.9458 91.3597 83.2464 103.149 96.143 96.9176ZM100.015 83.4828C106.542 67.3402 85.0435 66.55 81.925 80.5937C85.0831 76.3314 99.42 73.6366 100.015 83.4828ZM102.142 47.2851C101.891 51.7807 103.847 55.6803 90.1308 62.456C97.0284 56.9888 90.8443 53.724 102.142 47.2851ZM101.032 63.2463C97.9269 62.3006 92.8528 56.8463 84.4885 72.7816C93.051 64.2827 95.7334 73.8957 101.032 63.2463ZM97.6626 94.1452C106.093 78.5338 82.7046 74.6471 78.7669 88.4577C81.9911 84.5192 93.606 84.4804 97.6626 94.1452ZM109 0.800825H17.8251C15.4861 0.795713 13.1691 1.24299 11.0066 2.11705C8.8442 2.99111 6.87884 4.27478 5.22308 5.89456C3.56732 7.51435 2.25369 9.43844 1.35739 11.5567C0.461101 13.6749 -0.00024995 15.9456 -0.000244141 18.2389L-0.000244141 107.632H91.1747C93.5136 107.637 95.8307 107.19 97.9931 106.316C100.156 105.442 102.121 104.158 103.777 102.538C105.432 100.918 106.746 98.9942 107.642 96.876C108.539 94.7578 109 92.487 109 90.1937V0.800825Z" fill="#D7B56D"/>
</svg>
