<svg width="50" height="60" viewBox="0 0 50 60" fill="none" xmlns="http://www.w3.org/2000/svg">
<path d="M7.32233 7.27922C17.0854 -2.42641 32.9146 -2.42641 42.6777 7.27922C52.4408 16.9848 52.4408 32.7208 42.6777 42.4264L25 60L7.32233 42.4264C-2.44078 32.7208 -2.44078 16.9848 7.32233 7.27922Z" fill="#5D1D3B"/>
<path fill-rule="evenodd" clip-rule="evenodd" d="M28.6593 36.9029L28.662 36.8992C30.8286 30.2833 33.5816 25.6505 36.9029 19.8366V33.759C36.9029 35.4926 35.4924 36.9029 33.7589 36.9029H28.6593ZM32.4843 17.5126C27.9007 24.0127 25.4384 29.6154 22.8033 36.9029H27.5336C29.2447 30.8375 33.5725 23.2754 36.9029 17.8878V13.0971L19.7152 13.0972L18.6435 17.5452C23.2631 17.5452 27.8907 17.5126 32.4843 17.5126ZM21.6387 36.9029C24.3897 28.8835 26.1098 25.1563 30.4346 18.5493L30.3705 18.6191L17.2519 18.6192L18.5943 13.0972H16.2411C14.5075 13.0972 13.0973 14.5075 13.0973 16.241V36.9029H21.6387ZM16.3288 13.7163C15.3807 14.4735 13.0233 16.2923 16.8069 18.7093C15.5965 15.9316 18.0939 15.7161 16.3288 13.7163ZM14.6936 18.4958C15.0728 18.5502 15.3363 18.9017 15.282 19.2809C15.2277 19.6601 14.8762 19.9236 14.4969 19.8694C14.1176 19.8151 13.8541 19.4635 13.9085 19.0843C13.9628 18.705 14.3143 18.4415 14.6936 18.4958ZM21.6778 22.1398C19.6 23.4971 16.2372 20.5049 19.5003 19.1029C19.1409 19.9259 20.1279 22.1305 21.6778 22.1398ZM24.0152 22.0983C20.7733 23.2607 24.6934 26.0701 26.6115 23.7504C25.0117 23.5659 24.0803 23.6728 24.0152 22.0983ZM13.8876 26.7512C13.5405 30.6047 17.4189 30.9527 18.7746 27.1785C17.4995 28.3608 15.4307 28.857 13.8876 26.7512ZM13.877 29.6357C13.5872 33.1204 16.8863 33.274 18.0168 30.0527C16.9006 31.1134 15.428 31.1346 13.877 29.6357ZM17.668 34.8868C18.0472 34.9411 18.3108 35.2927 18.2564 35.6719C18.2021 36.0512 17.8505 36.3147 17.4713 36.2604C17.0921 36.2061 16.8285 35.8545 16.8829 35.4753C16.9372 35.0961 17.2888 34.8325 17.668 34.8868ZM27.2121 19.5165C27.5913 19.5708 27.8548 19.9224 27.8006 20.3016C27.7463 20.6808 27.3947 20.9443 27.0154 20.89C26.6362 20.8357 26.3726 20.4842 26.427 20.1049C26.4813 19.7257 26.8329 19.4622 27.2121 19.5165ZM22.492 19.146C19.6296 20.0132 21.9248 22.8145 23.9654 21.6117C22.1479 21.0439 22.1793 20.5742 22.492 19.146ZM21.695 23.1172C19.4226 25.7434 23.9223 28.4366 25.7639 25.3561C23.3569 25.8597 21.6545 24.2332 21.695 23.1172ZM22.0717 34.164C20.6502 36.5393 17.3611 35.6649 18.3388 31.962C18.7443 33.1073 19.5161 34.4858 22.0717 34.164ZM22.9481 31.2108C21.8358 34.002 18.3137 33.4283 18.8123 30.0572C19.4752 31.447 20.9637 32.0558 22.9481 31.2108ZM23.9607 29.2388C22.5828 32.1128 18.1475 31.0681 19.3081 27.3005C20.0361 29.2554 22.4808 29.7604 23.9607 29.2388ZM24.7746 27.1381C23.7423 30.0425 19.3583 28.9416 20.1333 24.8329C20.7746 26.4694 21.6491 27.9966 24.7746 27.1381ZM27.5017 22.44C25.8442 24.0074 23.5772 22.4261 26.1348 20.9641C25.8655 21.9372 26.1319 22.6709 27.5017 22.44ZM13.7988 34.9984C15.0712 35.3175 16.5249 36.517 17.8355 31.9038C15.8737 34.049 14.6953 32.2479 13.7988 34.9984ZM24.6851 19.1015C22.7834 19.7592 23.441 22.4388 25.7817 20.3744C25.1225 20.6696 24.1867 20.3465 24.6851 19.1015ZM16.8503 19.1965C11.8441 22.3215 17.6053 25.817 20.165 23.0738C18.0679 23.6406 15.8927 20.637 16.8503 19.1965ZM14.2641 23.0207C12.4699 27.3332 17.8982 28.6044 19.4767 24.7311C17.1018 26.2556 15.3624 25.2647 14.2641 23.0207ZM31.1772 34.8868C31.5564 34.9411 31.82 35.2926 31.7657 35.6719C31.7113 36.0511 31.3598 36.3146 30.9806 36.2604C30.6013 36.206 30.3378 35.8544 30.3921 35.4752C30.4464 35.096 30.798 34.8325 31.1772 34.8868ZM34.9323 35.3813C34.4373 34.3507 32.1958 32.2402 30.4993 34.2618C33.4528 34.0304 31.8522 36.8857 34.9323 35.3813ZM35.8566 32.1143C37.4126 28.1888 32.2864 27.9964 31.5386 31.4109C32.294 30.3737 35.7142 29.7188 35.8566 32.1143ZM36.3631 23.3069C36.3037 24.4006 36.7695 25.352 33.4985 26.9993C35.1422 25.6702 33.6684 24.874 36.3631 23.3069ZM36.0979 27.19C35.3576 26.9605 34.1475 25.6335 32.1534 29.5096C34.1941 27.4544 34.8357 29.7805 36.0979 27.19ZM35.2944 34.7077C37.3044 30.8937 31.7274 29.9579 30.7889 33.3256C31.5554 32.3664 34.3261 32.3553 35.2944 34.7077ZM38 12H16.2411C13.899 12 12 13.8988 12 16.241L12 38C19.2539 38 26.5058 38 33.7589 38C36.1019 38 38 36.1012 38 33.7591L38 12Z" fill="#D7B56D"/>
</svg>
