<svg width="24" height="24" viewBox="0 0 24 24" fill="none" xmlns="http://www.w3.org/2000/svg">
<g clip-path="url(#clip0)">
<path d="M11.9995 8.57141H10.2852V12H11.9995C12.9445 12 13.7138 11.2307 13.7138 10.2857C13.7138 9.34064 12.9445 8.57141 11.9995 8.57141Z" fill="#D7B56D"/>
<path d="M22.2857 0H1.7143C0.767603 0 0 0.767603 0 1.7143V22.2857C0 23.2324 0.767603 24 1.7143 24H22.2857C23.2324 24 24 23.2324 24 22.2857V1.7143C24 0.767603 23.2324 0 22.2857 0V0ZM12 15.4285H10.2857V18.8571H6.85715V5.14285H12C14.836 5.14285 17.1429 7.44974 17.1429 10.2857C17.1429 13.1217 14.836 15.4285 12 15.4285Z" fill="#D7B56D"/>
</g>
<defs>
<clipPath id="clip0">
<rect width="24" height="24" fill="white"/>
</clipPath>
</defs>
</svg>
