<svg width="201" height="94" viewBox="0 0 201 94" fill="none" xmlns="http://www.w3.org/2000/svg">
<path d="M15.1483 0.0414754C19.8406 0.0414754 23.4442 1.13847 25.9592 3.33246C28.4742 5.52645 29.7317 8.84365 29.7317 13.2841V30.329H21.5069V26.5922C19.8539 29.3544 16.7746 30.7398 12.2689 30.7486C10.2025 30.8057 8.14776 30.4256 6.24361 29.6341C4.61227 28.9578 3.22084 27.8218 2.2445 26.3693C1.35259 24.9963 0.88916 23.3964 0.911468 21.7672C0.859584 20.5019 1.1227 19.2433 1.67794 18.1007C2.23318 16.9582 3.06374 15.9664 4.09742 15.2115C6.22139 13.6293 9.50065 12.8339 13.9352 12.8252H20.907C20.9569 12.0182 20.8265 11.2102 20.5248 10.4581C20.2231 9.70608 19.7575 9.02818 19.1607 8.47216C17.6607 7.35513 15.7981 6.81438 13.9219 6.95123C12.3054 6.95178 10.6992 7.20402 9.16296 7.69858C7.72018 8.13657 6.36666 8.81997 5.16385 9.71775L2.01789 3.68647C3.82921 2.47836 5.84126 1.59091 7.96322 1.06417C10.2858 0.432343 12.6852 0.114746 15.095 0.120144L15.1483 0.0414754ZM157.57 49.9438H199.854V53.6281H157.623V51.7532L157.57 49.9438ZM60.0982 53.0774C59.9808 53.1896 59.8928 53.3282 59.8417 53.4812C59.7906 53.6342 59.778 53.7971 59.8049 53.9559L60.4581 57.7713L57.1255 56.0013C56.9674 55.9124 56.7878 55.8671 56.6057 55.8702C56.428 55.8688 56.2531 55.9141 56.0991 56.0013L52.7665 57.7713L53.4197 53.9559C53.4461 53.7981 53.4345 53.6365 53.3859 53.4839C53.3373 53.3314 53.253 53.1921 53.1398 53.0774L50.3404 50.324L54.1529 49.7602C54.3235 49.7396 54.4862 49.6772 54.626 49.5787C54.7657 49.4802 54.8781 49.3488 54.9527 49.1964L56.619 45.8006L58.272 49.1964C58.3485 49.3473 58.4614 49.4776 58.6008 49.5759C58.7402 49.6741 58.9019 49.7374 59.0718 49.7602L62.8976 50.324L60.0982 53.0774ZM82.1066 53.0774C81.9934 53.1921 81.9091 53.3314 81.8605 53.4839C81.8119 53.6365 81.8003 53.7981 81.8267 53.9559L82.4799 57.7713L79.1473 56.0013C78.9891 55.9124 78.8095 55.8671 78.6274 55.8702C78.4497 55.8688 78.2748 55.9141 78.1208 56.0013L74.7883 57.7713L75.4281 53.9559C75.4603 53.7981 75.4515 53.6349 75.4026 53.4814C75.3537 53.3278 75.2662 53.1889 75.1482 53.0774L72.3488 50.324L76.1746 49.7602C76.3445 49.7374 76.5062 49.6741 76.6456 49.5759C76.785 49.4776 76.8979 49.3473 76.9744 49.1964L78.6407 45.8006L80.2937 49.1964C80.3683 49.3488 80.4807 49.4802 80.6204 49.5787C80.7602 49.6772 80.9229 49.7396 81.0935 49.7602L84.906 50.324L82.1066 53.0774ZM104.128 53.0774C104.011 53.1896 103.923 53.3282 103.872 53.4812C103.821 53.6342 103.808 53.7971 103.835 53.9559L104.488 57.7713L101.169 56.0013C101.01 55.9152 100.831 55.8701 100.649 55.8701C100.467 55.8701 100.289 55.9152 100.129 56.0013L96.89 57.7451L97.5298 53.9297C97.562 53.7719 97.5532 53.6087 97.5043 53.4552C97.4554 53.3016 97.3679 53.1627 97.2499 53.0512L94.4505 50.2978L98.263 49.734C98.434 49.7146 98.5972 49.6527 98.7372 49.554C98.8771 49.4554 98.9892 49.3233 99.0628 49.1702L100.729 45.7743L102.395 49.1702C102.469 49.3233 102.581 49.4554 102.721 49.554C102.861 49.6527 103.024 49.7146 103.195 49.734L107.008 50.2978L104.128 53.0774ZM126.15 53.0774C126.035 53.1915 125.949 53.3302 125.898 53.4827C125.847 53.6351 125.833 53.7971 125.857 53.9559L126.51 57.7713L123.177 56.0013C123.019 55.9124 122.84 55.8671 122.658 55.8702C122.48 55.8688 122.305 55.9141 122.151 56.0013L118.818 57.7713L119.472 53.9559C119.498 53.7981 119.486 53.6365 119.438 53.4839C119.389 53.3314 119.305 53.1921 119.192 53.0774L116.392 50.324L120.205 49.7602C120.375 49.7396 120.538 49.6772 120.678 49.5787C120.818 49.4802 120.93 49.3488 121.005 49.1964L122.671 45.8006L124.324 49.1964C124.4 49.3473 124.513 49.4776 124.653 49.5759C124.792 49.6741 124.954 49.7374 125.124 49.7602L128.949 50.324L126.15 53.0774ZM148.172 53.0774C148.054 53.1896 147.966 53.3282 147.915 53.4812C147.864 53.6342 147.852 53.7971 147.879 53.9559L148.532 57.7713L145.199 56.0013C145.041 55.9124 144.861 55.8671 144.679 55.8702C144.502 55.8688 144.327 55.9141 144.173 56.0013L140.88 57.7451L141.533 53.9297C141.56 53.7708 141.548 53.6079 141.497 53.455C141.445 53.302 141.357 53.1634 141.24 53.0512L138.441 50.2978L142.266 49.734C142.436 49.7112 142.598 49.6479 142.737 49.5496C142.877 49.4514 142.99 49.3211 143.066 49.1702L144.733 45.7743L146.386 49.1702C146.462 49.3211 146.575 49.4514 146.714 49.5496C146.854 49.6479 147.015 49.7112 147.185 49.734L151.011 50.2978L148.172 53.0774ZM10.6959 93.9983C8.79586 94.0152 6.92167 93.5644 5.24383 92.6872C3.66007 91.8581 2.33542 90.6209 1.4117 89.1081C0.487986 87.5953 0 85.8638 0 84.0992C0 82.3345 0.487986 80.6031 1.4117 79.0903C2.33542 77.5775 3.66007 76.3403 5.24383 75.5112C6.92167 74.6339 8.79586 74.1832 10.6959 74.2C12.5879 74.1803 14.4542 74.6313 16.1214 75.5112C17.6906 76.3248 19.0041 77.5443 19.9205 79.0382C20.8292 80.5727 21.3079 82.3168 21.3079 84.0926C21.3079 85.8685 20.8292 87.6125 19.9205 89.1471C19.0045 90.6445 17.6911 91.8683 16.1214 92.6872C14.4544 93.5676 12.5879 94.0186 10.6959 93.9983ZM1.538 51.7532V49.9176H43.8219V53.6019H1.59132V51.7532H1.538ZM10.6959 90.2354C11.7827 90.2534 12.8548 89.9864 13.8019 89.4618C14.713 88.9604 15.465 88.2207 15.9748 87.3246C16.4912 86.3488 16.7608 85.2648 16.7608 84.1647C16.7608 83.0646 16.4912 81.9807 15.9748 81.0049C15.4659 80.098 14.7145 79.3453 13.8019 78.8284C12.8479 78.3211 11.7804 78.0556 10.6959 78.0556C9.61144 78.0556 8.54402 78.3211 7.58998 78.8284C6.67441 79.3415 5.92206 80.0951 5.41712 81.0049C4.90074 81.9807 4.63112 83.0646 4.63112 84.1647C4.63112 85.2648 4.90074 86.3488 5.41712 87.3246C5.91923 88.2219 6.6675 88.9624 7.57664 89.4618C8.52691 89.9905 9.60441 90.2577 10.6959 90.2354ZM39.3295 78.1466H33.1176V93.6706H28.6786V78.1466H22.5066V74.5934H39.3295V78.1466ZM57.1789 90.0911V93.6312H42.1556V74.5934H56.819V78.1466H46.6079V82.2898H55.5659V85.725H46.5546V90.1436L57.1789 90.0911ZM78.0942 74.5934V93.6706H73.6685V78.1466H67.0033L66.8567 82.08C66.8198 84.2797 66.5968 86.4725 66.1902 88.6358C65.9775 90.0797 65.3692 91.4394 64.4306 92.5692C63.9896 93.0217 63.4531 93.3737 62.8589 93.6002C62.2647 93.8267 61.6272 93.9224 60.9914 93.8803C60.2398 93.867 59.4924 93.7658 58.7652 93.5788L59.0451 89.8551C59.3056 89.9257 59.5747 89.961 59.8449 89.96C60.3819 89.9483 60.8986 89.7558 61.3086 89.4146C61.7186 89.0733 61.9972 88.604 62.0978 88.0851C62.6233 86.1786 62.8922 84.2126 62.8976 82.2374L63.1775 74.5016L78.0942 74.5934ZM92.3443 80.8606C94.2916 80.7345 96.2219 81.2869 97.7964 82.4209C98.4481 82.9951 98.9575 83.7083 99.2856 84.506C99.6137 85.3037 99.7518 86.1647 99.6894 87.023C99.752 87.9499 99.5957 88.8785 99.2326 89.7361C98.8695 90.5937 98.3095 91.3569 97.5965 91.9661C95.8975 93.1984 93.8112 93.8019 91.7045 93.6706H82.9464V74.5934H87.4121V80.8606H92.3443ZM91.4645 90.4058C92.4286 90.4474 93.3756 90.1447 94.1306 89.5536C94.4715 89.2439 94.7372 88.8627 94.908 88.4382C95.0787 88.0138 95.1502 87.557 95.117 87.1017C95.117 85.1219 93.8773 84.1385 91.4112 84.1385H87.4121V90.4058H91.4645ZM125.577 93.9983L123.244 91.8743C121.791 92.9425 120.089 93.6354 118.294 93.8897C116.498 94.1439 114.667 93.9514 112.966 93.3297C111.925 92.9544 111.004 92.3115 110.3 91.4678C109.683 90.6989 109.349 89.7466 109.354 88.7669C109.334 87.6454 109.69 86.5487 110.367 85.6463C111.246 84.5518 112.356 83.6573 113.62 83.024C113.002 82.4342 112.488 81.7474 112.1 80.9918C111.786 80.368 111.622 79.6817 111.62 78.9857C111.605 78.1121 111.866 77.2555 112.367 76.5339C112.904 75.8011 113.638 75.2293 114.486 74.8818C115.495 74.4704 116.58 74.2695 117.672 74.2918C119.105 74.2276 120.516 74.6488 121.671 75.4849C122.165 75.8605 122.561 76.3468 122.825 76.9033C123.09 77.4598 123.215 78.0704 123.191 78.6842C123.203 79.6324 122.888 80.5567 122.298 81.3064C121.493 82.2233 120.509 82.9722 119.405 83.5092L122.951 86.7477C123.4 85.8038 123.727 84.8083 123.924 83.7845L127.376 84.8465C127.074 86.3877 126.472 87.8569 125.604 89.1733L127.936 91.258L125.577 93.9983ZM117.685 77.2419C117.127 77.2103 116.576 77.3831 116.139 77.727C115.95 77.8889 115.801 78.0913 115.704 78.3186C115.607 78.5459 115.564 78.7921 115.579 79.0382C115.577 79.416 115.678 79.7874 115.872 80.1133C116.222 80.5928 116.624 81.0325 117.072 81.4244C117.79 81.0883 118.45 80.6461 119.032 80.1133C119.21 79.9428 119.351 79.7389 119.447 79.5136C119.543 79.2884 119.592 79.0464 119.592 78.8021C119.598 78.5883 119.557 78.3755 119.472 78.1786C119.387 77.9817 119.259 77.8053 119.098 77.6614C118.695 77.3564 118.193 77.2071 117.685 77.2419ZM117.072 90.6811C118.372 90.6945 119.642 90.2995 120.698 89.5536L116.019 85.253C115.31 85.6137 114.677 86.1031 114.153 86.6953C113.794 87.1582 113.601 87.7256 113.606 88.308C113.6 88.6503 113.683 88.9885 113.849 89.2896C114.015 89.5906 114.257 89.8442 114.553 90.0256C115.303 90.4948 116.184 90.7238 117.072 90.6811ZM147.972 93.9983C146.111 94.0032 144.279 93.5527 142.64 92.6872C141.058 91.8612 139.739 90.6202 138.831 89.1019C137.923 87.5836 137.46 85.8474 137.494 84.0861C137.452 82.3017 137.913 80.5407 138.827 78.9988C139.743 77.5227 141.053 76.3211 142.613 75.5243C144.146 74.7626 145.826 74.3334 147.542 74.2655C149.257 74.1977 150.968 74.4928 152.558 75.1309C153.886 75.6856 155.06 76.5441 155.983 77.6352L153.104 80.2575C152.511 79.5515 151.766 78.9849 150.921 78.5992C150.077 78.2135 149.156 78.0186 148.225 78.0286C147.104 78.0105 145.998 78.2769 145.013 78.8021C144.083 79.3101 143.316 80.0641 142.8 80.9787C142.283 81.9545 142.014 83.0384 142.014 84.1385C142.014 85.2386 142.283 86.3225 142.8 87.2984C143.313 88.2121 144.081 88.9626 145.013 89.4618C145.996 89.9933 147.104 90.2601 148.225 90.2354C149.159 90.246 150.083 90.0486 150.928 89.6581C151.772 89.2675 152.517 88.6939 153.104 87.9802L155.983 90.6025C155.064 91.7122 153.883 92.5852 152.544 93.1461C151.095 93.7347 149.539 94.0247 147.972 93.9983ZM176.605 74.5934V93.6706H172.14V78.1466H163.382V93.6706H158.916V74.5934H176.605ZM194.561 89.5929H185.55L183.844 93.6706H179.232L187.883 74.5934H192.322L201 93.6706H196.281L194.561 89.5929ZM193.148 86.2364L190.069 78.9333L187.003 86.2364H193.148ZM14.5218 24.9271C15.925 24.954 17.3087 24.6002 18.5209 23.9044C19.6513 23.1997 20.4955 22.1282 20.907 20.8756V17.8338H14.8817C11.2647 17.8338 9.46066 18.9963 9.46955 21.3214C9.45519 21.8326 9.56934 22.3395 9.80188 22.7969C10.0344 23.2543 10.3782 23.6483 10.8026 23.9437C11.8835 24.6544 13.1703 24.9996 14.4684 24.9271H14.5218ZM62.6843 14.7263C64.2705 15.1188 65.6691 16.0405 66.6415 17.3341C67.6139 18.6276 68.0998 20.213 68.0164 21.8196C68.0695 23.0373 67.8119 24.2487 67.2671 25.3434C66.7222 26.4381 65.9075 27.3813 64.8971 28.0869C62.8265 29.5729 59.7472 30.3115 55.6592 30.3028H39.4762V0.487266H54.966C58.0688 0.316716 61.157 1.01697 63.8707 2.50643C64.8747 3.0823 65.7027 3.91321 66.268 4.91208C66.8332 5.91094 67.1148 7.04097 67.0833 8.18371C67.1145 9.57873 66.7148 10.9503 65.9369 12.1172C65.1073 13.2762 63.9612 14.1808 62.631 14.7263H62.6843ZM47.5677 12.7334H54.2329C57.3122 12.7334 58.8585 11.6582 58.8585 9.52108C58.8585 7.38391 57.3122 6.36121 54.2329 6.36121H47.5677V12.7334ZM54.9127 24.3895C58.1386 24.3895 59.7649 23.3012 59.7649 21.1116C59.8008 20.6328 59.7161 20.1526 59.5185 19.7135C59.3209 19.2745 59.0164 18.8901 58.6319 18.5942C57.5606 17.9778 56.3233 17.6987 55.086 17.7944H47.5677V24.3502L54.9127 24.3895ZM106.075 15.4606C106.075 15.5786 106.075 16.3522 105.901 17.7944H82.9598C83.3302 19.5701 84.3801 21.1379 85.8924 22.1737C87.5883 23.2892 89.5991 23.849 91.6378 23.7733C93.0682 23.8015 94.4916 23.5704 95.8369 23.0915C97.1111 22.592 98.2712 21.8476 99.2495 20.9018L103.928 25.8842C101.076 29.0921 96.9033 30.7005 91.4112 30.7092C88.2738 30.7706 85.1666 30.0964 82.3466 28.7425C79.8259 27.5308 77.7117 25.6332 76.2546 23.275C74.8211 20.8958 74.0831 18.1735 74.1217 15.4081C74.0845 12.6464 74.8127 9.92679 76.2279 7.54124C77.613 5.22108 79.6248 3.32398 82.04 2.06064C84.5774 0.730108 87.4162 0.0534891 90.2915 0.0939213C93.0753 0.0626331 95.8235 0.711375 98.2897 1.98197C100.684 3.18669 102.671 5.04975 104.008 7.34457C105.419 9.83515 106.132 12.6495 106.075 15.4999V15.4606ZM90.3448 6.54477C88.5243 6.48543 86.7436 7.077 85.3326 8.20993C83.9501 9.35733 83.0636 10.9794 82.8531 12.7465H97.7831C97.5611 10.9904 96.6761 9.38047 95.3037 8.23615C93.9113 7.10829 92.1474 6.52065 90.3448 6.58411V6.54477ZM114.899 0.447931H123.644V12.0778H136.881V0.487266H145.666V30.3028H136.881V19.1449H123.697V30.2897H114.953L114.899 0.447931ZM184.764 0.00214133C187.652 -0.0432434 190.505 0.633472 193.055 1.96886C195.444 3.23201 197.432 5.11949 198.801 7.42324C200.211 9.84716 200.925 12.6027 200.867 15.395C200.905 18.1535 200.186 20.871 198.787 23.2619C197.424 25.5726 195.435 27.4655 193.042 28.7294C190.492 30.0648 187.639 30.7415 184.75 30.6961C182.233 30.7217 179.738 30.2212 177.432 29.2276C175.278 28.2946 173.382 26.8698 171.9 25.0713C170.431 23.2719 169.429 21.1479 168.981 18.8827H164.875V30.2503H156.077V0.487266H164.875V11.4616H169.1C169.869 8.13013 171.827 5.18048 174.619 3.1489C177.562 1.04503 181.127 -0.0470385 184.764 0.0414754V0.00214133ZM184.764 23.6028C185.765 23.6283 186.761 23.4399 187.681 23.0506C188.602 22.6613 189.426 22.0803 190.096 21.3476C191.558 19.6877 192.313 17.5364 192.202 15.3426C192.323 13.1354 191.568 10.9681 190.096 9.29818C189.4 8.60205 188.57 8.04916 187.654 7.67176C186.739 7.29436 185.756 7.09999 184.764 7.09999C183.771 7.09999 182.788 7.29436 181.873 7.67176C180.957 8.04916 180.127 8.60205 179.432 9.29818C177.949 10.9632 177.189 13.1328 177.312 15.3426C177.199 17.539 177.959 19.6925 179.432 21.3476C180.098 22.0884 180.92 22.6783 181.84 23.0767C182.761 23.4751 183.758 23.6725 184.764 23.6553V23.6028Z" fill="#D7B56D"/>
</svg>
