<svg width="201" height="197" viewBox="0 0 201 197" fill="none" xmlns="http://www.w3.org/2000/svg">
<path fill-rule="evenodd" clip-rule="evenodd" d="M128.802 188.734C145.566 138.564 166.838 103.469 192.496 59.3915V164.844C192.496 171.18 189.929 177.256 185.359 181.737C180.79 186.217 174.592 188.734 168.129 188.734H128.802ZM158.383 41.7843C122.929 91.0701 103.899 133.523 83.5287 188.734H120.079C133.31 142.793 166.789 85.4798 192.496 44.6273V8.31392H59.6494L51.3648 42.0232C87.0862 42.0232 122.856 41.7843 158.383 41.7843ZM74.513 188.734C95.7851 127.957 109.089 99.6945 142.52 49.6203L142.033 50.1459H40.5947L50.9749 8.31392H32.7974C26.335 8.31392 20.1373 10.8309 15.5676 15.3112C10.998 19.7916 8.43084 25.8682 8.43084 32.2043V188.734H74.513ZM33.4553 13.0203C26.1454 18.754 7.91914 32.5387 37.159 50.8626C27.8023 29.7914 47.1006 28.1668 33.4553 13.0203ZM20.8334 49.2381C21.8826 49.3853 22.8637 49.8341 23.6528 50.5278C24.4419 51.2215 25.0035 52.129 25.2667 53.1355C25.53 54.1421 25.483 55.2026 25.1317 56.183C24.7805 57.1633 24.1407 58.0196 23.2932 58.6437C22.4458 59.2677 21.4287 59.6314 20.3704 59.6888C19.3122 59.7463 18.2604 59.4949 17.3478 58.9664C16.4353 58.438 15.703 57.6561 15.2435 56.7198C14.784 55.7834 14.6179 54.7345 14.7662 53.7056C14.8617 53.0201 15.0949 52.3599 15.4524 51.7634C15.8099 51.1669 16.2845 50.6458 16.8488 50.2303C17.4131 49.8148 18.0558 49.5132 18.7398 49.3429C19.4237 49.1726 20.1353 49.137 20.8334 49.2381ZM74.8298 76.8553C58.7478 87.1521 32.7487 64.4801 57.9925 53.8489C55.2147 60.0843 62.8414 76.7837 74.8298 76.8553ZM92.8854 76.4492C67.8366 85.2647 98.1243 106.551 112.964 88.9678C100.585 87.6777 93.3971 88.3944 92.8854 76.4492ZM14.62 111.807C11.9153 140.953 41.8862 143.653 52.3638 115.056C42.5197 124.015 26.5109 127.79 14.62 111.807ZM14.62 133.786C12.1833 160.065 37.7682 161.26 46.5158 136.844C37.89 144.871 26.5109 145.038 14.62 133.786ZM43.8599 173.492C44.9098 173.64 45.8913 174.09 46.6803 174.785C47.4692 175.48 48.0301 176.389 48.2919 177.397C48.5537 178.405 48.5047 179.466 48.151 180.447C47.7974 181.427 47.155 182.283 46.3052 182.905C45.4554 183.527 44.4364 183.889 43.3771 183.943C42.3178 183.997 41.2659 183.742 40.3545 183.21C39.4432 182.678 38.7132 181.893 38.2572 180.954C37.8011 180.015 37.6394 178.965 37.7926 177.935C37.9976 176.558 38.7515 175.316 39.889 174.483C41.0264 173.65 42.4545 173.294 43.8599 173.492ZM117.618 56.9786C118.665 57.1302 119.643 57.5825 120.428 58.2784C121.214 58.9743 121.772 59.8827 122.031 60.889C122.291 61.8952 122.241 62.9543 121.887 63.9328C121.534 64.9112 120.893 65.7651 120.045 66.3868C119.197 67.0085 118.181 67.3702 117.124 67.4263C116.067 67.4823 115.016 67.2302 114.105 66.7018C113.194 66.1734 112.463 65.3922 112.004 64.4569C111.545 63.5216 111.378 62.4739 111.526 61.4461C111.624 60.7596 111.86 60.0989 112.22 59.5022C112.58 58.9055 113.057 58.3846 113.623 57.9693C114.19 57.5541 114.834 57.2527 115.52 57.0827C116.205 56.9127 116.918 56.8773 117.618 56.9786ZM81.0676 54.1595C58.9428 60.7294 76.6817 81.9679 92.4468 72.8657C78.4604 68.5654 78.7041 65.0057 81.1164 54.1595H81.0676ZM74.9029 84.2614C57.3346 104.186 92.1301 124.588 106.36 101.247C87.7197 105.118 74.6349 92.7185 74.9516 84.2614H74.9029ZM77.8269 167.878C66.8376 185.891 41.3988 179.273 48.9525 151.154C52.1445 160.065 58.1143 170.434 77.9731 167.997L77.8269 167.878ZM84.6495 145.731C76.0481 166.779 48.7332 162.454 52.6562 136.868C57.7976 147.404 69.2986 152.014 84.6495 145.731ZM92.593 130.68C81.9448 152.468 47.6367 144.537 56.628 115.988C62.1348 130.8 81.0189 134.622 92.593 130.68ZM98.7578 114.674C90.7899 136.701 56.896 128.339 62.8902 97.2099C67.8366 109.681 74.5861 121.268 98.7578 114.674ZM119.835 79.0533C107.018 90.9984 89.4985 79.0533 109.284 67.8726C107.213 75.3264 109.26 80.8928 119.835 79.1249V79.0533ZM13.9133 174.4C23.66 176.789 34.9904 185.915 45.1269 150.939C29.9465 167.233 20.8334 153.472 13.9133 174.4ZM98.0755 53.825C83.4556 58.8181 88.3289 79.1249 106.555 63.3812C101.462 65.7224 94.2256 63.2617 98.0755 53.825ZM37.5002 54.5418C-1.19396 78.241 43.3238 104.711 63.1338 83.9508C46.9057 88.2271 30.0927 65.4596 37.5002 54.5418ZM17.4952 83.6163C3.63062 116.227 45.5899 125.854 57.7976 96.4932C39.4495 108.056 25.9992 100.555 17.4952 83.6163ZM148.271 173.492C148.971 173.591 149.646 173.824 150.254 174.178C150.863 174.532 151.395 175.001 151.819 175.556C152.243 176.112 152.552 176.744 152.727 177.417C152.902 178.089 152.94 178.789 152.839 179.476C152.739 180.163 152.501 180.824 152.14 181.421C151.778 182.018 151.301 182.54 150.734 182.955C150.167 183.371 149.522 183.674 148.836 183.846C148.15 184.017 147.436 184.055 146.736 183.956C146.038 183.857 145.367 183.624 144.761 183.271C144.155 182.918 143.626 182.452 143.204 181.898C142.782 181.345 142.476 180.715 142.302 180.045C142.128 179.376 142.09 178.679 142.191 177.995C142.292 177.311 142.529 176.653 142.889 176.059C143.249 175.465 143.725 174.947 144.29 174.533C144.854 174.119 145.496 173.818 146.179 173.648C146.863 173.478 147.573 173.441 148.271 173.54V173.492ZM177.291 177.243C173.466 169.43 156.141 153.352 143.008 168.738C165.863 166.994 153.51 188.734 177.291 177.243ZM184.431 152.468C196.468 122.701 156.823 121.244 151.073 147.141C156.896 139.281 183.334 134.312 184.431 152.468ZM188.354 85.7187C187.891 94.0086 191.497 101.2 166.205 113.694C178.924 103.613 167.52 97.5922 188.354 85.7187ZM186.307 115.152C180.581 113.408 171.224 103.35 155.8 132.735C171.59 117.063 176.536 134.789 186.307 115.152ZM180.093 172.13C195.639 143.342 152.51 136.175 145.249 161.642C151.195 154.38 172.613 154.308 180.093 172.13ZM201 7.98784e-05H32.8705C28.5574 -0.00934556 24.2847 0.815449 20.297 2.42724C16.3094 4.03903 12.6852 6.40616 9.63198 9.3931C6.5787 12.38 4.15632 15.9281 2.50353 19.8342C0.850736 23.7403 -1.07131e-05 27.9276 1.0118e-10 32.1565L1.01174e-10 197H168.129C172.443 197.009 176.715 196.185 180.703 194.573C184.691 192.961 188.315 190.594 191.368 187.607C194.421 184.62 196.844 181.072 198.496 177.166C200.149 173.26 201 169.072 201 164.844V7.98784e-05Z" fill="#D7B56D"/>
</svg>
