<svg width="25" height="25" viewBox="0 0 25 25" fill="none" xmlns="http://www.w3.org/2000/svg">
<path d="M6.62493 20.25H18.3749C18.5348 20.2505 18.6884 20.3123 18.8041 20.4226C18.9198 20.5329 18.9889 20.6833 18.9971 20.8429C19.0053 21.0026 18.952 21.1593 18.8482 21.2809C18.7444 21.4025 18.5979 21.4796 18.4389 21.4965L18.3749 21.5H6.62493C6.46507 21.4995 6.31148 21.4377 6.19576 21.3274C6.08004 21.2171 6.01097 21.0667 6.00278 20.9071C5.99458 20.7474 6.04787 20.5907 6.15169 20.4691C6.25551 20.3475 6.40196 20.2704 6.56093 20.2535L6.62493 20.25H18.3749H6.62493ZM12.3109 3.503L12.3749 3.5C12.6984 3.5 12.9649 3.746 12.9969 4.061L12.9999 4.125V16.27L15.8234 13.447C15.8811 13.3873 15.9501 13.3397 16.0263 13.307C16.1026 13.2743 16.1846 13.257 16.2676 13.2563C16.3506 13.2556 16.4329 13.2715 16.5097 13.3029C16.5865 13.3344 16.6563 13.3808 16.7149 13.4395C16.7736 13.4982 16.82 13.568 16.8514 13.6448C16.8828 13.7216 16.8986 13.8039 16.8978 13.8869C16.8971 13.9699 16.8798 14.0519 16.8471 14.1282C16.8143 14.2044 16.7666 14.2734 16.7069 14.331L12.8179 18.22C12.7007 18.3371 12.5419 18.4029 12.3762 18.4029C12.2105 18.4029 12.0516 18.3371 11.9344 18.22L8.04493 14.331C7.92771 14.2138 7.86185 14.0548 7.86185 13.889C7.86185 13.7232 7.92771 13.5642 8.04493 13.447C8.16216 13.3298 8.32115 13.2639 8.48693 13.2639C8.65272 13.2639 8.81171 13.3298 8.92893 13.447L11.7499 16.268V4.125C11.7499 3.8015 11.9959 3.535 12.3109 3.503L12.3749 3.5L12.3109 3.503Z" fill="white"/>
</svg>
