<svg width="35" height="24" viewBox="0 0 35 24" fill="none" xmlns="http://www.w3.org/2000/svg">
<path d="M32.5002 18.5H29.7002C28.5956 18.5 27.7002 17.6046 27.7002 16.5V13.7C27.7002 12.5954 28.5956 11.7 29.7002 11.7H32.5002C33.6048 11.7 34.5002 12.5954 34.5002 13.7V16.5C34.5002 17.6046 33.6048 18.5 32.5002 18.5Z" fill="#D7B56D"/>
<path d="M5.29999 18.5H2.5C1.39543 18.5 0.5 17.6046 0.5 16.5V13.7C0.5 12.5954 1.39543 11.7 2.5 11.7H5.29999C6.40456 11.7 7.29999 12.5954 7.29999 13.7V16.5C7.29999 17.6046 6.40456 18.5 5.29999 18.5Z" fill="#D7B56D"/>
<path d="M18.9006 18.5H16.1006C14.996 18.5 14.1006 17.6046 14.1006 16.5V13.7C14.1006 12.5954 14.996 11.7 16.1006 11.7H18.9006C20.0051 11.7 20.9006 12.5954 20.9006 13.7V16.5C20.9006 17.6046 20.0051 18.5 18.9006 18.5Z" fill="#D7B56D"/>
<path d="M12.0998 11.7001H9.2998C8.19524 11.7001 7.2998 10.8046 7.2998 9.70007V6.90009C7.2998 5.79552 8.19524 4.90009 9.29981 4.90009H12.0998C13.2044 4.90009 14.0998 5.79552 14.0998 6.90009V9.70007C14.0998 10.8046 13.2044 11.7001 12.0998 11.7001Z" fill="#D7B56D"/>
<path d="M25.6994 11.7001H22.8994C21.7948 11.7001 20.8994 10.8046 20.8994 9.70007V6.90009C20.8994 5.79552 21.7948 4.90009 22.8994 4.90009H25.6994C26.804 4.90009 27.6994 5.79552 27.6994 6.90009V9.70007C27.6994 10.8046 26.804 11.7001 25.6994 11.7001Z" fill="#D7B56D"/>
</svg>
