<svg width="24" height="24" viewBox="0 0 24 24" fill="none" xmlns="http://www.w3.org/2000/svg">
<path d="M21.8438 3.75H2.15625C0.967312 3.75 0 4.71731 0 5.90625V18.0938C0 19.2827 0.967312 20.25 2.15625 20.25H21.8438C23.0327 20.25 24 19.2827 24 18.0938V5.90625C24 4.71731 23.0327 3.75 21.8438 3.75ZM7.5 10.3125C7.5 11.243 6.74302 12 5.8125 12H4.6875C3.75698 12 3 11.243 3 10.3125V9.1875C3 8.25698 3.75698 7.5 4.6875 7.5H5.8125C6.74302 7.5 7.5 8.25698 7.5 9.1875V10.3125ZM17.1421 14.1427C16.9796 14.1427 16.8159 14.0901 16.6783 13.9816C16.353 13.7252 16.2972 13.2536 16.5536 12.9283C16.7639 12.6617 16.875 12.3406 16.875 12C16.875 11.6594 16.7639 11.3383 16.5537 11.0716C16.2972 10.7464 16.3531 10.2748 16.6784 10.0183C17.0036 9.76195 17.4752 9.81769 17.7317 10.143C18.1465 10.6693 18.375 11.3288 18.375 12C18.375 12.6712 18.1465 13.3307 17.7316 13.857C17.5837 14.0447 17.364 14.1427 17.1421 14.1427ZM19.5627 15.7554C19.4146 15.9205 19.2099 16.0045 19.0043 16.0045C18.8258 16.0045 18.6468 15.9413 18.5036 15.8127C18.1953 15.5361 18.1696 15.0619 18.4463 14.7536C19.1258 13.9964 19.5 13.0185 19.5 12C19.5 10.9815 19.1258 10.0036 18.4463 9.24638C18.1696 8.93808 18.1953 8.46389 18.5036 8.18728C18.8119 7.91067 19.286 7.93627 19.5627 8.24456C20.4895 9.27741 21 10.6111 21 12C21 13.3889 20.4895 14.7226 19.5627 15.7554Z" fill="#D7B56D"/>
</svg>
