<svg width="24" height="24" viewBox="0 0 24 24" fill="none" xmlns="http://www.w3.org/2000/svg">
<g clip-path="url(#clip0)">
<path d="M7.17119 4.84766H0.75517C0.338127 4.84766 0 5.18574 0 5.60283V9.43078C0 9.84787 0.338127 10.186 0.75517 10.186C1.75544 10.186 2.56923 10.9997 2.56923 12.0001C2.56923 13.0004 1.75544 13.8141 0.75517 13.8141C0.338127 13.8141 0 14.1522 0 14.5692V18.3972C0 18.8143 0.338127 19.1524 0.75517 19.1524H7.17119V4.84766Z" fill="#D7B56D"/>
<path d="M23.2449 10.186C23.662 10.186 24.0001 9.84787 24.0001 9.43078V5.60283C24.0001 5.18574 23.662 4.84766 23.2449 4.84766H8.68164V19.1525H23.2449C23.662 19.1525 24.0001 18.8144 24.0001 18.3973V14.5693C24.0001 14.1522 23.662 13.8141 23.2449 13.8141C22.2447 13.8141 21.4309 13.0004 21.4309 12.0001C21.4309 10.9997 22.2447 10.186 23.2449 10.186Z" fill="#D7B56D"/>
</g>
<defs>
<clipPath id="clip0">
<rect width="24" height="24" fill="white"/>
</clipPath>
</defs>
</svg>
