<svg width="149" height="48" viewBox="0 0 149 48" fill="none" xmlns="http://www.w3.org/2000/svg">
<path d="M7.518 35.236H4.466V44H3.304V35.236H0.252V34.2H7.518V35.236ZM7.3687 37H8.1387L8.3487 37.84H8.4047C8.61937 37.5133 8.8947 37.266 9.2307 37.098C9.57604 36.9207 9.96804 36.832 10.4067 36.832C11.34 36.832 12.0354 37.1073 12.4927 37.658C12.95 38.2087 13.1787 39.1093 13.1787 40.36C13.1787 40.948 13.0994 41.48 12.9407 41.956C12.7914 42.4227 12.5767 42.8193 12.2967 43.146C12.0167 43.4727 11.676 43.7247 11.2747 43.902C10.8827 44.0793 10.444 44.168 9.9587 44.168C9.61337 44.168 9.33804 44.1447 9.1327 44.098C8.9367 44.0607 8.72204 43.9907 8.4887 43.888V46.8H7.3687V37ZM10.1967 37.812C9.7207 37.812 9.3427 37.938 9.0627 38.19C8.79204 38.4327 8.6007 38.806 8.4887 39.31V42.782C8.6567 42.9127 8.84804 43.0153 9.0627 43.09C9.27737 43.1553 9.56204 43.188 9.9167 43.188C10.5607 43.188 11.0694 42.95 11.4427 42.474C11.8254 41.9887 12.0167 41.2793 12.0167 40.346C12.0167 39.9633 11.984 39.618 11.9187 39.31C11.8534 38.9927 11.746 38.7267 11.5967 38.512C11.4567 38.288 11.27 38.1153 11.0367 37.994C10.8127 37.8727 10.5327 37.812 10.1967 37.812ZM14.9009 37.518C15.2556 37.3033 15.6663 37.1447 16.1329 37.042C16.6089 36.9393 17.1036 36.888 17.6169 36.888C18.1023 36.888 18.4896 36.9533 18.7789 37.084C19.0776 37.2147 19.3016 37.3873 19.4509 37.602C19.6096 37.8073 19.7123 38.036 19.7589 38.288C19.8149 38.54 19.8429 38.792 19.8429 39.044C19.8429 39.604 19.8289 40.15 19.8009 40.682C19.7729 41.214 19.7589 41.718 19.7589 42.194C19.7589 42.5393 19.7729 42.866 19.8009 43.174C19.8289 43.482 19.8803 43.7667 19.9549 44.028H19.1289L18.8349 43.048H18.7649C18.6809 43.1787 18.5736 43.3093 18.4429 43.44C18.3216 43.5613 18.1723 43.6733 17.9949 43.776C17.8176 43.8693 17.6123 43.9487 17.3789 44.014C17.1456 44.0793 16.8796 44.112 16.5809 44.112C16.2823 44.112 16.0023 44.0653 15.7409 43.972C15.4889 43.8787 15.2696 43.748 15.0829 43.58C14.8963 43.4027 14.7469 43.1927 14.6349 42.95C14.5323 42.7073 14.4809 42.432 14.4809 42.124C14.4809 41.7133 14.5649 41.3727 14.7329 41.102C14.9009 40.822 15.1343 40.6027 15.4329 40.444C15.7409 40.276 16.1049 40.1593 16.5249 40.094C16.9543 40.0193 17.4256 39.982 17.9389 39.982C18.0696 39.982 18.1956 39.982 18.3169 39.982C18.4476 39.982 18.5783 39.9913 18.7089 40.01C18.7369 39.73 18.7509 39.478 18.7509 39.254C18.7509 38.7407 18.6483 38.3813 18.4429 38.176C18.2376 37.9707 17.8643 37.868 17.3229 37.868C17.1643 37.868 16.9916 37.882 16.8049 37.91C16.6276 37.9287 16.4409 37.9613 16.2449 38.008C16.0583 38.0453 15.8763 38.0967 15.6989 38.162C15.5309 38.218 15.3816 38.2833 15.2509 38.358L14.9009 37.518ZM16.8889 43.132C17.1503 43.132 17.3836 43.0993 17.5889 43.034C17.7943 42.9593 17.9716 42.8707 18.1209 42.768C18.2703 42.656 18.3916 42.5347 18.4849 42.404C18.5876 42.2733 18.6623 42.1473 18.7089 42.026V40.864C18.5783 40.8547 18.4429 40.85 18.3029 40.85C18.1723 40.8407 18.0416 40.836 17.9109 40.836C17.6216 40.836 17.3369 40.8547 17.0569 40.892C16.7863 40.92 16.5436 40.9807 16.3289 41.074C16.1236 41.158 15.9556 41.2793 15.8249 41.438C15.7036 41.5873 15.6429 41.7787 15.6429 42.012C15.6429 42.3387 15.7596 42.6093 15.9929 42.824C16.2263 43.0293 16.5249 43.132 16.8889 43.132ZM26.3122 40.906H23.1482V44H22.0282V37H23.1482V39.926H26.3122V37H27.4322V44H26.3122V40.906ZM34.4328 43.538C34.1528 43.7433 33.8214 43.8973 33.4388 44C33.0561 44.112 32.6548 44.168 32.2348 44.168C31.6934 44.168 31.2361 44.084 30.8628 43.916C30.4894 43.7387 30.1814 43.4913 29.9388 43.174C29.7054 42.8473 29.5328 42.46 29.4208 42.012C29.3181 41.5547 29.2668 41.0507 29.2668 40.5C29.2668 39.3147 29.5281 38.4093 30.0508 37.784C30.5734 37.1493 31.3248 36.832 32.3048 36.832C32.7528 36.832 33.1308 36.8693 33.4388 36.944C33.7561 37.0093 34.0408 37.1073 34.2928 37.238L33.9708 38.204C33.7561 38.0827 33.5181 37.9893 33.2568 37.924C32.9954 37.8493 32.7154 37.812 32.4168 37.812C31.0914 37.812 30.4288 38.708 30.4288 40.5C30.4288 40.8547 30.4614 41.1953 30.5268 41.522C30.6014 41.8393 30.7181 42.124 30.8768 42.376C31.0448 42.6187 31.2594 42.8147 31.5208 42.964C31.7914 43.1133 32.1228 43.188 32.5148 43.188C32.8508 43.188 33.1494 43.1367 33.4108 43.034C33.6814 42.9313 33.9008 42.8147 34.0688 42.684L34.4328 43.538ZM40.2592 37.98H37.1652V44H36.0452V37H41.3792V44H40.2592V37.98ZM43.2154 40.5C43.2154 39.3147 43.4767 38.4093 43.9994 37.784C44.5314 37.1493 45.292 36.832 46.2814 36.832C46.804 36.832 47.2567 36.9207 47.6394 37.098C48.0314 37.266 48.3534 37.5133 48.6054 37.84C48.8574 38.1573 49.044 38.5447 49.1654 39.002C49.2867 39.45 49.3474 39.9493 49.3474 40.5C49.3474 41.6853 49.0814 42.5953 48.5494 43.23C48.0267 43.8553 47.2707 44.168 46.2814 44.168C45.7587 44.168 45.3014 44.084 44.9094 43.916C44.5267 43.7387 44.2094 43.4913 43.9574 43.174C43.7054 42.8473 43.5187 42.46 43.3974 42.012C43.276 41.5547 43.2154 41.0507 43.2154 40.5ZM44.3774 40.5C44.3774 40.8547 44.41 41.1953 44.4754 41.522C44.55 41.8487 44.662 42.1333 44.8114 42.376C44.9607 42.6187 45.1567 42.8147 45.3994 42.964C45.642 43.1133 45.936 43.188 46.2814 43.188C47.5507 43.1973 48.1854 42.3013 48.1854 40.5C48.1854 40.136 48.148 39.7907 48.0734 39.464C48.008 39.1373 47.9007 38.8527 47.7514 38.61C47.602 38.3673 47.406 38.176 47.1634 38.036C46.9207 37.8867 46.6267 37.812 46.2814 37.812C45.012 37.8027 44.3774 38.6987 44.3774 40.5ZM51.1832 37H51.9532L52.1632 37.84H52.2192C52.4339 37.5133 52.7092 37.266 53.0452 37.098C53.3906 36.9207 53.7826 36.832 54.2212 36.832C55.1546 36.832 55.8499 37.1073 56.3072 37.658C56.7646 38.2087 56.9932 39.1093 56.9932 40.36C56.9932 40.948 56.9139 41.48 56.7552 41.956C56.6059 42.4227 56.3912 42.8193 56.1112 43.146C55.8312 43.4727 55.4906 43.7247 55.0892 43.902C54.6972 44.0793 54.2586 44.168 53.7732 44.168C53.4279 44.168 53.1526 44.1447 52.9472 44.098C52.7512 44.0607 52.5366 43.9907 52.3032 43.888V46.8H51.1832V37ZM54.0112 37.812C53.5352 37.812 53.1572 37.938 52.8772 38.19C52.6066 38.4327 52.4152 38.806 52.3032 39.31V42.782C52.4712 42.9127 52.6626 43.0153 52.8772 43.09C53.0919 43.1553 53.3766 43.188 53.7312 43.188C54.3752 43.188 54.8839 42.95 55.2572 42.474C55.6399 41.9887 55.8312 41.2793 55.8312 40.346C55.8312 39.9633 55.7986 39.618 55.7332 39.31C55.6679 38.9927 55.5606 38.7267 55.4112 38.512C55.2712 38.288 55.0846 38.1153 54.8512 37.994C54.6272 37.8727 54.3472 37.812 54.0112 37.812ZM63.0747 37.98H60.8767V44H59.7567V37.98H57.5587V37H63.0747V37.98ZM68.5408 40.906H65.3768V44H64.2568V37H65.3768V39.926H68.5408V37H69.6608V44H68.5408V40.906ZM71.7754 37.518C72.13 37.3033 72.5407 37.1447 73.0074 37.042C73.4834 36.9393 73.978 36.888 74.4914 36.888C74.9767 36.888 75.364 36.9533 75.6534 37.084C75.952 37.2147 76.176 37.3873 76.3254 37.602C76.484 37.8073 76.5867 38.036 76.6334 38.288C76.6894 38.54 76.7174 38.792 76.7174 39.044C76.7174 39.604 76.7034 40.15 76.6754 40.682C76.6474 41.214 76.6334 41.718 76.6334 42.194C76.6334 42.5393 76.6474 42.866 76.6754 43.174C76.7034 43.482 76.7547 43.7667 76.8294 44.028H76.0034L75.7094 43.048H75.6394C75.5554 43.1787 75.448 43.3093 75.3174 43.44C75.196 43.5613 75.0467 43.6733 74.8694 43.776C74.692 43.8693 74.4867 43.9487 74.2534 44.014C74.02 44.0793 73.754 44.112 73.4554 44.112C73.1567 44.112 72.8767 44.0653 72.6154 43.972C72.3634 43.8787 72.144 43.748 71.9574 43.58C71.7707 43.4027 71.6214 43.1927 71.5094 42.95C71.4067 42.7073 71.3554 42.432 71.3554 42.124C71.3554 41.7133 71.4394 41.3727 71.6074 41.102C71.7754 40.822 72.0087 40.6027 72.3074 40.444C72.6154 40.276 72.9794 40.1593 73.3994 40.094C73.8287 40.0193 74.3 39.982 74.8134 39.982C74.944 39.982 75.07 39.982 75.1914 39.982C75.322 39.982 75.4527 39.9913 75.5834 40.01C75.6114 39.73 75.6254 39.478 75.6254 39.254C75.6254 38.7407 75.5227 38.3813 75.3174 38.176C75.112 37.9707 74.7387 37.868 74.1974 37.868C74.0387 37.868 73.866 37.882 73.6794 37.91C73.502 37.9287 73.3154 37.9613 73.1194 38.008C72.9327 38.0453 72.7507 38.0967 72.5734 38.162C72.4054 38.218 72.256 38.2833 72.1254 38.358L71.7754 37.518ZM73.7634 43.132C74.0247 43.132 74.258 43.0993 74.4634 43.034C74.6687 42.9593 74.846 42.8707 74.9954 42.768C75.1447 42.656 75.266 42.5347 75.3594 42.404C75.462 42.2733 75.5367 42.1473 75.5834 42.026V40.864C75.4527 40.8547 75.3174 40.85 75.1774 40.85C75.0467 40.8407 74.916 40.836 74.7854 40.836C74.496 40.836 74.2114 40.8547 73.9314 40.892C73.6607 40.92 73.418 40.9807 73.2034 41.074C72.998 41.158 72.83 41.2793 72.6994 41.438C72.578 41.5873 72.5174 41.7787 72.5174 42.012C72.5174 42.3387 72.634 42.6093 72.8674 42.824C73.1007 43.0293 73.3994 43.132 73.7634 43.132ZM82.3887 41.102L81.3107 41.27L79.4627 44H78.1047L79.7847 41.606L80.3447 41.088C79.8594 41.0133 79.444 40.8173 79.0987 40.5C78.7627 40.1827 78.5947 39.7533 78.5947 39.212C78.5947 38.792 78.6647 38.4327 78.8047 38.134C78.954 37.8353 79.164 37.588 79.4347 37.392C79.7054 37.196 80.0274 37.056 80.4007 36.972C80.774 36.8787 81.194 36.832 81.6607 36.832C82.006 36.832 82.328 36.8553 82.6267 36.902C82.9254 36.9487 83.2194 37 83.5087 37.056V44H82.3887V41.102ZM82.3887 37.952C82.2674 37.9053 82.132 37.8727 81.9827 37.854C81.8334 37.826 81.7027 37.812 81.5907 37.812C80.9934 37.812 80.536 37.9193 80.2187 38.134C79.9107 38.3487 79.7567 38.6893 79.7567 39.156C79.7567 39.576 79.92 39.9027 80.2467 40.136C80.5827 40.36 81.0214 40.472 81.5627 40.472C81.572 40.472 81.586 40.472 81.6047 40.472C81.6234 40.472 81.6607 40.472 81.7167 40.472C81.7727 40.472 81.852 40.472 81.9547 40.472C82.0574 40.4627 82.202 40.4533 82.3887 40.444V37.952ZM91.1836 40.85H90.5396V44H89.4196V37H90.5396V40.164L91.1416 39.968L93.3816 37H94.5996L92.4296 39.814L91.8416 40.276L92.5696 40.836L94.9076 44H93.5216L91.1836 40.85ZM95.6328 40.5C95.6328 39.3147 95.8941 38.4093 96.4168 37.784C96.9488 37.1493 97.7095 36.832 98.6988 36.832C99.2215 36.832 99.6741 36.9207 100.057 37.098C100.449 37.266 100.771 37.5133 101.023 37.84C101.275 38.1573 101.461 38.5447 101.583 39.002C101.704 39.45 101.765 39.9493 101.765 40.5C101.765 41.6853 101.499 42.5953 100.967 43.23C100.444 43.8553 99.6881 44.168 98.6988 44.168C98.1761 44.168 97.7188 44.084 97.3268 43.916C96.9441 43.7387 96.6268 43.4913 96.3748 43.174C96.1228 42.8473 95.9361 42.46 95.8148 42.012C95.6935 41.5547 95.6328 41.0507 95.6328 40.5ZM96.7948 40.5C96.7948 40.8547 96.8275 41.1953 96.8928 41.522C96.9675 41.8487 97.0795 42.1333 97.2288 42.376C97.3781 42.6187 97.5741 42.8147 97.8168 42.964C98.0595 43.1133 98.3535 43.188 98.6988 43.188C99.9681 43.1973 100.603 42.3013 100.603 40.5C100.603 40.136 100.565 39.7907 100.491 39.464C100.425 39.1373 100.318 38.8527 100.169 38.61C100.019 38.3673 99.8235 38.176 99.5808 38.036C99.3381 37.8867 99.0441 37.812 98.6988 37.812C97.4295 37.8027 96.7948 38.6987 96.7948 40.5ZM109.383 39.842L109.467 38.512H109.397L108.893 39.59L107.199 42.334H106.807L105.043 39.59L104.581 38.512H104.525L104.637 39.828V44H103.601V37H104.707L106.667 40.136L107.073 40.948H107.101L107.521 40.108L109.355 37H110.475V44H109.383V39.842ZM116.908 37.98H113.814V44H112.694V37H118.028V44H116.908V37.98ZM120.144 37.518C120.499 37.3033 120.91 37.1447 121.376 37.042C121.852 36.9393 122.347 36.888 122.86 36.888C123.346 36.888 123.733 36.9533 124.022 37.084C124.321 37.2147 124.545 37.3873 124.694 37.602C124.853 37.8073 124.956 38.036 125.002 38.288C125.058 38.54 125.086 38.792 125.086 39.044C125.086 39.604 125.072 40.15 125.044 40.682C125.016 41.214 125.002 41.718 125.002 42.194C125.002 42.5393 125.016 42.866 125.044 43.174C125.072 43.482 125.124 43.7667 125.198 44.028H124.372L124.078 43.048H124.008C123.924 43.1787 123.817 43.3093 123.686 43.44C123.565 43.5613 123.416 43.6733 123.238 43.776C123.061 43.8693 122.856 43.9487 122.622 44.014C122.389 44.0793 122.123 44.112 121.824 44.112C121.526 44.112 121.246 44.0653 120.984 43.972C120.732 43.8787 120.513 43.748 120.326 43.58C120.14 43.4027 119.99 43.1927 119.878 42.95C119.776 42.7073 119.724 42.432 119.724 42.124C119.724 41.7133 119.808 41.3727 119.976 41.102C120.144 40.822 120.378 40.6027 120.676 40.444C120.984 40.276 121.348 40.1593 121.768 40.094C122.198 40.0193 122.669 39.982 123.182 39.982C123.313 39.982 123.439 39.982 123.56 39.982C123.691 39.982 123.822 39.9913 123.952 40.01C123.98 39.73 123.994 39.478 123.994 39.254C123.994 38.7407 123.892 38.3813 123.686 38.176C123.481 37.9707 123.108 37.868 122.566 37.868C122.408 37.868 122.235 37.882 122.048 37.91C121.871 37.9287 121.684 37.9613 121.488 38.008C121.302 38.0453 121.12 38.0967 120.942 38.162C120.774 38.218 120.625 38.2833 120.494 38.358L120.144 37.518ZM122.132 43.132C122.394 43.132 122.627 43.0993 122.832 43.034C123.038 42.9593 123.215 42.8707 123.364 42.768C123.514 42.656 123.635 42.5347 123.728 42.404C123.831 42.2733 123.906 42.1473 123.952 42.026V40.864C123.822 40.8547 123.686 40.85 123.546 40.85C123.416 40.8407 123.285 40.836 123.154 40.836C122.865 40.836 122.58 40.8547 122.3 40.892C122.03 40.92 121.787 40.9807 121.572 41.074C121.367 41.158 121.199 41.2793 121.068 41.438C120.947 41.5873 120.886 41.7787 120.886 42.012C120.886 42.3387 121.003 42.6093 121.236 42.824C121.47 43.0293 121.768 43.132 122.132 43.132ZM131.556 40.906H128.392V44H127.272V37H128.392V39.926H131.556V37H132.676V44H131.556V40.906ZM139.27 39.856L139.312 38.988H139.27L138.696 39.884L135.546 44H134.902V37H136.022V41.27L135.98 42.096H136.036L136.582 41.228L139.732 37H140.39V44H139.27V39.856ZM146.101 41.102L145.023 41.27L143.175 44H141.817L143.497 41.606L144.057 41.088C143.571 41.0133 143.156 40.8173 142.811 40.5C142.475 40.1827 142.307 39.7533 142.307 39.212C142.307 38.792 142.377 38.4327 142.517 38.134C142.666 37.8353 142.876 37.588 143.147 37.392C143.417 37.196 143.739 37.056 144.113 36.972C144.486 36.8787 144.906 36.832 145.373 36.832C145.718 36.832 146.04 36.8553 146.339 36.902C146.637 36.9487 146.931 37 147.221 37.056V44H146.101V41.102ZM146.101 37.952C145.979 37.9053 145.844 37.8727 145.695 37.854C145.545 37.826 145.415 37.812 145.303 37.812C144.705 37.812 144.248 37.9193 143.931 38.134C143.623 38.3487 143.469 38.6893 143.469 39.156C143.469 39.576 143.632 39.9027 143.959 40.136C144.295 40.36 144.733 40.472 145.275 40.472C145.284 40.472 145.298 40.472 145.317 40.472C145.335 40.472 145.373 40.472 145.429 40.472C145.485 40.472 145.564 40.472 145.667 40.472C145.769 40.4627 145.914 40.4533 146.101 40.444V37.952Z" fill="#4F4F4F"/>
<path d="M6.058 19.226H5.122V27H1.56V8.8H5.122V16.86L5.954 16.496L10.972 8.8H15.028L9.724 16.444L8.32 17.432L9.776 18.446L15.834 27H11.44L6.058 19.226ZM17.527 14.754C18.2204 14.442 19.0437 14.1993 19.997 14.026C20.9504 13.8353 21.947 13.74 22.987 13.74C23.8884 13.74 24.6424 13.8527 25.249 14.078C25.8557 14.286 26.3324 14.5893 26.679 14.988C27.043 15.3867 27.2944 15.8633 27.433 16.418C27.589 16.9727 27.667 17.5967 27.667 18.29C27.667 19.0527 27.641 19.824 27.589 20.604C27.537 21.3667 27.5024 22.1207 27.485 22.866C27.485 23.6113 27.511 24.3393 27.563 25.05C27.615 25.7433 27.745 26.402 27.953 27.026H25.197L24.651 25.232H24.521C24.1744 25.7693 23.689 26.2373 23.065 26.636C22.4584 27.0173 21.6697 27.208 20.699 27.208C20.0924 27.208 19.5464 27.1213 19.061 26.948C18.5757 26.7573 18.1597 26.4973 17.813 26.168C17.4664 25.8213 17.1977 25.4227 17.007 24.972C16.8164 24.504 16.721 23.984 16.721 23.412C16.721 22.6147 16.8944 21.9473 17.241 21.41C17.605 20.8553 18.1164 20.4133 18.775 20.084C19.451 19.7373 20.2484 19.5033 21.167 19.382C22.103 19.2433 23.143 19.2 24.287 19.252C24.4084 18.2813 24.339 17.588 24.079 17.172C23.819 16.7387 23.2384 16.522 22.337 16.522C21.661 16.522 20.9417 16.5913 20.179 16.73C19.4337 16.8687 18.8184 17.0507 18.333 17.276L17.527 14.754ZM21.817 24.426C22.493 24.426 23.0304 24.2787 23.429 23.984C23.8277 23.672 24.1224 23.3427 24.313 22.996V21.306C23.7757 21.254 23.2557 21.2453 22.753 21.28C22.2677 21.3147 21.8344 21.3927 21.453 21.514C21.0717 21.6353 20.7684 21.8087 20.543 22.034C20.3177 22.2593 20.205 22.5453 20.205 22.892C20.205 23.3773 20.3437 23.7587 20.621 24.036C20.9157 24.296 21.3144 24.426 21.817 24.426ZM41.6315 21.046L41.8395 18.342H41.7095L40.6695 20.578L38.2255 24.608H37.0035L34.3255 20.578L33.3375 18.342H33.1815L33.5195 21.02V27H30.5035V14H34.0135L37.0035 18.888L37.7315 20.526H37.8355L38.5895 18.836L41.3455 14H44.8815V27H41.6315V21.046ZM99.2105 11.972H93.9065V27H90.3445V11.972H85.0145V8.8H99.2105V11.972ZM97.8902 14H100.36L100.75 15.56H100.854C101.305 14.9013 101.834 14.416 102.44 14.104C103.064 13.792 103.818 13.636 104.702 13.636C106.332 13.636 107.554 14.156 108.368 15.196C109.183 16.2187 109.59 17.874 109.59 20.162C109.59 21.2713 109.46 22.2767 109.2 23.178C108.94 24.062 108.55 24.816 108.03 25.44C107.528 26.064 106.904 26.5407 106.158 26.87C105.43 27.1993 104.59 27.364 103.636 27.364C103.099 27.364 102.657 27.3207 102.31 27.234C101.964 27.1647 101.617 27.0433 101.27 26.87V32.2H97.8902V14ZM103.688 16.496C103.03 16.496 102.51 16.6607 102.128 16.99C101.764 17.3193 101.478 17.8133 101.27 18.472V23.88C101.513 24.0707 101.773 24.2267 102.05 24.348C102.345 24.452 102.726 24.504 103.194 24.504C104.165 24.504 104.893 24.166 105.378 23.49C105.864 22.7967 106.106 21.6613 106.106 20.084C106.106 18.94 105.916 18.056 105.534 17.432C105.153 16.808 104.538 16.496 103.688 16.496ZM111.853 14.754C112.547 14.442 113.37 14.1993 114.323 14.026C115.277 13.8353 116.273 13.74 117.313 13.74C118.215 13.74 118.969 13.8527 119.575 14.078C120.182 14.286 120.659 14.5893 121.005 14.988C121.369 15.3867 121.621 15.8633 121.759 16.418C121.915 16.9727 121.993 17.5967 121.993 18.29C121.993 19.0527 121.967 19.824 121.915 20.604C121.863 21.3667 121.829 22.1207 121.811 22.866C121.811 23.6113 121.837 24.3393 121.889 25.05C121.941 25.7433 122.071 26.402 122.279 27.026H119.523L118.977 25.232H118.847C118.501 25.7693 118.015 26.2373 117.391 26.636C116.785 27.0173 115.996 27.208 115.025 27.208C114.419 27.208 113.873 27.1213 113.387 26.948C112.902 26.7573 112.486 26.4973 112.139 26.168C111.793 25.8213 111.524 25.4227 111.333 24.972C111.143 24.504 111.047 23.984 111.047 23.412C111.047 22.6147 111.221 21.9473 111.567 21.41C111.931 20.8553 112.443 20.4133 113.101 20.084C113.777 19.7373 114.575 19.5033 115.493 19.382C116.429 19.2433 117.469 19.2 118.613 19.252C118.735 18.2813 118.665 17.588 118.405 17.172C118.145 16.7387 117.565 16.522 116.663 16.522C115.987 16.522 115.268 16.5913 114.505 16.73C113.76 16.8687 113.145 17.0507 112.659 17.276L111.853 14.754ZM116.143 24.426C116.819 24.426 117.357 24.2787 117.755 23.984C118.154 23.672 118.449 23.3427 118.639 22.996V21.306C118.102 21.254 117.582 21.2453 117.079 21.28C116.594 21.3147 116.161 21.3927 115.779 21.514C115.398 21.6353 115.095 21.8087 114.869 22.034C114.644 22.2593 114.531 22.5453 114.531 22.892C114.531 23.3773 114.67 23.7587 114.947 24.036C115.242 24.296 115.641 24.426 116.143 24.426ZM132.448 21.878H128.21V27H124.83V14H128.21V18.888H132.448V14H135.828V27H132.448V21.878ZM147.999 26.194C147.479 26.5753 146.846 26.8613 146.101 27.052C145.373 27.26 144.619 27.364 143.839 27.364C142.799 27.364 141.915 27.1993 141.187 26.87C140.476 26.5407 139.895 26.0813 139.445 25.492C138.994 24.8853 138.665 24.1573 138.457 23.308C138.266 22.4587 138.17 21.5227 138.17 20.5C138.17 18.2987 138.665 16.6087 139.653 15.43C140.641 14.234 142.079 13.636 143.969 13.636C144.922 13.636 145.685 13.714 146.257 13.87C146.846 14.026 147.375 14.2253 147.843 14.468L147.037 17.224C146.638 17.0333 146.239 16.886 145.841 16.782C145.459 16.678 145.017 16.626 144.515 16.626C143.579 16.626 142.868 16.938 142.383 17.562C141.897 18.1687 141.655 19.148 141.655 20.5C141.655 21.0547 141.715 21.566 141.837 22.034C141.958 22.502 142.14 22.9093 142.383 23.256C142.625 23.6027 142.937 23.88 143.319 24.088C143.717 24.2787 144.177 24.374 144.697 24.374C145.269 24.374 145.754 24.3047 146.153 24.166C146.551 24.01 146.907 23.828 147.219 23.62L147.999 26.194Z" fill="#333333"/>
<path d="M47.8979 8.982C48.6259 8.84333 49.4232 8.73933 50.2899 8.67C51.1739 8.58333 52.0492 8.54 52.9159 8.54C53.8172 8.54 54.7186 8.618 55.6199 8.774C56.5386 8.91267 57.3619 9.20733 58.0899 9.658C58.8179 10.0913 59.4072 10.7067 59.8579 11.504C60.3259 12.284 60.5599 13.3067 60.5599 14.572C60.5599 15.716 60.3606 16.6867 59.9619 17.484C59.5632 18.264 59.0346 18.9053 58.3759 19.408C57.7172 19.9107 56.9632 20.2747 56.1139 20.5C55.2819 20.7253 54.4152 20.838 53.5139 20.838C53.4272 20.838 53.2886 20.838 53.0979 20.838C52.9072 20.838 52.7079 20.838 52.4999 20.838C52.2919 20.8207 52.0839 20.8033 51.8759 20.786C51.6852 20.7687 51.5466 20.7513 51.4599 20.734V27H47.8979V8.982ZM53.2019 11.608C52.8552 11.608 52.5259 11.6253 52.2139 11.66C51.9019 11.6773 51.6506 11.7033 51.4599 11.738V17.64C51.5292 17.6573 51.6332 17.6747 51.7719 17.692C51.9106 17.7093 52.0579 17.7267 52.2139 17.744C52.3699 17.744 52.5172 17.744 52.6559 17.744C52.8119 17.744 52.9246 17.744 52.9939 17.744C53.4619 17.744 53.9212 17.7007 54.3719 17.614C54.8399 17.5273 55.2559 17.3713 55.6199 17.146C55.9839 16.9033 56.2699 16.574 56.4779 16.158C56.7032 15.742 56.8159 15.196 56.8159 14.52C56.8159 13.948 56.7119 13.48 56.5039 13.116C56.2959 12.7347 56.0186 12.4313 55.6719 12.206C55.3426 11.9807 54.9612 11.8247 54.5279 11.738C54.0946 11.6513 53.6526 11.608 53.2019 11.608ZM67.4308 21.306L67.8988 23.334H68.0548L68.3928 21.28L70.3688 14H73.8528L69.9008 25.726C69.5715 26.6967 69.2508 27.5807 68.9388 28.378C68.6441 29.1927 68.3148 29.8947 67.9508 30.484C67.5868 31.0733 67.1795 31.524 66.7288 31.836C66.2955 32.1653 65.7755 32.33 65.1688 32.33C64.2675 32.33 63.5481 32.1827 63.0108 31.888L63.6348 29.184C63.8948 29.288 64.1548 29.34 64.4148 29.34C64.8135 29.34 65.1948 29.1667 65.5588 28.82C65.9401 28.4907 66.2261 27.884 66.4168 27L60.9828 14H65.0388L67.4308 21.306ZM84.1665 26.194C83.6465 26.5753 83.0138 26.8613 82.2685 27.052C81.5405 27.26 80.7865 27.364 80.0065 27.364C78.9665 27.364 78.0825 27.1993 77.3545 26.87C76.6438 26.5407 76.0631 26.0813 75.6125 25.492C75.1618 24.8853 74.8325 24.1573 74.6245 23.308C74.4338 22.4587 74.3385 21.5227 74.3385 20.5C74.3385 18.2987 74.8325 16.6087 75.8205 15.43C76.8085 14.234 78.2471 13.636 80.1365 13.636C81.0898 13.636 81.8525 13.714 82.4245 13.87C83.0138 14.026 83.5425 14.2253 84.0105 14.468L83.2045 17.224C82.8058 17.0333 82.4071 16.886 82.0085 16.782C81.6271 16.678 81.1851 16.626 80.6825 16.626C79.7465 16.626 79.0358 16.938 78.5505 17.562C78.0651 18.1687 77.8225 19.148 77.8225 20.5C77.8225 21.0547 77.8831 21.566 78.0045 22.034C78.1258 22.502 78.3078 22.9093 78.5505 23.256C78.7931 23.6027 79.1051 23.88 79.4865 24.088C79.8851 24.2787 80.3445 24.374 80.8645 24.374C81.4365 24.374 81.9218 24.3047 82.3205 24.166C82.7191 24.01 83.0745 23.828 83.3865 23.62L84.1665 26.194Z" fill="#FCAF17"/>
</svg>
