<svg width="36" height="36" viewBox="0 0 36 36" fill="none" xmlns="http://www.w3.org/2000/svg">
<path d="M3.81099 8.09173C5.29026 8.09173 6.48942 6.89256 6.48942 5.4133C6.48942 3.93403 5.29026 2.73486 3.81099 2.73486C2.33197 2.73486 1.13281 3.93403 1.13281 5.41305C1.13428 6.89158 2.33246 8.08977 3.81099 8.09173ZM3.81099 4.14668C4.51052 4.14668 5.0776 4.71327 5.0776 5.41305C5.0776 6.11258 4.51052 6.67966 3.81099 6.67966C3.11171 6.67966 2.54463 6.11258 2.54463 5.41305C2.54536 4.71401 3.11195 4.14742 3.81099 4.14668Z" fill="#D7B56D"/>
<path d="M31.2612 26.5479L20.0258 15.3125L27.8449 7.49303C28.1209 7.21734 28.1209 6.77045 27.8449 6.495C25.5126 4.14745 22.3377 2.83105 19.0285 2.83866H19.0238C16.014 2.83203 13.1048 3.92229 10.8404 5.90536L10.4315 5.49623C10.2534 5.31546 9.99247 5.24409 9.74744 5.30909C9.50216 5.37384 9.31085 5.56516 9.24585 5.81019C9.18085 6.05522 9.25222 6.31669 9.43299 6.49427L9.8301 6.89137C5.31848 11.8116 5.48575 19.4133 10.2093 24.1304C10.485 24.4061 10.9321 24.4061 11.2078 24.1304L19.0272 16.311L29.8609 27.1444C29.7785 27.151 29.6929 27.1554 29.6009 27.1554C28.7039 27.1554 28.2845 26.8221 27.7532 26.4002C27.1579 25.9271 26.4172 25.3384 25.0274 25.3384C23.638 25.3384 22.8972 25.9271 22.3019 26.4002C21.7709 26.8221 21.3517 27.1554 20.455 27.1554C19.558 27.1554 19.1388 26.8221 18.6078 26.4002C18.0125 25.9271 17.2718 25.3384 15.8821 25.3384C14.4926 25.3384 13.7518 25.9271 13.1565 26.4002C12.6258 26.8221 12.2063 27.1554 11.3096 27.1554C10.4129 27.1554 9.99345 26.8221 9.46243 26.4002C8.86714 25.9271 8.1264 25.3384 6.73691 25.3384C6.34692 25.3384 6.03125 25.6546 6.03125 26.0441C6.03125 26.4343 6.34692 26.75 6.73691 26.75C7.63364 26.75 8.05307 27.0833 8.58409 27.5052C9.17938 27.9783 9.92011 28.567 11.3096 28.567C12.6989 28.567 13.4396 27.9783 14.0349 27.5052C14.5659 27.0833 14.9853 26.75 15.8821 26.75C16.779 26.75 17.1985 27.0833 17.7295 27.5052C18.3248 27.9783 19.0655 28.567 20.455 28.567C21.8442 28.567 22.585 27.9783 23.1803 27.5052C23.7113 27.0833 24.1307 26.75 25.0274 26.75C25.9244 26.75 26.3438 27.0833 26.8751 27.5052C27.4704 27.9783 28.2111 28.567 29.6009 28.567C30.9901 28.567 31.7314 27.9783 32.3266 27.5052C32.8574 27.0833 33.2773 26.75 34.1741 26.75C34.5641 26.75 34.8797 26.4343 34.8797 26.0441C34.8797 25.6546 34.5641 25.3384 34.1741 25.3384C32.7846 25.3384 32.0436 25.9271 31.4483 26.4002C31.3848 26.4507 31.3227 26.5 31.2612 26.5479ZM11.7084 7.76112C15.701 6.5703 20.0248 7.45085 23.2337 10.1082L14.0545 19.2869C11.3952 16.0785 10.5149 11.7537 11.7082 7.76112H11.7084ZM19.0248 4.25047H19.0287C21.7192 4.24385 24.3184 5.22545 26.3328 7.0091L24.2352 9.10671C21.1344 6.4847 17.0395 5.35471 13.0329 6.01549C14.8171 4.85949 16.8982 4.24655 19.0245 4.25047H19.0248ZM10.7241 22.6176C7.34324 18.7787 7.03787 13.1219 9.98511 8.94115C9.2716 12.9917 10.3957 17.1498 13.0528 20.2889L10.7241 22.6176Z" fill="#D7B56D"/>
<path d="M29.6012 33.1096C30.9907 33.1096 31.7317 32.5212 32.327 32.0478C32.8577 31.6259 33.2774 31.2926 34.1741 31.2926C34.5641 31.2926 34.8801 30.9767 34.8801 30.5867C34.8801 30.1971 34.5641 29.8807 34.1741 29.8807C32.7849 29.8807 32.0437 30.4697 31.4484 30.9428C30.9176 31.3647 30.4982 31.698 29.6012 31.698C28.704 31.698 28.2845 31.3647 27.7533 30.9428C27.1582 30.4697 26.4172 29.8807 25.0278 29.8807C23.6383 29.8807 22.8975 30.4697 22.3022 30.9428C21.7712 31.3647 21.3518 31.698 20.455 31.698C19.5583 31.698 19.1389 31.3647 18.6081 30.9428C18.0128 30.4697 17.2718 29.8807 15.8823 29.8807C14.4928 29.8807 13.7521 30.4697 13.1568 30.9428C12.6258 31.3647 12.2064 31.698 11.3096 31.698C10.4129 31.698 9.99346 31.3647 9.46268 30.9428C8.86739 30.4697 8.12666 29.8807 6.73716 29.8807C6.34717 29.8807 6.03125 30.1971 6.03125 30.5867C6.03125 30.9767 6.34717 31.2926 6.73716 31.2926C7.63389 31.2926 8.05332 31.6259 8.58434 32.0478C9.17963 32.5212 9.92037 33.1096 11.3096 33.1096C12.6991 33.1096 13.4399 32.5212 14.0351 32.0478C14.5662 31.6259 14.9856 31.2926 15.8823 31.2926C16.7793 31.2926 17.1987 31.6259 17.7298 32.0478C18.3251 32.5212 19.0658 33.1096 20.455 33.1096C21.8445 33.1096 22.5853 32.5212 23.1806 32.0478C23.7116 31.6259 24.131 31.2926 25.0278 31.2926C25.9247 31.2926 26.3442 31.6259 26.8754 32.0478C27.471 32.5212 28.2117 33.1096 29.6012 33.1096Z" fill="#D7B56D"/>
</svg>
