<svg width="17" height="17" viewBox="0 0 17 17" fill="none" xmlns="http://www.w3.org/2000/svg">
<path d="M8.50037 4.40179C3.92635 4.40712 0.174543 8.02715 0.00585938 12.5982H16.9949C16.8262 8.02715 13.0744 4.40712 8.50037 4.40179ZM8.50037 5.61607C4.92155 5.60303 1.8679 8.20132 1.3079 11.7361L0.708313 11.6389C1.31457 7.80941 4.62317 4.99426 8.50037 5.00893V5.61607Z" fill="white"/>
<path d="M16.6964 15.0268H0.303571C0.135925 15.0268 0 15.1627 0 15.3304C0 15.498 0.135925 15.6339 0.303571 15.6339H16.6964C16.8641 15.6339 17 15.498 17 15.3304C17 15.1627 16.8641 15.0268 16.6964 15.0268Z" fill="white"/>
<path d="M5.16016 13.2054H11.8387V14.4196H5.16016V13.2054Z" fill="white"/>
<path d="M6.98242 1.36607V1.97321H8.19671V4.09821H8.80385V1.97321H10.0181V1.36607H6.98242Z" fill="white"/>
</svg>
