<svg width="30" height="30" viewBox="0 0 30 30" fill="none" xmlns="http://www.w3.org/2000/svg">
<path d="M27.6562 5.18555H17.7321L21.9801 0.9375H19.3285L15.0804 5.18555H14.9488L10.7008 0.9375H8.0492L12.2972 5.18555H2.34375C1.97092 5.18598 1.61349 5.33428 1.34986 5.59791C1.08623 5.86154 0.937934 6.21897 0.9375 6.5918V23.9355C0.937934 24.3084 1.08623 24.6658 1.34986 24.9294C1.61349 25.1931 1.97092 25.3414 2.34375 25.3418H8.90625V29.0625H22.0312V25.3418H27.6562C28.0291 25.3414 28.3865 25.1931 28.6501 24.9294C28.9138 24.6658 29.0621 24.3084 29.0625 23.9355V6.5918C29.0621 6.21897 28.9138 5.86154 28.6501 5.59791C28.3865 5.33428 28.0291 5.18598 27.6562 5.18555ZM20.1562 27.1875H10.7812V25.3418H20.1562V27.1875ZM27.1875 23.4668H2.8125V7.06055H27.1875V23.4668Z" fill="#D7B56D"/>
</svg>
