<svg width="34" height="34" viewBox="0 0 34 34" fill="none" xmlns="http://www.w3.org/2000/svg">
<path d="M5.11043 6.15207L4.25379 7.49355C3.81572 8.17999 3.94738 9.08405 4.56344 9.61674C5.17951 10.1497 6.0931 10.1497 6.70916 9.61674C7.32522 9.08405 7.45688 8.17999 7.01838 7.49355L6.16152 6.15207C6.04697 5.97299 5.84884 5.8645 5.63619 5.8645C5.42312 5.8645 5.22498 5.97299 5.11043 6.15207ZM5.30488 8.16483L5.63619 7.64621L5.96729 8.16483C6.07231 8.32918 6.04048 8.54594 5.89301 8.67348C5.74555 8.80124 5.52662 8.80124 5.37894 8.67348C5.23148 8.54594 5.19986 8.32918 5.30488 8.16483Z" fill="#D7B56D"/>
<path d="M31.4106 6.00154C31.2934 5.88461 31.1347 5.81878 30.9695 5.81878H16.2455C15.9932 5.81878 15.7659 5.97101 15.6693 6.20401C15.5727 6.43701 15.626 6.7053 15.8044 6.88373C17.3432 8.42183 17.3432 10.9164 15.8044 12.4545C15.7986 12.4603 15.7942 12.4668 15.7888 12.4727C15.3107 12.0073 14.7055 11.6936 14.0496 11.5706V8.67085C14.0487 7.94414 13.4597 7.35515 12.733 7.35428H12.3172V4.23629H13.6165C13.9608 4.23629 14.2401 3.95696 14.2401 3.61265C14.2401 3.26814 13.9608 2.98901 13.6165 2.98901H7.24171C7.07627 2.98901 6.91776 3.05441 6.80083 3.17134L5.86537 4.1068C5.62176 4.35041 5.62176 4.74538 5.86537 4.98899C6.10898 5.2326 6.50352 5.2326 6.74713 4.98899L7.49961 4.23629H11.0695V7.35428H9.96082C9.23411 7.35515 8.64511 7.94414 8.64425 8.67085V11.5701C8.09142 11.6734 7.5728 11.9131 7.1356 12.2676H1.67919C1.42692 12.2676 1.19955 12.4194 1.10297 12.6524C1.00661 12.8854 1.05988 13.1537 1.23831 13.3321C2.77402 14.8717 2.77402 17.3637 1.23831 18.9033C1.22575 18.9157 1.21406 18.9287 1.20301 18.9421C1.20106 18.9442 1.19933 18.9464 1.19738 18.9486C1.17984 18.9698 1.16382 18.9925 1.14909 19.0161C1.1465 19.0207 1.14368 19.0257 1.14086 19.03C1.12679 19.0538 1.11423 19.0787 1.1034 19.1045L1.10297 19.1051C1.09236 19.1316 1.08348 19.1582 1.07634 19.1859C1.07504 19.1915 1.07374 19.1972 1.07222 19.2026C1.06573 19.2294 1.06118 19.2567 1.05858 19.2842V19.286C1.05598 19.3124 1.05555 19.3386 1.05663 19.365C1.05663 19.3719 1.05706 19.378 1.05771 19.3849C1.05923 19.4115 1.06248 19.4384 1.06746 19.4646C1.06746 19.4655 1.06789 19.4665 1.06832 19.4674C1.0733 19.4932 1.08045 19.5185 1.08889 19.5436C1.09063 19.5488 1.09258 19.5542 1.09453 19.5594C1.10405 19.5856 1.1151 19.611 1.12809 19.6357V19.6363C1.14086 19.6601 1.15537 19.6829 1.17118 19.7047C1.17508 19.7104 1.17898 19.7158 1.18309 19.721C1.19955 19.7429 1.21774 19.7636 1.23679 19.7836L1.23766 19.7842C1.97888 20.5215 2.39421 21.5243 2.39161 22.5698C2.39421 23.6151 1.97888 24.6183 1.23766 25.3554C1.05901 25.5338 1.00553 25.8023 1.10232 26.0353C1.1989 26.2688 1.4267 26.4206 1.67919 26.4204H5.87295V27.3796C5.8749 29.2536 7.39372 30.7726 9.2681 30.7748H13.4257C15.2999 30.7726 16.8187 29.2536 16.8209 27.3796V26.4204H30.9695C31.1347 26.4204 31.2934 26.3545 31.4106 26.2376C33.2746 24.3738 33.4439 21.4074 31.8029 19.344C33.3046 17.456 33.3053 14.7819 31.8047 12.893C33.4435 10.8291 33.2741 7.86467 31.4106 6.00133V6.00154ZM30.7001 7.06606C32.0095 8.55414 32.0095 10.7834 30.7001 12.2715H17.5077C18.4382 10.6611 18.4382 8.67648 17.5077 7.06606H30.7001ZM30.7025 13.5188C32.0104 15.0064 32.0086 17.2344 30.699 18.7203H16.8209V14.907C16.8213 14.4283 16.7195 13.9551 16.5229 13.5188H30.7025ZM15.5738 14.907V23.0142H7.12023V14.907C7.12153 13.7213 8.08232 12.7602 9.2681 12.7592H13.4257C14.6115 12.7605 15.5723 13.7213 15.5738 14.907ZM9.89174 11.5119V10.715H12.8021V11.5119H9.89174ZM9.96104 8.60156H12.7328C12.7709 8.60156 12.8021 8.63253 12.8021 8.67085V9.46773H9.89174V8.67085C9.89174 8.63253 9.92271 8.60156 9.96104 8.60156ZM6.17264 13.5149C5.97472 13.9521 5.87273 14.427 5.87295 14.907V18.7203H2.94011C3.40004 17.9302 3.64127 17.032 3.63954 16.1175C3.6417 15.2035 3.40091 14.3051 2.94162 13.5149H6.17264ZM2.94119 25.1731C3.40069 24.3827 3.64127 23.4847 3.63911 22.5707C3.64149 21.6564 3.40069 20.7582 2.94119 19.9678H5.87295V25.1733L2.94119 25.1731ZM13.4257 29.5275H9.2681C8.08232 29.5262 7.12153 28.5654 7.12023 27.3796V24.2614H15.5738V27.3796C15.5723 28.5654 14.6115 29.5262 13.4257 29.5275ZM30.7001 25.1731H16.8209V19.9676H30.7001C32.0093 21.4557 32.0093 23.685 30.7001 25.1731Z" fill="#D7B56D"/>
</svg>
