<svg width="36" height="36" viewBox="0 0 36 36" fill="none" xmlns="http://www.w3.org/2000/svg">
<path d="M31.0837 5.7688H4.88506C2.80073 5.77121 1.11178 7.46015 1.10938 9.54448V16.4794C1.11178 18.564 2.80073 20.2527 4.88506 20.2551H31.0837C33.168 20.2527 34.857 18.564 34.8594 16.4794V9.54448C34.857 7.46015 33.168 5.77121 31.0837 5.7688ZM33.4724 16.4794C33.4709 17.7983 32.4023 18.8667 31.0837 18.8681H4.88506C3.56646 18.8667 2.49781 17.7983 2.49636 16.4794V9.54448C2.49781 8.22588 3.56646 7.15747 4.88506 7.15579H31.0837C32.4023 7.15747 33.4709 8.22588 33.4724 9.54448V16.4794Z" fill="#D7B56D"/>
<path d="M30.9316 11.9331H5.04115C4.65828 11.9331 4.34766 12.2437 4.34766 12.6266C4.34766 13.0095 4.65828 13.3201 5.04115 13.3201H30.9316C31.3144 13.3201 31.625 13.0095 31.625 12.6266C31.625 12.2437 31.3144 11.9331 30.9316 11.9331Z" fill="#D7B56D"/>
<path d="M30.9316 8.92798H5.04115C4.65828 8.92798 4.34766 9.23861 4.34766 9.62147C4.34766 10.0043 4.65828 10.315 5.04115 10.315H30.9316C31.3144 10.315 31.625 10.0043 31.625 9.62147C31.625 9.23861 31.3144 8.92798 30.9316 8.92798Z" fill="#D7B56D"/>
<path d="M24.7673 14.2448C23.7461 14.2448 22.918 15.0728 22.918 16.0941C22.918 17.1155 23.7461 17.9434 24.7673 17.9434C25.7885 17.9434 26.6166 17.1155 26.6166 16.0941C26.6154 15.0731 25.7883 14.246 24.7673 14.2448ZM24.7673 16.5564C24.512 16.5564 24.305 16.3493 24.305 16.0941C24.305 15.8388 24.512 15.6317 24.7673 15.6317C25.0225 15.6317 25.2296 15.8388 25.2296 16.0941C25.2294 16.3493 25.0225 16.5562 24.7673 16.5564Z" fill="#D7B56D"/>
<path d="M29.7751 14.2448C28.7539 14.2448 27.9258 15.0728 27.9258 16.0941C27.9258 17.1155 28.7539 17.9434 29.7751 17.9434C30.7963 17.9434 31.6244 17.1155 31.6244 16.0941C31.6232 15.0731 30.7961 14.246 29.7751 14.2448ZM29.7751 16.5564C29.5199 16.5564 29.3128 16.3493 29.3128 16.0941C29.3128 15.8388 29.5199 15.6317 29.7751 15.6317C30.0303 15.6317 30.2374 15.8388 30.2374 16.0941C30.2372 16.3493 30.0303 16.5562 29.7751 16.5564Z" fill="#D7B56D"/>
<path d="M19.0628 28.8082V22.6438C19.0628 22.2609 18.7521 21.9503 18.3693 21.9503C17.9864 21.9503 17.6758 22.2609 17.6758 22.6438V28.8082C17.6758 29.1911 17.9864 29.5017 18.3693 29.5017C18.7521 29.5017 19.0628 29.1911 19.0628 28.8082Z" fill="#D7B56D"/>
<path d="M24.0725 26.4965V22.6438C24.0725 22.2609 23.7619 21.9503 23.379 21.9503C22.9962 21.9503 22.6855 22.2609 22.6855 22.6438V26.4965C22.6855 26.8794 22.9962 27.19 23.379 27.19C23.7619 27.19 24.0725 26.8794 24.0725 26.4965Z" fill="#D7B56D"/>
<path d="M29.0823 24.9555V22.6438C29.0823 22.2609 28.7717 21.9503 28.3888 21.9503C28.0059 21.9503 27.6953 22.2609 27.6953 22.6438V24.9555C27.6953 25.3383 28.0059 25.6489 28.3888 25.6489C28.7717 25.6489 29.0823 25.3383 29.0823 24.9555Z" fill="#D7B56D"/>
<path d="M13.3615 27.19C13.7443 27.19 14.055 26.8794 14.055 26.4965V22.6438C14.055 22.2609 13.7443 21.9503 13.3615 21.9503C12.9786 21.9503 12.668 22.2609 12.668 22.6438V26.4965C12.668 26.8794 12.9786 27.19 13.3615 27.19Z" fill="#D7B56D"/>
<path d="M9.04713 24.9555V22.6438C9.04713 22.2609 8.73651 21.9503 8.35364 21.9503C7.97078 21.9503 7.66016 22.2609 7.66016 22.6438V24.9555C7.66016 25.3383 7.97078 25.6489 8.35364 25.6489C8.73651 25.6489 9.04713 25.3383 9.04713 24.9555Z" fill="#D7B56D"/>
</svg>
