<svg width="36" height="36" viewBox="0 0 36 36" fill="none" xmlns="http://www.w3.org/2000/svg">
<path d="M8.4632 20.3593C10.2878 22.403 13.1993 22.5564 15.1863 20.713C17.1736 18.8697 17.5848 15.6343 16.1362 13.2421L12.5514 7.32723C12.4271 7.12242 12.2206 7 11.9997 7C11.7792 7 11.5724 7.12242 11.4482 7.32723L7.86352 13.2421C6.51603 15.469 6.76777 18.4549 8.46344 20.3598L8.4632 20.3593ZM8.96623 14.0826L11.9997 9.07775L15.0333 14.0826C16.0723 15.7963 15.8117 18.109 14.4255 19.4792C13.0393 20.8498 10.9602 20.8498 9.57402 19.4792C8.18782 18.109 7.92727 15.7963 8.96623 14.0826Z" fill="#D7B56D"/>
<path d="M20.4632 26.3593C22.2878 28.403 25.1993 28.5564 27.1863 26.713C29.1736 24.8697 29.5848 21.6343 28.1362 19.2421L24.5514 13.3272C24.4271 13.1224 24.2206 13 23.9997 13C23.7792 13 23.5724 13.1224 23.4482 13.3272L19.8635 19.2421C18.516 21.469 18.7678 24.4549 20.4634 26.3598L20.4632 26.3593ZM20.9662 20.0826L23.9997 15.0777L27.0333 20.0826C28.0723 21.7963 27.8117 24.109 26.4255 25.4792C25.0393 26.8498 22.9602 26.8498 21.574 25.4792C20.1878 24.109 19.9273 21.7963 20.9662 20.0826Z" fill="#D7B56D"/>
</svg>
