<svg width="24" height="24" viewBox="0 0 24 24" fill="none" xmlns="http://www.w3.org/2000/svg">
<g clip-path="url(#clip0)">
<path d="M17.5997 0.804465L14.695 0.799805C11.4316 0.799805 9.32265 2.96351 9.32265 6.31242V8.8541H6.40206C6.14968 8.8541 5.94531 9.0587 5.94531 9.31107V12.9937C5.94531 13.2461 6.14992 13.4504 6.40206 13.4504H9.32265V22.7428C9.32265 22.9952 9.52702 23.1996 9.77939 23.1996H13.5899C13.8423 23.1996 14.0467 22.995 14.0467 22.7428V13.4504H17.4615C17.7139 13.4504 17.9183 13.2461 17.9183 12.9937L17.9197 9.31107C17.9197 9.1899 17.8714 9.07385 17.7859 8.98809C17.7004 8.90234 17.5839 8.8541 17.4627 8.8541H14.0467V6.69948C14.0467 5.66389 14.2935 5.13817 15.6425 5.13817L17.5993 5.13747C17.8514 5.13747 18.0558 4.93286 18.0558 4.68072V1.26121C18.0558 1.0093 17.8516 0.804931 17.5997 0.804465Z" fill="white"/>
</g>
<defs>
<clipPath id="clip0">
<rect width="22.4" height="22.3998" fill="white" transform="translate(0.800781 0.799805)"/>
</clipPath>
</defs>
</svg>
