<svg width="39" height="39" viewBox="0 0 39 39" fill="none" xmlns="http://www.w3.org/2000/svg">
<path d="M4.11609 13.9915C4.90218 16.6754 7.27331 18.4421 9.79069 18.4421C10.3017 18.4418 10.8096 18.369 11.2995 18.2256L11.9767 18.0274L13.7449 24.0705C13.812 24.3004 13.9765 24.4895 14.195 24.5883L16.5807 25.6684C16.5836 25.6792 16.5856 25.6898 16.5887 25.7006L17.4482 28.6373C17.3942 28.747 17.1709 28.9655 17.0338 29.0989C16.5816 29.5397 15.8983 30.2061 16.1808 31.1721C16.4616 32.1313 17.378 32.3313 17.9838 32.463C18.1709 32.4972 18.3549 32.5481 18.5334 32.6144C18.4163 32.7677 18.2863 32.9111 18.1441 33.042C17.6985 33.4813 17.0249 34.1454 17.3066 35.1083C17.3454 35.2408 17.4171 35.3614 17.5145 35.4588L19.6254 37.5694C19.9473 37.8865 20.4643 37.8842 20.7837 37.5648C21.1028 37.2458 21.105 36.7285 20.7883 36.4066L18.9573 34.5753C19.0647 34.4488 19.1789 34.3279 19.2992 34.2134C19.7451 33.7741 20.4186 33.1102 20.137 32.147C19.8559 31.1878 18.9399 30.9882 18.334 30.8562C18.1478 30.8219 17.9647 30.7717 17.787 30.706C17.9061 30.552 18.0387 30.408 18.1823 30.2769C18.6345 29.8359 19.3181 29.1695 19.0356 28.204L18.5551 26.5618L19.6985 27.0794C19.9913 27.2123 20.3344 27.1617 20.5772 26.9512C20.8197 26.7407 20.9174 26.4076 20.8268 26.0991L17.9532 16.2784L21.9831 15.0995C22.419 14.9721 22.6687 14.5151 22.5413 14.0795L22.4196 13.6639L27.8414 13.7767H27.8585C28.1176 13.7767 28.3615 13.655 28.5166 13.4476C28.672 13.2403 28.7209 12.972 28.648 12.7233L25.4614 1.83479C25.388 1.58343 25.1986 1.38176 24.9524 1.29236C24.7062 1.20323 24.4319 1.23637 24.2143 1.38233L19.7085 4.39988L19.5868 3.98455C19.4594 3.54866 19.0027 3.29872 18.5668 3.42612L7.88373 6.55306C4.86476 7.43656 3.1746 10.7734 4.11609 13.9915ZM9.51418 13.308C8.95889 12.9589 8.75151 12.2505 9.03087 11.6569C9.14856 11.4099 9.36451 11.2236 9.62616 11.1439C9.71013 11.1194 9.79726 11.1071 9.88466 11.1071C10.068 11.1085 10.2474 11.1596 10.404 11.2553C10.9595 11.6044 11.1669 12.3128 10.887 12.9064C10.8039 13.0772 10.6739 13.2206 10.5125 13.3205C10.3617 13.3248 10.2146 13.3711 10.0886 13.4545C9.88695 13.4645 9.68671 13.4137 9.51418 13.308ZM18.7456 24.8428L15.2174 23.2458L13.5546 17.5652L16.3745 16.7403L18.7456 24.8428ZM24.1977 3.37299L26.7539 12.1088L21.9348 12.008L20.193 6.05547L24.1977 3.37299ZM18.4448 5.93721C18.4454 5.94007 18.4463 5.94264 18.4468 5.9455L20.5238 13.0426C20.5246 13.0455 20.5252 13.0477 20.526 13.0503L20.7311 13.7516L12.0281 16.2984L11.536 14.6159C11.885 14.3628 12.1675 14.0284 12.3586 13.6419C13.0233 12.2779 12.5417 10.6323 11.2466 9.84254C10.8773 9.61973 10.4594 9.49034 10.0286 9.46548L9.53618 7.78304L18.2395 5.23624L18.4448 5.93721ZM7.96371 8.26635L8.44302 9.90423C8.06597 10.1616 7.76176 10.5118 7.56009 10.9217C6.89511 12.2851 7.37642 13.9307 8.67153 14.7208C9.06229 14.9564 9.50733 15.087 9.9635 15.0998L10.4434 16.7394C8.41388 17.1013 6.34068 15.7342 5.69484 13.5293C5.04928 11.325 6.05932 9.05501 7.96399 8.26635H7.96371Z" fill="#D7B56D"/>
<path d="M30.9964 2.57024C30.8842 2.13006 30.4363 1.86413 29.9961 1.97638L27.9595 2.4954C27.6735 2.56653 27.4473 2.7859 27.367 3.06954C27.2868 3.35347 27.3645 3.65826 27.5707 3.86878C27.7772 4.0793 28.0806 4.16356 28.3659 4.08929L30.4023 3.56999C30.8425 3.45802 31.1084 3.01042 30.9964 2.57024Z" fill="#D7B56D"/>
<path d="M33.792 4.35404L30.6042 5.16698C30.3183 5.23782 30.0921 5.45719 30.0115 5.74083C29.9312 6.02448 30.0092 6.32955 30.2155 6.54007C30.4217 6.75087 30.725 6.83485 31.0104 6.76058L34.1982 5.94793C34.4847 5.87709 34.7115 5.65828 34.792 5.37435C34.8729 5.09014 34.7949 4.7845 34.5884 4.5737C34.3813 4.36318 34.0776 4.2792 33.792 4.35404Z" fill="#D7B56D"/>
<path d="M30.4051 10.5945C30.4736 10.5945 30.5422 10.5857 30.6085 10.5688L33.1764 9.91411C33.614 9.79985 33.8774 9.35368 33.7657 8.9155C33.654 8.47675 33.2093 8.2111 32.7702 8.3205L30.2023 8.97463C29.8001 9.07689 29.537 9.46222 29.5884 9.87412C29.6399 10.2857 29.9901 10.5945 30.4051 10.5945Z" fill="#D7B56D"/>
</svg>
