<svg width="36" height="36" viewBox="0 0 36 36" fill="none" xmlns="http://www.w3.org/2000/svg">
<g clip-path="url(#clip0)">
<path d="M1.09603 20.2518C1.09603 18.5362 2.49173 17.1406 4.20729 17.1406H18C20.4751 17.1406 22.4888 15.1269 22.4888 12.6518C22.4888 10.1766 20.4751 8.16296 18 8.16296C15.5249 8.16296 13.5112 10.1766 13.5112 12.6518H14.6072C14.6072 10.781 16.1292 9.259 18 9.259C19.8708 9.259 21.3928 10.781 21.3928 12.6518C21.3928 14.5226 19.8708 16.0446 18 16.0446H4.20736C1.8874 16.0446 0 17.9319 0 20.2518C0 22.5717 1.8874 24.4592 4.20736 24.4592H6.74072V23.3631H4.20736C2.4918 23.3631 1.09603 21.9675 1.09603 20.2518Z" fill="#D7B56D"/>
<path d="M23.6306 23.363H12.3711V24.4591H23.6306V23.363Z" fill="#D7B56D"/>
<path d="M31.7938 16.0446H21.3789V17.1406H31.7938C33.5094 17.1406 34.905 18.5363 34.905 20.2518C34.905 21.9674 33.5093 23.363 31.7938 23.363H29.2604V24.4591H31.7938C34.1138 24.4591 36.0011 22.5717 36.0011 20.2517C36.0011 17.9317 34.1138 16.0446 31.7938 16.0446Z" fill="#D7B56D"/>
<path d="M7.32031 27.8369H11.7942V21.1112H7.32031V27.8369ZM8.41641 22.2072H10.6982V26.7408H8.41641V22.2072Z" fill="#D7B56D"/>
<path d="M24.2109 27.8369H28.6848V21.1112H24.2109V27.8369ZM25.307 22.2072H27.5887V26.7408H25.307V22.2072Z" fill="#D7B56D"/>
<path d="M11.8081 19.4222H7.30469V20.5183H11.8081V19.4222Z" fill="#D7B56D"/>
<path d="M28.6955 19.4222H24.1914V20.5183H28.6955V19.4222Z" fill="#D7B56D"/>
</g>
<defs>
<clipPath id="clip0">
<rect width="36" height="36" fill="white"/>
</clipPath>
</defs>
</svg>
