<svg width="24" height="24" viewBox="0 0 24 24" fill="none" xmlns="http://www.w3.org/2000/svg">
<g clip-path="url(#clip0)">
<path d="M23.1786 7.38547C23.1261 6.19527 22.9336 5.37702 22.6579 4.66799C22.3735 3.91538 21.9359 3.24157 21.3626 2.68142C20.8024 2.11256 20.1242 1.67053 19.3803 1.39055C18.6672 1.11483 17.8532 0.922363 16.663 0.869887C15.4639 0.812966 15.0832 0.799805 12.042 0.799805C9.0008 0.799805 8.62014 0.812966 7.4255 0.865443C6.2353 0.917919 5.41705 1.11056 4.7082 1.3861C3.95541 1.67053 3.2816 2.10812 2.72146 2.68142C2.1526 3.24157 1.71074 3.91982 1.43058 4.66372C1.15487 5.37702 0.962402 6.19082 0.909926 7.38102C0.853005 8.58011 0.839844 8.96077 0.839844 12.002C0.839844 15.0432 0.853005 15.4239 0.905481 16.6185C0.957957 17.8087 1.1506 18.627 1.42631 19.336C1.71074 20.0886 2.1526 20.7624 2.72146 21.3226C3.2816 21.8914 3.95986 22.3335 4.70375 22.6134C5.41705 22.8892 6.23086 23.0816 7.42122 23.1341C8.61569 23.1867 8.99653 23.1997 12.0377 23.1997C15.079 23.1997 15.4596 23.1867 16.6543 23.1341C17.8445 23.0816 18.6627 22.8892 19.3716 22.6134C20.877 22.0314 22.0672 20.8412 22.6492 19.336C22.9247 18.6227 23.1174 17.8087 23.1698 16.6185C23.2223 15.4239 23.2355 15.0432 23.2355 12.002C23.2355 8.96077 23.231 8.58011 23.1786 7.38547ZM21.1614 16.531C21.1132 17.625 20.9294 18.2157 20.7763 18.6095C20.3999 19.5854 19.6254 20.3599 18.6495 20.7363C18.2557 20.8894 17.6607 21.0732 16.571 21.1212C15.3895 21.1739 15.0352 21.1868 12.0465 21.1868C9.05772 21.1868 8.69894 21.1739 7.52173 21.1212C6.42777 21.0732 5.83703 20.8894 5.4432 20.7363C4.95759 20.5568 4.51556 20.2724 4.15677 19.9004C3.78482 19.5372 3.50039 19.0996 3.32092 18.614C3.16776 18.2201 2.98401 17.625 2.93598 16.5354C2.88333 15.354 2.87034 14.9995 2.87034 12.0107C2.87034 9.02197 2.88333 8.66318 2.93598 7.48614C2.98401 6.39218 3.16776 5.80144 3.32092 5.40761C3.50039 4.92183 3.78482 4.47997 4.16122 4.12101C4.52427 3.74906 4.96186 3.46463 5.44765 3.28532C5.84147 3.13217 6.43666 2.94842 7.52618 2.90021C8.70765 2.84774 9.06217 2.83458 12.0507 2.83458C15.0439 2.83458 15.3983 2.84774 16.5755 2.90021C17.6694 2.94842 18.2602 3.13217 18.654 3.28532C19.1396 3.46463 19.5816 3.74906 19.9404 4.12101C20.3124 4.48424 20.5968 4.92183 20.7763 5.40761C20.9294 5.80144 21.1132 6.39645 21.1614 7.48614C21.2139 8.66763 21.227 9.02197 21.227 12.0107C21.227 14.9995 21.2139 15.3495 21.1614 16.531Z" fill="white"/>
<path d="M12.0414 6.2478C8.86459 6.2478 6.28711 8.82511 6.28711 12.0021C6.28711 15.179 8.86459 17.7563 12.0414 17.7563C15.2183 17.7563 17.7956 15.179 17.7956 12.0021C17.7956 8.82511 15.2183 6.2478 12.0414 6.2478ZM12.0414 15.7347C9.98043 15.7347 8.30872 14.0631 8.30872 12.0021C8.30872 9.94096 9.98043 8.26941 12.0414 8.26941C14.1025 8.26941 15.774 9.94096 15.774 12.0021C15.774 14.0631 14.1025 15.7347 12.0414 15.7347Z" fill="white"/>
<path d="M19.3666 6.02036C19.3666 6.76221 18.7651 7.36372 18.023 7.36372C17.2812 7.36372 16.6797 6.76221 16.6797 6.02036C16.6797 5.27834 17.2812 4.677 18.023 4.677C18.7651 4.677 19.3666 5.27834 19.3666 6.02036Z" fill="white"/>
</g>
<defs>
<clipPath id="clip0">
<rect width="22.4" height="22.4" fill="white" transform="translate(0.800781 0.799805)"/>
</clipPath>
</defs>
</svg>
