<svg width="36" height="36" viewBox="0 0 36 36" fill="none" xmlns="http://www.w3.org/2000/svg">
<path d="M32.9138 17.2625H3.03936C1.96928 17.2625 1.10156 18.1302 1.10156 19.2002C1.10156 20.2706 1.96928 21.138 3.03936 21.138H5.7003L16.1114 26.117L5.6236 31.3062C5.38793 31.4195 5.23099 31.6508 5.21333 31.9117C5.19542 32.1729 5.3193 32.4234 5.53756 32.5678C5.75632 32.7118 6.03488 32.7277 6.26852 32.6089L17.7772 26.9141L29.6937 32.6129C29.9283 32.7275 30.2059 32.7068 30.4211 32.5599C30.6368 32.4128 30.757 32.1618 30.7363 31.9016C30.7156 31.6418 30.5569 31.4129 30.3204 31.3021L19.4329 26.0948L29.4499 21.138H32.9138C33.9838 21.138 34.8516 20.2706 34.8516 19.2002C34.8516 18.1302 33.9838 17.2625 32.9138 17.2625ZM17.7666 25.298L9.06925 21.138H26.1734L17.7666 25.298ZM32.9138 19.6847H3.03936C2.7719 19.6847 2.55491 19.4677 2.55491 19.2002C2.55491 18.9328 2.7719 18.7158 3.03936 18.7158H32.9138C33.1812 18.7158 33.3982 18.9328 33.3982 19.2002C33.3982 19.4677 33.1812 19.6847 32.9138 19.6847Z" fill="#D7B56D"/>
<path d="M6.35853 16.7781H13.4951C14.2263 16.7725 14.8162 16.1783 14.8162 15.4468C14.8162 14.7159 14.2263 14.1212 13.4951 14.1156H8.05663C7.74426 14.1156 7.49143 14.3689 7.49143 14.6808C7.49143 14.9929 7.74426 15.246 8.05663 15.246H13.4951C13.6046 15.2483 13.6919 15.3373 13.6919 15.4468C13.6919 15.5563 13.6046 15.6457 13.4951 15.6477H6.35853C6.03606 15.6474 5.77492 15.3863 5.77466 15.0641V14.3745C5.77492 14.0523 6.03606 13.7911 6.35853 13.7906H13.2778C14.2243 13.7894 14.9911 13.0228 14.9921 12.0766V11.3871C14.9918 10.8055 14.6961 10.264 14.2074 9.94884C14.708 9.63218 14.9383 9.02284 14.7736 8.45411C14.6086 7.88564 14.0873 7.49455 13.4948 7.4948H8.05663C7.74426 7.4948 7.49143 7.74813 7.49143 8.06C7.49143 8.37211 7.74426 8.62519 8.05663 8.62519H13.4951C13.6046 8.62746 13.6919 8.71653 13.6919 8.82603C13.6919 8.93554 13.6046 9.02486 13.4951 9.02688H6.35853C6.03606 9.02662 5.77492 8.76547 5.77466 8.44327V7.75368C5.77492 7.43147 6.03606 7.17032 6.35853 7.16982H13.2778C14.2243 7.16856 14.9911 6.40202 14.9921 5.45583V4.76625C14.9911 3.82006 14.2243 3.05326 13.2781 3.052H6.14153C5.41032 3.05781 4.8204 3.65201 4.8204 4.38348C4.8204 5.11444 5.41032 5.7089 6.14153 5.71471H11.5035C11.8157 5.71471 12.0687 5.46138 12.0687 5.14952C12.0687 4.83715 11.8157 4.58432 11.5035 4.58432H6.14153C6.03203 4.58205 5.94473 4.49273 5.94473 4.38348C5.94473 4.27397 6.03203 4.18465 6.14153 4.18238H13.2781C13.6006 4.18289 13.8617 4.44404 13.862 4.76625V5.45583C13.8617 5.77804 13.6006 6.03919 13.2781 6.03944H6.35878C5.41233 6.0407 4.64554 6.80749 4.64453 7.75368V8.44327C4.64478 9.02486 4.9405 9.56633 5.42924 9.88147C4.92864 10.1981 4.69827 10.8075 4.86304 11.3759C5.02805 11.9447 5.54934 12.3358 6.14179 12.3355H11.5038C11.8157 12.3355 12.069 12.0822 12.069 11.7703C12.069 11.458 11.8157 11.2051 11.5038 11.2051H6.14153C6.03203 11.2029 5.94473 11.1135 5.94473 11.0043C5.94473 10.8948 6.03203 10.8055 6.14153 10.8032H13.2781C13.6006 10.8037 13.8617 11.0648 13.862 11.3871V12.0766C13.8617 12.3988 13.6006 12.66 13.2781 12.6602H6.35878C5.41233 12.6615 4.64554 13.4283 4.64453 14.3745V15.0641C4.64554 16.0103 5.41233 16.7768 6.35853 16.7781Z" fill="#D7B56D"/>
<path d="M19.2644 16.778H28.9534C29.2658 16.778 29.5186 16.5252 29.5186 16.2128V10.8839C29.5174 9.68033 28.5421 8.70512 27.3386 8.70386H22.6556C22.3432 8.70386 22.0904 8.95693 22.0904 9.26905V10.6417C22.0904 10.954 22.3432 11.2069 22.6556 11.2069H25.4008C25.7132 11.2069 25.966 10.954 25.966 10.6417V9.83424H27.3386C27.9179 9.835 28.3877 10.3046 28.3882 10.8839V11.6106H23.3015C20.7609 11.6136 18.702 13.6725 18.6992 16.2128C18.6992 16.5252 18.952 16.778 19.2644 16.778ZM24.8356 10.0765H23.2208V9.83424H24.8356V10.0765ZM19.8755 15.6476C19.8982 15.5114 19.929 15.3764 19.9681 15.2439H28.3882V15.6476H19.8755ZM23.3015 12.7409H28.3882V14.1136H20.5384C21.1941 13.2491 22.2165 12.7409 23.3015 12.7409Z" fill="#D7B56D"/>
</svg>
