<svg width="36" height="36" viewBox="0 0 36 36" fill="none" xmlns="http://www.w3.org/2000/svg">
<path d="M33.1802 2.81323H2.81641V30.9263H33.1801V2.81323H33.1802ZM32.0744 29.8205H3.92214V3.91897H32.0743V29.8205H32.0744Z" fill="#D7B56D"/>
<path d="M0.00390625 0V33.7396H1.6919V36H2.79763V33.7396H33.2197V36H34.3255V33.7396H35.9941V0H0.00390625ZM34.8884 32.6339H1.10964V1.10573H34.8884V32.6339Z" fill="#D7B56D"/>
<path d="M7.32031 16.8698C7.32031 20.2772 10.0924 23.0492 13.4997 23.0492C16.9071 23.0492 19.6791 20.2772 19.6791 16.8698C19.6791 13.4625 16.9071 10.6904 13.4997 10.6904C10.0924 10.6904 7.32031 13.4626 7.32031 16.8698ZM18.5733 16.8698C18.5733 19.6674 16.2972 21.9434 13.4997 21.9434C10.7021 21.9434 8.42605 19.6674 8.42605 16.8698C8.42605 14.0722 10.7021 11.7962 13.4997 11.7962C16.2972 11.7962 18.5733 14.0723 18.5733 16.8698Z" fill="#D7B56D"/>
<path d="M12.9459 12.9312V14.1213C11.664 14.3787 10.6953 15.5132 10.6953 16.8698C10.6953 18.4156 11.953 19.6732 13.4988 19.6732C15.0446 19.6732 16.3022 18.4156 16.3022 16.8698C16.3022 15.5132 15.3336 14.3787 14.0517 14.1213V12.9312H12.9459ZM15.1965 16.8698C15.1965 17.8059 14.4349 18.5675 13.4988 18.5675C12.5627 18.5675 11.801 17.8058 11.801 16.8698C11.801 15.9948 12.4663 15.2726 13.3175 15.1818H13.68C14.5312 15.2726 15.1965 15.9949 15.1965 16.8698Z" fill="#D7B56D"/>
<path d="M24.1879 12.9409H23.0625V14.0467H24.1879V12.9409Z" fill="#D7B56D"/>
<path d="M26.4418 12.9409H25.3164V14.0467H26.4418V12.9409Z" fill="#D7B56D"/>
<path d="M28.6918 12.9409H27.5664V14.0467H28.6918V12.9409Z" fill="#D7B56D"/>
<path d="M24.1879 15.1917H23.0625V16.2974H24.1879V15.1917Z" fill="#D7B56D"/>
<path d="M26.4418 15.1917H25.3164V16.2974H26.4418V15.1917Z" fill="#D7B56D"/>
<path d="M28.6918 15.1917H27.5664V16.2974H28.6918V15.1917Z" fill="#D7B56D"/>
<path d="M24.1879 17.4421H23.0625V18.5479H24.1879V17.4421Z" fill="#D7B56D"/>
<path d="M26.4418 17.4421H25.3164V18.5479H26.4418V17.4421Z" fill="#D7B56D"/>
<path d="M28.6918 17.4421H27.5664V18.5479H28.6918V17.4421Z" fill="#D7B56D"/>
<path d="M24.1879 19.6927H23.0625V20.7985H24.1879V19.6927Z" fill="#D7B56D"/>
<path d="M26.4418 19.6927H25.3164V20.7985H26.4418V19.6927Z" fill="#D7B56D"/>
<path d="M28.6918 19.6927H27.5664V20.7985H28.6918V19.6927Z" fill="#D7B56D"/>
<path d="M14.051 16.3069H12.9453V17.4322H14.051V16.3069Z" fill="#D7B56D"/>
<path d="M30.9445 27.0077H5.0625V28.1134H30.9445V27.0077Z" fill="#D7B56D"/>
<path d="M30.9445 5.62683H5.0625V6.73256H30.9445V5.62683Z" fill="#D7B56D"/>
</svg>
