<svg width="36" height="36" viewBox="0 0 36 36" fill="none" xmlns="http://www.w3.org/2000/svg">
<path d="M6.66883 34.221H29.2765C30.5689 34.2195 31.6165 33.1719 31.618 31.8795V31.7584H34.121C34.5222 31.7584 34.8477 31.4329 34.8477 31.0317C34.8477 30.6305 34.5222 30.3051 34.121 30.3051H1.82433C1.42315 30.3051 1.09766 30.6305 1.09766 31.0317C1.09766 31.4329 1.42315 31.7584 1.82433 31.7584H4.32732V31.8795C4.32884 33.1719 5.37646 34.2195 6.66883 34.221ZM30.1646 31.7584V31.8795C30.1641 32.3695 29.7665 32.7669 29.2765 32.7677H6.66883C6.17883 32.7669 5.78118 32.3695 5.78067 31.8795V31.7584H30.1646Z" fill="#D7B56D"/>
<path d="M4.49219 17.346C4.49219 24.4248 10.2513 30.1839 17.3301 30.1839C21.3435 30.1837 25.1252 28.3046 27.5495 25.1065H30.7332C32.9173 25.104 34.687 23.334 34.6896 21.1502V16.3057C34.6896 15.9042 34.3641 15.579 33.9629 15.579H30.168V14.1163C30.168 13.7151 29.8425 13.3896 29.4413 13.3896H5.21886C4.81768 13.3896 4.49219 13.7151 4.49219 14.1163V17.346ZM17.3301 28.7306C12.1303 28.7306 7.73295 25.2259 6.377 20.4545H16.9542V25.7431C16.9542 26.1443 17.2794 26.4698 17.6808 26.4698H23.3327C23.7339 26.4698 24.0594 26.1443 24.0594 25.7431V20.4545H28.2835C26.9273 25.2259 22.5299 28.7306 17.3301 28.7306ZM20.6405 20.3738C21.0417 20.3738 21.3672 20.0483 21.3672 19.6471V18.8205L22.6058 19.9312V25.0164H18.4072V19.9504L19.9138 18.7135V19.6471C19.9138 20.0483 20.2393 20.3738 20.6405 20.3738ZM33.2362 17.0324V21.1502C33.2347 22.5321 32.1149 23.6517 30.7332 23.6532H28.5083C29.5988 21.73 30.1705 19.5565 30.168 17.346V17.0324H33.2362ZM28.7147 17.346C28.7144 17.8998 28.6741 18.4529 28.5936 19.0012H23.7455L21.3672 16.8681V14.843H28.7147V17.346ZM5.94554 14.843H19.9138V16.8335L17.2731 19.0012H6.06665C5.98616 18.4529 5.94579 17.8998 5.94554 17.346V14.843Z" fill="#D7B56D"/>
<path d="M17.3243 1.72241C16.9231 1.72241 16.5977 2.0479 16.5977 2.44909V9.95806C16.5977 10.3592 16.9231 10.6847 17.3243 10.6847C17.7255 10.6847 18.051 10.3592 18.051 9.95806V2.44909C18.051 2.0479 17.7255 1.72241 17.3243 1.72241Z" fill="#D7B56D"/>
<path d="M22.172 10.6848C22.5732 10.6848 22.8987 10.3594 22.8987 9.95817V4.87145C22.8987 4.47026 22.5732 4.14478 22.172 4.14478C21.7708 4.14478 21.4453 4.47026 21.4453 4.87145V9.95817C21.4453 10.3594 21.7708 10.6848 22.172 10.6848Z" fill="#D7B56D"/>
<path d="M11.7578 4.87145V9.95817C11.7578 10.3594 12.0833 10.6848 12.4845 10.6848C12.8857 10.6848 13.2111 10.3594 13.2111 9.95817V4.87145C13.2111 4.47026 12.8857 4.14478 12.4845 4.14478C12.0833 4.14478 11.7578 4.47026 11.7578 4.87145Z" fill="#D7B56D"/>
</svg>
