<svg width="30" height="30" viewBox="0 0 30 30" fill="none" xmlns="http://www.w3.org/2000/svg">
<path d="M14.9478 12.7885H23.4695C23.8399 12.7885 24.14 12.4882 24.14 12.118V8.25312C24.14 7.8829 23.8399 7.5824 23.4695 7.5824H14.9478C14.5776 7.5824 14.2773 7.8829 14.2773 8.25312V12.118C14.2773 12.4882 14.5776 12.7885 14.9478 12.7885ZM15.6183 8.9236H22.799V11.4472H15.6183V8.9236Z" fill="#D7B56D"/>
<path d="M14.9478 15.7214H16.1398C16.5103 15.7214 16.8105 15.4209 16.8105 15.0507C16.8105 14.6808 16.5103 14.3802 16.1398 14.3802H14.9478C14.5776 14.3802 14.2773 14.6808 14.2773 15.0507C14.2773 15.4209 14.5776 15.7214 14.9478 15.7214Z" fill="#D7B56D"/>
<path d="M19.7178 14.3802H18.6002C18.23 14.3802 17.9297 14.6808 17.9297 15.0507C17.9297 15.4209 18.23 15.7214 18.6002 15.7214H19.7178C20.0882 15.7214 20.3883 15.4209 20.3883 15.0507C20.3883 14.6808 20.0882 14.3802 19.7178 14.3802Z" fill="#D7B56D"/>
<path d="M23.4405 14.3802H22.3228C21.9526 14.3802 21.6523 14.6808 21.6523 15.0507C21.6523 15.4209 21.9526 15.7214 22.3228 15.7214H23.4405C23.8109 15.7214 24.1109 15.4209 24.1109 15.0507C24.1109 14.6808 23.8109 14.3802 23.4405 14.3802Z" fill="#D7B56D"/>
<path d="M14.9478 18.8506H16.1398C16.5103 18.8506 16.8105 18.5503 16.8105 18.1801C16.8105 17.8099 16.5103 17.5094 16.1398 17.5094H14.9478C14.5776 17.5094 14.2773 17.8099 14.2773 18.1801C14.2773 18.5503 14.5776 18.8506 14.9478 18.8506Z" fill="#D7B56D"/>
<path d="M19.7178 17.5094H18.6002C18.23 17.5094 17.9297 17.8099 17.9297 18.1801C17.9297 18.5503 18.23 18.8506 18.6002 18.8506H19.7178C20.0882 18.8506 20.3883 18.5503 20.3883 18.1801C20.3883 17.8099 20.0882 17.5094 19.7178 17.5094Z" fill="#D7B56D"/>
<path d="M23.4405 17.5093H22.3228C21.9526 17.5093 21.6523 17.8098 21.6523 18.18C21.6523 18.5502 21.9526 18.8505 22.3228 18.8505H23.4405C23.8109 18.8505 24.1109 18.5502 24.1109 18.18C24.1109 17.8098 23.8109 17.5093 23.4405 17.5093Z" fill="#D7B56D"/>
<path d="M14.9478 21.9051H16.1398C16.5103 21.9051 16.8105 21.6048 16.8105 21.2346C16.8105 20.8644 16.5103 20.5641 16.1398 20.5641H14.9478C14.5776 20.5641 14.2773 20.8644 14.2773 21.2346C14.2773 21.6048 14.5776 21.9051 14.9478 21.9051Z" fill="#D7B56D"/>
<path d="M19.7178 20.5641H18.6002C18.23 20.5641 17.9297 20.8644 17.9297 21.2346C17.9297 21.6048 18.23 21.9051 18.6002 21.9051H19.7178C20.0882 21.9051 20.3883 21.6048 20.3883 21.2346C20.3883 20.8644 20.0882 20.5641 19.7178 20.5641Z" fill="#D7B56D"/>
<path d="M23.4405 20.5641H22.3228C21.9526 20.5641 21.6523 20.8644 21.6523 21.2346C21.6523 21.6048 21.9526 21.9051 22.3228 21.9051H23.4405C23.8109 21.9051 24.1109 21.6048 24.1109 21.2346C24.1109 20.8644 23.8109 20.5641 23.4405 20.5641Z" fill="#D7B56D"/>
<path d="M14.9478 25.0343H16.1398C16.5103 25.0343 16.8105 24.7338 16.8105 24.3636C16.8105 23.9936 16.5103 23.6931 16.1398 23.6931H14.9478C14.5776 23.6931 14.2773 23.9936 14.2773 24.3636C14.2773 24.7338 14.5776 25.0343 14.9478 25.0343Z" fill="#D7B56D"/>
<path d="M19.7178 23.6931H18.6002C18.23 23.6931 17.9297 23.9936 17.9297 24.3636C17.9297 24.7338 18.23 25.0343 18.6002 25.0343H19.7178C20.0882 25.0343 20.3883 24.7338 20.3883 24.3636C20.3883 23.9936 20.0882 23.6931 19.7178 23.6931Z" fill="#D7B56D"/>
<path d="M23.4405 23.6931H22.3228C21.9526 23.6931 21.6523 23.9936 21.6523 24.3636C21.6523 24.7338 21.9526 25.0343 22.3228 25.0343H23.4405C23.8109 25.0343 24.1109 24.7338 24.1109 24.3636C24.1109 23.9936 23.8109 23.6931 23.4405 23.6931Z" fill="#D7B56D"/>
<path d="M7.81897 25.1557H9.68076C10.942 25.1557 11.968 24.0758 11.968 22.7486V20.6084C11.968 20.2382 11.668 19.9379 11.2975 19.9379H10.904L10.9189 13.5734H11.2975C11.668 13.5734 11.968 13.2729 11.968 12.9027V9.98974C11.968 8.66252 10.9418 7.58289 9.68076 7.58289H7.81897C6.55773 7.58289 5.53148 8.66252 5.53148 9.98974V12.9027C5.53148 13.2729 5.83199 13.5734 6.2022 13.5734H6.5955L6.58081 19.9379H6.20174C5.83152 19.9379 5.53125 20.2382 5.53125 20.6084V22.7486C5.53148 24.0758 6.55773 25.1557 7.81897 25.1557ZM6.87269 21.2789H7.25013C7.61964 21.2789 7.91968 20.9798 7.92062 20.6098L7.93833 12.9044C7.9388 12.7262 7.86816 12.5554 7.7425 12.429C7.61685 12.3031 7.44596 12.2322 7.26785 12.2322H6.87292V9.98974C6.87292 9.40201 7.29746 8.92386 7.81897 8.92386H9.68076C10.2023 8.92386 10.6268 9.40201 10.6268 9.98974V12.2322H10.2501C9.88009 12.2322 9.58028 12.5316 9.57958 12.9011L9.5614 20.607C9.56093 20.7851 9.63134 20.9558 9.75723 21.0819C9.88312 21.2083 10.0538 21.2789 10.2319 21.2789H10.6268V22.7486C10.6268 23.3365 10.202 23.8147 9.68053 23.8147H7.81897C7.29746 23.8147 6.87269 23.3365 6.87269 22.7486V21.2789Z" fill="#D7B56D"/>
<path d="M8.09414 0.895264C7.72393 0.895264 7.42365 1.19554 7.42365 1.56575V3.71802H4.10106C2.87642 3.71942 1.88421 4.71163 1.88281 5.93627V26.802C1.88421 28.0267 2.87642 29.0189 4.10106 29.0203H25.7963C27.0209 29.0189 28.0131 28.0267 28.0145 26.802V5.93627C28.0131 4.71163 27.0209 3.71942 25.7963 3.71802H8.76462V1.56575C8.76462 1.19554 8.46458 0.895264 8.09414 0.895264V0.895264ZM26.6731 5.93627V26.802C26.6726 27.2862 26.2803 27.6786 25.7963 27.6793H4.10106C3.61661 27.6786 3.22448 27.2862 3.22379 26.802V5.93627C3.22448 5.45182 3.61661 5.05969 4.10106 5.05899H25.7963C26.2803 5.05969 26.6726 5.45182 26.6731 5.93627Z" fill="#D7B56D"/>
</svg>
