<svg width="30" height="30" viewBox="0 0 30 30" fill="none" xmlns="http://www.w3.org/2000/svg">
<path d="M30 7.95472C30 6.97673 29.4962 6.11411 28.7347 5.61278C29.4962 5.11145 30 4.24883 30 3.27084C30 1.72595 28.7432 0.469116 27.1983 0.469116H5.14753C2.30918 0.469175 0 2.77836 0 5.6167C0 7.40077 0.912658 8.97531 2.2953 9.89915C0.991525 10.1383 0 11.2822 0 12.6542C0 13.6322 0.50379 14.4948 1.26533 14.9962C0.50379 15.4974 0 16.36 0 17.338C0 18.7133 0.99633 19.8594 2.30473 20.0948C0.916935 21.0178 0 22.5952 0 24.3833C0 27.2216 2.30918 29.5309 5.14765 29.5309L27.1983 29.5231C28.7432 29.5231 30 28.2662 30 26.7213C30 25.7433 29.4963 24.8807 28.7346 24.3794C29.4963 23.8781 30 23.0155 30 22.0375C30 20.6656 29.0085 19.5216 27.7047 19.2825C29.0873 18.3586 30 16.784 30 15C30 13.2119 29.0831 11.6345 27.6952 10.7114C29.0037 10.4762 30 9.32997 30 7.95472ZM29.0882 22.0375C29.0882 23.035 28.3161 23.8674 27.3356 23.9357L6.08579 23.9275C5.81978 23.9275 5.60333 23.711 5.60333 23.445C5.60333 23.1789 5.81978 22.9625 6.08579 22.9625V22.0507C5.31704 22.0507 4.69161 22.6762 4.69161 23.4449C4.69161 24.2137 5.3171 24.8391 6.08579 24.8391L27.3942 24.8452C28.3561 24.9321 29.0882 25.7371 29.0882 26.7214C29.0882 27.7635 28.2404 28.6113 27.1981 28.6113L5.14753 28.6191C2.81192 28.6191 0.911779 26.7189 0.911779 24.3833C0.911779 22.0477 2.81192 20.1475 5.14753 20.1475H27.1983C28.2404 20.1476 29.0882 20.9954 29.0882 22.0375ZM29.0882 15C29.0882 17.3357 27.1881 19.2358 24.8526 19.2358L2.80161 19.228C1.75952 19.228 0.911721 18.3802 0.911721 17.338C0.911721 16.3539 1.6677 15.543 2.62946 15.4558H23.9141C24.6829 15.4558 25.3084 14.8304 25.3084 14.0616C25.3084 13.2929 24.6829 12.6674 23.9141 12.6674V13.5792C24.1802 13.5792 24.3967 13.7956 24.3967 14.0617C24.3967 14.3277 24.1802 14.5442 23.9141 14.5442L2.66842 14.5395C1.68821 14.4709 0.911779 13.6516 0.911779 12.6542C0.911779 11.612 1.75957 10.7642 2.80172 10.7642H24.8526C27.1881 10.7642 29.0882 12.6644 29.0882 15ZM27.1981 9.84466L5.14753 9.85246C2.81192 9.85246 0.911779 7.95231 0.911779 5.6167C0.911779 3.28109 2.81192 1.3809 5.14753 1.3809H27.1983C28.2405 1.3809 29.0883 2.22869 29.0883 3.27084C29.0883 4.26817 28.3119 5.0876 27.3316 5.15622L6.08585 5.16084C5.81984 5.16084 5.60339 4.9444 5.60339 4.67832C5.60339 4.41225 5.81984 4.1958 6.08585 4.1958V3.28408C5.3171 3.28408 4.69167 3.90957 4.69167 4.67832C4.69167 5.44708 5.31716 6.07257 6.08585 6.07257H27.3705C28.3322 6.15981 29.0883 6.97057 29.0883 7.95472C29.0882 8.99687 28.2404 9.84466 27.1981 9.84466Z" fill="#D7B56D"/>
</svg>
