<svg width="24" height="24" viewBox="0 0 24 24" fill="none" xmlns="http://www.w3.org/2000/svg">
<g clip-path="url(#clip0)">
<path d="M19.3881 12.9594C19.026 12.502 19.1296 12.2986 19.3881 11.8898C19.3928 11.8851 22.3822 7.75415 22.6902 6.35322L22.6921 6.35229C22.8452 5.84175 22.6921 5.46655 21.952 5.46655H19.5029C18.8794 5.46655 18.592 5.78855 18.438 6.14882C18.438 6.14882 17.191 9.13362 15.427 11.0684C14.8577 11.6275 14.5945 11.8067 14.2837 11.8067C14.1306 11.8067 13.8926 11.6275 13.8926 11.117V6.35229C13.8926 5.74002 13.7181 5.46655 13.202 5.46655H9.35105C8.95998 5.46655 8.72758 5.75215 8.72758 6.01815C8.72758 6.59869 9.60958 6.73215 9.70105 8.36549V11.9094C9.70105 12.6859 9.56011 12.8287 9.24745 12.8287C8.41491 12.8287 6.39425 9.83175 5.19678 6.40175C4.95505 5.73629 4.71891 5.46749 4.09078 5.46749H1.64078C0.941715 5.46749 0.800781 5.78949 0.800781 6.14975C0.800781 6.78629 1.63331 9.95122 4.67225 14.1326C6.69758 16.9867 9.54985 18.5332 12.1445 18.5332C13.7041 18.5332 13.8945 18.1898 13.8945 17.599C13.8945 14.8718 13.7536 14.6142 14.5348 14.6142C14.8969 14.6142 15.5204 14.7934 16.9764 16.17C18.6405 17.8024 18.914 18.5332 19.8454 18.5332H22.2945C22.9926 18.5332 23.3464 18.1898 23.1429 17.5122C22.6772 16.087 19.53 13.1554 19.3881 12.9594Z" fill="white"/>
</g>
<defs>
<clipPath id="clip0">
<rect width="22.4" height="22.4" fill="white" transform="translate(0.800781 0.799805)"/>
</clipPath>
</defs>
</svg>
