<svg width="30" height="30" viewBox="0 0 30 30" fill="none" xmlns="http://www.w3.org/2000/svg">
<path d="M28.8668 8.44244C29.1578 8.13814 29.1469 7.65541 28.8426 7.36439C25.199 3.88142 20.2845 1.99376 15.0092 2.04687C12.4867 2.06864 9.98886 2.55031 7.63864 3.46799C5.24223 4.39681 3.0516 5.78793 1.19183 7.56168C0.99321 7.74967 0.910099 8.02928 0.974623 8.29507C1.03888 8.56087 1.24042 8.77223 1.50329 8.84817C1.76564 8.92438 2.04896 8.85428 2.24572 8.66416C5.62911 5.43 10.1676 3.62173 15.0249 3.57208C15.0926 3.57128 15.1606 3.57101 15.2283 3.57101C20.027 3.57101 24.481 5.30546 27.7882 8.46687C28.0927 8.75816 28.5755 8.74727 28.8668 8.44244Z" fill="#D7B56D"/>
<path d="M24.1155 14.3649C24.4076 14.0614 24.3983 13.5787 24.0953 13.2866C21.6814 10.9624 18.4592 9.71202 15.0168 9.76778C11.6303 9.81451 8.38707 11.1416 5.93888 13.4818C5.63432 13.773 5.62343 14.2558 5.91445 14.5601C6.20574 14.8646 6.68821 14.8755 6.99277 14.5842C9.16348 12.5099 12.0389 11.3339 15.0415 11.2927C18.0755 11.2436 20.9161 12.3429 23.0377 14.3851C23.341 14.6769 23.8234 14.6682 24.1155 14.3649Z" fill="#D7B56D"/>
<path d="M19.6112 20.0857C19.9022 19.7812 19.8913 19.2984 19.587 19.0077C18.3847 17.8579 16.7583 17.2562 15.0087 17.3165C13.3189 17.3675 11.7071 18.0398 10.4817 19.2047C10.1774 19.4957 10.1663 19.9784 10.4576 20.283C10.7486 20.5873 11.2313 20.5985 11.5356 20.3074C12.4939 19.4073 13.7464 18.8861 15.06 18.8407C16.3967 18.7952 17.6298 19.2466 18.5331 20.1099C18.8374 20.4012 19.3204 20.39 19.6112 20.0857Z" fill="#D7B56D"/>
<path d="M17.8988 24.925C17.8988 23.3337 16.6088 22.0437 15.0177 22.0437C13.4267 22.0437 12.1367 23.3337 12.1367 24.925C12.1367 26.516 13.4267 27.806 15.0177 27.806C16.6083 27.8044 17.8972 26.5152 17.8988 24.925ZM15.0177 26.2808C14.2689 26.2808 13.6619 25.6735 13.6619 24.925C13.6619 24.1762 14.2689 23.5692 15.0177 23.5692C15.7665 23.5692 16.3735 24.1762 16.3735 24.925C16.3725 25.6732 15.7663 26.28 15.0177 26.2808Z" fill="#D7B56D"/>
</svg>
