<svg xmlns="http://www.w3.org/2000/svg" width="34.113" height="43.447" viewBox="0 0 34.113 43.447">
  <g id="calculator" transform="translate(-13.75)">
    <g id="Контур_43" data-name="Контур 43" fill="none">
      <path d="M45.232,0H16.381A2.634,2.634,0,0,0,13.75,2.631V40.817a2.634,2.634,0,0,0,2.631,2.631H45.232a2.634,2.634,0,0,0,2.631-2.631V2.63A2.634,2.634,0,0,0,45.232,0Zm1.443,40.816a1.444,1.444,0,0,1-1.443,1.443H16.381a1.444,1.444,0,0,1-1.443-1.443V2.63a1.444,1.444,0,0,1,1.443-1.442H45.232a1.444,1.444,0,0,1,1.443,1.443Z" stroke="none"/>
      <path d="M 16.38058471679688 0 L 45.23220825195313 0 L 45.23219680786133 0 C 46.68407440185547 0.001678466796875 47.86073684692383 1.17803955078125 47.86279678344727 2.629909515380859 L 47.86279678344727 40.81655120849609 C 47.86110687255859 42.2686882019043 46.6843376159668 43.44546127319336 45.23220825195313 43.44713973999023 L 16.38058471679688 43.44713973999023 C 14.92844772338867 43.44546127319336 13.75168609619141 42.2686882019043 13.74999618530273 40.81655120849609 L 13.74999618530273 2.630588531494141 C 13.75168609619141 1.178451538085938 14.92844772338867 0.001678466796875 16.38058471679688 0 Z M 45.23220825195313 42.25844955444336 C 46.02860641479492 42.25770950317383 46.67403411865234 41.61228179931641 46.67477416992188 40.81586837768555 L 46.67477416992188 2.630588531494141 C 46.67403411865234 1.834178924560547 46.02860641479492 1.188751220703125 45.23220825195313 1.188011169433594 L 16.38058471679688 1.188011169433594 C 15.58444595336914 1.188751220703125 14.93913650512695 1.833770751953125 14.93800735473633 2.629909515380859 L 14.93800735473633 40.81586837768555 C 14.93875503540039 41.61228179931641 15.58418655395508 42.25770950317383 16.38058471679688 42.25844955444336 L 45.23220825195313 42.25844955444336 Z M 45.23219680786133 0 L 45.23220825195313 0 L 45.23219680786133 0 Z M 45.23220825195313 0 L 45.23219680786133 0 Z" stroke="none" fill="#fff"/>
    </g>
    <g id="Контур_44" data-name="Контур 44" transform="translate(-6.606 -6.606)" fill="none">
      <path d="M50.48,10H24.344a.594.594,0,0,0-.594.594v7.467a.594.594,0,0,0,.594.594H50.48a.594.594,0,0,0,.594-.594V10.594A.594.594,0,0,0,50.48,10Zm-.594,7.467H24.938V11.188H49.886Z" stroke="none"/>
      <path d="M 24.34365844726563 10.00000190734863 C 24.3437614440918 10.00000190734863 24.34389114379883 10.00000190734863 24.34399795532227 10.00000190734863 L 50.48017883300781 10.00000190734863 C 50.48016738891602 10.00000190734863 50.48016738891602 10.00000190734863 50.48016738891602 10.00000190734863 L 50.48017883300781 10.00000190734863 C 50.48028182983398 10.00000190734863 50.48039245605469 10.00000190734863 50.48050689697266 10.00000190734863 C 50.6379508972168 10.00000381469727 50.78895568847656 10.06254386901855 50.90029907226563 10.17388343811035 C 51.0117073059082 10.28529167175293 51.07426452636719 10.43643188476563 51.07417678833008 10.59400177001953 L 51.07417678833008 18.06148147583008 C 51.07426452636719 18.21905136108398 51.0117073059082 18.37019348144531 50.90029907226563 18.48160171508789 C 50.7889518737793 18.59294891357422 50.63796234130859 18.65548324584961 50.48051452636719 18.65548324584961 C 50.48040771484375 18.65548324584961 50.48028182983398 18.65548324584961 50.48017883300781 18.65548324584961 L 24.34399795532227 18.65548324584961 C 24.34387969970703 18.65548324584961 24.34377288818359 18.65548324584961 24.34365844726563 18.65548324584961 C 24.18622207641602 18.65548324584961 24.03521347045898 18.59294128417969 23.92387771606445 18.48160171508789 C 23.81245803833008 18.37019348144531 23.74990463256836 18.21905136108398 23.74999618530273 18.06148147583008 L 23.74999618530273 10.59400177001953 C 23.74990463256836 10.43643188476563 23.81245803833008 10.28529167175293 23.92387771606445 10.17388343811035 C 24.03522109985352 10.06253814697266 24.18621063232422 10.00000190734863 24.34365844726563 10.00000190734863 Z M 49.88616561889648 17.46748352050781 L 49.88616561889648 11.18800163269043 L 24.93800735473633 11.18800163269043 L 24.93800735473633 17.46748352050781 L 49.88616561889648 17.46748352050781 Z" stroke="none" fill="#fff"/>
    </g>
    <g id="Контур_45" data-name="Контур 45" transform="translate(-25.762 -64.421)" fill="none">
      <path d="M59.793,97.523H53.344a.594.594,0,0,0-.594.594v5.761a.594.594,0,0,0,.594.6h6.449a.594.594,0,0,0,.594-.594V98.117A.594.594,0,0,0,59.793,97.523Zm-.594,5.763H53.938V98.711H59.2Z" stroke="none"/>
      <path d="M 53.34399795532227 97.52300262451172 L 59.79317855834961 97.52300262451172 C 60.12123870849609 97.52300262451172 60.38718795776367 97.78894805908203 60.38718795776367 98.11700439453125 L 60.38718795776367 103.8795166015625 C 60.38727951049805 104.0370864868164 60.3247184753418 104.1882400512695 60.21331024169922 104.2996597290039 C 60.10196304321289 104.4109878540039 59.95097351074219 104.4735260009766 59.79351806640625 104.4735260009766 C 59.79341125488281 104.4735260009766 59.79328536987305 104.4735260009766 59.79317855834961 104.4735260009766 L 53.34399795532227 104.4735260009766 C 53.3438835144043 104.4735260009766 53.34377670288086 104.4735260009766 53.34365844726563 104.4735260009766 C 53.18598556518555 104.4735260009766 53.03476715087891 104.4107971191406 52.92338943481445 104.2991638183594 C 52.81193923950195 104.1874542236328 52.74953842163086 104.0359649658203 52.7499885559082 103.8781585693359 L 52.7499885559082 98.11700439453125 C 52.7499885559082 97.78894805908203 53.01593780517578 97.52300262451172 53.34399795532227 97.52300262451172 Z M 59.19883728027344 103.285514831543 L 59.19883728027344 98.71101379394531 L 53.93766021728516 98.71101379394531 L 53.93766021728516 103.285514831543 L 59.19883728027344 103.285514831543 Z" stroke="none" fill="#fff"/>
    </g>
    <g id="Контур_46" data-name="Контур 46" transform="translate(-6.606 -64.421)" fill="none">
      <path d="M30.8,97.523H24.344a.594.594,0,0,0-.594.594v5.761a.594.594,0,0,0,.594.6H30.8a.594.594,0,0,0,.594-.594V98.117A.594.594,0,0,0,30.8,97.523Zm-.594,5.763H24.938V98.711h5.271Z" stroke="none"/>
      <path d="M 24.34400177001953 97.52300262451172 L 30.80303192138672 97.52300262451172 C 31.13108253479004 97.52300262451172 31.39703178405762 97.78894805908203 31.39703178405762 98.11700439453125 L 31.39703178405762 103.8795166015625 C 31.39712142944336 104.0370864868164 31.33457183837891 104.1882400512695 31.22315216064453 104.2996597290039 C 31.11180686950684 104.4109878540039 30.96081733703613 104.4735260009766 30.80337142944336 104.4735260009766 C 30.80326652526855 104.4735260009766 30.80313682556152 104.4735260009766 30.80303192138672 104.4735260009766 L 24.34400177001953 104.4735260009766 C 24.34388542175293 104.4735260009766 24.34377861022949 104.4735260009766 24.34366226196289 104.4735260009766 C 24.18597793579102 104.4735260009766 24.03477096557617 104.4107971191406 23.92339134216309 104.2991638183594 C 23.81193161010742 104.1874542236328 23.74954223632813 104.0359649658203 23.74999237060547 103.8781585693359 L 23.74999237060547 98.11700439453125 C 23.74999237060547 97.78894805908203 24.01594161987305 97.52300262451172 24.34400177001953 97.52300262451172 Z M 30.20902252197266 103.285514831543 L 30.20902252197266 98.71101379394531 L 24.93800163269043 98.71101379394531 L 24.93800163269043 103.285514831543 L 30.20902252197266 103.285514831543 Z" stroke="none" fill="#fff"/>
    </g>
    <g id="Контур_47" data-name="Контур 47" transform="translate(-25.762 -46.085)" fill="none">
      <path d="M59.793,69.766H53.344a.594.594,0,0,0-.594.594v5.761a.594.594,0,0,0,.594.594h6.449a.594.594,0,0,0,.594-.594V70.36a.594.594,0,0,0-.594-.594ZM59.2,75.527H53.938V70.954H59.2Z" stroke="none"/>
      <path d="M 53.34366607666016 69.76599884033203 C 53.34377288818359 69.76599884033203 53.34389877319336 69.76599884033203 53.3440055847168 69.76599884033203 L 59.79318618774414 69.76599884033203 C 59.79330062866211 69.76599884033203 59.79341125488281 69.76599884033203 59.79352569580078 69.76599884033203 C 59.95096969604492 69.76599884033203 60.10197830200195 69.82854461669922 60.21330642700195 69.93988037109375 C 60.32472610473633 70.05129241943359 60.38728713989258 70.20243835449219 60.3871955871582 70.36000061035156 L 60.3871955871582 76.12081909179688 C 60.38728713989258 76.27838897705078 60.32472610473633 76.42952728271484 60.21330642700195 76.54094696044922 C 60.10196304321289 76.65229034423828 59.95095443725586 76.71482849121094 59.79348754882813 76.71482849121094 C 59.79339218139648 76.71482849121094 59.79328155517578 76.71482849121094 59.79318618774414 76.71482849121094 L 53.3440055847168 76.71482849121094 C 53.34389877319336 76.71482849121094 53.34381103515625 76.71482849121094 53.34370422363281 76.71482849121094 C 53.18624877929688 76.71482849121094 53.03522109985352 76.65228271484375 52.92387771606445 76.54094696044922 C 52.81246566772461 76.42952728271484 52.74990463256836 76.27838897705078 52.74999618530273 76.12081909179688 L 52.74999618530273 70.36000061035156 C 52.74990463256836 70.20243835449219 52.81246566772461 70.05129241943359 52.92387771606445 69.93988037109375 C 53.03522109985352 69.82853698730469 53.18621063232422 69.76599884033203 53.34366607666016 69.76599884033203 Z M 59.19917678833008 75.52681732177734 L 59.19917678833008 70.95400238037109 L 53.93800735473633 70.95400238037109 L 53.93800735473633 75.52681732177734 L 59.19917678833008 75.52681732177734 Z" stroke="none" fill="#fff"/>
    </g>
    <g id="Контур_48" data-name="Контур 48" transform="translate(-6.606 -46.085)" fill="none">
      <path d="M30.8,69.766H24.344a.594.594,0,0,0-.594.594v5.761a.594.594,0,0,0,.594.594H30.8a.594.594,0,0,0,.594-.594V70.36a.594.594,0,0,0-.594-.594Zm-.594,5.761H24.938V70.954h5.271Z" stroke="none"/>
      <path d="M 24.34366798400879 69.76599884033203 C 24.34377288818359 69.76599884033203 24.34390068054199 69.76599884033203 24.34400749206543 69.76599884033203 L 30.80302619934082 69.76599884033203 C 30.80314254760742 69.76599884033203 30.80325126647949 69.76599884033203 30.80336570739746 69.76599884033203 C 30.96081161499023 69.76599884033203 31.11181831359863 69.82854461669922 31.2231559753418 69.93988037109375 C 31.33456611633301 70.05129241943359 31.39712715148926 70.20243835449219 31.39703750610352 70.36000061035156 L 31.39703750610352 76.12081909179688 C 31.39712715148926 76.27838897705078 31.33456611633301 76.42952728271484 31.2231559753418 76.54094696044922 C 31.1118049621582 76.65229034423828 30.96079444885254 76.71482849121094 30.80332946777344 76.71482849121094 C 30.80323219299316 76.71482849121094 30.80312347412109 76.71482849121094 30.80302619934082 76.71482849121094 L 24.34400749206543 76.71482849121094 C 24.34390068054199 76.71482849121094 24.34381103515625 76.71482849121094 24.34370422363281 76.71482849121094 C 24.18624877929688 76.71482849121094 24.03522109985352 76.65228271484375 23.92387771606445 76.54094696044922 C 23.81246757507324 76.42952728271484 23.74990653991699 76.27838897705078 23.74999618530273 76.12081909179688 L 23.74999618530273 70.36000061035156 C 23.74990653991699 70.20243835449219 23.81246757507324 70.05129241943359 23.92387771606445 69.93988037109375 C 24.03522109985352 69.82853698730469 24.18621253967285 69.76599884033203 24.34366798400879 69.76599884033203 Z M 30.20902633666992 75.52681732177734 L 30.20902633666992 70.95400238037109 L 24.93800735473633 70.95400238037109 L 24.93800735473633 75.52681732177734 L 30.20902633666992 75.52681732177734 Z" stroke="none" fill="#fff"/>
    </g>
    <g id="Контур_49" data-name="Контур 49" transform="translate(-44.9 -46.085)" fill="none">
      <path d="M88.774,69.766H82.315a.594.594,0,0,0-.594.594V85.543a.594.594,0,0,0,.594.594h6.459a.594.594,0,0,0,.594-.594V70.36a.594.594,0,0,0-.594-.594ZM88.18,84.949H82.909V70.954H88.18Z" stroke="none"/>
      <path d="M 82.31466674804688 69.76599884033203 C 82.31477355957031 69.76599884033203 82.31489562988281 69.76599884033203 82.31500244140625 69.76599884033203 L 88.77403259277344 69.76599884033203 C 88.77414703369141 69.76599884033203 88.77426147460938 69.76599884033203 88.77437591552734 69.76599884033203 C 88.93180847167969 69.76599884033203 89.08282470703125 69.82854461669922 89.19415283203125 69.93988037109375 C 89.30557250976563 70.05129241943359 89.36812591552734 70.20243835449219 89.3680419921875 70.36000061035156 L 89.36803436279297 85.54273986816406 C 89.36812591552734 85.70030212402344 89.30557250976563 85.85144805908203 89.19415283203125 85.96286010742188 C 89.08281707763672 86.07420349121094 88.93182373046875 86.13674926757813 88.77437591552734 86.13674926757813 C 88.77426910400391 86.13674926757813 88.77413940429688 86.13674926757813 88.77403259277344 86.13674926757813 L 82.31500244140625 86.13674926757813 C 82.31488800048828 86.13674926757813 82.31478118896484 86.13674926757813 82.31466674804688 86.13674926757813 C 82.15721893310547 86.13674926757813 82.0062255859375 86.07419586181641 81.89488220214844 85.96286010742188 C 81.78346252441406 85.85144805908203 81.72091674804688 85.70030212402344 81.72100830078125 85.54273986816406 L 81.72100830078125 70.36000061035156 C 81.72091674804688 70.20243835449219 81.78346252441406 70.05129241943359 81.89488220214844 69.93988037109375 C 82.00623321533203 69.82853698730469 82.15721130371094 69.76599884033203 82.31466674804688 69.76599884033203 Z M 88.18003845214844 84.94873809814453 L 88.18003845214844 70.95400238037109 L 82.90901184082031 70.95400238037109 L 82.90901184082031 84.94873809814453 L 88.18003845214844 84.94873809814453 Z" stroke="none" fill="#fff"/>
    </g>
    <g id="Контур_50" data-name="Контур 50" transform="translate(-25.762 -27.749)" fill="none">
      <path d="M59.793,42.008H53.344a.594.594,0,0,0-.594.594v5.761a.594.594,0,0,0,.594.594h6.449a.594.594,0,0,0,.594-.594V42.6a.594.594,0,0,0-.594-.594ZM59.2,47.769H53.938V43.2H59.2Z" stroke="none"/>
      <path d="M 53.34366607666016 42.00799942016602 C 53.34377288818359 42.00799942016602 53.34389877319336 42.00799942016602 53.3440055847168 42.00799942016602 L 59.79318618774414 42.00799942016602 C 59.79330062866211 42.00799942016602 59.79341125488281 42.00799942016602 59.79352569580078 42.00799942016602 C 59.95096969604492 42.00800323486328 60.10197830200195 42.07054138183594 60.21330642700195 42.18188095092773 C 60.32472610473633 42.29328918457031 60.38728713989258 42.44443130493164 60.3871955871582 42.60200119018555 L 60.3871955871582 48.36281967163086 C 60.38728713989258 48.52038955688477 60.32472610473633 48.6715202331543 60.21330642700195 48.78293991088867 C 60.10197067260742 48.894287109375 59.95098114013672 48.95682144165039 59.79352569580078 48.95682144165039 C 59.79341888427734 48.95682144165039 59.79329299926758 48.95682144165039 59.79318618774414 48.95682144165039 L 53.3440055847168 48.95682144165039 C 53.34389114379883 48.95682144165039 53.34378051757813 48.95682144165039 53.34366607666016 48.95682144165039 C 53.18622207641602 48.95682144165039 53.03521347045898 48.89427947998047 52.92387771606445 48.78293991088867 C 52.81246566772461 48.6715202331543 52.74990463256836 48.52038955688477 52.74999618530273 48.36281967163086 L 52.74999618530273 42.60200119018555 C 52.74990463256836 42.44443130493164 52.81246566772461 42.29328918457031 52.92387771606445 42.18188095092773 C 53.03522109985352 42.07053375244141 53.18621063232422 42.00799942016602 53.34366607666016 42.00799942016602 Z M 59.19884490966797 47.7688102722168 L 59.19884490966797 43.19601058959961 L 53.93766403198242 43.19601058959961 L 53.93766403198242 47.7688102722168 L 59.19884490966797 47.7688102722168 Z" stroke="none" fill="#fff"/>
    </g>
    <g id="Контур_51" data-name="Контур 51" transform="translate(-6.606 -27.749)" fill="none">
      <path d="M30.8,42.008H24.344a.594.594,0,0,0-.594.594v5.761a.594.594,0,0,0,.594.594H30.8a.594.594,0,0,0,.594-.594V42.6a.594.594,0,0,0-.594-.594Zm-.594,5.761H24.938V43.2h5.271Z" stroke="none"/>
      <path d="M 24.34366798400879 42.00799942016602 C 24.34377288818359 42.00799942016602 24.34390068054199 42.00799942016602 24.34400749206543 42.00799942016602 L 30.80302619934082 42.00799942016602 C 30.80314254760742 42.00799942016602 30.80325126647949 42.00799942016602 30.80336570739746 42.00799942016602 C 30.96081161499023 42.00800323486328 31.11181831359863 42.07054138183594 31.2231559753418 42.18188095092773 C 31.33456611633301 42.29328918457031 31.39712715148926 42.44443130493164 31.39703750610352 42.60200119018555 L 31.39703750610352 48.36281967163086 C 31.39712715148926 48.52038955688477 31.33456611633301 48.6715202331543 31.2231559753418 48.78293991088867 C 31.11181259155273 48.894287109375 30.9608211517334 48.95682144165039 30.80336570739746 48.95682144165039 C 30.80326080322266 48.95682144165039 30.80313301086426 48.95682144165039 30.80302619934082 48.95682144165039 L 24.34400749206543 48.95682144165039 C 24.34389114379883 48.95682144165039 24.34378242492676 48.95682144165039 24.34366798400879 48.95682144165039 C 24.18622207641602 48.95682144165039 24.03521537780762 48.89427947998047 23.92387771606445 48.78293991088867 C 23.81246757507324 48.6715202331543 23.74990653991699 48.52038955688477 23.74999618530273 48.36281967163086 L 23.74999618530273 42.60200119018555 C 23.74990653991699 42.44443130493164 23.81246757507324 42.29328918457031 23.92387771606445 42.18188095092773 C 24.03522109985352 42.07053375244141 24.18621253967285 42.00799942016602 24.34366798400879 42.00799942016602 Z M 30.20902633666992 47.7688102722168 L 30.20902633666992 43.19601058959961 L 24.93800735473633 43.19601058959961 L 24.93800735473633 47.7688102722168 L 30.20902633666992 47.7688102722168 Z" stroke="none" fill="#fff"/>
    </g>
    <g id="Контур_52" data-name="Контур 52" transform="translate(-44.9 -27.749)" fill="none">
      <path d="M88.774,42.008H82.315a.594.594,0,0,0-.594.594v5.761a.594.594,0,0,0,.594.594h6.459a.594.594,0,0,0,.594-.594V42.6a.594.594,0,0,0-.594-.594Zm-.594,5.761H82.909V43.2H88.18Z" stroke="none"/>
      <path d="M 82.31466674804688 42.00799942016602 C 82.31477355957031 42.00799942016602 82.31489562988281 42.00799942016602 82.31500244140625 42.00799942016602 L 88.77403259277344 42.00799942016602 C 88.77414703369141 42.00799942016602 88.77426147460938 42.00799942016602 88.77437591552734 42.00799942016602 C 88.93180847167969 42.00800323486328 89.08282470703125 42.07054138183594 89.19415283203125 42.18188095092773 C 89.30557250976563 42.29328918457031 89.36812591552734 42.44443130493164 89.3680419921875 42.60200119018555 L 89.36803436279297 48.36281967163086 C 89.36812591552734 48.52038955688477 89.30557250976563 48.6715202331543 89.19415283203125 48.78293991088867 C 89.08281707763672 48.894287109375 88.93182373046875 48.95682144165039 88.77437591552734 48.95682144165039 C 88.77426910400391 48.95682144165039 88.77413940429688 48.95682144165039 88.77403259277344 48.95682144165039 L 82.31500244140625 48.95682144165039 C 82.31488800048828 48.95682144165039 82.31478118896484 48.95682144165039 82.31466674804688 48.95682144165039 C 82.15721893310547 48.95682144165039 82.0062255859375 48.89427947998047 81.89488220214844 48.78293991088867 C 81.78346252441406 48.6715202331543 81.72091674804688 48.52038955688477 81.72100830078125 48.36281967163086 L 81.72100830078125 42.60200119018555 C 81.72091674804688 42.44443130493164 81.78346252441406 42.29328918457031 81.89488220214844 42.18188095092773 C 82.00623321533203 42.07053375244141 82.15721130371094 42.00799942016602 82.31466674804688 42.00799942016602 Z M 88.18003845214844 47.7688102722168 L 88.18003845214844 43.19601058959961 L 82.90901184082031 43.19601058959961 L 82.90901184082031 47.7688102722168 L 88.18003845214844 47.7688102722168 Z" stroke="none" fill="#fff"/>
    </g>
  </g>
</svg>
