<svg xmlns="http://www.w3.org/2000/svg" width="78.332" height="78.332" viewBox="0 0 78.332 78.332">
  <g id="Сгруппировать_211" data-name="Сгруппировать 211" transform="translate(-615.413 -209.281)">
    <g id="Сгруппировать_205" data-name="Сгруппировать 205" transform="translate(638.26 240.287)">
      <path id="Контур_56" data-name="Контур 56" d="M636.177,233.031h-3.264c0,10.483,7.015,18.388,16.319,18.388v-3.264C640.661,248.156,636.177,240.547,636.177,233.031Z" transform="translate(-632.913 -233.031)" fill="#d2723a"/>
    </g>
    <g id="Сгруппировать_206" data-name="Сгруппировать 206" transform="translate(615.413 209.281)">
      <path id="Контур_57" data-name="Контур 57" d="M684.5,214.177h-7.071v-3.264a1.631,1.631,0,0,0-1.632-1.632h-42.43a1.631,1.631,0,0,0-1.632,1.632v3.264h-7.073c-3.682,0-9.246,0-9.246,5.985a1.6,1.6,0,0,0,.03.315l2.7,13.811a15.536,15.536,0,0,0,14.117,12.48A22.913,22.913,0,0,0,648.051,263.8v11.524l-9.558,6.52a1.6,1.6,0,0,0-.234.195,3.263,3.263,0,0,0,2.307,5.571H668.59a3.263,3.263,0,0,0,2.308-5.571,1.61,1.61,0,0,0-.235-.195l-9.556-6.52V263.8a22.915,22.915,0,0,0,15.79-17.037,15.532,15.532,0,0,0,14.114-12.48l2.7-13.811a1.7,1.7,0,0,0,.03-.315C693.745,214.177,688.18,214.177,684.5,214.177Zm-52.764,29.265a12.27,12.27,0,0,1-10.384-9.782l-2.67-13.649c.037-2.016.868-2.569,5.981-2.569h7.073v26Zm8.885,40.908,9.568-6.528h8.785l9.568,6.528Zm17.225-19.583v9.792h-6.528v-9.792Zm-3.264-3.264A19.6,19.6,0,0,1,635,241.919V212.545h39.166v29.375A19.6,19.6,0,0,1,654.579,261.5Zm33.23-27.843a12.27,12.27,0,0,1-10.383,9.782v-26H684.5c5.114,0,5.945.554,5.982,2.569Z" transform="translate(-615.413 -209.281)" fill="#d2723a"/>
    </g>
    <g id="Сгруппировать_207" data-name="Сгруппировать 207" transform="translate(679.533 219.073)">
      <path id="Контур_58" data-name="Контур 58" d="M671.864,216.853c-.892-.069-2.029-.072-2.639-.072h-3.807v3.264h3.807c.152,0,.336,0,.539,0l-2.031,10.382a7.409,7.409,0,0,1-3.206,4.744l1.785,2.733a10.684,10.684,0,0,0,4.624-6.85l2.4-12.262a1.633,1.633,0,0,0-1.473-1.941Z" transform="translate(-664.527 -216.781)" fill="#d2723a"/>
    </g>
    <g id="Сгруппировать_208" data-name="Сгруппировать 208" transform="translate(620.783 219.073)">
      <path id="Контур_59" data-name="Контур 59" d="M625.161,230.428l-2.033-10.38c.2,0,.386,0,.539,0h3.807v-3.264h-3.807c-.608,0-1.747,0-2.637.072a1.631,1.631,0,0,0-1.473,1.941l2.4,12.26a10.685,10.685,0,0,0,4.626,6.851l1.785-2.733A7.4,7.4,0,0,1,625.161,230.428Z" transform="translate(-619.527 -216.781)" fill="#d2723a"/>
    </g>
    <g id="Сгруппировать_209" data-name="Сгруппировать 209" transform="translate(638.26 225.6)">
      <rect id="Прямоугольник_22" data-name="Прямоугольник 22" width="3.264" height="11.423" fill="#d2723a"/>
    </g>
    <g id="Сгруппировать_210" data-name="Сгруппировать 210" transform="translate(638.26 219.073)">
      <rect id="Прямоугольник_23" data-name="Прямоугольник 23" width="3.264" height="3.264" fill="#d2723a"/>
    </g>
  </g>
</svg>
