<svg xmlns="http://www.w3.org/2000/svg" width="89.42" height="78.209" viewBox="0 0 89.42 78.209">
  <g id="Сгруппировать_219" data-name="Сгруппировать 219" transform="translate(-843.984 -113.258)">
    <g id="Сгруппировать_217" data-name="Сгруппировать 217" transform="translate(843.984 113.258)">
      <path id="Контур_66" data-name="Контур 66" d="M931.86,116.994a251.2,251.2,0,0,0-86.332,0,1.863,1.863,0,0,0-1.544,1.835v67.065a1.863,1.863,0,0,0,1.544,1.836,251.806,251.806,0,0,0,43.166,3.736,251.78,251.78,0,0,0,43.166-3.736,1.863,1.863,0,0,0,1.544-1.836V118.829A1.863,1.863,0,0,0,931.86,116.994Zm-2.182,67.329a247.579,247.579,0,0,1-81.969,0V120.4a247.579,247.579,0,0,1,81.969,0Z" transform="translate(-843.984 -113.258)" fill="#d2733b"/>
    </g>
    <g id="Сгруппировать_218" data-name="Сгруппировать 218" transform="translate(849.665 120.694)">
      <path id="Контур_67" data-name="Контур 67" d="M849.483,120.119a1.861,1.861,0,0,0-1.687,1.852v55.888a1.866,1.866,0,0,0,1.7,1.857c13.951,1.244,26.507,1.866,38.632,1.866a350.341,350.341,0,0,0,36.054-1.869,1.865,1.865,0,0,0,1.674-1.854V121.971a1.861,1.861,0,0,0-1.686-1.852A373.57,373.57,0,0,0,849.483,120.119ZM922.128,168.7c-5.057.464-9.976.826-14.811,1.1V130.037c4.835.273,9.754.635,14.811,1.1Zm-70.606-37.562c5.057-.463,9.976-.826,14.811-1.1V169.8c-4.835-.274-9.754-.636-14.811-1.1Zm18.537-1.3c5.018-.234,9.967-.361,14.9-.386v18.6h-14.9Zm0,21.939h14.9v18.605c-4.936-.027-9.885-.152-14.9-.387Zm18.629,0h14.9V170c-5.018.235-9.969.361-14.9.387Zm14.9-3.726h-14.9v-18.6c4.935.025,9.885.152,14.9.386ZM884.962,122v3.726c-10.869.058-21.8.616-33.44,1.674v-3.729C863.179,122.6,874.09,122.055,884.962,122Zm-33.44,50.436c11.638,1.06,22.571,1.619,33.44,1.675v3.727c-10.546-.094-21.48-.651-33.44-1.684Zm37.166,5.419v-3.744c10.869-.057,21.8-.616,33.44-1.675v3.739C910.828,177.276,899.94,177.833,888.688,177.853Zm33.44-50.455c-11.638-1.058-22.571-1.616-33.44-1.674V122c10.872.057,21.783.6,33.44,1.671Z" transform="translate(-847.796 -118.247)" fill="#d2733b"/>
    </g>
  </g>
</svg>
