<svg xmlns="http://www.w3.org/2000/svg" width="80" height="78.332" viewBox="0 0 80 78.332">
  <g id="Сгруппировать_204" data-name="Сгруппировать 204" transform="translate(-501.128 -110.122)">
    <path id="Контур_55" data-name="Контур 55" d="M572.794,131.667V111.789a1.666,1.666,0,0,0-1.667-1.667h-60a1.666,1.666,0,0,0-1.667,1.667v19.879l-8.313,54.871a1.665,1.665,0,0,0,1.647,1.916H579.46a1.667,1.667,0,0,0,1.648-1.916Zm-60-4.879h3.333v3.333h-3.333Zm46.667,3.333v-3.333h3.333v3.333Zm-40,0v-3.333h3.333v3.333Zm6.667-3.333h3.333v3.333h-3.333Zm23.333-3.333h-3.333v-3.333h3.333Zm3.333-3.333h3.333v3.333h-3.333Zm-10,3.333H539.46v-3.333h3.333Zm0,3.333v3.333H539.46v-3.333Zm-6.667-3.333h-3.333v-3.333h3.333Zm-6.667,0h-3.333v-3.333h3.333Zm3.333,3.333h3.333v3.333h-3.333Zm13.333,0h3.333v3.333h-3.333Zm6.667,0h3.333v3.333h-3.333Zm6.667-3.333v-3.333h3.333v3.333Zm0-6.667v-3.333h3.333v3.333Zm-3.333,0h-3.333v-3.333h3.333Zm-6.667,0h-3.333v-3.333h3.333Zm-6.667,0H539.46v-3.333h3.333Zm-6.667,0h-3.333v-3.333h3.333Zm-6.667,0h-3.333v-3.333h3.333Zm-6.667,0H519.46v-3.333h3.333Zm0,3.333v3.333H519.46v-3.333Zm-6.667,3.333h-3.333v-3.333h3.333Zm23.333,10v21.665H515.943l3.284-21.665Zm3.333,0h20.235l3.283,21.665H542.794Zm23.333-6.667h3.333v3.333h-3.333Zm0-3.333v-3.333h3.333v3.333Zm0-6.667v-3.333h3.333v3.333Zm-50-3.333v3.333h-3.333v-3.333Zm-3.567,20h3.3l-7.828,51.665h-3.3ZM511.4,185.121l4.041-26.667h51.377l4.04,26.667Zm62.828,0L566.4,133.455h3.3l7.827,51.665Z" transform="translate(0)" fill="#d2733b"/>
  </g>
</svg>
