<svg xmlns="http://www.w3.org/2000/svg" width="21.006" height="22.465" viewBox="0 0 21.006 22.465">
  <path id="Контур_34" data-name="Контур 34" d="M18.632,14.936c-1.3-1.109-2.612-1.78-3.892-.673l-.765.669c-.559.486-1.6,2.755-5.621-1.871S6.726,7.721,7.286,7.24l.769-.67c1.274-1.11.793-2.506-.126-3.944l-.554-.871C6.452.32,5.447-.622,4.17.486l-.69.6A6.478,6.478,0,0,0,.955,5.376c-.461,3.047.992,6.535,4.321,10.363s6.58,5.753,9.663,5.72a6.5,6.5,0,0,0,4.594-1.9l.693-.6c1.274-1.107.482-2.234-.815-3.346Z" transform="translate(-0.37 0.506)" fill="none" stroke="#fff" stroke-width="1"/>
</svg>
