<svg xmlns="http://www.w3.org/2000/svg" width="77.329" height="78.151" viewBox="0 0 77.329 78.151">
  <g id="Сгруппировать_213" data-name="Сгруппировать 213" transform="translate(-615.412 -109.177)">
    <g id="Сгруппировать_213-2" data-name="Сгруппировать 213" transform="translate(615.419 154.713)">
      <path id="Контур_62" data-name="Контур 62" d="M635.367,154.487a9.971,9.971,0,1,0-2.923,7.055A9.913,9.913,0,0,0,635.367,154.487Zm-10.944-6.661a9.725,9.725,0,0,1-5.693,5.693,6.627,6.627,0,0,1,5.693-5.693Zm-5.354,8.993a13.072,13.072,0,0,0,8.653-8.654,6.579,6.579,0,0,1,3.989,3.989,13.073,13.073,0,0,0-8.654,8.653,6.551,6.551,0,0,1-3.988-3.988Zm7.287,4.326a9.723,9.723,0,0,1,5.694-5.693,6.627,6.627,0,0,1-5.694,5.693Z" transform="translate(-615.418 -144.509)" fill="#d2733b"/>
    </g>
    <g id="Сгруппировать_214" data-name="Сгруппировать 214" transform="translate(672.791 154.718)">
      <path id="Контур_63" data-name="Контур 63" d="M662.851,147.431a9.978,9.978,0,1,0,14.111,0A9.989,9.989,0,0,0,662.851,147.431Zm13.715,6.088a9.735,9.735,0,0,1-5.693-5.693,6.628,6.628,0,0,1,5.693,5.693Zm-13.32,1.933a9.725,9.725,0,0,1,5.693,5.693,6.624,6.624,0,0,1-5.693-5.693Zm8.993,5.354a13.073,13.073,0,0,0-8.654-8.653,6.565,6.565,0,0,1,3.989-3.988,13.075,13.075,0,0,0,8.653,8.653,6.559,6.559,0,0,1-3.988,3.988Z" transform="translate(-659.933 -144.513)" fill="#d2733b"/>
    </g>
    <g id="Сгруппировать_215" data-name="Сгруппировать 215" transform="translate(619.827 113.618)">
      <path id="Контур_64" data-name="Контур 64" d="M639.745,150.09a13.389,13.389,0,0,0,7.665-2.3h0c7.23-4.964,8.056-16.37,1.84-25.427a22.653,22.653,0,0,0-11.621-8.92c-4.671-1.476-9.2-.946-12.767,1.5a14.422,14.422,0,0,0-5.988,11.374,22.647,22.647,0,0,0,4.146,14.052C627.28,146.574,633.76,150.09,639.745,150.09Zm-14.068-11.546c-.375-.546-.713-1.106-1.032-1.673l1.746-1.2,2.356,3.431-1.723,1.183A21.726,21.726,0,0,1,625.676,138.543ZM639.5,117.716a19.088,19.088,0,0,1,3.637,2.553l-1.3.894-2.356-3.432Zm-.321,5.27-2.215,1.521-2.356-3.432,2.214-1.521Zm9.526,18.626-1.559-2.272,2.215-1.521.495.722A12.05,12.05,0,0,1,648.7,141.612Zm1.387-8.418-2.255-3.286,1.248-.856A19.125,19.125,0,0,1,650.091,133.194Zm-2.554,1.968-2.215,1.521-2.356-3.432,2.215-1.52Zm-14.311,4.775,2.214-1.519,2.355,3.432-2.213,1.519Zm-.4,5.109a19.231,19.231,0,0,1-3.5-2.428l1.248-.857Zm.793-9.284-2.214,1.52-2.354-3.431,2.213-1.52Zm.3-5.254,2.214-1.521,2.356,3.432-2.214,1.521Zm4.178,6.088,2.215-1.521,2.355,3.432-2.214,1.519Zm3.048-6-2.356-3.431L641,125.643l2.356,3.432Zm-6.836-4.265-2.214,1.521-2.356-3.432,2.215-1.521Zm-4.87,3.343-2.213,1.519-2.356-3.431,2.213-1.519Zm-6.392-4.569-.616-.9a12.076,12.076,0,0,1,1.135-3.089l1.695,2.467Zm-.854,4.5.021-.014,2.356,3.431-1.3.894A19.021,19.021,0,0,1,622.19,129.6ZM637.9,146.748l-.5-.723,2.213-1.519,1.559,2.272A12.038,12.038,0,0,1,637.9,146.748Zm7.684-1.616h0a9.694,9.694,0,0,1-1.162.68l-2.148-3.129,2.214-1.521,2.15,3.13A9.823,9.823,0,0,1,645.586,145.132Zm2.151-19.063-1.723,1.182-2.356-3.431,1.746-1.2c.414.5.815,1.018,1.19,1.563A22.031,22.031,0,0,1,647.737,126.069Zm-15.192-10.22a12.827,12.827,0,0,1,1.837.149l.619.9-2.214,1.521-1.695-2.469A11.239,11.239,0,0,1,632.544,115.849Zm-5.859,1.749a9.819,9.819,0,0,1,1.168-.673l2.276,3.316-2.215,1.521-2.279-3.321A9.641,9.641,0,0,1,626.686,117.6Z" transform="translate(-618.838 -112.623)" fill="#d2733b"/>
    </g>
    <g id="Сгруппировать_216" data-name="Сгруппировать 216" transform="translate(615.412 109.177)">
      <path id="Контур_65" data-name="Контур 65" d="M676.058,174.72a2.893,2.893,0,0,0-1.87-1.215,2.858,2.858,0,0,0-1.91.313l-9.429-13.735a1.6,1.6,0,0,0-.546-.5l-1.65-.914a46.579,46.579,0,0,1,9.041-3.3l.213-.05.022,0a22.171,22.171,0,0,0,5.109-1.253l.311-.11A27.507,27.507,0,0,0,687.8,143.865a26.819,26.819,0,0,0,4.847-17.406,18.7,18.7,0,0,0-7.84-14.169c-8.318-5.724-20.173-3.375-28.188,5.578a29.285,29.285,0,0,0-2.362,3c-.066.1-.117.184-.182.281-.065-.1-.119-.2-.186-.3-7.6-11.069-21.305-14.913-30.548-8.567a18.7,18.7,0,0,0-7.841,14.173,26.864,26.864,0,0,0,4.855,17.413h0a26.861,26.861,0,0,0,14.5,10.79,22.072,22.072,0,0,0,3.508.7,48.9,48.9,0,0,1,9.134,3.311l-1.65.914a1.609,1.609,0,0,0-.548.5l-9.428,13.735a2.915,2.915,0,0,0-3.781.9l-1.474,2.148a2.915,2.915,0,0,0,.754,4.051l1.075.737h0l6.445,4.423h0l1.075.737h0a2.92,2.92,0,0,0,4.052-.754l1.473-2.148a2.884,2.884,0,0,0-.517-3.852l9.1-13.255,9.1,13.255a2.888,2.888,0,0,0-.517,3.852l1.476,2.15a2.918,2.918,0,0,0,4.049.753l2.527-1.735,4.993-3.427h0l1.075-.737a2.913,2.913,0,0,0,.754-4.052ZM646.4,154.639a17.124,17.124,0,0,0,7.692-5.038c.179.2.363.387.549.574a20.97,20.97,0,0,0,2.1,8.79c.026.049.058.093.084.14l-1.815,1.246A22.468,22.468,0,0,0,646.4,154.639Zm12.526,1.3a16.928,16.928,0,0,1-.741-2.922,17.386,17.386,0,0,0,3.551,1.611Q660.209,155.262,658.927,155.941Zm-.845-25.9,1.251.86-.849,1.237c-.112-.682-.255-1.362-.423-2.04Zm24.518,3.966,2.339-3.408a18.908,18.908,0,0,1-1.031,4.306Zm-2.657-1.824-2.214-1.519,2.356-3.431,2.214,1.519Zm-10.872,5.4-2.362,3.442-2.212-1.523,2.36-3.438Zm-.392-4.176,2.356-3.431,2.214,1.519-2.355,3.432Zm3.048,6,2.214,1.519-2.368,3.449-2.212-1.523Zm1.822-2.656,2.356-3.432,2.214,1.521-2.356,3.432Zm1.525-7.911-2.215-1.521,2.356-3.431,2.214,1.52ZM670.2,125.5l-2.21-1.518,2.353-3.431,2.212,1.517Zm-1.825,2.656-2.355,3.432-2.209-1.517,2.355-3.432Zm-4.178,6.087-2.357,3.435-2.2-1.518,2.353-3.432Zm-4.174,6.082-1.552,2.261c-.124-.229-.238-.47-.351-.714,0-.037.005-.072.01-.108a21.817,21.817,0,0,0,.465-2.419Zm2.655,1.824,2.214,1.522-2.146,3.125a8.862,8.862,0,0,1-2.215-1.518Zm4.869,3.346,2.213,1.521-.479.7a12.149,12.149,0,0,1-3.293.052Zm6.836.482,2.212-3.223,1.254.861A18.985,18.985,0,0,1,674.385,145.979Zm7.105-6.434c-.416.6-.872,1.181-1.346,1.739L678.42,140.1l2.356-3.432,1.746,1.2C682.2,138.434,681.866,138.993,681.49,139.545Zm2.632-13.446-2.214-1.519,1.677-2.442a12.079,12.079,0,0,1,1.129,3.1Zm-4.87-3.342-2.214-1.521,2.28-3.321a7.1,7.1,0,0,1,2.193,1.552Zm-4.87-3.343-2.212-1.518.61-.889a12.184,12.184,0,0,1,3.29-.053Zm-6.7-.674-2.347,3.42-1.3-.894A18.858,18.858,0,0,1,667.682,118.74Zm-5.918,4.878,1.748,1.2-2.356,3.431-1.723-1.183a22.089,22.089,0,0,1,1.147-1.892C660.952,124.628,661.35,124.114,661.763,123.618Zm-4.847-.932a26.2,26.2,0,0,1,2.1-2.663c6.815-7.61,17.12-9.8,23.97-5.078a15.539,15.539,0,0,1,6.456,11.8,23.594,23.594,0,0,1-4.294,15.3,24.321,24.321,0,0,1-10.733,8.822l-.173.063c-1.632.37-3.25.772-4.943,1.226l-.084.019a14.749,14.749,0,0,1-10.138-2.4,12.372,12.372,0,0,1-1.277-1.021q-.019-.8,0-1.683a12.776,12.776,0,0,0,1.955,1.7,13.46,13.46,0,0,0,7.706,2.311,16.212,16.212,0,0,0,3.067-.3,17.719,17.719,0,0,0,4.138-1.335,22.314,22.314,0,0,0,6.9-4.912,24.835,24.835,0,0,0,2.588-3.174,25.905,25.905,0,0,0,1.926-3.32,22.277,22.277,0,0,0,2.182-8.112,17.011,17.011,0,0,0-.21-4.655,13.475,13.475,0,0,0-16.5-11.343,18.261,18.261,0,0,0-4.421,1.459,22.255,22.255,0,0,0-6.782,4.968,23.342,23.342,0,0,0-2.423,2.991,25.332,25.332,0,0,0-1.378,2.293q-.3-.682-.639-1.355C656.2,123.783,656.528,123.257,656.916,122.686Zm-33.9,19.36h0a23.635,23.635,0,0,1-4.3-15.308,15.537,15.537,0,0,1,6.454-11.8,14.569,14.569,0,0,1,8.335-2.509c6.378,0,13.241,3.7,17.734,10.242a24.05,24.05,0,0,1,4.374,13.465h0c0,.617-.019,1.232-.073,1.843a15.537,15.537,0,0,1-6.454,11.8,14.854,14.854,0,0,1-10.109,2.4c-1.62-.439-3.32-.857-5.1-1.264A24.08,24.08,0,0,1,623.015,142.046Zm18.524,41.941-.821-.563h0l-3.847-2.639-3.418-2.347,1.125-1.639,8.086,5.55Zm10-19.167-9.2,13.4-3.788-2.6,9.194-13.4,1.346-.745,2.655,1.822Zm4.873-1.523,2.655-1.822,1.344.745,9.2,13.4-3.788,2.6-9.2-13.4ZM673.881,179l-6.445,4.423h0l-.821.563-1.125-1.641,8.085-5.55,1.126,1.639-.821.563Z" transform="translate(-615.412 -109.177)" fill="#d2733b"/>
    </g>
  </g>
</svg>
