<svg xmlns="http://www.w3.org/2000/svg" width="89.108" height="78.129" viewBox="0 0 89.108 78.129">
  <path id="Контур_60" data-name="Контур 60" d="M237.9,367.151H215.543V392.34h0c.386,7.127,2.124,13.138,5.371,17.914a28.006,28.006,0,0,0,13.586,10.3,28.041,28.041,0,0,0,13.593-10.3c3.243-4.776,4.985-10.787,5.371-17.914h0V367.151Zm-.9,5.646h10.832v19.026h0c-.262,5.344-1.456,9.868-3.694,13.473a19.51,19.51,0,0,1-9.4,7.788,19.513,19.513,0,0,1-9.41-7.788c-2.238-3.6-3.433-8.129-3.694-13.473h0V372.8h15.366Zm-16.743-2.758H250.6v21.784l-.007.065c-.279,5.843-1.608,10.832-4.108,14.86a22.356,22.356,0,0,1-11.245,9.1h-1a22.324,22.324,0,0,1-11.238-9.1c-2.5-4.028-3.832-9.017-4.111-14.86l0-.065V370.04Zm-9.582-8.4-12.3-10.274a10.125,10.125,0,0,0,2.159,7.475c2.3,2.655,6.766,4.889,9.485,6.084v-3.285Zm-.654,5.275c-2.717-1.146-8.129-3.7-10.87-6.876-3.9-4.517-2.327-10.615-2.324-10.635l.348-1.432,1.133.947,15.228,12.722h41.836l15.232-12.722,1.129-.947.348,1.432c0,.021,1.58,6.118-2.321,10.635-2.717,3.14-8.046,5.678-10.79,6.841v1.164l18.64-5.257,1.336-.379-.179,1.377c0,.021-.847,6.27-6.184,8.793-3.65,1.728-10.2,2.086-13.614,2.152v1.787l18.582,1.054,1.456.079-.7,1.274c-.007.017-3.03,5.557-8.969,6.187a27.319,27.319,0,0,1-10.367-1.391v1.1l15.752,5.1,1.37.444-.985,1.054c-.01.014-4.035,4.28-9.506,3.446a21.972,21.972,0,0,1-6.642-2.352c-.43,8.17-2.479,15.156-6.328,20.82-3.9,5.736-9.575,10.04-17.208,12.763h-1.852c-7.633-2.723-13.311-7.027-17.208-12.763-3.86-5.671-5.9-12.667-6.332-20.851v-.01a22.127,22.127,0,0,1-6.721,2.393c-5.474.833-9.5-3.433-9.513-3.446l-.985-1.054,1.37-.444,15.838-5.13v-1.1a27.483,27.483,0,0,1-10.45,1.415c-5.939-.63-8.959-6.17-8.969-6.187l-.7-1.274,1.46-.079,18.661-1.057v-1.783c-3.384-.059-10.016-.41-13.7-2.152-5.333-2.524-6.18-8.773-6.18-8.793l-.183-1.377,1.336.379,18.723,5.282V366.91Zm48.949-2.028c2.727-1.2,7.13-3.416,9.4-6.046a10.125,10.125,0,0,0,2.159-7.475l-12.3,10.274h.737v3.247Zm0,25.55a21.286,21.286,0,0,0,6.9,2.613,9.193,9.193,0,0,0,6.734-1.883l-13.638-4.417v3.687Zm0-8.642c2.031.682,6.339,1.9,10.174,1.494a10.1,10.1,0,0,0,6.683-3.984l-16.857-.95v3.44Zm0-8.9c3.274-.059,9.475-.389,12.829-1.976a9.584,9.584,0,0,0,4.81-5.949l-17.639,4.975v2.951Zm-48.949,13.824-13.717,4.445a9.183,9.183,0,0,0,6.734,1.883,21.458,21.458,0,0,0,6.982-2.658v-3.67Zm0-8.37-16.94.954a10.1,10.1,0,0,0,6.683,3.984c3.891.413,8.267-.847,10.257-1.522v-3.416Zm0-8.38-17.721-5a9.608,9.608,0,0,0,4.81,5.949c3.381,1.6,9.661,1.921,12.911,1.98Z" transform="translate(-189.906 -347.967)" fill="#d1733b" fill-rule="evenodd"/>
</svg>
