<?xml version="1.0" standalone="no"?>
<!DOCTYPE svg PUBLIC "-//W3C//DTD SVG 20010904//EN"
 "http://www.w3.org/TR/2001/REC-SVG-20010904/DTD/svg10.dtd">
<svg version="1.0" xmlns="http://www.w3.org/2000/svg"
 width="700.000000pt" height="700.000000pt" viewBox="0 0 700.000000 700.000000"
 preserveAspectRatio="xMidYMid meet">
<metadata>
Created by potrace 1.11, written by Peter Selinger 2001-2013
</metadata>
<g transform="translate(0.000000,700.000000) scale(0.100000,-0.100000)"
fill="#000000" stroke="none">
<path d="M1019 6996 c-2 -2 -22 -6 -44 -9 -145 -20 -325 -86 -433 -158 -24
-16 -46 -29 -49 -29 -8 0 -117 -94 -168 -145 -122 -123 -213 -277 -269 -452
-59 -184 -55 27 -56 -3221 l0 -2982 2987 0 c2901 1 2991 1 3079 20 430 90 746
370 880 780 56 169 53 2 54 3223 l0 2977 -2988 0 c-1644 0 -2991 -2 -2993 -4z
m748 -321 c-3 -16 -15 -68 -27 -115 -12 -47 -23 -92 -25 -100 -10 -46 -147
-611 -155 -640 -16 -56 -140 -577 -140 -589 0 -8 493 -12 1764 -13 l1765 -3
-94 -145 c-128 -198 -403 -635 -455 -725 -10 -16 -47 -79 -83 -140 -117 -196
-357 -620 -357 -629 0 -2 -16 -33 -36 -68 -44 -77 -241 -468 -319 -633 -221
-467 -445 -1011 -670 -1625 -53 -146 -100 -274 -105 -285 -5 -11 -41 -112 -80
-225 -39 -113 -90 -259 -114 -325 l-43 -120 -1149 0 -1149 0 0 2810 c0 1546 4
2835 8 2865 13 101 30 156 78 257 119 250 362 427 640 467 44 6 223 11 414 11
l336 0 -4 -30z m4928 23 c7 -4 10 -229 9 -645 l0 -638 -170 -280 c-731 -1201
-1291 -2233 -1719 -3170 -157 -343 -307 -707 -415 -1005 -23 -63 -50 -137 -60
-165 -21 -56 -71 -210 -124 -385 l-36 -115 -635 -1 c-572 0 -635 1 -629 15 3
9 16 45 29 81 71 198 250 681 265 715 6 11 25 61 44 110 42 112 193 493 206
520 5 11 36 86 70 167 100 245 252 586 405 913 208 447 599 1177 816 1528 27
43 49 81 49 83 0 3 8 17 19 32 10 15 72 113 137 217 122 196 424 651 507 764
25 35 45 67 43 70 -3 3 -334 5 -738 4 -1786 -4 -2970 -4 -2974 0 -3 2 7 48 21
102 14 53 27 107 29 119 4 20 31 133 126 526 22 91 54 224 71 295 17 72 34
135 39 140 9 11 4598 14 4615 3z m9 -3735 c-1 -1050 -4 -1924 -8 -1943 -50
-266 -189 -474 -401 -602 -89 -53 -194 -93 -300 -114 -55 -10 -1505 -12 -1505
-1 0 15 176 514 243 692 268 703 588 1397 994 2155 148 275 185 342 210 382
12 21 23 40 23 43 0 2 50 94 111 202 62 109 126 223 142 253 17 30 59 104 94
164 35 60 63 110 63 112 0 3 20 38 45 78 25 41 45 77 45 80 0 4 11 25 26 47
14 22 34 57 46 77 77 139 162 282 167 282 3 0 5 -858 5 -1907z"/>
<path d="M1070 6459 c-343 -297 -416 -543 -246 -834 68 -117 261 -297 441
-411 29 -19 29 -19 21 1 -27 67 -54 147 -60 176 -3 19 -9 45 -12 59 -11 53
-14 184 -5 238 15 84 15 85 72 242 49 135 53 151 53 240 1 88 -2 100 -32 165
-36 76 -120 194 -138 195 -7 0 -49 -32 -94 -71z"/>
<path d="M653 5245 c-53 -16 -79 -35 -110 -80 -43 -64 -35 -162 19 -225 46
-53 149 -75 209 -45 76 39 109 88 111 169 4 119 -116 214 -229 181z"/>
<path d="M1944 5051 c-105 -57 -183 -123 -233 -196 -71 -102 -74 -231 -10
-357 24 -47 121 -151 176 -189 84 -58 193 -103 298 -124 56 -11 200 -5 260 10
33 9 85 28 115 43 53 26 54 27 25 30 -63 7 -164 43 -221 80 -208 135 -368 436
-350 660 3 39 2 72 -2 72 -4 0 -30 -13 -58 -29z"/>
<path d="M3324 5044 c-70 -42 -106 -75 -143 -129 -64 -94 -80 -199 -42 -277
73 -150 288 -121 526 71 39 32 39 32 10 24 -17 -4 -62 -8 -101 -8 -61 0 -77 4
-113 28 -77 51 -99 153 -63 290 13 47 4 48 -74 1z"/>
<path d="M2780 5063 c-8 -3 -48 -21 -87 -40 -90 -43 -160 -105 -198 -175 -64
-117 -27 -269 93 -379 59 -54 170 -113 239 -126 76 -15 205 -8 273 16 36 12
76 28 90 36 l25 13 -30 12 c-341 129 -410 198 -400 402 4 81 7 103 25 183 16
67 12 73 -30 58z"/>
<path d="M1235 5015 c-142 -97 -224 -171 -307 -274 -72 -90 -113 -170 -138
-266 -98 -382 300 -736 810 -720 197 5 366 67 514 186 42 33 76 62 76 64 0 2
-42 1 -92 -2 -115 -6 -213 13 -317 62 -211 101 -404 310 -486 530 -37 97 -52
179 -48 264 2 69 23 148 46 179 16 21 -6 12 -58 -23z"/>
<path d="M4023 4971 c-100 -25 -160 -134 -132 -237 10 -35 61 -95 98 -114 13
-6 49 -12 81 -12 48 -1 64 4 102 30 50 34 79 85 82 141 3 39 -19 105 -43 134
-41 48 -123 73 -188 58z"/>
<path d="M3716 4531 c-232 -164 -286 -365 -126 -466 106 -67 276 -63 418 9 48
24 152 97 152 106 0 3 -28 3 -62 0 -142 -12 -247 31 -289 117 -26 52 -32 156
-16 241 5 23 5 42 0 42 -4 -1 -39 -23 -77 -49z"/>
<path d="M3135 4241 c-144 -71 -225 -163 -230 -264 -8 -139 112 -270 311 -340
79 -27 102 -31 204 -31 122 -1 146 2 225 29 94 32 202 105 260 173 24 28 25
32 8 33 -10 0 -25 2 -33 3 -8 2 -55 6 -105 10 -49 4 -99 9 -110 11 -11 2 -41
7 -66 10 -57 6 -143 32 -189 55 -106 55 -170 177 -174 333 0 24 -11 22 -101
-22z"/>
<path d="M571 3923 c-54 -169 -69 -315 -47 -460 27 -183 155 -356 326 -440
109 -53 207 -75 327 -72 280 5 518 133 698 374 39 52 135 222 135 239 0 4 -18
-5 -40 -19 -100 -63 -272 -135 -360 -150 -111 -20 -142 -23 -209 -19 -262 13
-485 163 -678 454 -27 41 -60 97 -73 123 -40 80 -44 78 -79 -30z"/>
<path d="M2558 3939 c-73 -105 -106 -189 -115 -294 -17 -218 112 -424 337
-536 112 -55 222 -79 345 -74 204 9 371 97 508 267 25 32 51 67 57 79 11 20
10 21 -32 14 -79 -14 -92 -15 -203 -15 -240 -1 -483 89 -650 242 -92 83 -166
209 -189 319 l-12 63 -46 -65z"/>
<path d="M2182 3513 c0 -10 -3 -40 -7 -68 -9 -70 -10 -219 -1 -290 56 -430
388 -713 777 -660 65 9 162 44 215 78 101 64 201 183 253 301 l21 48 -28 -6
c-15 -3 -58 -13 -97 -21 -38 -9 -89 -18 -111 -21 -23 -2 -53 -7 -65 -9 -33 -7
-215 -6 -264 0 -200 27 -362 124 -486 292 -47 62 -128 214 -164 306 -26 65
-44 86 -43 50z"/>
<path d="M508 3003 c-7 -25 -2 -227 6 -273 26 -144 86 -281 158 -364 93 -107
232 -169 373 -165 286 7 556 220 716 566 23 49 45 96 51 106 17 34 2 28 -68
-27 -172 -133 -371 -207 -553 -206 -106 0 -128 4 -216 30 -158 48 -318 165
-436 319 -23 29 -27 31 -31 14z"/>
<path d="M1961 2838 c-6 -18 -13 -48 -16 -67 -3 -19 -9 -39 -12 -44 -14 -22
-11 -255 3 -323 92 -414 537 -608 939 -410 134 66 263 193 330 325 l17 34 -29
-8 c-359 -91 -732 -16 -988 201 -79 67 -144 150 -194 249 l-39 76 -11 -33z"/>
<path d="M508 2218 c-9 -47 1 -226 16 -298 21 -99 83 -223 140 -281 212 -213
549 -140 782 170 62 83 145 236 160 295 l7 30 -24 -23 c-64 -61 -174 -123
-270 -152 -99 -30 -235 -30 -342 -1 -134 38 -307 138 -416 241 -24 22 -45 41
-46 41 -1 0 -5 -10 -7 -22z"/>
<path d="M1829 2110 c-7 -97 -6 -224 2 -275 51 -333 297 -530 599 -480 154 26
319 138 420 285 39 57 90 153 90 168 0 5 -30 -1 -67 -15 -130 -47 -230 -66
-363 -67 -167 -1 -241 14 -360 75 -109 55 -226 171 -297 295 -21 36 -22 37
-24 14z"/>
<path d="M1494 1561 c-143 -138 -265 -202 -498 -260 -84 -22 -180 -52 -212
-67 -79 -37 -161 -123 -212 -221 -42 -82 -88 -200 -80 -208 8 -8 233 -76 297
-90 194 -41 350 30 486 220 77 108 157 276 220 460 35 103 76 235 72 235 -1 0
-34 -31 -73 -69z"/>
<path d="M1696 1595 c-3 -16 -8 -41 -11 -55 -3 -14 -7 -36 -10 -50 -10 -53
-16 -118 -16 -200 -3 -351 190 -598 476 -609 201 -8 424 119 548 311 23 37 23
38 -20 33 -61 -7 -238 -7 -280 0 -243 39 -394 123 -519 288 -39 52 -105 176
-151 287 l-10 25 -7 -30z"/>
<path d="M1420 818 c-128 -64 -140 -243 -21 -321 130 -86 298 15 285 173 -4
53 -44 115 -92 143 -46 27 -122 29 -172 5z"/>
<path d="M6450 3886 c-118 -80 -201 -151 -263 -229 -65 -80 -87 -127 -141
-297 -54 -172 -84 -226 -174 -322 l-67 -71 80 43 c44 23 92 51 107 61 14 11
29 19 32 19 11 0 151 93 227 151 150 114 257 256 289 384 13 55 24 325 12 325
-4 0 -50 -29 -102 -64z"/>
<path d="M6063 3004 c-194 -51 -393 -267 -598 -649 l-38 -70 49 46 c73 68 121
103 199 143 98 50 168 65 330 70 187 6 227 19 309 102 53 53 88 102 139 195
l36 67 -107 45 c-59 25 -116 48 -128 51 -44 13 -142 13 -191 0z"/>
<path d="M5915 2414 c-115 -27 -163 -43 -237 -81 -96 -49 -204 -141 -270 -231
-46 -62 -110 -193 -133 -272 l-15 -54 37 35 c135 126 360 208 582 211 300 4
489 -127 536 -372 l12 -65 26 85 c37 118 42 150 42 270 0 129 -6 156 -44 234
-76 154 -215 235 -411 242 -58 1 -114 1 -125 -2z"/>
<path d="M5688 1805 c-2 -2 -21 -5 -43 -8 -171 -24 -370 -151 -477 -305 -30
-44 -89 -165 -103 -212 l-7 -25 19 22 c43 49 166 110 258 128 82 17 260 13
345 -8 249 -61 444 -216 560 -447 l33 -65 34 74 c51 108 77 220 77 326 0 50
-3 105 -7 123 -55 245 -296 407 -598 401 -49 -1 -90 -3 -91 -4z"/>
<path d="M5286 1215 c-53 -15 -134 -55 -176 -87 -37 -28 -120 -109 -120 -117
0 -3 35 -6 78 -5 140 2 264 -36 350 -106 21 -16 75 -80 122 -142 112 -148 150
-173 264 -171 87 1 182 27 304 84 72 33 71 30 18 112 -111 175 -331 351 -523
418 -76 27 -247 35 -317 14z"/>
<path d="M5062 817 c-191 -89 -114 -369 97 -352 82 7 157 84 162 166 3 60 -1
75 -31 121 -51 77 -146 104 -228 65z"/>
</g>
</svg>
